<svg xmlns="http://www.w3.org/2000/svg" xmlns:xlink="http://www.w3.org/1999/xlink" viewBox="0 0 200 200"><defs><style>.cls-1{opacity:0.84;}.cls-2{fill:#939598;}.cls-3{fill:#e6e7e8;}.cls-4{fill:#58595b;}.cls-5{fill:#6d6e71;}.cls-6{fill:#a7a9ac;}.cls-7{fill:#6acce2;}.cls-8{fill:#414042;}.cls-9{opacity:0.59;}.cls-10{fill:url(#radial-gradient);}.cls-11{fill:url(#radial-gradient-2);}</style><radialGradient id="radial-gradient" cx="101.49" cy="101.82" r="89.7" gradientUnits="userSpaceOnUse"><stop offset="0" stop-color="#fff" stop-opacity="0.2"/><stop offset="1"/></radialGradient><radialGradient id="radial-gradient-2" cx="101.49" cy="101.82" r="92.94" gradientUnits="userSpaceOnUse"><stop offset="0" stop-color="#fff"/><stop offset="1"/></radialGradient></defs><g id="Basement"><polygon class="cls-2" points="184.53 50.45 101.49 2.5 18.44 50.45 18.44 146.34 101.49 194.29 184.53 146.34 184.53 50.45"/><path class="cls-3" d="M101.49,197.75l-86-49.68V48.71L101.49-1l86.05,49.68v99.36Zm-80-53.14,80.05,46.21,80.05-46.21V52.18L101.49,6l-80,46.22Z"/><polygon class="cls-4" points="184.53 146.34 101.49 110.98 18.44 146.34 101.49 194.29 184.53 146.34"/><polygon class="cls-5" points="101.49 110.98 101.49 2.5 18.44 50.45 18.44 146.34 101.49 110.98"/><path class="cls-6" d="M113.88,105.59a1.81,1.81,0,0,0-1.52-1.31,3.48,3.48,0,0,0-.91,0,4.19,4.19,0,0,0-1.89.59,2.3,2.3,0,0,0-.48,3.57,2.24,2.24,0,0,0,1.72.77,4,4,0,0,0,1.6-.33c.25-.1.8-.31.78-.65l-.13-4.34c0-.17-.44-.2-.51-.2a3.43,3.43,0,0,0-1.06.14,3.19,3.19,0,0,0-1,.41c-.15.1-.35.22-.34.43l.14,4.33,2.38-1h-.09c-.12,0,.11,0,.12,0l-.17,0-.08,0c-.11,0,.06,0,.06,0l-.17-.09a2.12,2.12,0,0,1-.53-.46l.09.11a2.5,2.5,0,0,1-.5-1.87l0,.14a2,2,0,0,1,.22-.64l.09-.14c.06-.1-.12.11,0,0l.13-.12c.11-.1-.23.16,0,0l-1.37.49c.21-.05-.33,0-.39,0h.09c.08,0,0,0-.11,0l.17,0c.17,0-.11-.07,0,0a1.61,1.61,0,0,1,.54.43l-.08-.11a1.54,1.54,0,0,1,.27.58c0,.17.4.2.51.2a4.11,4.11,0,0,0,2.05-.55c.13-.09.38-.24.34-.43Z"/><path class="cls-6" d="M113.1,104.66c-.92-2.57-3.9-3.56-6.37-2.87a2,2,0,0,0-1.06.63c-.15.2-.32.56-.07.77a24.83,24.83,0,0,0,9.17,4.93,2.28,2.28,0,0,0,1.92-.44c.34-.29.68-.88.1-1.15a16,16,0,0,0-9.14-1.28,2.2,2.2,0,0,0-1.44.7.58.58,0,0,0,.13.93,15.52,15.52,0,0,0,7,1.65l-.91-.73,0,.2c0,.08.08-.09,0,0,0,0,.29-.24.18-.17s.33-.14.36-.15c-.2.06.1,0,.15,0,.21,0,.26,0,.16,0s-.06,0,0,0,.11,0,0,0l.12,0-.07,0c.08.06.1.07,0,0s-.08-.06-.09-.24c0,.12,0-.07,0-.09s0,.08,0-.07c-.11.19,0-.06,0,0s0,0,0,0a.63.63,0,0,1-.2.13,1.63,1.63,0,0,1-.69.13c-.08,0-.34-.11-.16,0l2.28-1.49-3.79-2.23a2.09,2.09,0,0,0-1.73.06c-.36.18-1,.57-.86,1.07.8,2.55,3.62,3.49,6,3,.34-.08,1.78-.82,1.12-1.4l-3.26-2.87a1.86,1.86,0,0,0-1.93-.09c-.33.16-1.28.81-.75,1.27l3.26,2.87,1.12-1.4c.34-.08.07,0,0,0s-.24,0,0,0l-.36,0c.14,0,.08,0,0,0a2.64,2.64,0,0,1-1-.4,3,3,0,0,1-1.29-1.68l-2.59,1.14,3.79,2.23a2.15,2.15,0,0,0,2.06-.24c.46-.3.8-.88.22-1.25a3.16,3.16,0,0,0-3.46.53,1.65,1.65,0,0,0-.5,2.23,2.58,2.58,0,0,0,2.68.53c.84-.22,2-.86,2-1.85,0-.5-.47-.74-.91-.74a12.73,12.73,0,0,1-5.76-1.35L107.3,107a12.54,12.54,0,0,1,7.2,1l2-1.59a22.63,22.63,0,0,1-8.24-4.42l-1.12,1.4c.1,0,.41,0,.06,0l.29,0c.15,0-.22,0,0,0,0,0,.39,0,.13,0a2.67,2.67,0,0,1,1,.36,3.22,3.22,0,0,1,1.47,1.71c.22.62,1.16.57,1.67.42s1.45-.57,1.23-1.19Z"/><path class="cls-6" d="M108.59,95.62a24.18,24.18,0,0,0,7.9,1.9,3.15,3.15,0,0,0,1.78-.37c.22-.13.86-.6.47-.89a12,12,0,0,0-6.83-2.46,2.56,2.56,0,0,0-1.83.66c-.37.4-.16.69.34.8a7.24,7.24,0,0,1,3.83,2.36l2.25-1.27-3.15-.8c-.51-.13-2.88.41-2.26,1.26a6.11,6.11,0,0,0,3.72,2.31,2.66,2.66,0,0,0,1.91-.46c.33-.22.71-.67.16-.91l-7.6-3.31a2.52,2.52,0,0,0-1.88.23c-.29.15-1,.57-.64,1a11.36,11.36,0,0,0,8.51,3.44,2.92,2.92,0,0,0,1.73-.57c.26-.21.5-.68,0-.83l-5.16-1.55a2.78,2.78,0,0,0-2,.31c-.34.19-.92.75-.28,1l5.77,2.26a2.52,2.52,0,0,0,1.88-.23c.31-.15,1-.55.64-1l-1.46-1.68c-.58-.68-3.35.33-2.7,1.08l1.46,1.69,2.51-1.2-5.77-2.26-2.33,1.31L114.69,99l1.75-1.39a9.5,9.5,0,0,1-7-3L107,95.75l7.6,3.31,2.07-1.38a4.85,4.85,0,0,1-2.82-2L111.54,97l3.15.81c.47.11,3-.47,2.26-1.27a8.63,8.63,0,0,0-4.73-2.71l-1.48,1.46a9.71,9.71,0,0,1,5.3,2.06l2.26-1.26a22.34,22.34,0,0,1-7.37-1.77,2.6,2.6,0,0,0-2.05.31c-.35.2-.91.74-.29,1Z"/><path class="cls-6" d="M119.14,113.87l11.7,3.14a2.55,2.55,0,0,0,1.91-.46c.29-.21.74-.76.14-1l-8.27-2.78a2.47,2.47,0,0,0-1.88.21c-.33.17-1,.58-.63,1a6.44,6.44,0,0,0,5.74,2,2.48,2.48,0,0,0,1.46-.65c.22-.24.33-.63-.09-.77a7.81,7.81,0,0,1-3.31-2.2l-1.17,1.22a3,3,0,0,1,1.78.41,2.36,2.36,0,0,0,1.89-.21c.24-.12,1.09-.66.62-1A12.85,12.85,0,0,0,124,110.5a2.59,2.59,0,0,0-1.91.45c-.29.22-.74.77-.15,1l4.52,1.5a2.59,2.59,0,0,0,1.89-.21c.33-.17,1-.58.62-1a12,12,0,0,0-4.1-3.19l-2.32,1.35,5.12,2L130,111l-4.4-1.4a2.62,2.62,0,0,0-2,.29c-.31.19-1,.84-.28,1.06l4.4,1.39a2.56,2.56,0,0,0,2-.29c.34-.2.92-.8.27-1l-5.12-2a2.59,2.59,0,0,0-2,.29c-.38.23-.89.77-.27,1.06a11,11,0,0,1,3.73,3l2.5-1.23-4.52-1.5-2,1.42a10.83,10.83,0,0,1,4.15,1.94l2.51-1.22a6.41,6.41,0,0,0-4.46-.41c-.34.08-1.69.64-1.17,1.22A8.73,8.73,0,0,0,126.9,116l1.37-1.42a4.16,4.16,0,0,1-3.46-1.61l-2.51,1.23,8.27,2.78,2.06-1.43-11.7-3.14a2.55,2.55,0,0,0-2,.55c-.49.42-.31.8.25,1Z"/><path class="cls-6" d="M137.16,119l17,1.91a3.21,3.21,0,0,0,1.91-.47c.25-.16.79-.59.2-.74a109.08,109.08,0,0,0-12.41-2.51,3.36,3.36,0,0,0-1.78.39c-.12.07-.92.56-.51.74a50.48,50.48,0,0,0,11.25,3.58,3.23,3.23,0,0,0,1.86-.29c.2-.08,1.08-.5.69-.81a20.08,20.08,0,0,0-8-3.83,3.15,3.15,0,0,0-1.86.28c-.17.08-1.1.53-.68.81a31,31,0,0,0,8.83,4l2.37-1.18-8.69-2.1a3.11,3.11,0,0,0-1.87.28c-.18.08-1.09.52-.68.81a13.49,13.49,0,0,0,7.16,2.48,3.65,3.65,0,0,0,1.78-.39c.16-.08.89-.51.51-.74a23.09,23.09,0,0,0-11.67-3.51,3.61,3.61,0,0,0-1.91.47c-.3.2-.73.53-.2.74a64.18,64.18,0,0,0,17.61,4.5,3.44,3.44,0,0,0,1.78-.39c.15-.08.89-.52.51-.74a28.67,28.67,0,0,0-17.31-3.92,3.43,3.43,0,0,0-1.73.55c-.26.19-.52.51-.07.66l5.06,1.62a3,3,0,0,0,2-.35c.29-.15,1-.62.34-.82l-5.06-1.62-1.8,1.21a26.3,26.3,0,0,1,15.82,3.68l2.29-1.13a62.7,62.7,0,0,1-17.11-4.42L140.75,119a21.38,21.38,0,0,1,10.81,3.27l2.29-1.13a11.93,11.93,0,0,1-6.3-2.24L145,120l8.69,2.11a3.2,3.2,0,0,0,2-.36c.27-.14,1-.64.34-.82a29.47,29.47,0,0,1-8.48-3.87l-2.54,1.09a19.16,19.16,0,0,1,7.62,3.68l2.55-1.1a48.56,48.56,0,0,1-10.9-3.41L142,118.4a103,103,0,0,1,11.91,2.43l2.11-1.21-17-1.91a3.11,3.11,0,0,0-2.05.55c-.45.33-.39.63.19.7Z"/><path class="cls-6" d="M170.2,133l2.46.92,2.56-1-7.83-1.82a3.5,3.5,0,0,0-1.86.31c-.17.07-1.07.46-.7.73a13.27,13.27,0,0,0,6.26,2.44,3.93,3.93,0,0,0,1.85-.31c.17-.07,1.07-.46.71-.73a15.89,15.89,0,0,0-7-2.89,3.73,3.73,0,0,0-1.86.32c-.16.06-1.08.46-.7.72a18.07,18.07,0,0,0,9,3.07,3.9,3.9,0,0,0,1.77-.41c.19-.08.83-.39.54-.65a17.52,17.52,0,0,0-7.06-3.89,3.36,3.36,0,0,0-2,.38c-.26.12-1,.55-.36.72a16.7,16.7,0,0,1,6.72,3.76l2.31-1.06a16.57,16.57,0,0,1-8.17-2.89l-2.56,1a14.93,14.93,0,0,1,6.63,2.77l2.56-1a12.37,12.37,0,0,1-5.91-2.32l-2.56,1,7.83,1.82a3.53,3.53,0,0,0,1.86-.31c.1-.05,1.12-.57.7-.73l-2.45-.91a2.78,2.78,0,0,0-1.86.18,2.45,2.45,0,0,0-.82.42c-.08.08-.25.3-.06.37Z"/><path class="cls-6" d="M159.51,114.5A22.16,22.16,0,0,1,170,118.42l2.25-1.29A27.55,27.55,0,0,1,162,113.28c-.6-.38-3.25.54-2.51,1.21a23.77,23.77,0,0,0,12.46,5.88,2.72,2.72,0,0,0,1.92-.46c.3-.21.73-.73.14-.94l-9.67-3.57a2.57,2.57,0,0,0-2.05.3c-.34.2-.92.79-.27,1l10.73,4.13a2.56,2.56,0,0,0,2-.29c.37-.22.9-.76.28-1l-9-4.07-2.32,1.34,2,.89a20.44,20.44,0,0,0,2.17.92,3,3,0,0,0,2.23-.36c.32-.18.79-.56.83-1a.35.35,0,0,0-.1-.35h0a2.37,2.37,0,0,0-2.5.36,1.38,1.38,0,0,0-.29.3c-.42.53.36.75.76.75a2.55,2.55,0,0,0,1.92-.76l-.1.09-2.49.36h0l-.09-.35s0,.14,0,.08c.05-1.92,2.54-.14,1.57-.73-.37-.21-.82-.35-1.2-.52L166,115.46a2.54,2.54,0,0,0-2,.3c-.37.22-.9.76-.28,1l9,4.06,2.33-1.33L164.3,115.4,162,116.73l9.67,3.57,2.06-1.41a22.11,22.11,0,0,1-11.56-5.49l-2.51,1.21a29,29,0,0,0,10.83,4,2.87,2.87,0,0,0,1.79-.37c.21-.12.87-.63.46-.92a24,24,0,0,0-11.4-4.29,2.77,2.77,0,0,0-2,.55c-.43.35-.38.86.24.92Z"/><path class="cls-6" d="M135.3,111.5l6.18,1.56a2.82,2.82,0,0,0,1.87-.25c.19-.09,1.12-.63.65-.92a11.08,11.08,0,0,0-6.34-1.68,3,3,0,0,0-1.73.56c-.25.2-.52.65,0,.78l13.34,3.53a2.91,2.91,0,0,0,2-.32c.32-.18.94-.72.3-1a86.92,86.92,0,0,1-12.5-5.7l-2.34,1.27L148.66,113a2.77,2.77,0,0,0,2-.32c.34-.19.92-.7.3-1l-10.95-4.44a2.64,2.64,0,0,0-2,.32c-.35.19-.93.7-.31,1L148.66,113l2.34-1.27-11.93-3.62a2.82,2.82,0,0,0-2,.32c-.4.22-.86.64-.3.95a86.92,86.92,0,0,0,12.5,5.7l2.34-1.27-13.33-3.53-1.77,1.35a8.54,8.54,0,0,1,4.82,1.32l2.53-1.16-6.18-1.56a2.87,2.87,0,0,0-2,.32c-.27.15-1,.78-.3,1Z"/><path class="cls-6" d="M124.35,106.62l5.59.8a3.11,3.11,0,0,0,1.91-.46c.33-.2.72-.59.19-.81-1.7-.72-3.4-1.43-5-2.3a2,2,0,0,0-.72-.28,3.25,3.25,0,0,0-1.51.25c-.48.18-1,.47-1,1a.59.59,0,0,0,.24.5,1.64,1.64,0,0,0,1.19.12,3.19,3.19,0,0,0,1.47-.57c.12-.11.37-.3.32-.51s-.37-.26-.53-.27a3.23,3.23,0,0,0-1.07.11,2.71,2.71,0,0,0-1,.44l-.06,0,.6-.32,0,0,.77-.21h0l.68,0c.35.17.46.2.34.1.06.1.07.11,0,0a1.21,1.21,0,0,0,0-.14c0-.1,0-.14,0,0,.08-.17-.21.19-.22.2l-.6.31h0l-1.14.25a.83.83,0,0,1-.52-.07l.18.1.33.17.8.41c.44.21.89.43,1.34.63.93.43,1.88.82,2.82,1.22l2.1-1.27-5.59-.8a2.72,2.72,0,0,0-1.06.11,3,3,0,0,0-1,.44c-.14.11-.37.28-.32.5s.37.25.53.27Z"/><path class="cls-6" d="M111.91,88.18l6.63.94.6-2.2a30,30,0,0,1-10-1.4l-1.66,2,12.22,3.39a1.94,1.94,0,0,0,2.05-.55.89.89,0,0,0-.39-1.46L114,86.26a1.94,1.94,0,0,0-2,.55.9.9,0,0,0,.39,1.47,44.29,44.29,0,0,0,9.8,2.47,2,2,0,0,0,1.72-.64.88.88,0,0,0-.11-1.31,24.08,24.08,0,0,0-12.09-4.48,2,2,0,0,0-1.71.64.88.88,0,0,0,.11,1.31,16.8,16.8,0,0,0,11.49,3.9c1.06,0,2.4-1.51.95-2.12a27.19,27.19,0,0,0-7.89-2,1.89,1.89,0,0,0-1.89.9,1,1,0,0,0,.9,1.28,24.61,24.61,0,0,1,7.22,1.8l1-2.11a14,14,0,0,1-9.51-3.4l-1.6,2a21.36,21.36,0,0,1,10.84,4l1.61-2a40.48,40.48,0,0,1-9.13-2.3l-1.66,2,7.38,2.65,1.66-2-12.22-3.4a2,2,0,0,0-2.05.55.9.9,0,0,0,.39,1.47,34.53,34.53,0,0,0,11.42,1.59,1.68,1.68,0,0,0,1.55-1.06c.15-.63-.35-1-.94-1.14L112.89,86a1.83,1.83,0,0,0-1.88.9c-.3.67.27,1.19.9,1.28Z"/><path class="cls-6" d="M119,96.33a28.52,28.52,0,0,0,8.22,2.06,2.88,2.88,0,0,0,2-.55c.16-.13.37-.33.31-.56S129.18,97,129,97l-4.15-1a2.81,2.81,0,0,0-1.78.38c-.19.11-.89.62-.47.89a6.36,6.36,0,0,0,4.59.84c.51-.1,1.37-.29,1.61-.82s-.42-.63-.8-.63h-3a2.55,2.55,0,0,0-1.92.76c-.41.54.35.72.75.72h3l.81-1.45-.39.06c.28,0-.12,0-.15,0-.37,0,.18,0-.19,0l-.39-.06a4,4,0,0,1-1.22-.5L123,97.44l4.14,1L129,97A26.7,26.7,0,0,1,121.28,95a2.54,2.54,0,0,0-2,.31c-.34.21-.92.74-.29,1Z"/><path class="cls-6" d="M136,96.48,144.92,98,147,96.8a46.42,46.42,0,0,1-10.15-1.56,3.11,3.11,0,0,0-1.87.29c-.22.09-1,.45-.68.78a9.9,9.9,0,0,0,7.27,2.55l1.25-1.21-5.26.23a3.54,3.54,0,0,0-1.6.47c-.1.05-.75.48-.39.64a21.36,21.36,0,0,0,13.06,1.3,3.41,3.41,0,0,0,1.48-.58c.23-.2.35-.45,0-.56a38.53,38.53,0,0,0-12.68-1.55,3.45,3.45,0,0,0-1.73.54c-.27.19-.51.49-.07.64a18.6,18.6,0,0,0,7.87.93,3,3,0,0,0,1.93-.7c.39-.48-.34-.54-.69-.51a15.93,15.93,0,0,1-6.74-.87l-1.81,1.18a35.19,35.19,0,0,1,11.54,1.49l1.45-1.14A17.68,17.68,0,0,1,138.34,98l-2,1.11,5.26-.23a2.93,2.93,0,0,0,1.94-.7c.39-.5-.35-.52-.69-.51a8.22,8.22,0,0,1-5.8-2.34l-2.55,1.08A49.9,49.9,0,0,0,145.17,98a3.68,3.68,0,0,0,1.92-.48c.21-.12.81-.61.2-.71l-8.87-1.52a3.48,3.48,0,0,0-2,.36c-.22.11-1,.68-.35.8Z"/><path class="cls-6" d="M156.9,101.71l11.74,2.68a2.73,2.73,0,0,0,1.92-.46c.3-.21.73-.68.16-.9a22.41,22.41,0,0,0-15.05,0c-.57.19-1.45,1-.36,1.2l8.33,1.23,1.81-1.43-8.29-.63a3.09,3.09,0,0,0-1.92.46c-.27.2-.75.72-.15.9l3.31,1a2.76,2.76,0,0,0,2-.31c.3-.17,1-.78.29-1l-3.31-1-2.07,1.35,8.29.64a3,3,0,0,0,2.05-.55c.45-.37.36-.79-.24-.88l-8.33-1.22-.36,1.2a17.49,17.49,0,0,1,11.62.34l2.08-1.36-11.74-2.68a2.7,2.7,0,0,0-2.05.55c-.49.39-.33.75.23.87Z"/><path class="cls-6" d="M146.31,106l6.54,1.38,2.38-1.13-7.83-1.65a3.41,3.41,0,0,0-2,.36c-.28.14-1,.59-.35.78l2.26.68a3.14,3.14,0,0,0,2-.36c.28-.14,1-.58.35-.77l-2.26-.69L145,105.7l7.83,1.64a3.33,3.33,0,0,0,2-.36c.24-.12,1-.63.35-.77l-6.55-1.39a3.4,3.4,0,0,0-2,.37c-.24.12-1,.63-.35.77Z"/><path class="cls-6" d="M166.77,98.74l8.35.86a1.88,1.88,0,0,0,1.89-.91c.31-.71-.3-1.14-.91-1.28l-10.53-2.52c-1.22-.29-2.81,1.31-1.31,2.1a21.05,21.05,0,0,0,8.16,2.37l.61-2.2a22.39,22.39,0,0,1-7.29-.61,2,2,0,0,0-1.92.43c-.39.39-.59,1.08,0,1.44a18.33,18.33,0,0,0,6.71,2.58c1,.17,2.76-1,1.6-2a17.31,17.31,0,0,0-6.6-3.43,1.94,1.94,0,0,0-2,.55.89.89,0,0,0,.39,1.47,15.68,15.68,0,0,1,6,3.13l1.6-2A14.87,14.87,0,0,1,166,96.7l-1.93,1.87a26.36,26.36,0,0,0,8.71.8,1.67,1.67,0,0,0,1.54-1.06,1,1,0,0,0-.94-1.14A19.29,19.29,0,0,1,165.91,95l-1.32,2.1,10.53,2.52,1-2.19-8.35-.86a1.87,1.87,0,0,0-1.89.9,1,1,0,0,0,.91,1.29Z"/><path class="cls-6" d="M145.8,95l6.52,2.27a2.09,2.09,0,0,0,2.05-.55c.47-.53.24-1-.35-1.29A50.72,50.72,0,0,0,142.38,92a2,2,0,0,0-1.8.74.72.72,0,0,0,.43,1.17l10.62,2.62a2.14,2.14,0,0,0,2.05-.55.74.74,0,0,0-.34-1.29L144.16,92a2.16,2.16,0,0,0-2,.55.75.75,0,0,0,.35,1.3l9.17,2.67,1.71-1.84-10.63-2.63L141.34,94a48.43,48.43,0,0,1,11,3.3l1.7-1.84-6.52-2.27a2.09,2.09,0,0,0-2.05.55A.75.75,0,0,0,145.8,95Z"/><path class="cls-6" d="M131.6,90.54l4.14.65c.75.12,2.8-.84,1.67-1.68a11.16,11.16,0,0,0-6.71-2.19,2.41,2.41,0,0,0-1.72.61c-.28.29-.44.88.05,1.08a12.35,12.35,0,0,0,5.44.91,1.82,1.82,0,0,0,1.58-1c.18-.54-.35-.9-.87-.89a22.43,22.43,0,0,1-6.53-.83,2.24,2.24,0,0,0-2.05.55.67.67,0,0,0,.32,1.19,24.92,24.92,0,0,0,7.19.94l.7-1.84h-.39l-.46,0c-.3,0-.65-.06-.9-.1a9.1,9.1,0,0,1-1.76-.49l-1.67,1.68A9,9,0,0,1,135.14,91l1.67-1.69-4.14-.65a2,2,0,0,0-1.9.83c-.36.65.31.94.83,1Z"/><path class="cls-6" d="M113.28,80.14l5.63,1a2.23,2.23,0,0,0,2-.55.69.69,0,0,0-.33-1.22,21.42,21.42,0,0,0-9-.91c-.56.06-1.38.35-1.57,1s.37.87.88.92l10.39,1a2.1,2.1,0,0,0,1.81-.73c.35-.48.13-.91-.41-1.1a20.24,20.24,0,0,0-8.49-1.06c-.59,0-1.52.41-1.62,1.08s.81.84,1.3.79a16.9,16.9,0,0,1,7.08,1l1.4-1.83-10.4-1-.69,1.87a18,18,0,0,1,7.56.81l1.72-1.77-5.63-1a2.25,2.25,0,0,0-2,.54.69.69,0,0,0,.33,1.23Z"/><path class="cls-6" d="M108,71.87c.07,0,.58,0,.27,0a3,3,0,0,1,.52.07c-.23,0,.24.08.28.1l.24.11c-.09,0-.07,0,.06,0a1.9,1.9,0,0,0,2.08-.17c.49-.41.73-1.06.15-1.51a8.42,8.42,0,0,0-6.19-1.65,1.89,1.89,0,0,0-1.51.9.84.84,0,0,0,.55,1.15,20.25,20.25,0,0,0,8.18.89l-.51-1.93-.15.06-.17.06-.23.06c-.28.08.14,0,0,0s-.31.08,0,0c-.09,0-.14,0,0,0l.07,0c-.11-.08-.13-.09,0,0s0,0,0-.07l.06.13,0-.07s0-.28,0-.08,0-.06,0-.08a.8.8,0,0,0,0-.15c0,.22-.05.14,0,0s-.19.24,0,.07a1.13,1.13,0,0,1-.37.28,1.4,1.4,0,0,1-1,.14c-.13,0-.14,0,0,0a1.91,1.91,0,0,0,2-.55.85.85,0,0,0-.38-1.41c-1.53-.69-3.6.82-3.13,2.52a2.09,2.09,0,0,0,1.87,1.31,5.68,5.68,0,0,0,2.89-.59c.45-.18,1-.72.81-1.25s-.84-.72-1.32-.68-1.22.1-1.82.1h-.19l-.49,0c-.31,0-.61,0-.91-.07-.6-.07-1.21-.16-1.8-.28l-.21,0-.41-.1-.94-.28-1,2c.22,0,.43,0,.66-.06h.3c-.33,0,.06,0,.1,0l.6.07.36.07c-.19,0,0,0,.07,0a6.24,6.24,0,0,1,1.18.45l.09,0,.26.16c.2.13.4.27.59.42l2.23-1.68a5.45,5.45,0,0,0-3.34-.75c-.64.06-1.52.44-1.6,1.18s.77,1,1.34,1Z"/><path class="cls-6" d="M118.13,70.11l6.1,3.85,2.53-1.17-3.09-1.53-2.34,1.27,6.61,2.13a2.73,2.73,0,0,0,1.88-.24c.26-.13,1-.56.65-.93A6.76,6.76,0,0,0,124,72.16c-.37.09-1.42.44-1.29,1s1.31.3,1.61.22.18,0,0,0l.28,0c-.12,0-.1,0,.07,0H125a4.69,4.69,0,0,1,.84.15,4.61,4.61,0,0,1,1.91,1.11l2.52-1.17-6.61-2.12a2.76,2.76,0,0,0-2,.31c-.38.21-.88.67-.3,1l3.09,1.54a2.5,2.5,0,0,0,1.87-.24c.2-.1,1.12-.64.65-.94L120.84,69a2.24,2.24,0,0,0-1.89.06c-.19.08-1.33.68-.82,1Z"/><path class="cls-6" d="M131.55,81.88h3.64l1.15-1.57h-7.67a2.45,2.45,0,0,0-1.92.78c-.38.56.33.79.77.79H133a2.43,2.43,0,0,0,1.92-.77c.39-.56-.33-.8-.77-.8h-2.33a2.45,2.45,0,0,0-1.92.78c-.38.56.33.79.77.79H133l1.15-1.57h-5.5l-1.15,1.57h7.67a2.44,2.44,0,0,0,1.92-.77c.38-.56-.33-.8-.77-.8H132.7a2.44,2.44,0,0,0-1.92.78c-.39.56.33.79.77.79Z"/><path class="cls-6" d="M143.27,82.51l7.52,1.06L152.24,82l-9.53.15a2.49,2.49,0,0,0-1.82.69c-.36.43-.15.77.37.92L149.15,86l1.45-1.6-8.14.26a2.52,2.52,0,0,0-1.82.68c-.33.4-.18.83.37.92l9.35,1.57a2.74,2.74,0,0,0,1.79-.35c.25-.16.84-.68.44-1a8.51,8.51,0,0,0-7.33-1.54c-.39.09-2,1-1,1.43a31,31,0,0,0,10.93,2.16,2.43,2.43,0,0,0,1.82-.69c.35-.42.17-.8-.36-.92a30.94,30.94,0,0,0-9.45-.56c-.53,0-1.39.34-1.6.88s.39.73.83.74c2.9.08,5.8,0,8.7-.19.51,0,1.54-.38,1.64-1s-.85-.65-1.25-.62c-2.65.18-5.3.22-8,.15l-.76,1.62a26.36,26.36,0,0,1,8.07.53l1.45-1.6a27.83,27.83,0,0,1-9.75-1.92l-1,1.42a5.31,5.31,0,0,1,4.25,1.22l2.24-1.35-9.36-1.57-1.45,1.61,8.15-.26a2.5,2.5,0,0,0,1.82-.69c.36-.44.14-.77-.37-.92L143,82.15l-1.45,1.6,9.53-.14a2.49,2.49,0,0,0,1.82-.69c.33-.39.19-.84-.37-.92l-7.51-1.07a2.64,2.64,0,0,0-2.05.55c-.42.39-.36.94.27,1Z"/><path class="cls-6" d="M172.07,86.79l-6.58.29a1.76,1.76,0,0,0-1.57,1c-.21.62.4.89.9,1L170,90l1-2-4-.76a2.27,2.27,0,0,0-2.4,1,1,1,0,0,0,.2,1.28,1.53,1.53,0,0,0,2.58-1.34c0-.26-.4-.47-.6-.54a2.05,2.05,0,0,0-1.1,0c-.63.19-1.24.59-1.2,1.3,0-.33,0-.16,0-.1L167,88h0l.33.41s0,.26,0,.18a.15.15,0,0,0,0-.09s0-.1,0-.1a.42.42,0,0,1-.12.26,1.58,1.58,0,0,1-1.53.62c.46.13.95.18,1.42.27L170,90a1.93,1.93,0,0,0,1.89-.86c.3-.68-.27-1-.86-1.12l-5.13-1-.67,2,6.59-.28c.6,0,1.52-.44,1.61-1.12s-.8-.88-1.32-.86Z"/><path class="cls-6" d="M161.3,80.32a23.77,23.77,0,0,0,7,1.84l1-2-4.27-.3a1.94,1.94,0,0,0-1.89.88c-.28.66.25,1.07.87,1.16l1.89.26a1.93,1.93,0,0,0,1.89-.87c.28-.67-.26-1.07-.87-1.16L165,79.83l-1,2,4.26.29a2,2,0,0,0,1.9-.87c.27-.65-.25-1.1-.87-1.16s-1.15-.14-1.71-.25l-.37-.07-.27-.06-.78-.19A23.68,23.68,0,0,1,163,78.43a2,2,0,0,0-2.05.54.91.91,0,0,0-.25.79,1,1,0,0,0,.61.56Z"/><path class="cls-6" d="M142.79,73.12a17.85,17.85,0,0,0,6.73,3.53,2.22,2.22,0,0,0,1.92-.45c.37-.32.63-.89.08-1.2a25.59,25.59,0,0,0-6.93-2.75l-1.4,1.82a38.64,38.64,0,0,1,7.69,2.06l1.72-1.77-9.78-2.8-1.73,1.76,11.07,3.1a2.2,2.2,0,0,0,2.05-.55.68.68,0,0,0-.32-1.21l-12.72-3.85-1.72,1.76L148,74.84a2.23,2.23,0,0,0,2.05-.55.69.69,0,0,0-.32-1.22l-9.18-2.65a2.2,2.2,0,0,0-2.05.55.69.69,0,0,0,.32,1.22L148,74.84l1.73-1.77-8.57-2.26a2.21,2.21,0,0,0-2,.55.68.68,0,0,0,.33,1.21l12.71,3.85,1.73-1.76-11.07-3.1a2.2,2.2,0,0,0-2,.55.68.68,0,0,0,.32,1.21l9.79,2.81a2.19,2.19,0,0,0,2-.55c.48-.5.27-1-.32-1.22a42.11,42.11,0,0,0-8.34-2.17,2.1,2.1,0,0,0-1.81.73.66.66,0,0,0,.42,1.09,23.72,23.72,0,0,1,6.38,2.52l2-1.65a15.51,15.51,0,0,1-5.78-3,1.83,1.83,0,0,0-1.94-.12c-.34.15-1.28.87-.73,1.32Z"/><path class="cls-6" d="M129.88,65.14a3.56,3.56,0,0,1-2-1.27l-2.82.88a30.3,30.3,0,0,0,9.92,3.59,3.69,3.69,0,0,0,1.85-.32c.14-.06,1.09-.49.71-.71a45.92,45.92,0,0,0-11.71-4.77,3.46,3.46,0,0,0-2,.38c-.29.14-1,.51-.37.7l7.7,2.51c.42.14,3-.54,2.56-1a19.62,19.62,0,0,0-8.13-4.86,3.26,3.26,0,0,0-2,.38c-.28.13-1,.51-.37.7a19.18,19.18,0,0,1,7.79,4.74l2.56-1-7.7-2.51-2.39,1.08a44.5,44.5,0,0,1,11.36,4.66l2.57-1a28.74,28.74,0,0,1-9.57-3.47c-.44-.25-1.24,0-1.67.13-.13,0-1.35.49-1.15.74a4.25,4.25,0,0,0,2.56,1.57,3.54,3.54,0,0,0,2-.38c.23-.11,1-.57.37-.7Z"/><path class="cls-6" d="M120.44,62.5a19.1,19.1,0,0,1-6-3.29c-.58-.47-3.28.46-2.72,1a8.74,8.74,0,0,0,6.84,2.48,3.58,3.58,0,0,0,1.6-.47c.13-.08.71-.47.37-.67l-6.39-3.81a2.42,2.42,0,0,0-1.88.12c-.19.07-1.29.57-.84.9a17.91,17.91,0,0,0,7.61,3.1,3.25,3.25,0,0,0,1.78-.39c.17-.09.88-.51.51-.75a31.28,31.28,0,0,0-10.49-4.48,3.1,3.1,0,0,0-1.87.27c-.25.12-1,.46-.68.83l2.76,3,1.22-1a3.42,3.42,0,0,1-1.44-.08,3.11,3.11,0,0,0-1.87.28c-.22.1-1,.49-.67.83a13.27,13.27,0,0,0,7,3.24,3.34,3.34,0,0,0,1.78-.39c.23-.12.82-.46.51-.76a6.29,6.29,0,0,0-4.27-1.75,3.5,3.5,0,0,0-2,.55c-.43.3-.41.71.19.72a5,5,0,0,1,3.41,1.5l2.29-1.14a11.82,11.82,0,0,1-6.17-3l-2.55,1.1a8.45,8.45,0,0,0,4.09-.09c.23-.06,1.67-.53,1.22-1l-2.75-3-2.55,1.1a30.28,30.28,0,0,1,10.14,4.32l2.29-1.15a16.06,16.06,0,0,1-6.75-2.85l-2.72,1,6.39,3.81,2-1.15a7,7,0,0,1-5.35-2.23l-2.72,1a20.06,20.06,0,0,0,6.36,3.45,2.91,2.91,0,0,0,2-.35c.3-.15,1-.63.33-.83Z"/><path class="cls-6" d="M108.84,50.48h.37l.55,0q.61,0,1.23.15a5.6,5.6,0,0,1,.59.12c-.34-.11,0,0,0,0l.32.09c.4.11.79.24,1.18.39l1.67-2-3.25-.92a2,2,0,0,0-1.1,0,1.86,1.86,0,0,0-1,.57.92.92,0,0,0-.24.82,1,1,0,0,0,.62.59l3.25.92a2,2,0,0,0,1.1,0,1.9,1.9,0,0,0,1-.57.85.85,0,0,0-.38-1.41,14.85,14.85,0,0,0-5.67-1,2,2,0,0,0-1.09.4,1.17,1.17,0,0,0-.51.77c0,.75.73,1,1.34,1Z"/><path class="cls-6" d="M126.45,54.81l-2.16-.49a3.34,3.34,0,0,0-1.86.31c-.11,0-1.12.56-.7.74l4.76,2.09a2.67,2.67,0,0,0,1.86-.17c.16,0,1.29-.53.87-.81a7,7,0,0,0-2.73-1.09,3.59,3.59,0,0,0-2,.38c-.28.13-1,.55-.36.74L130,58.32A3.12,3.12,0,0,0,131.8,58c.11,0,1.13-.57.7-.74l-8.29-3.41a2.78,2.78,0,0,0-1.86.17c-.12,0-1.32.6-.87.82a39.24,39.24,0,0,0,12.58,3.66,3.83,3.83,0,0,0,1.86-.3c.13-.06,1.12-.54.7-.75a56.58,56.58,0,0,0-10.55-4.16,4.7,4.7,0,0,0-2.8.15c-.44.15-1.67.63-1.43,1.31.18.52,1,.54,1.42.5s2.41-.36,2.22-1.23c-.12-.6-3,.09-2.89.78,0,.08,0,.1,0,.08l.32-.29-.06,0,1-.4c1-.32,1.34-.35,1.07-.1a.83.83,0,0,1-.15-.11.19.19,0,0,1,0-.12c.13-.27-.11-.21-.71.19-1,.32-.83.19-.33.32.3.08.6.18.89.27q1.56.48,3.09,1a58.4,58.4,0,0,1,6.23,2.72l2.56-1.05a38.19,38.19,0,0,1-12.24-3.54l-2.73,1,8.29,3.4,2.56-1-5.84-1.81-2.39,1.12a5.92,5.92,0,0,1,2.39,1l2.73-1-4.75-2.09-2.56,1,2.16.49a3.4,3.4,0,0,0,2-.38c.25-.11,1-.59.36-.74Z"/><path class="cls-6" d="M148.87,62.38l-10.13-1.71c-1.09-.18-2.91,1.24-1.35,2l8.87,4.17,1.69-1.9-8.82-2.6a2.08,2.08,0,0,0-1.93.44c-.43.41-.54.92,0,1.33a19.47,19.47,0,0,0,9.53,4.19,2,2,0,0,0,1.71-.62c.3-.34.41-1-.08-1.22l-5.21-2.68-2,1.77,8.13,2.85a2,2,0,0,0,2-.55.79.79,0,0,0-.36-1.35l-8.13-2.85a2,2,0,0,0-1.92.43c-.36.34-.64,1,0,1.34l5.21,2.68,1.63-1.84a17.18,17.18,0,0,1-8.31-3.78l-2,1.77,8.82,2.59a2.05,2.05,0,0,0,2.05-.55c.48-.55.23-1.07-.36-1.35l-8.87-4.17-1.36,2,10.13,1.7a1.93,1.93,0,0,0,1.89-.87c.32-.67-.29-1.07-.87-1.17Z"/><path class="cls-6" d="M167.24,70.68A25,25,0,0,0,155.5,68.1c-.84,0-2.32,1.19-1.23,2a18.21,18.21,0,0,0,8.49,3.18,2,2,0,0,0,1.71-.63.87.87,0,0,0-.1-1.31,20.06,20.06,0,0,0-9.61-2.47,1.68,1.68,0,0,0-1.55,1.05c-.15.64.35,1,.94,1.13l4.92.89A1.83,1.83,0,0,0,161,71c.31-.69-.28-1.16-.89-1.27l-4.93-.89L154.52,71a16.12,16.12,0,0,1,7.62,2l1.61-1.94a15.54,15.54,0,0,1-7.26-2.72l-1.23,2a22,22,0,0,1,10.32,2.4c1.24.62,3.32-1.17,1.66-2Z"/><path class="cls-6" d="M176.39,75h-.86a1.57,1.57,0,0,0-.57,0,1.63,1.63,0,0,0-.57.17,1.34,1.34,0,0,0-.45.29,1,1,0,0,0-.31.34l-.09.25a.57.57,0,0,0,.13.47l.2.17a1.31,1.31,0,0,0,.6.18h.86a1.83,1.83,0,0,0,.57,0,1.88,1.88,0,0,0,.57-.17,1.51,1.51,0,0,0,.45-.29,1,1,0,0,0,.31-.35l.09-.25a.58.58,0,0,0-.13-.47l-.2-.17a1.43,1.43,0,0,0-.6-.17Z"/><path class="cls-6" d="M107.24,40q4.16,3.24,8.57,6.12l2.72-1a31.54,31.54,0,0,1-8.63-6.58l-2.54,1.11,8,3.45a2.71,2.71,0,0,0,1.7-.19c.17-.07,1.14-.49.93-.8l-3.21-4.73c-.52-.77-3.2.33-2.89.78l3.2,4.73,2.63-1-8-3.45a2.77,2.77,0,0,0-1.87.27c-.27.12-1,.47-.67.85a31.69,31.69,0,0,0,8.63,6.58,2.37,2.37,0,0,0,1.88-.11c.18-.07,1.32-.6.84-.92-2.94-1.91-5.8-4-8.57-6.12-.46-.36-1.41-.08-1.88.11-.21.08-1.29.57-.84.92Z"/><path class="cls-6" d="M125.29,49.52l2.4,1a1.94,1.94,0,0,0,1.8-.31,1.63,1.63,0,0,0,.42-.52.82.82,0,0,0-.07-.84A16.14,16.14,0,0,0,123.9,45a1.94,1.94,0,0,0-1.92.43.92.92,0,0,0,0,1.45,16.39,16.39,0,0,0,6.25,2.63,1.82,1.82,0,0,0,1.88-.91c.27-.7-.25-1.16-.9-1.29l-.39-.08c-.07,0-.5-.1-.13,0A4.57,4.57,0,0,1,128,47a14.35,14.35,0,0,1-1.43-.52l-.66-.31a1.89,1.89,0,0,1-.35-.17c.26.16,0,0-.11-.06-.44-.25-.87-.52-1.28-.8L122.25,47a15.15,15.15,0,0,1,1.44.61l.17.09c.13.07.15,0,0,0a2.17,2.17,0,0,1,.33.19l.69.42a14,14,0,0,1,1.26.92c.2.15.39.32.58.49l.31.29s.17.16.06.06.1.09.1.09l2.15-1.66-2.4-1a1.87,1.87,0,0,0-2,.55.9.9,0,0,0,.39,1.47Z"/><path class="cls-6" d="M136.12,50.1a37.07,37.07,0,0,0,8.5,3.42,2.36,2.36,0,0,0,2-.55c.44-.45.31-.93-.3-1.11a86.14,86.14,0,0,1-9.52-3.13,2.27,2.27,0,0,0-2,.25c-.44.29-.83.85-.24,1.2a42.54,42.54,0,0,0,10.24,4.39,2.36,2.36,0,0,0,2-.55c.46-.47.3-.91-.29-1.11-.89-.29-1.77-.61-2.64-.95a2.32,2.32,0,0,0-2.06.25c-.36.24-.9.94-.23,1.21,3.46,1.4,7.1,2.23,10.66,3.34a2.37,2.37,0,0,0,1.92-.45c.37-.3.64-.8.1-1.11-4.08-2.33-8.78-2.92-13.14-4.53a2.35,2.35,0,0,0-2.06.26c-.42.27-.84.86-.23,1.2a21.48,21.48,0,0,0,10.75,2.26c.62,0,2.87-.74,1.7-1.59a13,13,0,0,0-10.68-2.56c-.46.11-1.64.71-1.13,1.36A4.32,4.32,0,0,0,142,53.25c1,.24,2,.19,3,.37a2.39,2.39,0,0,0,2.05-.55c.4-.41.35-1-.3-1.1-.91-.17-1.82-.18-2.73-.32a2.76,2.76,0,0,1-1.79-1.21l-1.13,1.36c2.81-.66,5.77.85,8,2.45l1.7-1.59a19,19,0,0,1-9.57-2l-2.29,1.46c4.35,1.6,9.07,2.21,13.14,4.53l2-1.56c-3.37-1.05-6.84-1.81-10.12-3.14l-2.29,1.46c1,.41,2.1.8,3.17,1.15l1.76-1.66a40.36,40.36,0,0,1-9.71-4.18l-2.29,1.45a90.49,90.49,0,0,0,10.06,3.34l1.75-1.66a34.34,34.34,0,0,1-8-3.22,2.18,2.18,0,0,0-2,.25c-.42.28-.85.87-.24,1.21Z"/><path class="cls-6" d="M161.86,57.18l-5.37.17a2.9,2.9,0,0,0-1.73.58c-.29.24-.47.66,0,.84l7,2.81,2.33-1.33L158.38,58l-1.74,1.42,2.35.11a2.46,2.46,0,0,0,1.92-.77c.4-.56-.36-.73-.76-.75l-2.35-.1a2.73,2.73,0,0,0-1.73.57c-.28.24-.47.67,0,.85l5.66,2.22a2.57,2.57,0,0,0,2.05-.3c.33-.21.92-.77.28-1l-7-2.8-1.75,1.42,5.38-.17a2.55,2.55,0,0,0,1.92-.76c.39-.54-.34-.77-.76-.76Z"/><path class="cls-6" d="M163,65.57l4.34.93a2.71,2.71,0,0,0,1.78-.36c.27-.16.83-.63.46-1a5.3,5.3,0,0,0-3.36-1.34,2.5,2.5,0,0,0-1.83.68c-.33.39-.18.8.36.88l6.66,1,1.47-1.56h-2.41a2.42,2.42,0,0,0-1.92.78c-.38.56.33.8.77.8h2.41a2.52,2.52,0,0,0,1.82-.68c.34-.39.19-.79-.35-.88l-6.66-1L165,65.43h.09l.33.06a2.45,2.45,0,0,1,.45.17,3,3,0,0,1,.94.63L169.09,65,164.75,64a2.56,2.56,0,0,0-2.05.55c-.46.4-.33.85.26,1Z"/><path class="cls-6" d="M171.6,61.35l3,.85a2.11,2.11,0,0,0,1.93-.43c.37-.35.61-1,0-1.3l-5.38-3.16L170,59.11l4.3-.5c.79-.09,2.29-1,1.27-1.8a45.52,45.52,0,0,0-11.1-6.57l-1.7,1.86,6.65,2.1a2.07,2.07,0,0,0,2-.55.76.76,0,0,0-.35-1.31l-12.19-4.45a2.08,2.08,0,0,0-1.93.44c-.39.36-.59.94,0,1.29a26.26,26.26,0,0,0,8.31,3.59,2.14,2.14,0,0,0,1.92-.43c.43-.4.54-.9.05-1.3A17.38,17.38,0,0,0,161,48.29a2.1,2.1,0,0,0-2,.55.76.76,0,0,0,.35,1.31l4.59,1.77c1.15.44,3.38-1.21,1.7-1.86L161,48.29l-1.7,1.86a15.54,15.54,0,0,1,5.62,2.94l2-1.74A24.42,24.42,0,0,1,159.15,48l-2,1.73,12.19,4.45,1.7-1.86-6.65-2.1a2.08,2.08,0,0,0-2,.55.77.77,0,0,0,.35,1.31,43,43,0,0,1,10.55,6.32l1.27-1.8-4.3.5c-.65.08-2.44,1.11-1.27,1.8l5.38,3.16,2-1.73-3-.86a2.1,2.1,0,0,0-2.05.55.76.76,0,0,0,.35,1.31Z"/><path class="cls-6" d="M135.24,41.32l6.69,2.12a3.08,3.08,0,0,0,1.86-.29c.12,0,1.14-.6.69-.78L136.39,39a2.76,2.76,0,0,0-1.87.15c-.13.06-1.31.6-.85.85l9,5a2.54,2.54,0,0,0,1.87-.15c.19-.08,1.28-.53.86-.85L140,39.86c-.44-.34-1.42,0-1.87.15-.19.08-1.28.53-.86.85L142.66,45l2.73-1-9-5-2.72,1,8.09,3.37,2.55-1.07-6.7-2.12a3.09,3.09,0,0,0-2,.36c-.28.14-1,.58-.34.78Z"/><path class="cls-6" d="M133.6,34.41a53.66,53.66,0,0,0-7.89-5.31,1.9,1.9,0,0,0-1.91.09c-.4.24-1,.88-.54,1.36a14.24,14.24,0,0,0,7.66,4.18,2,2,0,0,0,1.59-.51c.27-.26.6-.81.24-1.16a42,42,0,0,0-9-6.76,2,2,0,0,0-2.08.19c-.43.32-.8,1.1-.16,1.46a39.84,39.84,0,0,1,8.56,6.38l1.83-1.66a11.71,11.71,0,0,1-6-3.38l-2.45,1.45a54.46,54.46,0,0,1,7.89,5.31c1,.79,3.52-.61,2.24-1.64Z"/><path class="cls-6" d="M113.58,25.72A9.85,9.85,0,0,0,118,30.45a1.92,1.92,0,0,0,2.08-.16.94.94,0,0,0,.15-1.54,10.92,10.92,0,0,0-7.16-2.5c-.73,0-2.1.87-1.44,1.73A14,14,0,0,0,116.51,32a1.91,1.91,0,0,0,1.93-.43c.39-.4.57-1,0-1.42l-5.32-3.6c-.93-.63-3.15.18-2.44,1.5a9.43,9.43,0,0,0,7.73,4.76,1.9,1.9,0,0,0,1.79-.77.85.85,0,0,0-.47-1.31,20.29,20.29,0,0,1-6.31-3.55,19.84,19.84,0,0,1-2.52-2.5l-.26-.32c-.13-.17,0,.13-.06-.1a1.58,1.58,0,0,1-.09-.31s-.05-.34,0-.13c0-.1,0-.2,0-.3s.06-.29,0-.13,0,.07,0,0,0-.09,0,0a1.27,1.27,0,0,1-1.41.57c-.21-.06-.24-.06-.1,0,1.22.61,3.32-1.17,1.66-2a2.3,2.3,0,0,0-2.63.61,2.37,2.37,0,0,0-.46,1.86,3,3,0,0,0,.82,1.67A22.88,22.88,0,0,0,110,27.88a22.36,22.36,0,0,0,8,4.89l1.33-2.08a7.26,7.26,0,0,1-6.07-3.89l-2.44,1.49,5.32,3.6,2-1.84a11.33,11.33,0,0,1-4-3.36l-1.45,1.73c.51,0-.11,0,.19,0l.39,0,.79.11a7.58,7.58,0,0,1,1.28.37A8.65,8.65,0,0,1,118,30.45l2.23-1.7a8.14,8.14,0,0,1-3.7-3.81,1.38,1.38,0,0,0-1.72-.63c-.48.14-1.48.73-1.18,1.41Z"/><path class="cls-6" d="M107.26,18.65l3.43.86a2.05,2.05,0,0,0,1.1,0,1.9,1.9,0,0,0,.95-.57.91.91,0,0,0,.24-.8.93.93,0,0,0-.61-.58l-3.43-.86a2,2,0,0,0-1.1,0,1.78,1.78,0,0,0-1,.56.89.89,0,0,0-.24.8.87.87,0,0,0,.61.58Z"/><path class="cls-7" d="M91.74,142.93c1.76,2.68,6,1.29,8-.34a6.6,6.6,0,0,0,2.36-4.66c.14-1,.17-2.09.22-3.14,0-.68.08-1.36.17-2,.07-.43.11-1.35.41-1.64.9-.83,3,.42,3.78,1a4.68,4.68,0,0,1,1.79,4.12c-.18,2.83-2.6,7.95,1.66,8.95,2,.46,4.1-.36,6-.9,2.29-.65,4.76-1.19,7.06-.3a5.11,5.11,0,0,1,3,3.47c.34,1.23.41,3-.58,4-.63.61-1.83.46-2.66.67a6.7,6.7,0,0,0-2.44,1.16,6.88,6.88,0,0,0-2.16,4.22,37.76,37.76,0,0,1-1.28,6c-.64,1.7-1.95,4.1-4,4.31-2.68.27-3.7-2.38-4.7-4.31a5.71,5.71,0,0,0-4.2-3.25c-4-.68-8.34,1.47-11.22,4.1-.5.45.44.53.7.52a3.24,3.24,0,0,0,1.93-.71c2.74-2.5,7.24-4.38,9.63-.38,1,1.6,1.42,3.61,3.15,4.59a7,7,0,0,0,5.08.41c4.3-1,6.47-4.46,7.25-8.63a23.88,23.88,0,0,1,1.16-5.3c.27-.62.72-1.49,1.39-1.73,1.08-.38,2.27-.27,3.36-.74,2.78-1.2,3.35-4.35,2-6.89-1.93-3.55-6.58-3.48-10-2.79-1.06.22-2.11.49-3.14.79-1.22.36-2.62,1-3.8.24-1.6-1-1.19-3.23-.87-4.8s.89-3.43.47-5.07a5.41,5.41,0,0,0-2.79-3.3,7.42,7.42,0,0,0-5-.62,7.82,7.82,0,0,0-2.64,1c-1,.65-1.07,1.63-1.22,2.78-.29,2.43.1,5.21-1,7.46-.8,1.56-2.62,2.92-3.87,1-.49-.74-3.16.37-2.9.78Z"/><path class="cls-7" d="M69.49,164.19a4.09,4.09,0,0,1,.46-.84,4.35,4.35,0,0,1,.32-.43,1.57,1.57,0,0,1,.21-.24c-.08.08,0,0,0,0a9.17,9.17,0,0,1,.82-.7c-.23.17.06,0,.09-.05l.18-.12.29-.15c.23-.13-.15.06,0,0s.33-.15.5-.21.18-.16,0,0a1,1,0,0,1,.25-.07l.27-.07c.28-.07-.22,0,0,0l.54-.07c.19,0-.34,0,0,0h.69c-.16,0,.13,0,.16,0l.27.05.26.05.15,0v-.91l-4.3,4.33c-.21.2-.45.5-.19.77s.79.24,1.14.22a6.29,6.29,0,0,0,5.24-3.46c.1-.21-.13-.42-.29-.5a1.71,1.71,0,0,0-1-.08,2,2,0,0,0-1.65,1,3.15,3.15,0,0,1-.45.69,1.26,1.26,0,0,1-.21.23l-.18.16s-.26.21-.14.12-.1.06-.12.07l-.2.12c-.17.11.2-.07,0,0l-.22.09c-.19.09.25-.06,0,0,0,0-.29.08-.09,0s-.05,0-.09,0l-.3,0,.95,1,4.3-4.32c.25-.25.51-.74,0-.91-4-1.28-9,.63-10.68,4.57-.09.21.13.41.29.49a1.82,1.82,0,0,0,1,.09,2.05,2.05,0,0,0,1.66-1Z"/><path class="cls-7" d="M76.86,150l-1.44-1.69-2.22,1.4a4.33,4.33,0,0,0,4-.47,1.67,1.67,0,0,0,.53-.59,1.38,1.38,0,0,0,.16-.77,1.31,1.31,0,0,0-.36-.86,1.45,1.45,0,0,0-.74-.4,2.82,2.82,0,0,0-1.74.24,1.8,1.8,0,0,0-.77.59.51.51,0,0,0,0,.63,1.2,1.2,0,0,0,.79.29,2.61,2.61,0,0,0,1.14-.22l.06,0a1.78,1.78,0,0,1-.5.14l-.14,0c-.32,0-.42,0-.29,0l-.33,0,.1,0-.27-.09a.24.24,0,0,1,.11.06l-.19-.15a1.1,1.1,0,0,1,.2.23l-.11-.19a1.14,1.14,0,0,1,.13.51v-.22a1,1,0,0,1-.07.33l.1-.23-.09.16.18-.22-.12.12.26-.2-.12.07c.33-.22.29-.16.17-.09s.44-.15.22-.08.48-.08.22-.05l-.11,0c.28,0,.36,0,.25,0h-.07l-.29,0,.33,0a5.72,5.72,0,0,1-.84-.2,1.91,1.91,0,0,0-.89,0,2.4,2.4,0,0,0-.9.34c-.32.22-.77.66-.43,1l1.44,1.69a1.15,1.15,0,0,0,.79.29,2.61,2.61,0,0,0,1.14-.22,1.62,1.62,0,0,0,.77-.59.53.53,0,0,0,0-.64Z"/><path class="cls-7" d="M82,138.82l-1.77-1.44-2.48,1.33,10.83,7,.92-1.55-5.86,2c-.59.2-2.07,1.44-.66,1.66a17,17,0,0,0,8-.59l-.81-1.49A15.42,15.42,0,0,0,82.35,153c-.31.62.26.92.81,1l3.42.31,0-1.58L82.17,155c-1.21.63-1,1.62.42,1.56a12.52,12.52,0,0,0,5.56-1.62l-2.28-.58-2,4.64c-.35.82.55,1,1.18,1l5-.34-1.18-1c-1.32,2-2.91,6,.21,7.15,3.28,1.23,7.64-1.35,9.73-3.75a10.32,10.32,0,0,0,2.4-4.32c.33-1.5-2-2.12-3.12-2.21a14.62,14.62,0,0,0-5,.75c-1.2.32-3,.56-3.91-.5-1.37-1.58.65-3.83.52-5.6a2.67,2.67,0,0,0-3.1-2.64l1.19,1a4.6,4.6,0,0,1,3.55-2.86l-1.18-1L84.49,152c-.33.42.12.81.49.92a2.41,2.41,0,0,0,1.79-.34l11.94-6.65c.45-.26.72-.78.32-1.18s-1.4-.24-1.84,0A26.91,26.91,0,0,0,86.34,155c-.27.47.06.78.49.93,3.08,1,6.57-.2,8.86-2.38,2.52-2.4,3.49-5.89,4.36-9.14.22-.86-1.29-.75-1.68-.66A14.94,14.94,0,0,0,90.22,149c-1.55,2-3.48,5.64-.32,7.11,2.49,1.16,5.66.05,7.53-1.75A9,9,0,0,0,100,145.8c-.21-.92-1.89-.43-2.37-.12a27.94,27.94,0,0,0-7.31,7c-1.39,1.95-3.14,4.77-2.06,7.26,1.3,3,5.21,1.22,7-.24a16.49,16.49,0,0,0,5.21-7.87c.38-1.24,1-3.27.3-4.48s-2.28-1.18-3.46-.91c-3,.69-5.51,3.47-7,6-1,1.81-3.15,6.51.49,6.88,1.59.17,3.32-.76,4.71-1.44a13.23,13.23,0,0,0,3.77-2.6c2.94-3.11,1.94-7.08,1.08-10.83a11.37,11.37,0,0,1-.25-5c.21-1,.78-2.94,2-3.16l-1.16-.3a12.29,12.29,0,0,1,.88,9.54l2.9-.55a45.16,45.16,0,0,1-.75-12.11l-2.8.74a14.2,14.2,0,0,1,1.33,13.11l2.91-.32L107,136.24c.19-1.28-2.47-.65-2.82.08-1.39,2.91-1,6-1.43,9.12-.25,1.62-2.2,5.93-4.42,4.18l-.42,1.1a26.67,26.67,0,0,1,10.92-4.86c.7-.13,2-1.44.66-1.66-4.32-.72-9.36,2.14-9.69,6.81a.59.59,0,0,0,.32.59,7,7,0,0,0,6.78-.56c1.73-1.12,3.33-3.42,2.31-5.52-1.11-2.28-4.28-1.34-5.54.26a13.16,13.16,0,0,0-1.7,3.69l-1.82,4.83c-.38,1,1.71.65,2,.52a15.94,15.94,0,0,0,9.5-10.16c.31-1-1.66-.68-2-.52a15.71,15.71,0,0,0-9.3,11.32c-.13.66.85.79,1.28.73a16.43,16.43,0,0,0,13.3-10.45c.19-.51-.59-.72-.91-.74a2.36,2.36,0,0,0-1.72.6A33.66,33.66,0,0,0,103.76,158c-.33.82,1.37.76,1.67.65a17.6,17.6,0,0,0,11.41-11.49c.38-1.26-2.26-.48-2.64-.14a28.71,28.71,0,0,0-8.43,14.08c-.29,1.13,2,.65,2.38.35a28.19,28.19,0,0,0,10.35-14.07c.39-1.17-2.25-.61-2.63-.14a34.46,34.46,0,0,0-6.64,12.45c-.37,1.28,2.43.5,2.82-.09l8.58-13-2.72-.15-9.33,17.64c-.32.61.28.92.82,1a2.23,2.23,0,0,0,1.9-.82,60.12,60.12,0,0,0,8.61-16.38c.2-.58-.76-.74-1.1-.73a2.21,2.21,0,0,0-1.72.82,30.27,30.27,0,0,0-6.61,17.85c0,1.11,1.83.75,2.38.34,3.14-2.32,4.13-5.94,5.1-9.54.73-2.71,2.34-8.06,6-8l.72-1.79a11.31,11.31,0,0,1-5.13-.49c-.51-.17-2.79.32-2.32,1.23,2.2,4.24,9.82,1,7.29-3.42l-2.21,1.44c1.27.27.42,2.44-.26,2.92a10.22,10.22,0,0,1-2.49.87,8.11,8.11,0,0,0-2.62,1.33c-3,2.39-1.64,6.22-2.49,9.42-.27,1-.9,2.86-2.23,2.13a8.67,8.67,0,0,1-2.51-2.93,10.8,10.8,0,0,0-2.59-2.92,6.81,6.81,0,0,0-5.36-.63,38.69,38.69,0,0,0-13.56,6c-1.06.72-.24,1.45.75,1.39,5.08-.3,12.39-1.43,14.46-6.92a11.78,11.78,0,0,0,.35-5.15,42.4,42.4,0,0,1,2.65-18.64l-2.59.91a7.17,7.17,0,0,1,1.81,9l2.81-.31-1.14-5.29c-.32-1.47-.4-3.4-1.13-4.72-1.42-2.55-4.89.18-5.9,1.71-1.32,2-1.42,4.46-1.22,6.75a33.06,33.06,0,0,0,.57,3.7c.12.64.26,1.27.39,1.9.07.33.16.67.2,1l0,.45c-.2.67.22.7,1.24.08l-2.33,1c2.38.53,3.31,3.53,2.65,5.65a3,3,0,0,1-.77,1.33c-.48.46-1,.57-1.11,1.33a3.1,3.1,0,0,0,1.71,2.75c2.57,1.51,5.91.61,7.87-1.47,2.27-2.42,2.76-6,5.12-8.34a2.89,2.89,0,0,1,2.39-1,11,11,0,0,0,3.08,0c1.56-.35,3.56-1.71,3-3.54a.92.92,0,0,0-.91-.51l-4.12,0a2.2,2.2,0,0,0-1.82.71c-.28.41-.2.94.4,1,2.18.33.81,4.22.38,5.41l-3.55,9.82c-.38,1.08,2.54.73,2.91-.32l2.11-5.84c.65-1.8,1.43-3.6,1.94-5.44s.49-4.95-2-5.33l-1.41,1.75,4.12,0-.9-.51c.52,1.65-1.85,1-2.72,1a7.11,7.11,0,0,0-3.38.84,10.47,10.47,0,0,0-4.24,4.91c-.9,1.84-1.7,4.31-3.51,5.48a2.38,2.38,0,0,1-3.48-2l-.54.66c4-2.32,3.23-9.05-1.42-10.07-.66-.15-2.23.1-2.32,1-.24,2.41,4.11,1.55,4.53-.38.25-1.14-.27-2.5-.5-3.61a37.13,37.13,0,0,1-.66-4.05,12.42,12.42,0,0,1,.14-3.8,6.59,6.59,0,0,1,.57-1.67,5.29,5.29,0,0,1,.5-.79c.13-.17.52-.42.57-.6.25-.2.14-.19-.34,0l.1.29a7,7,0,0,0,.28,1.27l.57,2.64,1.19,5.54c.24,1.11,2.45.31,2.81-.32a8.27,8.27,0,0,0-2.25-10.68,2,2,0,0,0-2.6.9,42.87,42.87,0,0,0-2.8,16.13c0,1.81.36,3.64.26,5.45-.32,5.85-7,6.77-11.66,7l.74,1.39a37.92,37.92,0,0,1,6.43-3.53c1-.43,2.08-.83,3.14-1.16a9.56,9.56,0,0,1,3.89-.75c3,.39,3.88,4.68,6.14,6.21,2.92,2,6.49-.15,7.53-3.13.64-1.82.41-3.71.58-5.59a6,6,0,0,1,.69-2.59,4,4,0,0,1,2.64-1.59c1.84-.57,3.75-1.26,4.5-3.2.58-1.5.21-3.2-1.53-3.57-.72-.15-2.84.33-2.21,1.44.32.56.48,1.88-.17,2.32s-1.25-.3-1.54-.85L117.76,148a14.84,14.84,0,0,0,6.52.57c.53-.07,1.4-.34,1.58-.93s-.35-.84-.86-.86c-4.34-.11-7.37,3.08-8.92,6.86s-1.57,8.85-5.06,11.43l2.37.35a29.34,29.34,0,0,1,6.42-17.38l-2.81.08a58.11,58.11,0,0,1-8.42,15.91l2.72.15,9.33-17.64c.71-1.35-2.19-1-2.72-.15l-8.59,13,2.82-.09a32.13,32.13,0,0,1,6.09-11.54l-2.64-.14a25.69,25.69,0,0,1-9.28,12.75l2.37.34a26.86,26.86,0,0,1,7.88-13.16l-2.63-.14A14.56,14.56,0,0,1,105,157l1.68.65a31.25,31.25,0,0,1,8-11.47l-2.64-.15a12.86,12.86,0,0,1-10,8.37l1.28.72a13.16,13.16,0,0,1,7.58-9.64l-2-.52a13.16,13.16,0,0,1-7.78,8.48l2,.53,1.82-4.83a18.66,18.66,0,0,1,1-2.41,2.17,2.17,0,0,1,.45-.69c.19-.2.15-.18-.12.08a.94.94,0,0,1,.25.43c1,2.38-1.93,4.57-4,3.54l.31.58c.18-2.49,2.27-5.25,5-4.79l.65-1.66A30.16,30.16,0,0,0,96,149.71c-.24.18-.85.76-.42,1.09,2.88,2.26,6.75.37,8.66-2.27,2.56-3.54.78-8.25,2.59-12.06l-2.81.09-1.57,10.21c-.21,1.37,2.56.56,2.91-.32a15.16,15.16,0,0,0-1.56-14c-.51-.76-2.73-.15-2.79.75a47,47,0,0,0,.76,12.58c.24,1.2,2.66.25,2.91-.55a13.3,13.3,0,0,0-1.11-10.4c-.18-.32-.87-.35-1.16-.3-4.29.78-5.91,4.8-5.4,8.81.35,2.71,1.6,5.36,1.27,8.14S96,155.8,93.6,156.88c-.34.16-1.4.8-1.77.53s-.23-1-.18-1.37a10.05,10.05,0,0,1,1.45-3.58c.45-.75,4.24-5.64,4.94-3.85.37,1-.24,2.63-.52,3.57a14.92,14.92,0,0,1-1.67,3.6,14.4,14.4,0,0,1-2.26,2.72c-.68.64-1.78,1.92-2.46.69-1.09-2,.7-4.62,1.78-6.17a24.32,24.32,0,0,1,6.54-6.33l-2.37-.12a7.73,7.73,0,0,1-1.16,6.16c-.85,1.23-2.64,2.75-4.18,1.62-1.84-1.37.44-4.4,1.5-5.57a10.83,10.83,0,0,1,5.57-3.36l-1.67-.66c-1,3.72-3.21,11.31-8.57,9.51l.49.92a23.56,23.56,0,0,1,9.32-9.12l-1.51-1.18-11.94,6.65,2.28.58L93,144.77c.59-.75-.77-1-1.19-1a8.23,8.23,0,0,0-6.62,4.48c-.38.81.58,1,1.18,1,.28,0,.56,1.44.55,1.71a10.05,10.05,0,0,1-.76,2.56,3.3,3.3,0,0,0,1,3.88c2.61,1.85,5.81.35,8.57-.07a3.3,3.3,0,0,1,2.17.21c.81.45.14,1.38-.2,2a9.11,9.11,0,0,1-3.39,3.68c-1.17.71-3.6,1.78-4-.23-.32-1.45.58-3.11,1.36-4.27.53-.78-.72-1-1.19-1l-5,.35,1.19,1,2-4.64c.57-1.36-1.71-.9-2.28-.58a7.49,7.49,0,0,1-3.37.86l.42,1.56L87.72,154c.88-.46,1.24-1.46,0-1.57l-3.42-.31.82,1a12.48,12.48,0,0,1,6.28-6c1.55-.66.58-2-.81-1.49a12.56,12.56,0,0,1-5.8.52l-.66,1.66,5.86-2c.56-.18,1.87-.94.93-1.56l-10.83-7c-.74-.47-3.38.61-2.48,1.34L79.33,140a1.88,1.88,0,0,0,1.93.09c.32-.14,1.29-.83.75-1.27Z"/><path class="cls-8" d="M91.83,27.43,89.56,45.17l2.9-.78a59.21,59.21,0,0,1-.23-25.79l-2.88.66a75.64,75.64,0,0,1,3.52,24.41l2.89-.77A24.87,24.87,0,0,1,90,25.17l-2.9.77A42.53,42.53,0,0,1,90.43,45c-.1,1.62-.37,3-1.93,3.79s-3.08,1.31-4.6,2L74,54.92c-.2.09-.62.27-.62.55l0,7.58c0,.52,2.08-.14,2.27-.23A91.26,91.26,0,0,1,91,56.66l-1.56,0,0,6.08,1.34-.8C84.62,63.46,75.69,66.21,75.6,74c0,.39,1.48,0,1.56,0L87,71.38l-1.56,0c1.82,4.21-2.38,7.15-5.7,8.58-4.3,1.84-8.63,3.61-12.95,5.42-3.72,1.56-7.89,2.84-11.2,5.22-2.7,1.93-4.84,5.47-3.18,8.76.35.69,2.36-.24,2.75-.52L62,94l-2.76.51,1.33,7a9.28,9.28,0,0,1,.35,3.14c-.2,1.3-1,1.53-2.12,1.86-3.12.93-5.72,3.65-4.63,7.12.13.41,1.36.08,1.56,0A101.08,101.08,0,0,0,89,97.71l-2.76.52c1.28,2.27,3.18,6.52.17,8.28-1.24.73-2.39,1.34-2.77,2.84a3.57,3.57,0,0,0,.83,3.34c.43.5,2.51-.27,2.79-.75L89,109.13c.26-.43-1-.25-1.14-.23-.5.09-1.42.28-1.71.76l-1.66,2.82,2.8-.75a3.34,3.34,0,0,1-.31-3.89c.78-1.23,2.49-1.46,3.34-2.7,1.59-2.3.09-5.57-1.1-7.69-.38-.68-2.35.22-2.76.52a94,94,0,0,1-30.88,14.81l1.56,0A4.89,4.89,0,0,1,58.15,108c1.22-1.29,3.29-1.09,4.66-2.24s1-3.16.73-4.83l-1.38-7.18c-.13-.7-2.48.32-2.76.51l-6.88,4.85,2.76-.51c-1.9-3.77,1.1-7.4,4.31-9.1,4-2.11,8.36-3.6,12.5-5.34,4-1.66,8.23-3.08,12-5.2,2.87-1.62,5.74-4.83,4.22-8.34-.18-.41-1.32-.09-1.56,0l-9.81,2.66,1.56,0a9.27,9.27,0,0,1,3.75-7c2.5-2,5.72-2.73,8.75-3.49.32-.08,1.34-.35,1.34-.8l0-6.08c0-.39-1.47,0-1.56,0A99.83,99.83,0,0,0,74.08,62.5l2.27-.23,0-7.58-.63.55,10.56-4.47c2.6-1.1,6.39-1.93,7-5.16a32.85,32.85,0,0,0-.25-10.09A42.91,42.91,0,0,0,90,25.17c-.26-.62-2.85.14-2.9.77a24.8,24.8,0,0,0,5.76,17.73c.42.51,2.88-.06,2.89-.77a75.7,75.7,0,0,0-3.51-24.42c-.18-.58-2.76.13-2.87.65a59.73,59.73,0,0,0,.18,26c.15.6,2.82-.15,2.9-.78l2.27-17.74c0-.29-2.79-.07-2.9.78Z"/><path class="cls-8" d="M71.5,27.46l2,10.63,1.24-1.19L56.07,41l1.67.64C58,36.48,61.15,32,65.32,29.12c4.73-3.29,10.48-4.65,16-6l-.8-1.48L62.6,28.33l1.95.74c3.21-4.31,8.26-6.62,13.07-8.65s10.06-3.93,14.28-7.27a17.24,17.24,0,0,0,5.27-6.72c.61-1.42-2-.86-2.54-.36A160.5,160.5,0,0,1,58.82,31.72c-1.46.76-.63,1.9.8,1.47A92,92,0,0,1,70,30.67l-.41-1.55a32.15,32.15,0,0,0-10.89,7c-1.12,1.1,1.1,1.29,1.77,1l13.34-6.63L72.25,29.3,59.31,39.45c-1.41,1.11.49,1.65,1.51,1.17l12-5.74-1.77-1L64.7,39.38a.61.61,0,0,0,.17,1.09,2.19,2.19,0,0,0,1.92-.3l4.88-3.82-2.09-.79a7.07,7.07,0,0,1-8.86.59c-.68-.44-1.77,0-2.32.45A191.09,191.09,0,0,1,41.17,48.9c-.4.25-.87.93-.23,1.23a7,7,0,0,1,4,6.19c0,1.29,2.08.57,2.63.13,2.26-1.83,5.37-4.48,8.5-3.39,2.74,1,4.32,3.89,2.42,6.39-1.61,2.12-4.15,3.22-5.1,5.85-.76,2.07-.38,4.3,1.85,5.12a2.33,2.33,0,0,0,2-.55c1.36-1.28,3-2.94,4.88-3.31A3.6,3.6,0,0,1,66,69.28c.5,2.26-2.42,3.08-4,3.84-2.06,1-4.14,1.93-6.24,2.82q-6.45,2.76-13.13,4.9a20.75,20.75,0,0,1-2.88.87c-1.36.21-1.37-1.09-1.28-2.11.23-2.47.6-4.94.89-7.4l-1.24,1,4.07-.93C43.45,72,45,71.89,46,71a5,5,0,0,0,1.47-4.19,7.19,7.19,0,0,0-6.35-6.28c-4.11-.36-8,2.27-9.95,5.76-2.52,4.46-1.75,9.8-.67,14.58,1.43,6.29,3,12.56,4.51,18.83.19.8,1.58.46,2,.29a57.66,57.66,0,0,0,10.18-5.1l-2.37-.11,1.28,15.08.86-1-12.26,4.61,2,.28-4-13.76c-.87-3-2.54-6.55-6.27-5.69-3.21.73-3.88,3.88-3.62,6.75.44,4.69,1.32,9.37,2,14l2.31,16.36c.09.64,1.3.52,1.67.41a15.3,15.3,0,0,0,4.72-2.33,25.61,25.61,0,0,1,4.61-3c1.58-.67,3.27-.64,4.4.76.73.89,1.33,2.62.32,3.54a7.69,7.69,0,0,1-2.2.94,5.07,5.07,0,0,0-1.94,1.38c-.74.86-1.21,2.39-.06,3.15,1.68,1.12,5.75-1.56,3.52-2.77-.91-.49-3.55.79-2.29,1.48s.88-.7,1.18-1.23a2.48,2.48,0,0,1,1.51-1,6,6,0,0,0,3.19-2.07c1.21-1.88.17-4.33-1.5-5.53-2.29-1.63-5.56-.93-7.89.22-2.77,1.37-5,4-8,4.8l1.66.41L27.77,115l-1.11-7.81c-.33-2.35-.8-4.73-1-7.1a9.29,9.29,0,0,1,.11-2.41c.09-.42.34-1.67.89-1.78s1.34.93,1.61,1.31a8.82,8.82,0,0,1,1.19,2.52c1.59,4.87,2.91,9.85,4.35,14.77.24.78,1.56.47,2.05.28l12.25-4.62a1.14,1.14,0,0,0,.86-1L47.71,94c-.08-1-2-.36-2.36-.11a53.71,53.71,0,0,1-9.54,4.75l2,.28-3-12.39c-1-4-2.14-8-2.48-12-.29-3.55.32-7.35,2.84-10,1.92-2,4.76-3.06,7.08-1,1.91,1.64,3.22,5.06,1.16,7.09l1-.51-6.7,1.53c-.41.09-1.18.45-1.24,1-.31,2.59-.76,5.2-.93,7.79a2.71,2.71,0,0,0,2.92,3.22c2.15,0,4.41-1,6.42-1.68q3.44-1.14,6.83-2.44a142.12,142.12,0,0,0,13.62-6c1.55-.79,3.45-1.85,3.65-3.8a4.52,4.52,0,0,0-2.27-4c-4.13-2.7-8.85.88-11.8,3.65l2-.54c-1.23-.46-1.13-2.2-.86-3.21a6.61,6.61,0,0,1,2.39-3.25c2.09-1.83,4.79-4.32,3.47-7.4-1.16-2.7-4.34-4-7.14-3.84-3.74.27-6.82,2.55-9.63,4.83l2.63.13a8.11,8.11,0,0,0-4.62-7.35L43,49.89a198.26,198.26,0,0,0,17.76-12.7l-2.32.44a11.22,11.22,0,0,0,13.49-1.49c1.2-1.15-1.4-1.33-2.09-.79L65,39.18l2.09.79,6.33-5.47a.61.61,0,0,0,0-1,2,2,0,0,0-1.74.07l-12,5.74,1.51,1.16L74.08,30.3c1.41-1.11-.49-1.68-1.51-1.17L59.24,35.76l1.77,1a28.63,28.63,0,0,1,9.71-6.26c1.25-.48.94-1.79-.41-1.55a104,104,0,0,0-11.12,2.67L60,33.05A165.47,165.47,0,0,0,97,6.66l-2.54-.37c-2.07,4.86-6.4,7.67-11,9.81-5,2.29-10.2,4-14.88,6.87a23.63,23.63,0,0,0-6.71,6c-.81,1.09,1.55.89,2,.74L81.69,23c.43-.16,1-.64.8-1.15s-1.17-.42-1.61-.32c-6.12,1.51-12.51,3.1-17.71,6.84-4.44,3.19-8.05,8-8.34,13.62,0,.85,1.14.76,1.67.64l18.67-4.1c.5-.11,1.36-.56,1.24-1.19l-2-10.64c-.21-1.09-3.12-.37-2.9.78Z"/><path class="cls-8" d="M46.54,116.67l2.79,11c.34,1.34,3.07.55,2.9-.78l-.1-.77c-.09-.7-1.22-.71-1.71-.58s-1.28.64-1.19,1.36l.1.77,2.9-.78-2.8-11c-.33-1.31-3.23-.54-2.89.78Z"/><path class="cls-8" d="M53.44,115.81l3.36,8.6c.18.47,1.25.2,1.58.11s1.49-.44,1.32-.89L56.34,115c-.18-.46-1.25-.2-1.58-.1s-1.49.43-1.32.88Z"/><path class="cls-8" d="M65,108.18l4.78,9.39c.57,1.11,2.85.08,2.78-1-.27-4.23-2-7.64-4.51-11-1-1.36-2.15-3.18-1.06-4.85a5.87,5.87,0,0,1,3.82-2.09C74,98,77.58,98,79.9,95.38c1.32-1.49,1.06-2.75-.1-4.23l-4.39-5.57L74.71,87A60.74,60.74,0,0,1,87.92,83.7l-1.23-1.15A4.15,4.15,0,0,0,87.81,88,4.86,4.86,0,0,0,94,87.47a6.9,6.9,0,0,0,1.86-6c-.43-3-2.45-5.43-3.16-8.31l-2.78,1c6,8.12,5.49,18.87,4.87,28.45-.1,1.44,2.84,1,2.93-.25.65-9.95,1.12-21-5.14-29.45-.65-.88-3.08-.21-2.78,1,.87,3.54,4.07,7,3,10.8-.31,1.07-1.16,2.68-2.46,1.81a2.75,2.75,0,0,1-.83-3.72c.52-.79-.69-1.23-1.24-1.15A67.68,67.68,0,0,0,73.45,85.4c-.5.19-1.13.89-.7,1.43l4.1,5.2c.68.86,1.48,1.56.64,2.57a4.17,4.17,0,0,1-1.93,1.19c-3.15,1.07-6.47.73-9.35,2.68a5.65,5.65,0,0,0-2.5,3.38,6,6,0,0,0,1.46,4.68,25,25,0,0,1,3.2,5,17.56,17.56,0,0,1,1.31,5.76l2.78-1-4.78-9.39c-.55-1.08-3.32-.07-2.66,1.25Z"/><g class="cls-9"><polygon class="cls-10" points="184.53 53.88 101.49 5.93 18.44 53.88 18.44 149.77 101.49 197.72 184.53 149.77 184.53 53.88"/><path class="cls-11" d="M101.49,201.18l-86-49.68V52.14L101.49,2.46l86.05,49.68V151.5ZM21.44,148l80.05,46.21L181.54,148V55.61l-80-46.22-80,46.22Z"/></g></g></svg>