<svg xmlns="http://www.w3.org/2000/svg" viewBox="0 0 200 200"><defs><style>.cls-1{opacity:0.84;}.cls-2{fill:#d48528;}.cls-3{fill:#e6e7e8;}.cls-4{fill:#623d16;}.cls-5{fill:#8e4d21;}.cls-6{fill:#231f20;}.cls-7{fill:#fee200;}.cls-8{fill:#27236a;}.cls-9{fill:#1c2052;}.cls-10{fill:#003f57;}.cls-11{fill:#bec0c2;}.cls-12{fill:#292728;}</style></defs><g id="Layer_19" data-name="Layer 19"><polygon class="cls-2" points="183.05 52.05 100 4.11 16.95 52.05 16.95 147.95 100 195.9 183.05 147.95 183.05 52.05"/><path class="cls-3" d="M100,199.36,14,149.68V50.32L100,.64l86.05,49.68v99.36ZM20,146.21,100,192.43l80.05-46.22V53.78L100,7.57,20,53.78Z"/><polygon class="cls-4" points="183.05 147.95 100 112.59 16.95 147.95 100 195.9 183.05 147.95"/><polygon class="cls-5" points="100 112.59 100 4.11 16.95 52.05 16.95 147.95 100 112.59"/><path class="cls-6" d="M183.5,51.87l-8.35-4.82-20-11.51L131.06,21.6,110.38,9.66l-6.74-3.89A30.62,30.62,0,0,0,100.55,4c-.67-.28-1.41.34-2,.68l-5,2.88L74.84,18.35l-24,13.86L29.18,44.72,17.25,51.61a2.66,2.66,0,0,0-.59.34c-.25.23-.19.43-.19.77v93.89c0,.48-.18,1.25.16,1.59a5,5,0,0,0,1.1.63l2.13,1.24,16.38,9.45,23.44,13.54L82.62,186.3l14.84,8.57,2.09,1.2a.78.78,0,0,0,.74-.07l8.3-4.79,19.92-11.5,24.06-13.89,20.73-12,6.75-3.89c1-.61,2.18-1.16,3.18-1.84.5-.35.3-1.1.3-1.67V51.92c0-.23-1-.07-1,.26v94.43a4.72,4.72,0,0,0,0,1.3.49.49,0,0,1,0,.17l.2-.24-8.3,4.79L154.7,164l-24.06,13.89-20.72,12-6.85,4a25.14,25.14,0,0,0-3.22,1.86l-.14.08.74-.07-8.3-4.8-19.76-11.4-24-13.85-20.74-12-6.83-3.95-2.16-1.25a7.23,7.23,0,0,1-1.12-.64c-.21-.18-.08,0-.12-.22a7.27,7.27,0,0,1,0-1.32V51.92l-.2.24,8.3-4.79L45.3,36,69.36,22.07l20.72-12,6.85-4a25.14,25.14,0,0,0,3.22-1.86l.14-.08-.74.07,8.3,4.8,19.76,11.4,24.06,13.89,20.72,12,6.84,3.95c1.06.61,2.12,1.34,3.23,1.86l.14.08C182.86,52.38,183.7,52,183.5,51.87Z"/><path class="cls-6" d="M100.45,199.18l-8.6-5L71.38,182.4,46.45,168,25,155.64l-7.12-4.11-2.2-1.27a7.1,7.1,0,0,1-1.17-.67c-.2-.18-.07,0-.11-.24a7.84,7.84,0,0,1,0-1.37V50.19l-.2.24,8.6-5L43.32,33.64,68.24,19.25,89.71,6.86l7.1-4.1A24.45,24.45,0,0,0,100.14.83l.15-.08-.74.07,8.6,5L128.62,17.6,153.55,32,175,44.36l7.12,4.11,2.2,1.27a7.1,7.1,0,0,1,1.17.67c.2.18.07,0,.11.24a8,8,0,0,1,0,1.38v97.78l.2-.24-8.6,5-20.48,11.82-24.92,14.39-21.47,12.39-7.1,4.1c-1.1.64-2.27,1.22-3.33,1.93l-.15.08c-.56.32.31.37.58.22l8.6-5,20.47-11.82,24.93-14.39,21.47-12.4,7.09-4.09c1.11-.64,2.28-1.22,3.34-1.93l.15-.08c.09-.06.19-.12.19-.24V51.71a6.09,6.09,0,0,0,0-1.35,1,1,0,0,1,0-.17l0,0-8.65-5-20.75-12-24.93-14.4L110.68,6.37l-7-4A30.52,30.52,0,0,0,100.54.51c-.68-.28-1.43.37-2,.71l-5.27,3-19.4,11.2L49,29.82,26.5,42.8,14.24,49.88l-.58.33c-.09.06-.19.12-.19.24v97.84a6.09,6.09,0,0,0,0,1.35,1,1,0,0,1,0,.17l0,.05,8.6,5,20.47,11.82L67.5,181,89,193.43l7.09,4.09c1.1.64,2.19,1.39,3.34,1.93l.15.09C99.82,199.69,100.65,199.3,100.45,199.18Z"/><path class="cls-6" d="M19.5,146.39l8,4.62,19,11L69.74,175.4l20,11.53,6.6,3.81c1,.59,2,1.29,3.1,1.79l.14.08a.84.84,0,0,0,.74-.07l4.65-2.69,12-6.92,16.21-9.37,17.53-10.11,15.65-9,10.83-6.26,2.67-1.54c.33-.19.63-.28.7-.66a12.66,12.66,0,0,0,0-2.22V56.08a9.66,9.66,0,0,0,0-2.28c-.08-.3-.28-.34-.58-.51L172.55,49l-13.76-8-17-9.79-17.19-9.92L110.18,13l-8.57-4.95-1.16-.67a.84.84,0,0,0-.74.07l-8,4.62L72.51,23.16,49.32,36.55l-20,11.54-6.5,3.76c-1,.58-2.11,1.11-3.07,1.77-.49.33-.3,1.05-.3,1.61v91.11c0,.24,1,.08,1-.25v-91a4.83,4.83,0,0,0,0-1.26s0-.11,0-.15l-.2.23,8-4.62,19.05-11L70.48,24.89l20-11.53,6.6-3.81a25,25,0,0,0,3.1-1.8.91.91,0,0,1,.14-.07l-.74.07,8,4.62,19,11,23.12,13.35,20,11.54,6.59,3.8a22.57,22.57,0,0,1,3.16,1.83c.2.17.07-.05.11.21a7.69,7.69,0,0,1,0,1.27v91l.2-.23-8,4.62-19,11-23.19,13.39-20,11.53-6.6,3.81a26.3,26.3,0,0,0-3.1,1.79.5.5,0,0,1-.14.08l.74-.07-8-4.62-19-11L50.22,163.25l-20-11.53-6.6-3.81c-1-.59-2-1.29-3.1-1.79L20.4,146C20.14,145.88,19.3,146.28,19.5,146.39Z"/><path class="cls-6" d="M183.44,147.73l-8.33-3.54-20-8.5L131,125.43l-20.67-8.8-6.74-2.87a33.09,33.09,0,0,0-3.13-1.34c-.6-.18-1.33.29-1.88.52l-5.12,2.19-18.82,8-23.9,10.17-21.6,9.2-11.86,5-.55.24c-.05,0-.45.23-.27.34l8.33,4.8,20,11.53,24.1,13.92,20.72,12,6.75,3.9c1,.58,2,1.29,3.08,1.78.66.3,1.45-.37,2-.7l5.09-2.94,18.78-10.84,24-13.85L171,155.19l11.82-6.82.54-.32c.56-.32-.31-.37-.58-.21l-8.28,4.78L154.6,164.1l-24,13.83-20.7,12-6.86,4a32,32,0,0,0-3.22,1.85.67.67,0,0,1-.14.09l.74-.07-8.28-4.78L72.29,179.46l-24-13.84-20.71-12-6.86-4-2.1-1.22a5.9,5.9,0,0,0-1.11-.64c-.05,0-.1-.06-.15-.08l-.27.34,8.28-3.53,19.88-8.46,23.95-10.2,20.7-8.81,6.87-2.92a32.82,32.82,0,0,0,3.22-1.38l.15-.06-.57,0,8.28,3.53,19.87,8.46,24,10.2,20.7,8.81,6.87,2.93c1.06.45,2.13,1,3.22,1.37l.15.06C182.91,148.27,183.79,147.88,183.44,147.73Z"/><path class="cls-6" d="M100.48,112.46V5.6a9.89,9.89,0,0,0,0-1.44,1.08,1.08,0,0,1,0-.18c0-.25-.69,0-.77,0L91.4,8.79,71.6,20.23,47.65,34.05l-20.8,12c-3.34,1.93-6.77,3.77-10,5.8l-.14.09c-.09,0-.19.11-.19.23v94.44a7.94,7.94,0,0,0,0,1.29,1,1,0,0,1,0,.17c0,.21.6,0,.66,0l8.27-3.52,19.85-8.46,24-10.22L90,117.08c3.34-1.42,6.72-2.79,10-4.27l.15-.06c.62-.26,0-.49-.36-.32L91.55,116,71.7,124.41l-24,10.22L27,143.46l-6.82,2.9a33.64,33.64,0,0,0-3.21,1.37l-.15.06.67,0V53.38a7,7,0,0,0,0-1.29.49.49,0,0,1,0-.17l-.2.24,8.31-4.8L45.36,35.93,69.3,22.1l20.8-12,6.79-3.91a36.36,36.36,0,0,0,3.26-1.89l.14-.08-.77,0V111.1a9.89,9.89,0,0,0,0,1.44,1.08,1.08,0,0,1,0,.18C99.52,113,100.48,112.79,100.48,112.46Z"/></g><g id="Layer_20" data-name="Layer 20"><path class="cls-6" d="M105.12,116.45l-.92-.38a2.67,2.67,0,0,0-.65-2.86l.67-.74A3.63,3.63,0,0,1,105.12,116.45Z"/><path class="cls-6" d="M103.45,112.56l10.65,2.74,2.51.65c.15,0,.53,0,.57.25a1.42,1.42,0,0,1-.14.35c-.16.39-.34.79-.52,1.17a30.49,30.49,0,0,1-1.93,3.5,42.47,42.47,0,0,1-11.48,11.47,114.75,114.75,0,0,1-14.44,8.39c-6.42,3.27-12.87,6.49-19.31,9.74l-22,11.11c-.57.28.33.24.56.12l35-17.61c9.06-4.57,18.55-8.95,26.16-15.81a34.45,34.45,0,0,0,9.21-12.77c0-.06,0-.09-.08-.1l-13.88-3.58a1.06,1.06,0,0,0-.67.13c-.08,0-.33.19-.12.25Z"/><path class="cls-6" d="M124.33,121.75c1.07,2.4,3.94,3.07,6.34,3,3.18-.07,7.25-1.19,9.39,1.95a3,3,0,0,1-.49,4.06c-1.18,1.19-2.54,2.25-3.81,3.34q-3.93,3.36-8,6.59a315.92,315.92,0,0,1-34,23.74q-10,6-20.33,11.3c-.6.3-.06.67.39.44a316.28,316.28,0,0,0,36.23-21.54q8.67-6,16.92-12.48,4.14-3.27,8.18-6.69c1.32-1.11,2.63-2.24,3.93-3.37,1.07-.94,2.41-2,2.52-3.52a4.19,4.19,0,0,0-2-3.58,7.79,7.79,0,0,0-4.91-1.09c-3,.12-7.82,1.15-9.43-2.41-.16-.37-1.11-.07-1,.25Z"/><path class="cls-6" d="M96.36,179.91Q106.5,170,117.45,161T140,144.1q6.58-4.51,13.38-8.7c.56-.34.05-.89-.43-.59q-12.12,7.45-23.56,15.93t-22.15,18q-6,5.31-11.69,10.89a.3.3,0,0,0,.13.48.64.64,0,0,0,.68-.18Z"/><path class="cls-6" d="M98.27,123.08q13.24,5.31,26.29,11.08t25.9,12q7.24,3.51,14.4,7.16c.35.18,1.21-.3.75-.54q-12.77-6.5-25.75-12.55t-26.05-11.59q-7.45-3.16-15-6.17c-.39-.16-1.13.4-.57.62Z"/><path class="cls-6" d="M86.35,126.06A110.6,110.6,0,0,1,109,137.61a109.19,109.19,0,0,1,10.08,7.58c3.07,2.59,5.9,5.45,9,8s6.94,4.8,11.17,5.21c.23,0,1.11-.37.62-.41-7.91-.77-13.52-7.62-19.17-12.48A110.2,110.2,0,0,0,100,131.4a112.84,112.84,0,0,0-12.87-5.73c-.22-.08-1.09.28-.79.39Z"/><path class="cls-6" d="M74.25,134.38l23.08,13.74,23.08,13.74,13.09,7.79c.25.15,1.07-.24.91-.34l-23.08-13.73L88.26,141.84,75.16,134c-.24-.14-1.06.25-.91.34Z"/><path class="cls-6" d="M61.77,141.86Q74.16,147.55,86,154.4t22.68,14.66q6.21,4.44,12.17,9.21c.33.26,1.18-.21.75-.55q-10.65-8.5-22.06-16T76,147.94q-6.75-3.54-13.69-6.72c-.4-.19-1.11.39-.56.64Z"/><path class="cls-6" d="M40,143.86q13.54,8.92,27.77,16.72t29,14.39q8.33,3.71,16.82,7a.89.89,0,0,0,.62-.05s.44-.22.29-.28q-15.11-5.91-29.68-13t-28.5-15.42q-7.83-4.67-15.45-9.68c-.22-.15-1,.24-.91.33Z"/><path class="cls-6" d="M25.69,58.34a27.59,27.59,0,0,0,17-11.42c.23-.35-.73-.25-.9,0a26.3,26.3,0,0,1-16.18,11c-.58.12-.46.56.12.44Z"/><path class="cls-6" d="M26,59a42.77,42.77,0,0,1,1.82,21.34c-.08.44.73.31.89.09,1.2-1.67,3.22-2.23,5.13-2.7a17.42,17.42,0,0,0,5.45-1.86,5.31,5.31,0,0,0,1.83-2,7.79,7.79,0,0,0,.55-4.11c-.23-3.35-.54-6.69-.8-10l-.93-11.62c0-.42-1-.2-1,.25q.81,10,1.6,20c.2,2.49.55,5.38-1.8,7-1.57,1.06-3.59,1.34-5.39,1.79-2,.51-4.2,1.22-5.48,3l.89.09a43.13,43.13,0,0,0-1.82-21.52c-.15-.43-1.11-.16-1,.26Z"/><path class="cls-6" d="M47.92,53.82,48.56,72c0,.31.67.14.79,0A39.16,39.16,0,0,1,65.1,64.52c.19,0,.52-.25.37-.48a43.48,43.48,0,0,1-7.12-23.35c0-.43-.7-.24-.88-.06a33.2,33.2,0,0,1-11.88,7.65c-.14,0-.38.26-.24.43a6.92,6.92,0,0,1,1.07,7c-.2.46.76.39.91,0a7.29,7.29,0,0,0-1.09-7.48l-.25.44a34.38,34.38,0,0,0,12.27-7.9l-.88-.06a43.91,43.91,0,0,0,7.2,23.65L65,64a40.4,40.4,0,0,0-16.22,7.73l.79,0-.63-18.17c0-.37-1-.16-1,.25Z"/><path class="cls-6" d="M65.88,41.43l2.56,12.86.66,3.31a10.28,10.28,0,0,0,.65,2.58c.79,1.54,2.56,1.15,3.87.58,1.93-.84,3.85-1.72,5.78-2.58a54.19,54.19,0,0,0,5.36-2.47A3.82,3.82,0,0,0,86.85,52a13.6,13.6,0,0,0-.63-2.81l-.9-3.09L81.21,32c-.08-.29-.62-.11-.78,0L62.35,41.81c-.18.1-.24.25-.09.38s.54,0,.69-.09L81,32.23l-.79,0,3.32,11.41,1.66,5.71c.45,1.56,1.2,3.55.16,5a4.81,4.81,0,0,1-1.95,1.43c-.83.39-1.67.75-2.51,1.13l-5.36,2.39c-.87.39-1.72.81-2.6,1.15s-1.85.32-2.31-.71a9.45,9.45,0,0,1-.54-2.17l-.63-3.19L66.84,41.17c-.06-.33-1-.1-1,.26Z"/><path class="cls-6" d="M104.24,37.86q-2.53,17.1-3.65,34.38c-.37,5.71-.61,11.43-.49,17.15.06,2.88.2,5.75.47,8.62a34.82,34.82,0,0,0,1.25,7.39,9.75,9.75,0,0,0,4.45,5.79,7,7,0,0,0,6.25.2c.06,0,.2-.09.2-.19l-.35-32.48L112,46.23c0-2.32,0-5.07-1.73-6.86a4.31,4.31,0,0,0-5.22-.84c-.2.11-.08.16,0,.2a1.21,1.21,0,0,0,.68-.19,2.9,2.9,0,0,1,2.85.54,4.91,4.91,0,0,1,1.78,2.34c.79,2.1.61,4.49.64,6.69l.17,15.37.34,30.74.19,17.24.21-.18c-2,1-4.38.07-6-1.21a10.73,10.73,0,0,1-3.42-5.72,41.65,41.65,0,0,1-1.07-7.22c-.24-2.74-.37-5.49-.42-8.25A274.16,274.16,0,0,1,102.89,56q1-9.21,2.31-18.38c0-.09-.92,0-1,.26Z"/><path class="cls-6" d="M104.83,34.4a11,11,0,0,1,5.42-7.75,9.48,9.48,0,0,1,9.61.07,11.41,11.41,0,0,1,5.54,7.7c.27,1.52.44,4.4-1.69,4.6a14.3,14.3,0,0,1-2.92-.2c-1.15-.13-2.29-.28-3.43-.46a79.13,79.13,0,0,1-14-3.59c-.22-.07-1.08.28-.8.38a79.42,79.42,0,0,0,14.41,3.63c1.15.18,2.31.33,3.47.46a13.35,13.35,0,0,0,3.09.14,3.61,3.61,0,0,0,2.25-1,3.48,3.48,0,0,0,.78-2.39,11.17,11.17,0,0,0-5.07-9.2,10.92,10.92,0,0,0-10.07-1.08,11.67,11.67,0,0,0-7.49,8.84c0,.23.92.06,1-.17Z"/><path class="cls-6" d="M114.4,43.43l.16,26,.15,26,.09,14.7c0,.23.23.34.45.32a18.69,18.69,0,0,1,9,1c.23.08.78,0,.77-.37l-.62-26.9-.62-26.91-.35-15.2a.33.33,0,0,0-.32-.31l-8-.76c-.48,0-1,.64-.34.7l8,.76-.32-.31.62,26.9L123.64,96l.35,15.2.77-.37a19.9,19.9,0,0,0-9.43-1.07l.45.32-.16-26-.15-26-.09-14.7c0-.5-1-.35-1,.08Z"/><path class="cls-6" d="M141,56.9c-.59-3,1.36-5.79,3.95-7.18a8.69,8.69,0,0,1,9,.76A18.46,18.46,0,0,1,160.22,58a3.62,3.62,0,0,1,.54,2.7c-.33.86-1.2.86-2,.73a17,17,0,0,1-2.58-.78l-3-1-13.81-4.71c-.26-.09-1.13.31-.78.43l14.28,4.87,3.51,1.2a8.78,8.78,0,0,0,2.52.57c1.52.06,3.18-.71,2.94-2.48a8.58,8.58,0,0,0-1.14-2.75,23.55,23.55,0,0,0-1.42-2.29,16.8,16.8,0,0,0-3.94-4A10.23,10.23,0,0,0,145.58,49c-3.29,1.27-6.25,4.46-5.52,8.21.05.28,1,.05,1-.26Z"/><path class="cls-6" d="M138.06,62.63l-2.16,28.5-1.07,14.19c-.3,3.93-1.1,8.51,1,12.1,1.47,2.52,5,4.2,7.74,2.87a2.35,2.35,0,0,0,.87-.57c.24-.34.12-1,.14-1.43l.15-3.62.29-7.1L146.19,79c.09-2.31.2-4.61.28-6.92a19.62,19.62,0,0,0-.49-5.87c-.85-3.09-3.6-5.93-7-5.61a4.87,4.87,0,0,0-2.07.68c-.56.34-.05.9.43.6,3-1.82,6.44,1,7.47,3.8a15.81,15.81,0,0,1,.73,5.72c0,2.1-.15,4.2-.24,6.29l-1.1,26.8-.62,15.09.16-.27c-2.74,2-6.36-.63-7.44-3.26a13.78,13.78,0,0,1-.8-5.63c.06-2.1.28-4.2.43-6.3l2-26.51L139,62.57c0-.52-.94-.4-1,.06Z"/><path class="cls-6" d="M151.81,74.65a90.53,90.53,0,0,1,.43,25.36,89.31,89.31,0,0,1-2.47,12.45c-.7,2.6-1.68,5.86-.42,8.45,1.37,2.79,4.86,2.65,7.05.93,3-2.39,2.85-6.78,3-10.26l1.21-26.7.31-6.7a44.29,44.29,0,0,0,.16-6.09,5,5,0,0,0-2.18-3.84A9,9,0,0,0,154.7,67a20.48,20.48,0,0,0-2.35,0c-.16,0-.66.08-.67.34l-.14,9.79c0,.42,1,.23,1-.11l.15-9.8-.67.34c2.75-.09,6.53.14,7.74,3.11.72,1.75.4,3.81.32,5.64l-.29,6.34-1.13,25.08c-.1,2.09-.19,4.18-.29,6.26a15.27,15.27,0,0,1-.91,5.28,5.18,5.18,0,0,1-3.63,3.25,3.3,3.3,0,0,1-3.47-1.86c-1.22-2.47-.33-5.59.36-8.08a90,90,0,0,0,2.51-35.27q-.18-1.45-.42-2.91c-.05-.34-1-.11-1,.26Z"/><path class="cls-6" d="M39.81,136.25l.7-2.06a.34.34,0,0,0-.3-.44.61.61,0,0,0-.63.3l-.7,2.06a.34.34,0,0,0,.31.44.6.6,0,0,0,.62-.3Z"/><path class="cls-6" d="M35.35,136a5.23,5.23,0,0,0,5.19-1.75,4.25,4.25,0,0,0,.13-5.36,4.59,4.59,0,0,0-5.31-1.63,4.9,4.9,0,0,0-3.08,4.39,4.35,4.35,0,0,0,3.13,4,4.54,4.54,0,0,0,5-1.34,4.72,4.72,0,0,0,.63-5,4,4,0,0,0-5-1.88,3,3,0,0,0-1.42,4.2c1,1.51,3.41,1,4.24-.47a1.63,1.63,0,0,0-.25-2,1.9,1.9,0,0,0-1.76-.26c-1.09.3-2.6,1.52-2,2.8.75,1.55,2.77,1,3.71,0a2.56,2.56,0,0,0,.8-1.86,1.88,1.88,0,0,0-1.3-1.65,3.4,3.4,0,0,0-4,1.91c-.62,1.6.67,3,2.18,3.31a3.54,3.54,0,0,0,4-1.81A4,4,0,0,0,38.79,127c-.33-.22-.83-.55-1.24-.44a2.05,2.05,0,0,0-1,.77,2.88,2.88,0,0,0-.51,2.13,2.49,2.49,0,0,0,1.19,1.87.93.93,0,0,0,1.16-.09A4.2,4.2,0,0,0,39.44,130a4.09,4.09,0,0,0,.53-2.84.34.34,0,0,0-.32-.21,2.19,2.19,0,0,0-2.31,1.7,1.9,1.9,0,0,0,1.79,2.05.66.66,0,0,0,.63-.29c.09-.21-.09-.37-.29-.39a1.32,1.32,0,0,1-1.16-1.18,1.09,1.09,0,0,1,1-1.21l-.31-.21a3.52,3.52,0,0,1-1.47,3.5l.6-.11c-1.37-.54-1.66-3-.29-3.71l-.49,0a3.51,3.51,0,0,1,2.2,2.74,2.42,2.42,0,0,1-1.34,2.77,2.66,2.66,0,0,1-2.7-.54,1.86,1.86,0,0,1,.07-2.73,1.56,1.56,0,1,1,1.94,2.26,1.29,1.29,0,0,1-1.06.31,1.09,1.09,0,0,1-.76-.91c-.05-.75.78-1.44,1.46-1.54,1-.15,1.15,1.07.69,1.69a1.42,1.42,0,0,1-2.52-.27A2.33,2.33,0,0,1,36.4,128a3.07,3.07,0,0,1,3.51,1.36c1.3,2,.31,5.4-2.2,5.82a4,4,0,0,1-3.33-1.11,3.57,3.57,0,0,1-1-3.46,4.07,4.07,0,0,1,2.39-2.79A3.55,3.55,0,0,1,39.47,129a3.9,3.9,0,0,1,1,3.84,4.11,4.11,0,0,1-2.7,2.55,3.51,3.51,0,0,1-1.82,0,.68.68,0,0,0-.68.18.26.26,0,0,0,.12.45Z"/><path class="cls-6" d="M55.29,121.29,57,122.58a.92.92,0,0,0,.93-.25,2.42,2.42,0,0,0-1.2-3,2.75,2.75,0,0,0-3.29.63,2.65,2.65,0,0,0-.26,2.87,2.49,2.49,0,0,0,3.11.79,2.65,2.65,0,0,0,2-2.84,2.9,2.9,0,0,0-2.82-2.27,3,3,0,0,0-2.74,2.36A2.49,2.49,0,0,0,54,123.74a3.77,3.77,0,0,0,3.65-.31,2.74,2.74,0,0,0,1-3.05,2.61,2.61,0,0,0-2.66-1.9,3.55,3.55,0,0,0-3.09,1.82,2.44,2.44,0,0,0,1.35,3.1,2.84,2.84,0,0,0,3.38-.82,2.45,2.45,0,0,0,0-2.88c-.83-1-2.36-.72-3.32-.11a2.52,2.52,0,0,0-1.24,2.83A2.73,2.73,0,0,0,55.64,124a3.64,3.64,0,0,0,3.12-1.41,3.35,3.35,0,0,0,0-3.48,3.4,3.4,0,0,0-1.22-1.25.94.94,0,0,0-.89.2l-4.42,4.81s-.07.09,0,.14a2.69,2.69,0,0,0,2.49.36,3.33,3.33,0,0,0,2-1.47,1.91,1.91,0,0,0-.23-2.17,2.86,2.86,0,0,0-2.06-.92,3.08,3.08,0,0,0-2.61,1.11c-.1.14.35.1.39.1a.93.93,0,0,0,.57-.27,1.14,1.14,0,0,1,1.18-.53,2.53,2.53,0,0,1,1.54.75,1.92,1.92,0,0,1-.72,3,1.57,1.57,0,0,1-1.68-.32v.14L57.5,118l-.9.2a3.47,3.47,0,0,1,1.62,2.44,2.77,2.77,0,0,1-.87,2.63,2.23,2.23,0,0,1-3.4-2,2.26,2.26,0,0,1,1.5-1.82c.87-.14,1.54.75,1.65,1.51a2.22,2.22,0,0,1-.89,2.21A1.34,1.34,0,0,1,55,123a2.57,2.57,0,0,1-1.09-1.1,2.1,2.1,0,0,1,.62-2.64,1.82,1.82,0,0,1,2.35.13,2.82,2.82,0,0,1,.86,2.61,1.92,1.92,0,0,1-1.65,1.67,2.49,2.49,0,0,1-2.3-1.34,2.72,2.72,0,0,1,.34-2.73,2.18,2.18,0,0,1,.45-.46,1.38,1.38,0,0,1,.25-.17l.13-.06c.07-.07-.16,0,0,0a5.23,5.23,0,0,1,.76.18,3,3,0,0,1,.72.45,2.36,2.36,0,0,1,.65,2.88,1.62,1.62,0,0,1-2.18.84,2.13,2.13,0,0,1-1-2.08,2.52,2.52,0,0,1,.37-1.15,1.2,1.2,0,0,1,.7-.59,1.75,1.75,0,0,1,1.26.46,2.57,2.57,0,0,1,.85,1.18,1.88,1.88,0,0,1,0,1.4l.93-.25L56.2,121c-.15-.11-.47,0-.63.05s-.42.18-.28.28Z"/><path class="cls-6" d="M81.49,109.62a2.64,2.64,0,0,0,2.86-.28,2.38,2.38,0,0,0,.89-1.14,1.56,1.56,0,0,0,.09-.64c0-.28-.37-.4-.6-.5a4,4,0,0,0-3.42.14,2.77,2.77,0,0,0-1.44,2.56,2.15,2.15,0,0,0,1.65,2,2.93,2.93,0,0,0,2.72-.93,1.55,1.55,0,0,0-.14-2.21,2.37,2.37,0,0,0-2.51-.33,1.33,1.33,0,0,0-.42,2.27,1.84,1.84,0,0,0,2.73,0l-.26.2c1.5-.7,2.56-2.63,1.57-4.16a2.85,2.85,0,0,0-4.28-.41c-1,1.05-.78,3.06.71,3.52A2.65,2.65,0,0,0,84,109.1a1.76,1.76,0,0,0,.59-1.95c-.59-1.32-3.41-.5-3.09.95.07.35,1,.1,1-.26a.63.63,0,0,1,.11-.53.64.64,0,0,1,.14-.12l.08-.06s0,0,0,0,0,0,0,0l.1,0c-.07,0,.14,0,.05,0a.54.54,0,0,1,.25,0,.63.63,0,0,1,.37.33c.42.94-.66,2.2-1.6,1.68a1.9,1.9,0,0,1-.34-2.75c.77-.86,2.2-.1,2.66.75a2.51,2.51,0,0,1-1,3.22,1.64,1.64,0,0,0-.4.29l0,0h0c-.07,0,0,0,0,0a.45.45,0,0,1-.18,0,1.25,1.25,0,0,1-.3-.12,1.39,1.39,0,0,1-.75-1.09.76.76,0,0,1,.22-.57.58.58,0,0,1,.15-.12l.14,0a1.58,1.58,0,0,1,1.18.52,1.2,1.2,0,0,1,.19,1.34,1.42,1.42,0,0,1-.45.52,1.26,1.26,0,0,1-.58.22c-1.21.16-1.82-1.25-1.64-2.27a2,2,0,0,1,.94-1.45,2.33,2.33,0,0,1,1.74-.17,3.08,3.08,0,0,1,.9.42l-.1-.11a1.6,1.6,0,0,1-.74,1.43,1.19,1.19,0,0,1-1.37,0c-.27-.17-1.16.23-.76.48Z"/><path class="cls-6" d="M99.07,102.48c-.53,1.07.47,2.13,1.48,2.36a2.29,2.29,0,0,0,2.75-1.51,2.61,2.61,0,0,0-1.24-3,4.39,4.39,0,0,0-4.1.3,7.29,7.29,0,0,0-3,4.24c0,.07,0,.11.09.13a4.39,4.39,0,0,0,3.15,0,4.5,4.5,0,0,0,1.39-.8,3.51,3.51,0,0,0,.54-.55c.12-.15.39-.46.4-.65s-.22-.46-.34-.62a3,3,0,0,0-.58-.61,3.7,3.7,0,0,0-1.47-.7,4,4,0,0,0-3.22.62A3.6,3.6,0,0,0,93.41,105a.16.16,0,0,0,.1.08,10.5,10.5,0,0,0,3.93.91,4.07,4.07,0,0,0,3-1.17c1-1.12,1.19-3.52-.64-3.91a2.45,2.45,0,0,0-2.72,3.18c.82,1.85,3.64,1.12,4.71-.06,1.51-1.66.12-4.15-1.82-4.63a3.28,3.28,0,0,0-4,2.83,2.84,2.84,0,0,0,.76,2.36,3,3,0,0,0,2.48.71c1.81-.2,3.67-1.66,3.24-3.67a2.13,2.13,0,0,0-4.06-.54,1.21,1.21,0,0,0,.81,1.81,4.08,4.08,0,0,0,3.07-.7,3.23,3.23,0,0,0,1-1.15c.1-.17-.33-.15-.4-.14a.75.75,0,0,0-.55.29,2.28,2.28,0,0,1-2.44,1.26c-.91-.19-.75-1.34-.29-1.9.28-.34.53-.34.92-.12a2,2,0,0,1,.85,1,2.56,2.56,0,0,1-.34,2.5,2.27,2.27,0,0,1-3.89-.49c-.52-1.27.07-3.85,1.83-3.69s3.36,2.7,2,4.25a1.8,1.8,0,0,1-2.14.55,1.67,1.67,0,0,1-.82-2c.16-.61.62-1.45,1.35-1.15a1.69,1.69,0,0,1,.89,1.74,2.69,2.69,0,0,1-1,2c-1,.69-2.51.3-3.57,0a5.24,5.24,0,0,1-1-.36c-.19-.1-.19-.07-.22-.28a1.41,1.41,0,0,1,0-.5,3.32,3.32,0,0,1,.67-1.58,2.37,2.37,0,0,1,3-.68,3.36,3.36,0,0,1,1.25,1,.59.59,0,0,1,0,.86,3.53,3.53,0,0,1-.56.6,2.84,2.84,0,0,1-2.92.42l.09.14a6.92,6.92,0,0,1,2.52-3.86,2.46,2.46,0,0,1,3.93,2.29c-.06.43-.31,1.13-.78,1.26s-1.07-.32-1.35-.63a1.3,1.3,0,0,1-.25-1.47c.09-.19-.33-.16-.4-.15a.81.81,0,0,0-.56.29Z"/><path class="cls-6" d="M39.31,135.71l15.43-11.44c.42-.31-.47-.33-.68-.19l-17.73,12c-.54.36.3.45.59.26l17.74-12-.68-.2L38.54,135.57c-.19.14-.07.26.08.32a.86.86,0,0,0,.69-.18Z"/><path class="cls-6" d="M36.23,137.68l-.56,10.87c0,.21.87-.09,1-.22,2.19-3.48,6.25-5,9.71-6.9A18.5,18.5,0,0,0,51.08,138a10.21,10.21,0,0,0,2.61-6,26.92,26.92,0,0,0-1-8.78c0-.2-1,0-1,.26,1.08,4.74,2.14,10.37-1.39,14.38-2.66,3-6.68,4.3-10,6.33a13.83,13.83,0,0,0-4.66,4.27l1-.21.56-10.87c0-.13-.95,0-1,.26Z"/><path class="cls-6" d="M25.29,131.7l5.49,1.63c.23.07.79,0,.77-.37a1.89,1.89,0,0,0-2.17-1.73c-.31,0-.84.54-.31.72l4.84,1.59c.32.11,1.13-.35.64-.63L27.62,129a.58.58,0,0,0-.86.32,80.39,80.39,0,0,0-1.35,16.39.34.34,0,0,0,.32.34l11.75.66.32-.74a10.8,10.8,0,0,1-8.2-4.44,10.44,10.44,0,0,1-1.39-9.3,10.61,10.61,0,0,1,2.91-4.58c.25-.22.2-.55-.16-.61a7.09,7.09,0,0,1-5.68-5.23,6.93,6.93,0,0,1,2.79-7.15c2.14-1.53,4.91-1.15,7.31-1.93A4.64,4.64,0,0,0,38,110.92a4.72,4.72,0,0,0,.43-3.87c-.34-1.38-1-2.66-1.23-4.06a4.43,4.43,0,0,1,.65-3.39,1.79,1.79,0,0,1,2.76.18A7.21,7.21,0,0,1,42,103c.44,2,.94,4.86,3.22,5.56s3.54-1.75,5.06-3c1.2-1,2.5-.29,3.07,1,.69,1.59,0,3.18-.69,4.62a10.68,10.68,0,0,0-1.54,4.34,3.62,3.62,0,0,0,1.44,3.3l.74-.58c-2.61-1.61-1.53-5.23-1-7.61a7,7,0,0,0-.12-4.39A4.18,4.18,0,0,0,49.58,104a3.06,3.06,0,0,0-3,1c-.35.33-.84,1-1.36,1.06s-1-.77-1.18-1.24a3.34,3.34,0,0,0-2-2.16,4.57,4.57,0,0,0-3.11.25c-3,1.28-3.32,4.94-3.41,7.79l.77-.37a9.85,9.85,0,0,0-10.86,3.93A8.16,8.16,0,0,0,24,120.14a9.55,9.55,0,0,0,3.34,5.65,9.15,9.15,0,0,0,7,2.17c.55-.07.73-.83.08-.75-4.07.53-8.06-2.46-9.21-6.31a8.08,8.08,0,0,1,4.44-9.37,7.94,7.94,0,0,1,6.06-.57c.26.09.75,0,.76-.37.08-2.41.17-5.88,2.73-7.06a3,3,0,0,1,2.91.08c.9.62.93,1.81,1.62,2.59a1.86,1.86,0,0,0,2.51.14c.87-.61,1.54-1.88,2.77-1.66a3.46,3.46,0,0,1,2.43,2.4,9.11,9.11,0,0,1-.31,4.54c-.54,2.39-1,5.7,1.48,7.22.38.23,1.22-.26.74-.58a3.42,3.42,0,0,1-1.11-3.61c.3-1.61,1.33-3,1.94-4.47a5,5,0,0,0,.18-3.86,3,3,0,0,0-2.55-2,3.56,3.56,0,0,0-2.72,1.37c-.73.78-1.45,2.06-2.59,2.27-1.32.24-2.22-1.15-2.68-2.18a27.12,27.12,0,0,1-1-3.61c-.58-2.07-2.15-4.68-4.69-3.69-2.26.88-2.31,4-1.68,5.91.51,1.54,1.33,3.17,1.15,4.84A3.3,3.3,0,0,1,35.05,112c-2.52.76-5.22.47-7.49,2a7.71,7.71,0,0,0-3.25,8,7.82,7.82,0,0,0,6.33,5.71l-.17-.61a11.55,11.55,0,0,0-3.74,9.32A11,11,0,0,0,32,144.94a11.42,11.42,0,0,0,5.52,1.73c.22,0,.54-.06.62-.3a.32.32,0,0,0-.3-.44l-11.74-.66.33.34a81.1,81.1,0,0,1,1.35-16.39l-.86.32,6.93,4,.65-.63-4.84-1.6-.31.72a1.13,1.13,0,0,1,1.25,1l.77-.37L25.84,131c-.44-.14-1.13.51-.55.68Z"/><path class="cls-6" d="M42.23,132.83a23.49,23.49,0,0,0,10.62-7.06c.1-.12-.36-.08-.38-.07a.9.9,0,0,0-.57.25,22.14,22.14,0,0,1-10,6.69c-.09,0-.38.12-.29.25s.54,0,.62-.06Z"/><path class="cls-6" d="M44.77,124.84l8.81-.84c.29,0,.86-.54.32-.68L52,122.79a.64.64,0,0,0-.68.18.28.28,0,0,0,.13.47l1.94.53.32-.68-8.82.84c-.2,0-.51.15-.53.39s.25.34.45.32Z"/><path class="cls-6" d="M46.49,122.36l-10.1,8c-.18.14-.08.24.08.31a.84.84,0,0,0,.68-.19,1.62,1.62,0,0,1,1.76.3,1.94,1.94,0,0,1,.77,1.49L40,132a2.69,2.69,0,0,0-1.78,3.1c.06.23.56.1.67.05a57.62,57.62,0,0,0,13.67-8.72c.43-.36-.55-.28-.76-.13l-13.22,9.83c-.43.32.5.3.68.19l17.16-10.07c.16-.1.3-.34,0-.37l-2.63-.3c-.15,0-.9.09-.78.37a11.75,11.75,0,0,1-.45,9.9l.92-.06,1.72-6-1,.2a18.22,18.22,0,0,1-12.52,16.93l.44.29,7.35-6.23-.83-.07a12.41,12.41,0,0,1-5.23,4l.64.17L46,143c.16-.17-.14-.25-.26-.25a.87.87,0,0,0-.64.25l-1.89,2c-.28.29.54.21.63.17a13.56,13.56,0,0,0,5.75-4.37c.27-.35-.69-.18-.83-.06L41.36,147c-.34.29.26.34.44.28a19.15,19.15,0,0,0,12.57-12.47,17.37,17.37,0,0,0,.8-5.16c0-.3-.89,0-1,.2l-1.72,6c-.09.34.82.13.93-.07a12,12,0,0,0,.52-10.16l-.78.38,2.63.3V126L38.64,136l.68.19,13.21-9.83-.76-.13a56.64,56.64,0,0,1-13.28,8.5l.67,0a2.13,2.13,0,0,1,1.18-2.49c.14-.05.31-.15.3-.31,0-2.12-2.77-2.68-4.25-1.65l.76.12,10.11-8c.18-.14.07-.25-.09-.31a.85.85,0,0,0-.68.18Z"/><path class="cls-6" d="M74.66,113.38l-2.56,2.56c-.42.42.53.45.79.22l1.85-1.66-.85-.14-1.14,1.76c-.17.26.23.35.4.34a16.33,16.33,0,0,1,8.56,1.34l.56-.57L76.7,117c-.21,0-.85.19-.62.51,1.8,2.46,5.47.23,7.34-.93l10.72-6.67,6.16-3.83c.17-.11.23-.29.06-.43s-.52,0-.68.08l-13.54,8.32c-.52.32.18.56.51.41l16.24-7c.15-.07.46-.36.17-.5a7.19,7.19,0,0,0-6.24,0c-.6.29-.06.7.4.48a5.83,5.83,0,0,1,5.09,0l.17-.49-16.23,7,.51.41,13.54-8.32-.62-.35L87.36,113.4c-2,1.23-3.93,2.59-6,3.71-1.31.71-3.33,1.5-4.41,0l-.62.51,5.56.21c.18,0,1-.36.56-.56a17.66,17.66,0,0,0-9.21-1.45l.4.34,1.14-1.75c.29-.45-.68-.3-.85-.14l-1.85,1.65.79.22,2.56-2.56c.41-.41-.53-.48-.79-.22Z"/><path class="cls-6" d="M72.5,117l-.28,10.09c0,.17.15.21.3.23,3.16.3,7.42.58,9.69-2.15,1.55-1.85,1.92-5.35-.6-6.57-.19-.09-1,0-.87.37a9.07,9.07,0,0,1-.24,7.54c-.19.38.46.31.64.23a165.6,165.6,0,0,0,24.76-13.55c.15-.09.28-.28.08-.39a3.91,3.91,0,0,1-1.53-4.79l-.94,0-.18,4,.93-.25-2.54-3.67c-.17-.23-.93,0-.93.25l-.11,3.79c0,.42,1,.23,1-.11l.1-3.79-.93.25,2.54,3.66c.17.24.92,0,.93-.25l.19-4c0-.41-.82-.21-.94,0a4.23,4.23,0,0,0,1.68,5.3l.08-.4a165.06,165.06,0,0,1-24.55,13.43l.65.24a9.4,9.4,0,0,0,.31-7.83l-.87.37c2.2,1.06,1.92,4.14.65,5.82-1.91,2.52-5.85,2.09-8.6,1.83l.3.23.28-10.08c0-.42-1-.23-1,.11Z"/><path class="cls-6" d="M69.84,113.89l22.73-9.5c.63-.26,0-.43-.35-.27l-22.73,9.5c-.63.26,0,.43.35.27Z"/><path class="cls-6" d="M72.66,109.19l7.71.46a1.05,1.05,0,0,0,.69-.19c.13-.11.14-.19-.06-.22l-7.22-.81c-.17,0-1,.31-.71.39a27.47,27.47,0,0,0,10.21.75c.16,0,.5-.06.61-.21s.11-.2-.09-.2H80.17a1.08,1.08,0,0,0-.68.19c-.12.1-.16.22.06.22h3.63l.51-.4a26.72,26.72,0,0,1-9.83-.73l-.7.39,7.21.82.63-.41-7.72-.45a1.09,1.09,0,0,0-.68.18c-.12.11-.16.21.06.22Z"/><path class="cls-6" d="M94,100.06l6.41,1.41.32-.65-7.62.18c-.42,0-.82.61-.22.68l4.51.54c.34,0,1-.51.45-.66L91.48,100l-.2.63,2.21-.68c.25-.07.59-.35.29-.58a3.06,3.06,0,0,0-3.88.15c-.49.44.28.72.64.42a8.83,8.83,0,0,0,3.1-7.42,8.1,8.1,0,0,0-4.51-6.64,9.22,9.22,0,0,0-4-1,10,10,0,0,0-4,.89,3.56,3.56,0,0,1-2.3.36,3.7,3.7,0,0,1-1.37-.76,17.33,17.33,0,0,1-2.21-2.47c-1.23-1.48-3-3-5-1.84a3.25,3.25,0,0,0-1.51,2.7,5,5,0,0,0,1.31,3.57c1.07,1.27,2.49,2.19,3.55,3.47.93,1.12,1.69,2.86,1.09,4.31s-2.56,1.63-4,1.91a4.93,4.93,0,0,0-3.26,1.88c-.89,1.35,0,2.7,1.24,3.35,1.51.77,3.15,1.13,4.55,2.15a5,5,0,0,1,2.31,4.19c-.11,1.38-.93,3-2.47,3.11l.36.47a18.2,18.2,0,0,0,3.77-7.54c.1-.46-.88-.34-1,.08a17.36,17.36,0,0,1-3.6,7.2c-.23.28.08.49.36.47,2.45-.17,3.89-2.75,3.47-5-.52-2.88-3.57-4.35-6-5.23-1.16-.42-3-1.3-2.22-2.85.67-1.38,2.42-1.57,3.74-1.81a5,5,0,0,0,3.42-1.82,4,4,0,0,0,0-3.8,10.35,10.35,0,0,0-2.82-3.32c-1.11-1-2.36-2.09-2.73-3.59-.27-1.08-.19-2.62.82-3.31a2,2,0,0,1,2.45.42c1.54,1.28,2.41,3.25,4.16,4.3a4,4,0,0,0,3.33.32c.76-.25,1.48-.63,2.25-.84a7.16,7.16,0,0,1,2.1-.26,8,8,0,0,1,7.3,5.18,8.22,8.22,0,0,1-2.37,8.77l.64.42a1.85,1.85,0,0,1,2.49,0l.29-.59-2.21.67c-.24.08-.65.52-.19.64l6.38,1.62.45-.66L93.24,101l-.21.68,7.62-.18c.3,0,.85-.55.33-.66l-6.41-1.41a.68.68,0,0,0-.68.18c-.11.16-.12.4.12.45Z"/><path class="cls-6" d="M75.87,98.21a5,5,0,0,0,5.54,2.56,5.11,5.11,0,0,0,4.08-4.48c0-.11-.36-.06-.4-.06A1.21,1.21,0,0,0,84,97a1.25,1.25,0,0,0,.48,1.27A1.75,1.75,0,0,0,86,98.21a1.85,1.85,0,0,0,1-1.48c.22-1.85-2.23-3.11-3.45-4l-5.69-4.23-6.59-4.9c-.19-.14-1.08.17-.91.34l8.79,8.45c.18.18,1.07-.16.91-.33l-6.85-7.1c-.16-.17-1,.17-.93.3a30.78,30.78,0,0,0,9.91,8.81c.18.1,1,0,.94-.3l-.31-4.42-.2.2a4.28,4.28,0,0,1,3.13-.37,2.6,2.6,0,0,1,1.57,1.57,1.46,1.46,0,0,1-.48,1.76,1,1,0,0,1-1.36-.58l-.88.32a7.39,7.39,0,0,1,4.81,6.51l.94-.29L80.56,86.61l-.41.33a9.09,9.09,0,0,1,8.66,2.77,9.48,9.48,0,0,1,2,8.74c-.08.29.82,0,.91-.11a5,5,0,0,0,.8-5.82,8.23,8.23,0,0,0-5.71-4.25c-2.73-.73-5.58-.7-8.34-1.26a12.91,12.91,0,0,1-3.9-1.35,10.54,10.54,0,0,1-2.92-2.73,3.81,3.81,0,0,0-3-1.71,2.32,2.32,0,0,0-2.32,1.5c-.28,1.14.57,2.32,1.28,3.12,1.13,1.27,2.36,2.46,3.54,3.68l3.65,3.76.87.9c.23.24.56.45.32.8s-.87.38-1.37.34c-1.8-.16-4.26-.8-5.57.91a3.43,3.43,0,0,0-.39,3.08,5.11,5.11,0,0,0,2.65,2.78c2.46,1.31,6.06,1.79,7.15,4.76l.2-.21a11.67,11.67,0,0,0-6.13,11.63c0,.06.14.07.17.07l11,.73.39-.39a5.88,5.88,0,0,0-5.24,5.63c0,.19.92,0,1-.21,1.62-7.16,8.31-11.31,14.79-13.54,2.11-.74,4.27-1.33,6.43-1.92l-.53,0c2.21,3.22.2,7.47-2.69,9.47-3.42,2.37-7.75,2.72-11.58,4.1a14.46,14.46,0,0,0-5.48,3.28c-.25.26.63.09.72,0l13-6.91-.72,0a14.31,14.31,0,0,1-6.26,3.82l.32.23,2.49-1.22c.47-.23-.08-.3-.33-.23a28.46,28.46,0,0,1-16.6-.28c-.23-.07-1.08.29-.79.39a30.09,30.09,0,0,0,17.48.21l-.32-.23-2.49,1.21c-.47.24.08.3.33.23a15.94,15.94,0,0,0,7-4.19c.25-.25-.63-.09-.72,0l-13,6.91.72,0c3-3.11,7.55-3.66,11.53-4.87,3.58-1.08,7.34-2.85,8.75-6.58a6,6,0,0,0-.44-5.6c-.1-.14-.4-.07-.53,0-7.18,2-15,4.25-19.61,10.58a14.64,14.64,0,0,0-2.47,5.36l1-.21a5,5,0,0,1,4.1-5c.14,0,.88-.36.4-.39l-11-.73.17.08a11.3,11.3,0,0,1,5.73-11.22s.24-.11.2-.2c-1.31-3.57-5.88-3.53-8.46-5.66a3.81,3.81,0,0,1-1.32-4.21c.65-1.72,2.47-1.22,3.91-1,1.25.15,3,.17,3.57-1.22a.06.06,0,0,0,0-.08c-2.82-2.91-5.72-5.75-8.46-8.73a5.61,5.61,0,0,1-1.26-2c-.25-.78-.12-2.09,1-2,1.65.12,2.52,2,3.53,3,4.78,4.89,12.88,1.61,18,5.85,2.18,1.83,3.37,5.76,1,7.91l.92-.11A9.57,9.57,0,0,0,89.32,89a10,10,0,0,0-9.25-2.34c-.09,0-.55.17-.42.33L89.5,98.78c.14.17,1-.06.94-.3a7.56,7.56,0,0,0-5-6.63c-.13,0-1,.09-.88.32.72,1.73,3.87.64,3.88-1.06a2.71,2.71,0,0,0-2.22-2.44,6.91,6.91,0,0,0-4.11.72c-.08,0-.21.1-.21.2L82.23,94l.93-.3A30.69,30.69,0,0,1,73.3,85l-.94.29,6.85,7.1.91-.33-8.79-8.46-.91.34,11,8.16,2.7,2A5.12,5.12,0,0,1,86,96c.18.42.18,2.19-.59,1.91-.24-.08-.38-.45-.42-.67a.85.85,0,0,1,0-.32c0-.09.16-.37,0-.35l-.4-.06a4.27,4.27,0,0,1-3.28,3.91A4.47,4.47,0,0,1,76.83,98c-.12-.24-1,.09-1,.26Z"/><path class="cls-6" d="M34.83,142.46l-1.13,3.08c-.09.25.46.18.55.16l7.09-1.91,3.49-.94a22.53,22.53,0,0,0,3-.91,4.27,4.27,0,0,0,2.66-3.12,18.38,18.38,0,0,0,.11-4.26c0-1.46,0-3.28,1.44-4.1l-.78-.07a21.31,21.31,0,0,1-10,15.76,19.23,19.23,0,0,1-5.08,2.19l.25.42,9.77-3.61c.3-.11.42-.45,0-.45l-4.26,0,.2.33,4.44-3.33c.19-.14.07-.26-.09-.33a.85.85,0,0,0-.68.19l-4.44,3.33c-.24.18,0,.33.19.33l4.26,0v-.44L36,148.39c-.53.19-.19.53.25.41a22.17,22.17,0,0,0,14.53-12.92,20.25,20.25,0,0,0,1.41-5.62c0-.35-.64-.15-.78-.07-2.44,1.41-1.74,4.61-1.76,7,0,1.42-.21,3-1.44,4a8.06,8.06,0,0,1-2.82,1.08l-3.49.94-7.82,2.11.55.16,1.12-3.08c.11-.29-.85-.18-1,.13Z"/><path class="cls-7" d="M139.41,68.19,140.77,73c.09.3,1,0,1-.26l-1.37-4.81c-.08-.3-1.05,0-1,.25Z"/><path class="cls-7" d="M142,114.9a348.48,348.48,0,0,1,2.42-49.08h-5q-2,25.22-4,50.44a2.51,2.51,0,0,0,2.5,2.5,2.55,2.55,0,0,0,2.5-2.5q2-25.22,4-50.44a2.53,2.53,0,0,0-2.5-2.5,2.55,2.55,0,0,0-2.5,2.5A348.48,348.48,0,0,0,137,114.9c.07,3.22,5.07,3.23,5,0Z"/><path class="cls-7" d="M154,71.55a270.74,270.74,0,0,1-3,46.56,2.58,2.58,0,0,0,1.75,3.07,2.53,2.53,0,0,0,3.07-1.75l3.3-10.62c.95-3.09-3.87-4.4-4.82-1.33l-3.3,10.63,4.82,1.32A278,278,0,0,0,159,71.55c-.07-3.22-5.07-3.23-5,0Z"/><path class="cls-7" d="M103.76,42.32a262,262,0,0,0-2.5,27.7q-.24,6.9-.11,13.82a80.26,80.26,0,0,0,.87,12,22.65,22.65,0,0,0,5.27,11.55,2.52,2.52,0,0,0,4.27-1.77Q110,75.91,108.34,46.18c-.17-3.2-5.17-3.22-5,0q1.62,29.73,3.22,59.44l4.27-1.76c-4.65-5.16-4.53-13-4.67-19.53a253.34,253.34,0,0,1,.8-26.14c.4-4.86.93-9.71,1.62-14.54a2.58,2.58,0,0,0-1.74-3.08,2.52,2.52,0,0,0-3.08,1.75Z"/><path class="cls-7" d="M113.59,46.15q.9,30.92,3.63,61.74a2.51,2.51,0,0,0,4.91.67c6.45-15.68-2-31.91-2.79-47.75a32.57,32.57,0,0,1,1.88-13.31l-4.82-1.33a177.47,177.47,0,0,0-1.73,29.5c.09,3.21,5.09,3.22,5,0a170.09,170.09,0,0,1,1.55-28.17,2.5,2.5,0,0,0-4.82-1.33c-6,15.89,2.62,32,3.08,48a31.45,31.45,0,0,1-2.17,13l4.91.66q-2.73-30.81-3.63-61.74c-.09-3.21-5.09-3.23-5,0Z"/><path class="cls-7" d="M109,33.86c1.41,1.29,3,2.67,4.93,3a5.75,5.75,0,0,0,5.85-2.22,4.4,4.4,0,0,0-.62-5.75,5.71,5.71,0,0,0-5.48-1.21c-2.24.76-3.66,2.51-5,4.36l-.25.6a1.89,1.89,0,0,0,0,1,2.37,2.37,0,0,0,.68,1.43,2.94,2.94,0,0,0,1.11.64,2.62,2.62,0,0,0,1.92-.25l.1,0-.59.25a6,6,0,0,1,1.56-.42l-.66.09a6.76,6.76,0,0,1,1.74,0l-.67-.09a6.65,6.65,0,0,1,1.57.43l-.59-.25a6.3,6.3,0,0,1,1.4.81l-.5-.39.41.35a2.5,2.5,0,0,0,3.54-3.54A8.77,8.77,0,0,0,115,30.5a9.22,9.22,0,0,0-2.46-.12,9.63,9.63,0,0,0-3,.81L113,34.61c.2-.27.4-.55.61-.82l-.39.51a9.44,9.44,0,0,1,1.63-1.71l-.5.4a4.79,4.79,0,0,1,1-.61l-.6.25a3.19,3.19,0,0,1,.73-.21l-.66.09a3.47,3.47,0,0,1,.91,0l-.67-.09a3.38,3.38,0,0,1,.88.24l-.6-.25a3,3,0,0,1,.6.35l-.5-.39a2.71,2.71,0,0,1,.42.41l-.39-.5a2,2,0,0,1,.25.43l-.25-.6a2.05,2.05,0,0,1,.14.5l-.09-.67a3.38,3.38,0,0,1,0,.45l.09-.66a2.25,2.25,0,0,1-.13.51l.25-.6a2.82,2.82,0,0,1-.31.53l.39-.51a3.82,3.82,0,0,1-.45.45l.5-.39a3.54,3.54,0,0,1-.73.42l.6-.25a3.91,3.91,0,0,1-.83.22l.67-.08a4,4,0,0,1-.85,0l.67.09a5.62,5.62,0,0,1-1.13-.33l.6.25a7.14,7.14,0,0,1-1.51-.93l.5.39c-.47-.37-.92-.77-1.36-1.18A2.5,2.5,0,1,0,109,33.86Z"/><path class="cls-7" d="M145.08,56.58l.73-.14c.63-.11-.56.05.07,0,.43,0,.86-.08,1.3-.09s.87,0,1.3,0a6.28,6.28,0,0,1,1.3.11c-.62-.18-.1,0,.07,0s.49.08.73.14c.42.09.84.19,1.26.31s.83.27,1.23.42c.14.06.69.21.09,0a5.93,5.93,0,0,1,.68.31,2.53,2.53,0,0,0,3.22-.64,2.46,2.46,0,0,0-.19-3.28,11.22,11.22,0,0,0-6.59-2.55,10.66,10.66,0,0,0-6.38,1.72,2.5,2.5,0,0,0,2.52,4.32,10.58,10.58,0,0,1,1.09-.62c.24-.11.19-.09-.17.07l.29-.11c.2-.07.4-.14.6-.19l.61-.14.31,0c-.41,0-.48.06-.2,0a11.43,11.43,0,0,1,1.17,0l.55,0c.27,0,.21,0-.2,0l.31.06a7.45,7.45,0,0,1,1.21.32l.29.1-.16-.07c0,.08.47.24.55.28a6,6,0,0,1,.54.33l.26.18-.14-.11,3-3.92a19.68,19.68,0,0,0-12.61-1.61A2.51,2.51,0,0,0,142,54.83a2.57,2.57,0,0,0,3.08,1.75Z"/><path class="cls-6" d="M100.59,19.48a201.88,201.88,0,0,1,61.75,26.33q8,5.14,15.54,11l.48-.83-1.53-.5c-.61-.2-.88.76-.27,1l1.54.5c.45.15.88-.52.49-.83a202.72,202.72,0,0,0-59.41-32.29q-9-3.11-18.32-5.33c-.63-.15-.89.81-.27,1Z"/><path class="cls-6" d="M165.07,50.89q-2.61,17.56-3.71,35.33t-.66,35.5q.26,10,1,20c0,.64,1,.64,1,0q-1.29-17.65-1.07-35.37t2-35.34q1-10,2.45-19.87c.1-.63-.87-.9-1-.26Z"/><path class="cls-6" d="M175.75,62.65,176.2,101l.22,19.11.12,9.62.05,4.74a26.06,26.06,0,0,1-.11,4.33,5,5,0,0,1-2,3.5,6.07,6.07,0,0,1-3.61,1c-3.1-.06-5.72-2.11-8.05-3.92-.5-.39-1.21.31-.71.71,2.15,1.67,4.42,3.44,7.14,4a7.24,7.24,0,0,0,6.43-1.5c2-1.9,1.92-4.85,1.89-7.39l-.12-10L177,85.12l-.27-22.47a.5.5,0,0,0-1,0Z"/><path class="cls-6" d="M167.77,64.68q-.61,13.51-.53,27.05t.9,27.16q.45,7.62,1.13,15.23c.06.63,1.06.64,1,0q-1.2-13.49-1.7-27t-.27-27.18q.12-7.64.47-15.26c0-.64-1-.64-1,0Z"/><path class="cls-6" d="M170.14,80.5l1.37,42.85.39,12.12c0,.64,1,.64,1,0l-1.37-42.85-.39-12.12c0-.64-1-.64-1,0Z"/><path class="cls-6" d="M99.37,24.15l-.64,34.24-.19,9.74a.5.5,0,0,0,1,0l.65-34.23.18-9.75a.5.5,0,0,0-1,0Z"/><path class="cls-6" d="M98.87,20.4c-2.42-3.2-7.42-1.92-9.52,1a13,13,0,0,0-2,7c-.16,2.81,0,5.64,0,8.46l.26,36.85.14,20.74a.5.5,0,0,0,.63.48A18.58,18.58,0,0,1,103,96.07a.5.5,0,0,0,.75-.43L101.71,67.9,101.12,60c0-.64-1-.65-1,0l2,27.73.59,7.93.75-.43a19.59,19.59,0,0,0-15.43-1.32l.63.49-.24-35L88.35,42l-.06-8.74a37.3,37.3,0,0,1,.33-7.47c.46-2.4,1.58-4.68,3.88-5.74,1.78-.82,4.22-.88,5.5.83.39.5,1.26,0,.87-.51Z"/><path class="cls-6" d="M89.67,28.27Q92,49.1,93.45,70q.4,5.94.74,11.88c0,.64,1,.65,1,0Q94,61,91.93,40.11q-.6-5.93-1.26-11.84c-.07-.63-1.07-.64-1,0Z"/><path class="cls-6" d="M97.13,37.89A202.5,202.5,0,0,0,101,94.21q1.65,7.86,3.94,15.56l1-.26-1-2.76c-.19-.5-1-.47-1,.13l.07,3.86a.5.5,0,0,0,1,0l-.07-3.86-1,.13,1,2.76c.22.59,1.15.36,1-.26a202.3,202.3,0,0,1-8.28-55.7q-.06-8,.51-15.92c.05-.65-.95-.64-1,0Z"/><path class="cls-6" d="M92.56,31.69l2.61,20.84.93-.25L94.73,50a.5.5,0,0,0-.87.51l1.38,2.27c.24.39,1,.26.93-.26L93.56,31.69c-.08-.63-1.08-.64-1,0Z"/><path class="cls-6" d="M95.85,29l.69,12.37c0,.64,1,.64,1,0L96.85,29c0-.64-1-.64-1,0Z"/><path class="cls-6" d="M27.2,63.07l10.47-6.63L36.92,56,38.7,72.52l.63-.48a6.74,6.74,0,0,0-7.49,2.8l.91.11L29.62,60.41c-.14-.63-1.1-.36-1,.27l3.14,14.54a.5.5,0,0,0,.91.12A5.74,5.74,0,0,1,39.07,73a.5.5,0,0,0,.63-.48L37.92,56a.51.51,0,0,0-.75-.43L26.69,62.2c-.54.35,0,1.21.51.87Z"/><path class="cls-6" d="M50.66,50.62l3.2-2.9-.78-.1c2.48,3.35,5.45,7.27,5.3,11.67-.11,3.3-2.34,7.11-6,7.28l.49.36a45.65,45.65,0,0,1-1-18.54c.1-.62-.87-.9-1-.26a47,47,0,0,0,1,19.07.54.54,0,0,0,.48.37c3-.14,5.29-2.43,6.33-5.14,1.26-3.29.42-6.78-1.17-9.81a41.89,41.89,0,0,0-3.64-5.5.5.5,0,0,0-.78-.1L50,49.91c-.48.43.23,1.14.7.71Z"/><path class="cls-6" d="M67.76,43.12a22.06,22.06,0,0,1,5.06,15.35.5.5,0,0,0,.85.36c1.11-1.33,2.91-1.52,4.52-1.76a7.39,7.39,0,0,0,4.1-1.67c1.38-1.31,1.09-3,.49-4.64q-1.17-3.19-2.36-6.39l-2.66-7.2a.5.5,0,0,0-.73-.3L65.92,43.05a.5.5,0,0,0,.5.87l11.11-6.18-.73-.3,4.46,12.08c.57,1.56,1.81,3.69.38,5.12-1.06,1.06-2.66,1.3-4.08,1.52-1.67.25-3.46.6-4.59,2l.85.35a23.09,23.09,0,0,0-5.36-16.06c-.41-.49-1.12.22-.7.71Z"/><path class="cls-8" d="M35.38,111.72a.92.92,0,0,1,.69,1.27l10-5.83.67,1.59c-.11-7.79-11.46-7.64-12,0-.61,8.56,9.89,12.72,15.59,6.56l-10-5.84L39,118.58l7.38-4.19a37.82,37.82,0,0,0-12.85-1.79A6.13,6.13,0,0,0,27.74,117l-1.07,4.3c-1.22,5,4.23,9.57,8.82,6.78,1.31-.8,3.1-1,4.13.43l2.16-8.21-9.84,6.52c-5.81,3.85-2.05,12.18,4.63,11A29.09,29.09,0,0,0,48.15,133a6,6,0,0,0-6.06-10.36C36.9,125,31.51,124.36,28,129.79c-2.95,4.51-2.24,10.6,2.38,13.7C40,150,51.53,139.35,54,130.4c2.09-7.45-9.49-10.63-11.57-3.19a8.52,8.52,0,0,1-2.79,4.61c-1.77,1.42-3.6.52-2.29,2.88.21,1.56.87,1.88,2,1,1-.26,2-.48,3-.67a31.1,31.1,0,0,0,5.76-2L42.09,122.6a20.82,20.82,0,0,1-8.71,3.62l4.62,11,9.83-6.52c2.53-1.68,4.11-5.43,2.16-8.21-4.72-6.71-13.34-9.12-20.56-4.73l8.81,6.77,1.07-4.3-5.79,4.4A27.54,27.54,0,0,1,43.18,126c2.82.91,6.93-1.06,7.38-4.19l1.34-9.11c.79-5.38-5.52-10.71-10-5.84l4.9,1.93h-12a9.51,9.51,0,0,0,2.84,6.89c4.52,4.72,10.89-.35,10-5.84a10.68,10.68,0,0,0-3.78-6.57c-5.9-4.89-14.44,3.56-8.48,8.49Z"/><path class="cls-8" d="M70.6,90.37a2.19,2.19,0,0,1,.59,2.33c-.2,4.18,5.4,8,9,5.18,2.66-2,4.3-4.13,4.12-7.67-.34-6.33-10.79-8.65-11.79-1.6-.54,3.85.17,7,3.72,9.21a9.38,9.38,0,0,0,4.79,1.4,26.69,26.69,0,0,0,3.2-.53q2.88-.41.52-1L83,93.45l.1,1.11,6-6c-7.82-.55-26.6,1.53-25.87,12.76.81,12.29,20.42,5.12,27.17,3.86l-4.62-11C80.46,97,71.39,99.54,69.48,105.84c-.56,1.84-.06,4.6,1.54,5.84,6.37,4.93,16.2.2,23.28-1.44l-4.62-11c-5.62,2.55-11.26,5.06-16.86,7.65-4.25,2-8.15,5.15-6.86,10.4,1.12,4.58,5.42,6,9.65,5.22,6.45-1.25,12.84-3.25,19.21-4.86l-5.84-10a26.8,26.8,0,0,1-15.79,7.73L76.38,127a61.24,61.24,0,0,0,20.2-8.36c6.48-4.16.47-14.55-6.06-10.36a51.38,51.38,0,0,1-17.33,7.15C65.5,117,68.94,128.05,76.38,127a37.3,37.3,0,0,0,21.09-10.81c4.29-4.3-.08-11.49-5.84-10l-10.57,2.67L76.26,110l-2.88.73q-5.37.87,3.81,7.32c2.3,0,6.3-2.86,8.43-3.83l10.12-4.58c6.41-2.91,1.72-12.44-4.63-11-4.79,1.11-10.11,3.14-15,3.41l4.24,1.75-.83-.64L81.05,109l.28-.93-2.76,3.59c4-2.89,8.93-4.84,13.28-7.11,6.37-3.32,1.72-12.15-4.62-11l-8.78,1.64-3.51.66c-.8.14-1.59.29-2.39.45-1.17.11-.86.35,1,.72l1.75,4.24,0-1.29-1.75,4.24c3.09-4,11-4,15.58-3.71,3,.22,6.26-2.93,6-6-.31-3.53-1.66-6.21-5-7.69A9.89,9.89,0,0,0,85.84,86a14.51,14.51,0,0,0-3.2.63c-2.35.39-2.11,1,.72,1.69L84,92.89l.15-1.09L72.34,90.21l1.82-2.69,9,5.18A14,14,0,0,0,81,84.31c-4.09-6.52-14.48-.51-10.36,6.06Z"/><path class="cls-6" d="M30.74,128.4a8.37,8.37,0,0,1-4.67-8.17,7.37,7.37,0,0,1,6.42-6.68,7.6,7.6,0,0,1,5.43,1.2c.25.17,1.13-.15.83-.46-2.46-2.4-4.14-6.28-2.49-9.6a5.83,5.83,0,0,1,3.61-3.12,4.41,4.41,0,0,1,5,5.85h.94a8.11,8.11,0,0,0-4.22-9.07.68.68,0,0,0-.83.22l-2.43,5.53.94-.1c-.12-2.19,2.84-2.56,4.28-1.65,2.38,1.49,2.21,5.15,2.09,7.56l1-.18c-.27-1.77,1.82-2.89,3.35-2.39,1.88.62,2.66,2.92,2.83,4.69a12.63,12.63,0,0,1-4.41,10.36A10.74,10.74,0,0,1,42.42,125l.15.56,4.93-2.43c.5-.25.2-.69-.28-.54L33,127.09l.15.58,15.05-5.09c.56-.19.43-.77-.16-.58l-15.94,5.25c-.12,0-.51.22-.4.42a1.83,1.83,0,0,0,3,.17c.27-.35-.19-.47-.47-.4a8.16,8.16,0,0,0-5.16,3.77.21.21,0,0,0,.08.29c4.5,3.25,9.52,6.42,15.29,6.21,4.7-.17,9.41-2.85,10.27-7.78a7.23,7.23,0,0,0-2-6.65c-.25-.23-1.18,0-.89.4L55,128l.83-.46-6.26-3.57-.67.55c2.37.6,5.13,1.33,6.28,3.74.95,2,0,3.89-1.86,4.9S49.7,134.43,48,135.2a12.39,12.39,0,0,0-4.88,3.87,12.23,12.23,0,0,0-2.49,6.5l1-.1-.08-4.89c0-.47-.89-.26-1,.1l-1.19,5,1-.18-.59-2.7-1,.25a7.07,7.07,0,0,1-.68,6.71l.94-.09-2.07-8.09c-.11-.39-1.07-.14-1,.26L38,149.92c.1.4.79.11.94-.1a7.49,7.49,0,0,0,.73-7c-.16-.38-1.06-.15-1,.25l.59,2.71c.09.41.9.13,1-.17l1.19-5-1,.1.08,4.89c0,.46.94.28,1-.1a11.81,11.81,0,0,1,7.79-10.17c1.81-.66,3.8-1.14,5.36-2.32A4,4,0,0,0,56.17,128c-1.18-2.66-4.12-3.51-6.71-4.16-.24-.06-1.12.29-.66.56L55.06,128c.24.14,1.11-.08.82-.45l-3.21-4.27-.89.4c3.15,2.84,2.5,8.14-.46,10.87-3.7,3.41-9.37,2.95-13.68,1.1A42,42,0,0,1,29.9,131l.08.29a7,7,0,0,1,4.4-3.26l-.47-.4a.74.74,0,0,1-1.24-.21l-.4.42,15.94-5.25-.16-.58-15,5.09c-.57.19-.44.77.15.58l14.22-4.51-.28-.53-4.93,2.43c-.41.2-.32.61.15.56a13,13,0,0,0,10.42-8,11.81,11.81,0,0,0,.88-6.56c-.36-2-1.62-4.25-3.88-4.47-1.92-.18-4.47,1.17-4.13,3.39.06.38,1,.16,1-.18.14-2.82.2-7.23-3.1-8.35-2-.68-5.35.21-5.2,2.8,0,.38.84.13.94-.09l2.42-5.53-.84.23a7.7,7.7,0,0,1,4,8.64c-.11.43.82.25.94,0,1.53-3.17-1.5-6.77-4.78-6.67-3.93.11-6.66,4-6.3,7.69a10.31,10.31,0,0,0,3.19,6.19l.82-.46a9.24,9.24,0,0,0-10.4.41,8.16,8.16,0,0,0-2.48,9.88A8.32,8.32,0,0,0,30,128.91c.34.15,1.2-.31.76-.51Z"/><path class="cls-6" d="M31.27,132.86a16.25,16.25,0,0,1-2.75,9.69l.93-.11L28.14,137c-.08-.35-.93-.12-1,.18L25.78,149l1-.19a11.91,11.91,0,0,1,.5-8.47l-.89.18A13.31,13.31,0,0,1,29.93,147c.08.34,1,.13,1-.18l.14-6.87c0-.44-.89-.21-1,.11l-2.36,8.67c-.11.41.76.16.88,0l.82-.79c.41-.39-.54-.42-.79-.18l-.81.78.87,0L31,139.91l-1,.11-.14,6.87,1-.19a13.57,13.57,0,0,0-3.65-6.54.69.69,0,0,0-.9.17,12.25,12.25,0,0,0-.56,8.77c.1.34.93.12,1-.18l1.39-11.86-1,.19,1.31,5.45c.09.37.81.08.93-.11a16.72,16.72,0,0,0,2.82-10c0-.33-1-.13-1,.26Z"/><path class="cls-6" d="M56,132.13a15.94,15.94,0,0,0-1.35,9.94l1-.25-2-8.18-1,.26,2.54,8.32,1-.26A20.62,20.62,0,0,1,53,133.42l-1,.26,3.77,9.91.94-.29a6.42,6.42,0,0,1-2.51-6.08c.05-.28.18-.57.2-.84a5.84,5.84,0,0,0-.08-1L54.17,133l-.42-4.85c0-.18-.91,0-1,.22a12.22,12.22,0,0,1-5,6.84,10.64,10.64,0,0,1-8.38,1.5A12.44,12.44,0,0,1,32.18,132a9.33,9.33,0,0,1-.55-.84c-.27-.44,0-.56.39-.83q1.06-.8,2.19-1.53a38.52,38.52,0,0,1,4.35-2.42,36.67,36.67,0,0,1,11.07-3.22l.31-.35a36.33,36.33,0,0,0-18.79,9.76.09.09,0,0,0,0,.08,11.42,11.42,0,0,0,10.44,5.72,11.29,11.29,0,0,0,9.8-6.6,10.92,10.92,0,0,0,.77-7.05c0-.19-1,0-1,.26,1.42,6-3,13-9.47,13a11.35,11.35,0,0,1-8-3.46,7.24,7.24,0,0,1-1.39-1.86c-.2-.43.29-.71.6-1s.65-.6,1-.89a35.63,35.63,0,0,1,4.4-3.21,33.87,33.87,0,0,1,11.52-4.45c.22,0,.91-.43.31-.35a39.6,39.6,0,0,0-19.58,8.14.11.11,0,0,0-.05.09,12.63,12.63,0,0,0,9.42,6.3,13.11,13.11,0,0,0,10.49-3.53,12.23,12.23,0,0,0,3.4-5.58l-1,.22.43,4.85.2,2.36a4.72,4.72,0,0,1,0,1.3c0,.25-.11.49-.14.74a6.51,6.51,0,0,0,2.58,6c.14.1,1-.1.94-.29L53,133.42c-.08-.2-1,.05-1,.26a20.76,20.76,0,0,0,3.13,8.54c.12.19,1-.06,1-.26l-2.55-8.32c-.06-.2-1,.06-1,.26l2,8.17c0,.19,1,0,1-.25A15.75,15.75,0,0,1,57,132c.06-.12-.83-.07-.95.17Z"/><path class="cls-6" d="M53.41,121.64,58,122c.12,0,1-.14.76-.4a4.1,4.1,0,0,0-5.24-.42s-.18.17-.08.22l5.34,2.9c.18.1,1,0,.93-.31a2.09,2.09,0,0,0-2.3-1.71.91.91,0,0,0-.65.24c-.11.17.11.23.25.22a1.72,1.72,0,0,1,1.74,1.51l.93-.3L54.33,121l-.08.22a2.85,2.85,0,0,1,3.58.68l.76-.4L54,121.19a1,1,0,0,0-.69.18c-.14.12-.13.26.07.27Z"/><path class="cls-6" d="M32.36,131.57c2.87,1.77,7.3,0,8.09-3.28a.13.13,0,0,0,0-.13,3.28,3.28,0,0,0-4.19.37,1.85,1.85,0,0,0-.5,1.87,2,2,0,0,0,1.33,1.13c1.09.34,2.9,0,2.88-1.47s-2-1.87-3.11-1.4c-1.66.7-1.25,2.79.12,3.58a2.73,2.73,0,0,0,3.84-1.86A3,3,0,0,0,38,126.75a5.08,5.08,0,0,0-4.9,2.42,7.15,7.15,0,0,0-.42.77c-.11.25-.08.33.06.57a3.07,3.07,0,0,0,1,1,3.74,3.74,0,0,0,2.75.49A3.4,3.4,0,0,0,39,127.49c-.13-.31-.7-.14-.87,0l-1.94,1.9.84-.1a6.6,6.6,0,0,0-6.69-1.53c-.15,0-.47.18-.41.39s.41.18.55.13a5.54,5.54,0,0,1,5.65,1.4c.21.2.66.07.84-.11l1.94-1.9-.88,0c.58,1.32,0,3.39-1.54,3.75a2.7,2.7,0,0,1-2.21-.61c-.21-.17-.62-.53-.67-.81s.37-.85.57-1.11a3.35,3.35,0,0,1,4.39-1.28,2.5,2.5,0,0,1,.68,3.83c-1.12,1.21-3-.5-2.53-1.85.38-1.19,2.2-.49,2.23.56,0,1.24-1.51.89-2.06.27-.9-1,.26-2.32,1.38-2.35a1.69,1.69,0,0,1,1,.26c.17.14.1.24,0,.45a4,4,0,0,1-.26.56A4.35,4.35,0,0,1,37.55,131a4.21,4.21,0,0,1-4.42.08c-.29-.18-1.17.23-.77.48Z"/><path class="cls-6" d="M65.82,88.85l1.29-1.41-.84.09c1.55,2,3.35,4.36,3.22,7.06a5,5,0,0,1-1.07,3c-.86,1-2.1,1.17-3.36,1.29-2.08.2-4.09.86-4.72,3.06a5.63,5.63,0,0,0,1.35,5.25c1.85,2,4.58,2.7,7.1,3.37.2,0,.76,0,.77-.34l.17-4.25-.54.34c1.44-.21,1.53,2.12,1.21,3-.56,1.56-2.56,2.29-3.7,3.36-2.54,2.38-1.37,6.25,1.32,8a11,11,0,0,0,5.53,1.47,38,38,0,0,0,5.94-.3,50.2,50.2,0,0,0,11.84-2.88,49.6,49.6,0,0,0,12.07-6.57c.48-.35-.17-.56-.5-.39L75,125.85c-.6.29-.06.67.39.45l27.94-13.88-.5-.39a48.51,48.51,0,0,1-22.34,9.08,39.18,39.18,0,0,1-6.12.42A10.37,10.37,0,0,1,68.62,120a5.58,5.58,0,0,1-2.4-4.35c0-1.89,1.32-3,2.74-4s2.63-2,2.58-3.75c0-1.3-.81-2.48-2.24-2.27-.16,0-.53.12-.54.34l-.17,4.26.78-.34c-2.32-.61-4.82-1.27-6.59-3a5.26,5.26,0,0,1-1.38-5.44c1-2.55,3.85-1.79,5.93-2.51a4.92,4.92,0,0,0,3.13-4.54c.14-2.82-1.67-5.23-3.3-7.35-.17-.23-.68-.07-.84.1L65,88.65c-.39.43.54.46.78.2Z"/><path class="cls-6" d="M72.51,111.51,70,114.82c-.14.19.7,0,.76,0l25.83-11.15-.56-.14-20,9,.56.14L91.08,106c.48-.23-.07-.31-.32-.23A96.36,96.36,0,0,0,71.4,114.2c-.4.24.41.19.54.14l14.94-6.06c.65-.26,0-.36-.33-.24l-11.67,4c-.09,0-.39.15-.28.28s.52,0,.62,0l11.66-4-.33-.24-14.94,6.07.54.13A93.12,93.12,0,0,1,90.84,106l-.32-.23-14.44,6.73c-.16.07-.26.15-.12.26s.55-.06.68-.12l20-9c.16-.07.26-.15.12-.26s-.55.06-.68.12L70.23,114.67l.75,0,2.49-3.31c.11-.14-.36-.1-.39-.1a.88.88,0,0,0-.57.27Z"/><path class="cls-6" d="M88.51,101.83l8.62,1.09.52-.42a24.13,24.13,0,0,1-9.49-.8c-.23-.07-1.1.3-.79.39a15.21,15.21,0,0,0,10.09-.5l-.54-.16c-.91.6-2-.22-2.63-.89A5,5,0,0,1,93,97.7c-.26-2.71,1.27-5.36.52-8.07a6.23,6.23,0,0,0-3.92-4,8.36,8.36,0,0,0-6,.11,12.51,12.51,0,0,0-5.78,4.86l1-.2a14.36,14.36,0,0,0-2.34-5.86,5.15,5.15,0,0,0-4.43-2,4.19,4.19,0,0,0-3.67,2,4.37,4.37,0,0,0,.58,4.08c1.19,2,4.81,5.62,2.13,7.91-1.28,1.09-3.36,1-4.91,1.42s-3.06,1.38-3.37,3.12A5.35,5.35,0,0,0,65,106.2c2.1,1.47,4.77,1.7,7.25,1.89l-.17-.13-1.55,2.25c-.1.16.36.12.4.12a.86.86,0,0,0,.56-.28l1.55-2.25c.06-.1-.13-.13-.17-.13a15.09,15.09,0,0,1-6.36-1.44A5.47,5.47,0,0,1,63.69,102a3.41,3.41,0,0,1,2.69-3.7,28.18,28.18,0,0,0,4.48-1.1A3.29,3.29,0,0,0,73,94.31a6.56,6.56,0,0,0-1.5-3.59A16.76,16.76,0,0,1,69.27,87a3,3,0,0,1,.94-3.69c1.6-1,3.79-.17,5,1.08,1.57,1.67,2.13,4,2.64,6.2.07.29.87-.07,1-.21a11.1,11.1,0,0,1,5.52-4.57A6.79,6.79,0,0,1,90.56,87c2,1.58,2.41,3.89,2,6.32s-1.14,4.69.21,6.8c1.09,1.71,3.06,2.56,4.86,1.37.41-.27-.41-.21-.54-.16a13.45,13.45,0,0,1-9,.37l-.79.39a25.11,25.11,0,0,0,9.87.83c.14,0,1-.36.51-.42l-8.62-1.09c-.23,0-1.11.36-.62.42Z"/><path class="cls-6" d="M95.87,108l0,6.63c0,.47.91.29,1-.09l1.22-7.06-1,.17,1.56,9c.07.38,1,.17,1-.18l-.06-3.09c0-.42-.7-.3-.89-.07A31.46,31.46,0,0,1,80,124.53l.28.56,13.43-6.79-.6-.37a46.3,46.3,0,0,1-12.68,8.83l.41.51L98,117.87l-.42-.51a165.82,165.82,0,0,1-23.49,10.82l.52.45c2.83-2.31,2-7.39-1.45-8.62a.68.68,0,0,0-.74.26,10,10,0,0,0-.92,6.62l1-.26-1.78-4c-.18-.39-1-.17-1,.26a23,23,0,0,1-.59,9c-.12.43.86.28,1-.09a5.79,5.79,0,0,1,3.14-3.6l-.7-.21a10.14,10.14,0,0,1-1.45,5.4h.94a12,12,0,0,1,1.29-6H72.4l-1.13,7.29c-.08.48.8.24.94,0a11,11,0,0,0,1.4-6.93l-.92.34,1.49,1.76a.62.62,0,0,0,.9-.16l1.1-2.43c.16-.34-.31-.4-.54-.34l-2.08.55c-.59.15-.43.75.16.6l2.08-.55-.53-.34-1.1,2.43.9-.17-1.5-1.76c-.23-.28-1-.07-.92.33a10.6,10.6,0,0,1-1.35,6.59h.94l1.13-7.29c.07-.47-.81-.26-.94,0a12.29,12.29,0,0,0-1.35,6.18c0,.47.78.27.94,0a10.52,10.52,0,0,0,1.52-5.57c0-.35-.47-.31-.69-.21a6.74,6.74,0,0,0-3.7,4.2l1-.09a23.5,23.5,0,0,0,.59-9.18l-1,.26,1.79,4c.17.38,1,.16,1-.26a9.55,9.55,0,0,1,.87-6.28l-.74.27c2.92,1,3.83,5.64,1.4,7.62-.49.4.16.58.52.45A166.86,166.86,0,0,0,98,117.87c.57-.32,0-.76-.42-.51l-17.22,9.4c-.59.32-.06.73.41.51a48,48,0,0,0,13.07-9.1c.38-.38-.36-.5-.61-.38l-13.43,6.79c-.52.26-.18.64.29.55a32.6,32.6,0,0,0,19.34-11.5l-.89-.08.07,3.09,1-.17-1.57-9c-.07-.42-.91-.15-1,.17l-1.22,7.06,1-.09V108c0-.47-1-.31-1,.09Z"/><path class="cls-6" d="M83.73,125.27l.58,4.69,1-.26-2.07-4.65c-.11-.24-1,0-1,.26l.5,2,.94-.3-1.34-1.73c-.13-.16-1,.07-.94.3l1.42,5,1-.26a13.05,13.05,0,0,1-.7-7.39c0-.25-.9-.09-1,.16a13.14,13.14,0,0,0,.68,7.49c.1.24,1,0,1-.26l-1.42-5-.94.3,1.34,1.73c.13.17,1-.06.94-.3l-.5-2-1,.26L84.31,130c.1.23,1,0,1-.26L84.7,125c0-.21-1,0-1,.26Z"/><path class="cls-6" d="M97.25,118.43l2,6c.08.22,1,0,1-.26l-.77-2.62-.4-1.37c-.09-.3-.37-.82-.15-1.08,0,0,.14-.15.15-.13s-.22,0,0,0a1.22,1.22,0,0,1,.59.17,1,1,0,0,1,.61,1l.93-.25-2.33-1.17a.89.89,0,0,0-.62.06s-.44.2-.29.27l2.33,1.17c.17.09.89,0,.93-.25a1.17,1.17,0,0,0-.77-1.26,2.41,2.41,0,0,0-2,.07,1.27,1.27,0,0,0-.63.58c-.07.22.11.56.17.78l.24.8,1,3.42,1-.26-2-6c-.07-.22-1,.06-1,.26Z"/><path class="cls-6" d="M74.93,114.93a3.25,3.25,0,0,0,3.41,2.56,3.53,3.53,0,0,0,3.25-2.87.15.15,0,0,0-.1-.18A4.82,4.82,0,0,0,76,115.52c-.09.09-.13.17-.06.28a2.79,2.79,0,0,0,5-.92,2.07,2.07,0,0,0-.24-1.6c-.25-.28-.78-.2-1.12-.09a1.91,1.91,0,0,0-1.3,1.92c.17,2.13,3.48,1,3.28-.89a4.06,4.06,0,0,0-.47-1.07,1.66,1.66,0,0,0-.8-.87,3,3,0,0,0-2.49,0,2,2,0,0,0-1.19,2.27,3,3,0,0,0,2.36,2.16,3.71,3.71,0,0,0,3.13-1.1,4.57,4.57,0,0,0,1-1.44,3.06,3.06,0,0,0,.25-.83c0-.33-.06-.38-.34-.59a5.34,5.34,0,0,0-5.81,0,3.75,3.75,0,0,0-1.86,2.24c-.1.78.71,1.18,1.36,1.26a2.38,2.38,0,0,0,2.37-1c.6-1.2-.42-2.49-1.42-3-1.49-.83-3.25-.45-4.84-.25s-3.47.17-4.3-1.36l-.78.4,3.67.8c.32.07,1.14-.42.59-.54l-3.67-.8c-.15,0-.94.1-.78.4a3.81,3.81,0,0,0,3.24,1.76c1.8.14,3.68-.73,5.45-.21A3,3,0,0,1,78,113.77c.26.53.35,1.42-.25,1.76a1.2,1.2,0,0,1-1.09,0c-.59-.33-.41-.88-.1-1.35a3.89,3.89,0,0,1,3.19-1.71,4,4,0,0,1,1.76.37c.2.1.67.3.77.51s-.19.94-.33,1.21c-.76,1.44-2.42,2.24-3.73,1-.82-.82-1.14-2.87.5-2.89a1.43,1.43,0,0,1,1.38.83,2,2,0,0,0,.07.35c.08.14.23.22.31.38a1.08,1.08,0,0,1,0,.88c-.08.23-.32.66-.61.68s-.54-.37-.61-.63.1-1.49.64-1.39l-.18-.14a2.14,2.14,0,0,1-.41,2.61c-.82.68-2,.06-2.49-.73l-.06.28a3.36,3.36,0,0,1,4-.78l-.1-.18a2.42,2.42,0,0,1-2.42,2.18,2.8,2.8,0,0,1-2.32-2.24c-.07-.35-1-.11-1,.25Z"/><path class="cls-6" d="M95.75,106.79c-.76,0-1.82,1-1.1,1.73a1.47,1.47,0,0,0,2.14-.4.18.18,0,0,0,0-.21c-1.06-1.5-4.13-.65-4.32,1.17-.06.55.34.68.82.83a3.5,3.5,0,0,0,1.9,0,2.42,2.42,0,0,0,1.95-2.28,1.79,1.79,0,0,0-1.79-1.88c-1,0-2.16.8-2.12,1.87,0,.61.38.68.93.73a4.77,4.77,0,0,0,1.76-.19,5.31,5.31,0,0,0,1.59-.81A3.31,3.31,0,0,0,98.71,106c.12-.53-.51-1.07-.94-1.27a2.24,2.24,0,0,0-1.63-.08,1.86,1.86,0,0,0-1,2.88l.82-.43a12.59,12.59,0,0,0-11.31-1.86c-.57.18-.44.71.14.52a11.55,11.55,0,0,1,10.41,1.82c.22.17,1.08-.11.83-.44a1.41,1.41,0,0,1,.12-1.86c.47-.4,1.66.15,1.56.82s-1,1.19-1.45,1.41a3.23,3.23,0,0,1-2.16.27l.19.15c-.46-1,.82-2.06,1.55-1a1.68,1.68,0,0,1-.72,2.53c-.39.12-1.38.16-1.67-.22s.17-.86.39-1.06a1.34,1.34,0,0,1,2,.18v-.22c-.31.57-.75-.68-.25-.71s.78-.62.12-.58Z"/><path class="cls-6" d="M78,97l-3.31,8.68c-.14.39.43.4.66.28l14.74-7.74c.4-.21.31-.59-.15-.56A29.79,29.79,0,0,1,78.09,96c-.37-.12-1.14.4-.58.6a31,31,0,0,0,12.35,1.64l-.15-.56L75,105.43l.66.28L78.94,97c.19-.48-.78-.42-.91-.07Z"/><path class="cls-6" d="M42,111.48l-3.48,10.69c-.16.49.52.49.79.3l8.46-5.84a.32.32,0,0,0,0-.58,15,15,0,0,1-6.54-4.15c-.31-.34-1.23.06-.88.43a15.65,15.65,0,0,0,6.87,4.4l0-.58L38.61,122l.79.3,3.48-10.69c.17-.55-.79-.57-.93-.13Z"/><path class="cls-9" d="M75.43,91.94,66.9,103.61c-.35.48.56.57.8.24l8.52-11.66c.36-.49-.55-.58-.79-.25Z"/><path class="cls-9" d="M84.87,87.65A7.1,7.1,0,0,1,93,88.9a7.34,7.34,0,0,1,1.32,8.21l1-.06a9.42,9.42,0,0,0-7.76-7.74c-.5-.08-1,.63-.33.73a8.76,8.76,0,0,1,7.13,7.27c.06.45.81.2.94-.07A8,8,0,0,0,95,89.87a7.71,7.71,0,0,0-6.29-3.73,8.06,8.06,0,0,0-4.25.91c-.58.3-.06.87.43.6Z"/><path class="cls-9" d="M71.64,90.81c2.74,2,.92,6-.35,8.28a12.31,12.31,0,0,0-1.81,4.68,4.61,4.61,0,0,0,1.38,3.65,3.22,3.22,0,0,0,3.82.74c.32-.17.38-.56,0-.62A9,9,0,0,1,68,102.63l-.76.45c3.32.88,6.36-1.8,7.21-4.88,1.09-3.91-1.46-7.87-3.63-10.9-.25-.34-1.13,0-.89.42a20.68,20.68,0,0,1,1.66,15.64c-.13.44.86.33,1-.08a21.13,21.13,0,0,0-1.75-16l-.89.42c2,2.73,4.1,6,3.74,9.51-.27,2.74-2.81,6-5.87,5.21-.2,0-.94.09-.76.45a9.69,9.69,0,0,0,7.26,5.33l0-.62c-1.65.86-3.24-1.07-3.66-2.49-.58-2,.55-4,1.46-5.65A12.85,12.85,0,0,0,74,94.38a4.49,4.49,0,0,0-1.6-4.12c-.34-.25-1.19.22-.75.55Z"/><path class="cls-9" d="M77.51,112.23l1.9,2.75.35-.58c-2.63.89-6,2-7.09,4.85-.84,2.07-.3,5,2.06,5.76.26.08,1-.17.72-.56-1-1.14-2.14-2.53-1.74-4.13.15-.62.62-1.36,1.35-1.24a1.16,1.16,0,0,1,1,1.35c-.1.49.89.39,1-.06a1.74,1.74,0,0,0-1.22-1.91,2.24,2.24,0,0,0-2.48.62c-1.7,1.88-.1,4.27,1.2,5.81l.71-.56c-2-.65-2.4-3.34-1.63-5.08,1.06-2.4,4-3.37,6.29-4.14.22-.07.53-.31.35-.57l-1.9-2.74c-.26-.39-1.18,0-.88.43Z"/><path class="cls-9" d="M40.67,107.52a6.19,6.19,0,0,1,.32,6.2c-1.14,2.19-3.54,2.85-5.44,4.19-3.72,2.6-4,7.63-2.32,11.51a31.25,31.25,0,0,0,4.63,7.09l.15-.33-2.23,1.5c-.54.36.3.49.6.28l2.23-1.49c.1-.07.25-.2.15-.33-3-3.77-6.29-8.14-5.41-13.24a7.32,7.32,0,0,1,3.7-5.28c1.9-1.1,3.93-2,4.93-4.07a6.47,6.47,0,0,0-.41-6.41c-.18-.26-1.12,0-.9.38Z"/><path class="cls-10" d="M83.14,89.6c5.41.2,9.36,6.7,7.1,11.61-.23.51.73.5.93.12,2.86-5.62-1.37-13.22-7.6-13.88l-.21.73a8,8,0,0,1,7.22,3.2,8.17,8.17,0,0,1,.74,8.17l.93.12a10.19,10.19,0,0,0-2.64-10.24,9.89,9.89,0,0,0-4.68-2.7c-2.47-.58-5,.18-7.46-.06A4.86,4.86,0,0,1,74.1,85a2.76,2.76,0,0,1-.52-3.13l-1,0C72,84,73.7,86.09,75.58,87c2.48,1.24,5.39.89,8,1.64a13.3,13.3,0,0,1,9.34,10.22,13.54,13.54,0,0,1-1.35,8.77.27.27,0,0,0,.09.34l2.63,1.39.65-.61-3.62-1.55-.32.7a4.06,4.06,0,0,1,4,4.34l.17-.27c-1.18,1.13,1.43,2.3,1.83.92.16-.54-.8-.54-.93-.12q-.11.23.18,0a.49.49,0,0,1-.17-.06c-.07-.09-.25-.13-.25-.28s.1-.16.14-.25a1.32,1.32,0,0,0,0-.56,4.34,4.34,0,0,0-.73-2.28,4.77,4.77,0,0,0-4.16-2.2c-.35,0-.79.49-.31.7l3.61,1.54c.34.15,1.11-.37.65-.61l-2.62-1.4.09.35a13.93,13.93,0,0,0-.82-14.38,14.15,14.15,0,0,0-5.29-4.51,13.55,13.55,0,0,0-3.28-1.13c-1.39-.3-2.82-.36-4.22-.59a7.42,7.42,0,0,1-4-1.71,3.75,3.75,0,0,1-1.25-3.73c.14-.48-.8-.31-1,0-1,1.75.17,3.66,1.65,4.69,2,1.4,4.54,1,6.84.87a9.31,9.31,0,0,1,6.16,1.42A10.38,10.38,0,0,1,91,93.13a9,9,0,0,1,.37,6.42c-.18.54.75.51.93.12a8.74,8.74,0,0,0-.9-8.87,8.93,8.93,0,0,0-7.91-3.35c-.41,0-.82.66-.2.72,5.82.62,9.64,7.85,7,13l.93.12c2.45-5.32-1.86-12.24-7.7-12.45-.22,0-.55.06-.63.3a.31.31,0,0,0,.3.42Z"/><path class="cls-10" d="M40.62,105.8a2.48,2.48,0,0,1,1.66-2.49,3.15,3.15,0,0,1,3.17.81c2,1.81,2.12,4.76,2.14,7.29,0,.54.88.34,1-.07.41-1.53,2.57-1.1,3.45-.28,1.64,1.54.83,4.42.31,6.26l.94-.06-1-5.43c-.08-.43-1-.24-1,.16l.37,8.1.4-.37a6,6,0,0,0-3.31,8.42l.81-.5-2.16-1.85-.75.57,5.37,3c.36.2,1.22-.24.74-.57L49,126.22l-.65.62,4.75,1.83c.42.16,1.13-.41.56-.66l-6.83-3-.56.67,6.91,3,.55-.67-1.65-.64c-.42-.16-1.11.38-.55.67l3,1.53-.12-.49a6.37,6.37,0,0,0-.89,5.34c.11.39.83.26.94-.07a10.16,10.16,0,0,0-.18-6.94c-.16-.39-1-.27-1,.16l0,9.81c0,.51,1,.38,1-.07v-1.87c0-.52-1-.38-1,.07v1.87l1-.07,0-9.81-1,.17a9.67,9.67,0,0,1,.23,6.56l.94-.07a5.74,5.74,0,0,1,.74-4.78.3.3,0,0,0-.13-.48l-3-1.53-.55.67,1.65.64c.42.16,1.12-.42.55-.67l-6.9-3c-.42-.18-1.12.42-.56.67l6.83,3,.56-.66-4.75-1.84c-.33-.12-1.11.31-.65.62L52,129.33l.74-.57-5.36-3c-.35-.19-1.2.18-.75.57l2.17,1.85c.3.25,1.05-.08.82-.5a5.27,5.27,0,0,1,2.6-7.31c.15-.05.41-.18.4-.38l-.37-8.1-1,.16,1,5.43c.07.4.85.25.94-.06.65-2.27,1.53-5.88-1-7.34-1.56-.89-4.09-.7-4.63,1.3l1-.07c0-3.07-.25-6.87-3.37-8.46a4,4,0,0,0-3.8.06,3.19,3.19,0,0,0-1.74,3.12c.05.46,1,.22,1-.26Z"/><path class="cls-10" d="M91.5,108.33a14.34,14.34,0,0,1,7.82,1.27c.3.14,1.09-.31.65-.59a15.11,15.11,0,0,0-6.62-2.32l-.09.66a7.1,7.1,0,0,1,7.47,3.77,7.26,7.26,0,0,1-1.63,8.37l.78.26a13.15,13.15,0,0,0,.12-10.19c-.15-.37-.93-.22-1,.17l-.51,5.36,1-.17L98.8,112c-.1-.43-1.07-.18-1,.26l.7,2.91c.1.41.94.19,1-.17l.51-5.36-1,.17a12.65,12.65,0,0,1-.08,9.83c-.2.45.56.45.78.26a7.84,7.84,0,0,0,1.86-9.25,8,8,0,0,0-8.51-4c-.38.08-.59.61-.08.66a14.11,14.11,0,0,1,6.21,2.18l.66-.58a15.27,15.27,0,0,0-8.29-1.32c-.53.06-.75.76-.09.68Z"/><path class="cls-10" d="M72.51,82.69v2.07c0,.07.14.11.18.12a.88.88,0,0,0,.36,0c.17,0,.42-.15.42-.35V82.43c0-.07-.14-.11-.18-.11a.73.73,0,0,0-.36,0c-.17,0-.42.15-.42.35Z"/><path class="cls-11" d="M121.11,80.59l3.54,45,1,12.67c0,.32.66.17.8.06l35.08-29.11,10-8.28-.62-.38-34.59,28.88-9.75,8.14c-.32.27-.09.51.27.51a69.91,69.91,0,0,1,39.81,12l.75-.52a110.31,110.31,0,0,0-30.66-10.79q-4.53-.87-9.11-1.36c-.23,0-.85.2-.62.53a66.09,66.09,0,0,1,9.92,21.23,66.83,66.83,0,0,1,1.38,6.58l.93-.34a112.77,112.77,0,0,1-10.16-22c-.74-2.18-1.4-4.39-2-6.62-.08-.31-.61-.2-.79-.06l-19.5,14.8.71.31a43.23,43.23,0,0,1,18.48-13c.34-.12.36-.53,0-.57L80,133.37,67.1,132l-.35.64,15.69,1.09c.43,0,1-.6.34-.64L67.1,132c-.43,0-1,.57-.35.64l45.9,4.83,12.9,1.36,0-.57a44.12,44.12,0,0,0-18.86,13.22c-.37.45.45.51.71.31L126.86,137l-.79-.06a114.29,114.29,0,0,0,8.81,22.66c1.08,2.08,2.23,4.13,3.43,6.14.19.32,1,0,.93-.33a66.63,66.63,0,0,0-7.78-22.28,65.56,65.56,0,0,0-3.6-5.68l-.62.53a109.4,109.4,0,0,1,31,8.06c2.83,1.2,5.61,2.53,8.33,4,.31.17,1.2-.22.75-.52a71.12,71.12,0,0,0-31-11.57,69.14,69.14,0,0,0-9.43-.51l.26.51L161.75,109l9.74-8.14c.51-.41-.28-.66-.62-.38l-35.08,29.11-10,8.27.8.07-3.54-45-1-12.67c0-.39-1-.17-1,.26Z"/><path class="cls-11" d="M124.76,135.52a80.82,80.82,0,0,1-19.55-13.75c-1.64-1.57-3.22-3.21-4.72-4.91-.25-.28-1.17.06-.89.4l2,2.45c.24.29,1.17-.07.89-.4l-2-2.45-.89.4A81.42,81.42,0,0,0,118,132.67q3,1.82,6.06,3.36c.32.16,1.19-.29.75-.51Z"/><path class="cls-11" d="M113.43,127.75A6.89,6.89,0,0,0,121.9,129a6.61,6.61,0,0,0,2.63-8c-.15-.35-1-.22-1,.17A8.42,8.42,0,0,0,129,128.6a8.86,8.86,0,0,0,9.19-2.26c.25-.26-.08-.5-.35-.46-3,.44-4.66,3.8-3.74,6.58,1.11,3.35,5.19,4.55,8.36,4.25.53-.05.76-.67.1-.67a12,12,0,0,0-11.54,9.85l.93-.25a7.6,7.6,0,0,0-7-3.75,7.8,7.8,0,0,0-6.44,4.49h.94c0-3.45-.41-8.5-4.41-9.62l.18.35a5.48,5.48,0,0,0-1.55-7c-.33-.23-1.19.23-.75.54a5,5,0,0,1,1.38,6.4.26.26,0,0,0,.18.36c3.68,1,4,5.94,4,9.09,0,.47.81.31,1,0a6.58,6.58,0,0,1,5.6-3.92,6.83,6.83,0,0,1,6.08,3.51c.18.32.88.06.93-.25a10.89,10.89,0,0,1,10.46-9.1l.1-.67c-2.78.27-6.23-.76-7.39-3.56-.86-2.09,0-5.55,2.57-5.93l-.35-.46a7.5,7.5,0,0,1-8.16,1.76,7.94,7.94,0,0,1-4.73-6.79l-1,.18a6,6,0,0,1-1.87,7.07,5.7,5.7,0,0,1-7.38-1c-.27-.31-1.19.07-.88.42Z"/><path class="cls-11" d="M107.38,127.61a6.86,6.86,0,0,1-.73,9.1c-.39.36.36.5.6.37,2.23-1.18,4.88.62,5.84,2.67,1.33,2.83.16,6.18-1.17,8.77-.23.45.58.36.76.23a12,12,0,0,1,12.25-.77,12.54,12.54,0,0,1,6.46,9.53c.05.42.89.12,1-.17,1.72-6.7,4.11-15.05,11.72-17.05a8.39,8.39,0,0,1,5.59.37l.66-.56a13.38,13.38,0,0,1-7.49-5.37,8,8,0,0,1-.26-8.15,5.62,5.62,0,0,1,3.46-2.8c.33-.09.63-.6.09-.61-4.43-.12-8.86-.19-13.29-.36a11.35,11.35,0,0,1-5.82-1.35,4.93,4.93,0,0,1-2.46-4.42c0-.46-.92-.29-1,.09a11.51,11.51,0,0,1-6.17,8.71,11.27,11.27,0,0,1-11.25-1c-.24-.17-1,0-.86.39a10.7,10.7,0,0,1-3.48,10.49c-.14.11-.28.31-.07.44a13.22,13.22,0,0,1,5.44,14.71c-.13.43.75.23.89.07a13.25,13.25,0,0,1,11.68-4c4.55.67,8,3.89,10.39,7.63a56.75,56.75,0,0,1,3.7,7c.18.39,1.13.1,1-.26-2.07-4.4-4.28-9-8.16-12.12a14.28,14.28,0,0,0-13-2.39,14.12,14.12,0,0,0-6.38,3.94l.89.07a13.66,13.66,0,0,0-5.67-15.14l-.06.45A11.28,11.28,0,0,0,106.27,125l-.86.39A12.53,12.53,0,0,0,115,127.3a12.18,12.18,0,0,0,7.71-5.22,12,12,0,0,0,1.9-5l-1,.09a5.19,5.19,0,0,0,2.15,4.47,10.11,10.11,0,0,0,5.63,1.79c2.34.17,4.69.16,7,.22l7.38.2.1-.62a7.37,7.37,0,0,0-5.21,6.34c-.45,3.34,1.29,6.38,3.84,8.43a16,16,0,0,0,5.25,2.74c.28.08,1.12-.36.66-.56-3.32-1.49-7.09-.73-10.1,1.14-3.43,2.13-5.55,5.67-6.93,9.38a66.49,66.49,0,0,0-2,6.77l1-.18a12.71,12.71,0,0,0-14.71-11.09,13.42,13.42,0,0,0-5.58,2.21l.77.23c1.48-2.89,2.75-6.75.87-9.76-1.39-2.25-4.4-3.56-6.86-2.26l.6.37a7.33,7.33,0,0,0,.83-9.74c-.25-.31-1.17.05-.89.4Z"/><path class="cls-11" d="M135.23,162.24c-.07-8.33,5.57-16.1,13.19-19.24a18.27,18.27,0,0,1,6.84-1.41c.22,0,1-.27.56-.57-3.29-2.32-6.71-4.74-8.87-8.22a10.69,10.69,0,0,1-1-9.71,6.61,6.61,0,0,1,3.59-3.71c.62-.25.07-.68-.4-.49-3.21,1.28-4.83,4.63-4.9,8-.08,4.06,2.17,7.48,5,10.17a53.81,53.81,0,0,0,5.8,4.53l.56-.58c-8.77.06-16.9,6.09-20,14.2a19.53,19.53,0,0,0-1.33,7.17c0,.46,1,.29,1-.09Z"/><path class="cls-11" d="M103.56,124.55c-.37,5.37-6.84,9.22-11.67,6.63-.3-.16-1.18.26-.76.49,5.28,2.83,13-1.16,13.4-7.23,0-.42-.94-.25-1,.11Z"/><path class="cls-11" d="M103.29,121.81a15.89,15.89,0,0,0,11.67-.18A15,15,0,0,0,124.29,107c0-.21-1,0-1,.25-.25,5.37,3.42,10.15,8.09,12.43,5,2.43,10.91,1.69,15.76-.78a24.73,24.73,0,0,0,7.7-6.19l-.92.1a22,22,0,0,0-1.85,17.92,21.31,21.31,0,0,0,11.44,12.49,21.77,21.77,0,0,0,9.47,2c.09,0,.87-.24.65-.38l-1.94-1.3c-.24-.16-1.07.23-.91.34l1.95,1.3.66-.38a21.62,21.62,0,0,1-15.47-6.4,21.47,21.47,0,0,1-3-25.73c.11-.18-.79,0-.92.11-3.53,4.23-8.6,7.54-14.2,8a14.94,14.94,0,0,1-13.22-6.22,12,12,0,0,1-2.28-7.5l-1,.25A15,15,0,0,1,120,117.38a13.75,13.75,0,0,1-9.63,5,14.35,14.35,0,0,1-6.25-1c-.23-.09-1.1.27-.79.39Z"/><path class="cls-11" d="M124.44,102.36c3.15,4.94,6.42,10,11.19,13.57a18,18,0,0,0,14.2,3.43,12.3,12.3,0,0,0,6.83-3.83c.15-.18-.14-.24-.25-.25a.88.88,0,0,0-.65.26c-3.2,3.64-8.38,4.26-12.87,3.12-5.12-1.3-9.15-5-12.34-9.07a91.79,91.79,0,0,1-5.21-7.59c-.15-.24-1.09.06-.9.36Z"/><path class="cls-11" d="M157.83,110.84a36.92,36.92,0,0,0,7.92,29.46,34.54,34.54,0,0,0,6.46,6.09l.54-.36a30.39,30.39,0,0,1-19.54-2.81l-.77.38a152.45,152.45,0,0,0,21.45,1.64c.19,0,.55,0,.68-.19s.18-.22-.06-.23l-18-.82a1,1,0,0,0-.68.18c-.09.12-.17.23.06.24l18,.82.62-.42a152.55,152.55,0,0,1-21.45-1.63c-.12,0-1,.27-.76.37a31.48,31.48,0,0,0,20.28,2.85s.74-.21.54-.36a36.81,36.81,0,0,1-14.74-26.55,34.29,34.29,0,0,1,.41-8.82c0-.25-.92-.09-1,.16Z"/><path class="cls-11" d="M135,163.1l4.78,10.44c.16.37,1.11.1,1-.26l-5.5-13.38-1,.26L139.19,172c.16.39,1.12.1,1-.25l-4.88-11.87c-.16-.38-1.11-.1-1,.26l5.51,13.38,1-.26L136,162.84c-.17-.38-1.12-.09-1,.26Z"/><path class="cls-12" d="M72.15,162.91a5.52,5.52,0,0,0,7.1,1.42,4.62,4.62,0,0,0,1.4-6.29c-1.44-2.34-4.62-2.11-6.44-.36A3.45,3.45,0,0,0,73.14,161a3.35,3.35,0,0,0,2.1,2.18c1.87.75,4.93.05,5-2.4a3.56,3.56,0,0,0-4.68-3.22A2.38,2.38,0,0,0,74.07,160a3.63,3.63,0,0,0,1.59,2.51,2.57,2.57,0,0,0,2.94,0,2,2,0,0,0,.72-2.44c-.63-1.77-3.13-3.21-4.56-1.39a2.5,2.5,0,0,0,.2,3.08,2.78,2.78,0,0,0,3.18,1,3.08,3.08,0,0,0,.44-5.25c-2.33-1.46-5.75,1.22-5,3.83.73,2.45,4.21,3.14,6.06,1.58a4.14,4.14,0,0,0-.52-6.61,4,4,0,0,0-4.18,0,3.27,3.27,0,0,0-1.38,3.47,2.78,2.78,0,0,0,2.79,1.86,2.42,2.42,0,0,0,2.51-2.11A2.36,2.36,0,0,0,77.09,157a2.28,2.28,0,0,0-2.49,1.69A1.7,1.7,0,0,0,76.05,161a2.5,2.5,0,0,0,2.5-2.06A1.8,1.8,0,0,0,76.47,157a2.61,2.61,0,0,0-2.5,1.89,2.4,2.4,0,0,0,2,2.54A2.63,2.63,0,0,0,79,159.89a2.91,2.91,0,0,0-.71-3.2c-.27-.24-1.06.09-.82.48l.74,1.24c.19.31.34.77.72.89a1.3,1.3,0,0,0,1.51-.82c.4-1.32-2.09-1.3-2.17,0,0,.49,1,.34,1-.08,0-.12.06-.2.12-.19s.13.16.13.24-.13.18-.13.25.09,0,.09,0-.07-.15-.11-.21l-.33-.56-.67-1.11-.81.49a2.38,2.38,0,0,1,.52,2.59,1.43,1.43,0,0,1-2.07.8,1.69,1.69,0,0,1-1-2.13,1.51,1.51,0,0,1,1.83-.73,1.26,1.26,0,0,1,.33,2,1.21,1.21,0,0,1-.82.5.93.93,0,0,1-.81-.63,1.68,1.68,0,0,1,.66-1.94c.76-.37,1.45.61,1.61,1.22a1.48,1.48,0,0,1-1,1.95,2.08,2.08,0,0,1-2.18-1.09,2.47,2.47,0,0,1,3.54-3.1A3.63,3.63,0,0,1,79.47,162a2.86,2.86,0,0,1-4.58-.3,2.44,2.44,0,0,1,.06-2.76,2.37,2.37,0,0,1,2.4-1.13c1.6.42,2,2.89.93,4-1.34,1.38-3.29-.94-3-2.36a1,1,0,0,1,1.26-.89,2.74,2.74,0,0,1,1.56,1.32,1.82,1.82,0,0,1,.15,1.85,1.19,1.19,0,0,1-1.61.39c-1.2-.57-2.35-2.6-1.2-3.73s3.2.42,3.62,1.66a2,2,0,0,1-.49,2.19,2.44,2.44,0,0,1-2,.5,2.74,2.74,0,0,1-2.49-3.47,3.28,3.28,0,0,1,4.43-1.94,4,4,0,0,1,1.51,4.82,3.69,3.69,0,0,1-4.71,2A4.46,4.46,0,0,1,73,162.49c-.25-.34-1.17,0-.89.42Z"/><path class="cls-12" d="M75.45,161.06a2.73,2.73,0,0,0,3.07-1.86,2.37,2.37,0,0,0-1.72-2.78.75.75,0,0,0-.69.18,1.92,1.92,0,0,0-.41,1.9c.2.6.92,1.5,1.64,1.16a2.76,2.76,0,0,0,.93-.9,4,4,0,0,0,.55-1,3.93,3.93,0,0,0,.1-2.42c-.12-.42-1.08-.16-1,.25a3.48,3.48,0,0,1-1.13,3.65l.6-.11a1.47,1.47,0,0,1-.51-2.24l-.68.19a1.9,1.9,0,0,1,1.36,2,1.55,1.55,0,0,1-1.8,1.32.66.66,0,0,0-.63.29c-.11.23.1.34.29.37Z"/><path class="cls-12" d="M79.41,156,78.48,152l-.75.47a2.79,2.79,0,0,0,3-1.19,2.54,2.54,0,0,0,.07-3.09.56.56,0,0,0-.66-.09A4.31,4.31,0,0,0,78,154c.12.21.5.18.66.09a1.89,1.89,0,0,0,.63-2.85.54.54,0,0,0-.66-.09,2.68,2.68,0,0,0-.77,4.11.56.56,0,0,0,.66.09,2.55,2.55,0,0,0,.49-3.83,2.42,2.42,0,1,0-2.28,4.1c1.92.28,3.83-1.56,3-3.48A3,3,0,0,0,79,151a2.46,2.46,0,0,0-.54-.37,6.91,6.91,0,0,0-.73-.24,3.37,3.37,0,0,0-.44-.23,1.85,1.85,0,0,0-.66-.09,2.46,2.46,0,0,0-1.2.41,2.26,2.26,0,0,0-1.12,2.12,2.16,2.16,0,0,0,1.58,1.65,3,3,0,0,0,3.92-2.68,3.81,3.81,0,0,0-.17-1.46c-.13-.39-.34-1-.77-1.16a2.66,2.66,0,0,0-2.63,1,2.15,2.15,0,0,0-.19,2.55,2.67,2.67,0,0,0,2.2,1.09,2.39,2.39,0,0,0,2-3.68,2.22,2.22,0,0,0-.91-.81l.14.5a2,2,0,0,1,3.36,2.13,1.85,1.85,0,0,1-2,1.48A2.33,2.33,0,0,1,78.89,151c0-.53-1-.4-1,.06a3,3,0,0,0,4.84,2.24,3.15,3.15,0,0,0,1.1-2.8,2.62,2.62,0,0,0-1.92-2.11,3.27,3.27,0,0,0-3.31.87.3.3,0,0,0,.13.49c1.38.71,1,3.43-.77,3a1.64,1.64,0,0,1-1.33-1.7,1.61,1.61,0,0,1,1.85-1.42l-.28-.15a3.14,3.14,0,0,1,.34,3,1.77,1.77,0,0,1-2.1,1,1.41,1.41,0,0,1-1.12-1.86,1.6,1.6,0,0,1,.83-.83.81.81,0,0,1,.43-.08c.24,0,.38.21.6.27a2.35,2.35,0,0,1,1.26.73A2.17,2.17,0,0,1,79,153.2a1.74,1.74,0,0,1-1.79,1.65c-1.65-.08-1.69-2.66-.41-3.3,1.54-.78,2.63,2.35,1.3,3.14l.66.08a2,2,0,0,1,.33-3.06l-.66-.09a1.23,1.23,0,0,1-.19,1.81l.66.08a3.56,3.56,0,0,1,1.72-4.82L80,148.6a1.89,1.89,0,0,1,.08,2.2,1.65,1.65,0,0,1-1.75,1c-.29-.08-.85.07-.76.47l.92,4c.11.48,1.08.22,1-.25Z"/><path class="cls-12" d="M81,154.79c4.47,3,11.58-.13,12.3-5.48.07-.51-.86-.28-1,.08a10.28,10.28,0,0,1-13.53,6l-.56.62c6,2.54,13.91-2,14.58-8.55.05-.46-.83-.33-.94,0a11.41,11.41,0,0,1-14.21,7c-.28-.1-.94.14-.72.53a12,12,0,0,0,14.94,4.69c.4-.18.3-.68-.17-.6a26.42,26.42,0,0,1-15.19-2c-.24-.11-1,.2-.73.52a12.81,12.81,0,0,0,15.14,2.32c.38-.21.33-.66-.16-.61a21.76,21.76,0,0,1-12.69-2.43c-.25-.13-1.16.12-.82.48l9.94,10.53.82-.48-9.1-5.89-.66.58A13.08,13.08,0,0,1,86,168.93c.18.39,1.09.19,1-.25a15.18,15.18,0,0,0-9.21-10.14c-.22-.09-.9.09-.76.44a16.79,16.79,0,0,1,.87,9.83c-.1.48.86.29,1-.08a7.75,7.75,0,0,0,0-5.47,4.59,4.59,0,0,0-3.47-2.68,3.36,3.36,0,0,0-3.4,1.55,2.75,2.75,0,0,0,.22,3.42c.27.26,1,.1.92-.34a7.34,7.34,0,0,1,4.22-7.11l-.42-.53a12.09,12.09,0,0,1-12.37-1.49c-.27-.21-1.14.18-.82.48a11.93,11.93,0,0,0,14.76,1.05c.21-.15.24-.43,0-.52a22.7,22.7,0,0,1-12.32-9.74c-.22-.35-1.13,0-.89.41a15.3,15.3,0,0,0,5.41,5.63c2.1,1.28,5,2.52,7.54,1.87a3.28,3.28,0,0,0,2.37-2,2.18,2.18,0,0,0-.61-2.55c-1-.73-2.29-.52-3.4-.88A5.4,5.4,0,0,1,74,148a6,6,0,0,1-.62-6.72l-1,.08a17.06,17.06,0,0,0,7,12.32c.33.24,1.18-.22.75-.54a16.57,16.57,0,0,1-6.82-12c0-.44-.82-.12-.94.08-2,3.24-.18,7.93,3.33,9.24,1,.38,2.25.19,3.2.72a1.87,1.87,0,0,1,.23,2.84c-.92,1.1-2.65.88-3.89.57a14.3,14.3,0,0,1-3.43-1.37,14.88,14.88,0,0,1-5.76-5.78l-.89.41a23.33,23.33,0,0,0,12.64,10l0-.52a10.76,10.76,0,0,1-13.25-1l-.81.48a13.26,13.26,0,0,0,13.54,1.47c.6-.27.06-.75-.42-.53a8.1,8.1,0,0,0-4.76,7.9l.93-.34a2.32,2.32,0,0,1,2.67-3.68c2.94,1.21,2.9,4.81,2.09,7.36l1-.08a17.14,17.14,0,0,0-.89-10l-.76.45a14.61,14.61,0,0,1,8.8,9.76l1-.25a13.72,13.72,0,0,0-8.12-7.22c-.29-.09-1.11.29-.66.59l9.1,5.89c.26.17,1.15-.13.82-.48l-9.94-10.52-.82.48A23.06,23.06,0,0,0,90.69,160l-.17-.61a11.68,11.68,0,0,1-13.83-2.2l-.73.53a27.3,27.3,0,0,0,15.67,2l-.16-.61a11,11,0,0,1-13.64-4.57l-.72.52c6.08,2.17,13.61-1.36,15.69-7.52h-1c-.61,5.94-7.5,10.17-13,7.85-.38-.16-1.12.38-.56.62,5.71,2.55,13.15-.79,15.06-6.72l-1,.08c-.64,4.67-6.63,7.49-10.58,4.86-.34-.22-1.2.25-.75.54Z"/><path class="cls-12" d="M32.24,65.94V63.39l-.94.31a2.58,2.58,0,0,0,3.81.13A2.05,2.05,0,0,0,34,60.53c-.15,0-.9.1-.78.38L34,62.63c.14.31.79.06.93-.13a1.06,1.06,0,0,0-.32-1.58,1.67,1.67,0,0,0-1.9.59A1.11,1.11,0,0,0,33,63.19a1.88,1.88,0,0,0,2-.2h-.86l-.87,2,1-.19-.08-2.86c0-.29-.76,0-.86.07a4.64,4.64,0,0,0-1.39,3.73c0,.23.58.09.67,0a3.67,3.67,0,0,0,2.21-2.67l-1,.19.25,7.89,1-.26a3.46,3.46,0,0,1-.1-2.8A3.06,3.06,0,0,1,35.8,67c.44-.37.5-1.07.66-1.62.09-.31-.88-.18-1,.14s-.19.71-.31,1.06-.28.39-.47.6a3.68,3.68,0,0,0-.61,4.06c.15.3,1,.07,1-.26l-.26-7.88c0-.3-.91-.07-1,.19a3,3,0,0,1-1.62,2.18l.67,0a4.21,4.21,0,0,1,1.18-3.34l-.86.06L33.3,65c0,.35.88,0,1-.19l.87-2c.15-.35-.78-.07-.86,0-.24.17-.67-.23-.77-.42a.85.85,0,0,1,.07-.88c.11-.17.12-.26.3-.17a.68.68,0,0,1,.23.3.76.76,0,0,1-.06.81l.93-.13-.76-1.72-.79.38A1.82,1.82,0,0,1,34.5,63.4c-.46,1.05-1.78.74-2.31-.06-.17-.26-.93,0-.93.31V66.2c0,.27,1,.1,1-.26Z"/><path class="cls-12" d="M54.09,53.64a.75.75,0,0,0-.19.67,1,1,0,0,0,.39.49A1.62,1.62,0,0,0,55.8,55a1,1,0,0,0,.55-.6.31.31,0,0,0,0-.23.58.58,0,0,0-.19-.19,1.05,1.05,0,0,0-.48-.16,1.66,1.66,0,0,0-1.64.9c-.12.26-.16.78.2.88a1.5,1.5,0,0,0,1-.13,1.68,1.68,0,0,0,.88-1.27,1.14,1.14,0,0,0-.57-1.2.73.73,0,0,0-.63,0,1.87,1.87,0,0,0-.28.16,1.52,1.52,0,0,0-.41.43,1.47,1.47,0,0,0-.24,1,.91.91,0,0,0,.5.75,1.46,1.46,0,0,0,1.21,0,1,1,0,0,0,.62-.84,1,1,0,0,0-.51-.83,1.19,1.19,0,0,0-.64-.13c-.2,0-.51.14-.54.36s.27.27.43.26c-.18,0,0,0,0,0s-.1,0,0,0h0s-.09,0,0,0h0l0,0a1,1,0,0,1,.14.15s0,0,0,0,0,0,0,0l0,.1s0,.07,0,.1a.09.09,0,0,0,0,0s0-.06,0,0a.28.28,0,0,0,0,.09.09.09,0,0,0,0,.05s0,0,0,0l-.05.08,0,0,0,0s-.05,0,0,0,0,0,0,0h0c-.07,0,.13,0,0,0s.13,0,0,0h0s-.07,0,0,0l-.08,0h0s.07,0,0,0l-.08,0s0,0,0,0l0,0,0,0,0-.07s0,0,0,0l0-.05a.83.83,0,0,1-.06-.21.28.28,0,0,1,0-.09s0-.07,0,0v0A1.79,1.79,0,0,1,55,54l0-.1a.08.08,0,0,1,0,0c0,.07,0,0,0,0a2.12,2.12,0,0,1,.12-.2s0-.05,0,0,0,0,0,0l.08-.09s-.07.05,0,0l0,0s0,0,0,0l-.06,0,0,0-.49,0s-.09,0,0,0l0,0,.06,0,0,0s0,0,0,0l0,0,.07.09,0,.05,0,0s0-.06,0,0a2.25,2.25,0,0,1,.08.24s0,.09,0,.13h0s0,0,0,.08a.84.84,0,0,1,0,.27l0,.13c0,.07,0,0,0,0a.16.16,0,0,0,0,.07c0,.08-.09.15-.13.23,0-.09,0-.05,0,0l0,0-.05.05c-.06,0,.09-.06,0,0l-.06,0c-.07.05.11,0,0,0l-.07,0,.09,0h-.07c-.07,0,.11,0,.07,0s-.12,0,0,0h-.06c-.07,0,.11,0,0,0l.15.09c0,.07,0,0,0,0a.14.14,0,0,0,0-.06s0,0,0-.06,0-.09,0,0,0,0,0,0a.07.07,0,0,1,0,0,.13.13,0,0,1,0-.06s0-.08,0,0,0,0,0,0l0-.07,0,0s.06,0,0,0,0-.07.08-.09l0,0s-.08.06,0,0l.11-.07c-.14.09,0,0,0,0s-.13,0-.05,0l.06,0h0c.07,0-.12,0,0,0s0,0,.06,0-.1,0,0,0l.06,0,0,0h0l.05,0c.06,0,0,0,0,0l0,.06,0-.15a.5.5,0,0,1,0,.12c0,.05,0,0,0,0a.14.14,0,0,0,0,.06h0c-.05,0,.06,0,0,0l0,0c.1-.08.1,0,0,0l.06,0s-.09,0,0,0,0,0,0,0h0s-.1,0,0,0,0,0,0,0l-.12,0s.09,0,0,0l-.06,0-.1-.06-.05,0s-.06,0,0,0l0,0,0,0s0,0-.06-.08l0,0s0,.07,0,0l0-.11v0s0,0,0,0,0,0,0,0,0,0,0-.06a0,0,0,0,0,0,0s0,.06,0,0,.11-.17,0-.06c.06-.07.12-.14.09-.24a.27.27,0,0,0-.2-.16.72.72,0,0,0-.68.18Z"/><path class="cls-12" d="M55.18,59.62c-.81-1.32-3.93.18-3,1.57.15.24.84,0,1-.21l.95-1.5-.95.16-.64,1.85a.06.06,0,0,0,0,.09A2.93,2.93,0,0,0,56,60.34a2,2,0,0,0,.22-1.7c-.07-.17-.12-.26-.31-.27a2.3,2.3,0,0,0-.64,0,3.32,3.32,0,0,0-1.22.48A2.35,2.35,0,0,0,52.94,61c0,.23.84-.07.92-.17l1.73-2.13-.92.16a4.2,4.2,0,0,1,.25,4.53l1-.21-1.72-5.48c-.07-.22-1,0-1,.26.46,1.9,2.93,2.23,4.36,1.3.16-.1.12-.21-.06-.22a1.09,1.09,0,0,0-.68.18,1.56,1.56,0,0,1-1.48-.09,2.18,2.18,0,0,1-1.17-1.43l-1,.26,1.72,5.48c.09.26.88-.06,1-.21a4.28,4.28,0,0,0-.24-4.62c-.15-.22-.78,0-.92.16L53,60.86l.92-.16a2,2,0,0,1,.47-1.37,1.26,1.26,0,0,1,1-.55l-.18-.08a1.85,1.85,0,0,1-.25,2c-.41.52-.89.82-1.51.52l0,.09.64-1.85c.06-.17-.31-.12-.39-.11a.85.85,0,0,0-.56.27l-1,1.5,1-.21a.92.92,0,0,1,.28-1.26,2.07,2.07,0,0,1,.25-.15c-.09,0,.05,0,0,0h0a.67.67,0,0,1,.55.35c.15.25,1.06-.12,1-.26Z"/><path class="cls-12" d="M71.4,45.49V47a2.65,2.65,0,0,0,0,.63c0,.15.24.29.34.39a4,4,0,0,0,1.66.89,5,5,0,0,0,3.79-.59,4,4,0,0,0,0-6.49c-2.4-1.77-6.14.09-6.6,2.93a2.31,2.31,0,0,0,0,1,2.37,2.37,0,0,0,.7.78,5.48,5.48,0,0,0,1.8,1,6.1,6.1,0,0,0,4.19-.08,5.46,5.46,0,0,0,2.52-7.87c-.19-.3-1.12,0-.89.39A5.06,5.06,0,0,1,78,46.38a4.62,4.62,0,0,1-6.12-.53,1,1,0,0,1-.33-.84,2.92,2.92,0,0,1,.17-.88,3.63,3.63,0,0,1,1-1.49A2.84,2.84,0,0,1,75.86,42c1.9.88,2.82,3.68,1.46,5.38a3.17,3.17,0,0,1-3,1.07,3.23,3.23,0,0,1-1.57-.69,1.18,1.18,0,0,1-.32-.31,1.24,1.24,0,0,1-.07-.61V45.38c0-.43-1-.24-1,.11Z"/><path class="cls-12" d="M73.89,50.36l-1.35,5.21,1-.22.84-6.4-1,.26.52,4.1c0,.18.9-.08,1-.22l2.7-6.16-.94.25,4.1,4.25c.13.14,1-.17.94-.29a8.76,8.76,0,0,0-4.32-3.76c-.12-.05-1,.08-.94.28a6.22,6.22,0,0,0,4.32,3.88c.14,0,1-.19.86-.33l-2.64-2.48c-.17-.16-1,.21-.91.32l2.64,2.47.85-.33a6,6,0,0,1-4.15-3.78l-.94.28a8.63,8.63,0,0,1,4.26,3.71l.94-.29-4.09-4.25c-.14-.14-.86.09-.93.25l-2.7,6.16,1-.22L74.34,49c0-.17-.93,0-1,.26l-.84,6.4c0,.09.9,0,.95-.22l1.35-5.22c0-.15-.89,0-1,.19Z"/></g></svg>