<svg xmlns="http://www.w3.org/2000/svg" xmlns:xlink="http://www.w3.org/1999/xlink" viewBox="0 0 200 200"><defs><style>.cls-1{fill:#da7a23;stroke:#e6e7e8;}.cls-1,.cls-25{stroke-miterlimit:10;stroke-width:6px;}.cls-2{fill:#121212;}.cls-3{fill:#f39a1f;}.cls-4{fill:#3f2710;}.cls-5{fill:#a1712a;}.cls-6{fill:#ac832d;}.cls-7{fill:#e17025;}.cls-8{fill:#86c440;}.cls-9{fill:#3b7237;}.cls-10{fill:#703917;}.cls-11{fill:#e48b25;}.cls-12{fill:#83391b;}.cls-13{fill:#357237;}.cls-14{fill:#e27b26;}.cls-15{fill:#57c3ba;}.cls-16{fill:#ffd942;}.cls-17{fill:#ef3a24;}.cls-18{fill:#2e3f99;}.cls-19{fill:#b11f8c;}.cls-20{fill:#8e5227;}.cls-21{fill:#765020;}.cls-22{fill:#8e6e2a;}.cls-23{opacity:0.84;}.cls-24{fill:#f2f9f5;}.cls-25{stroke:#312c44;opacity:0.45;fill:url(#radial-gradient);}</style><radialGradient id="radial-gradient" cx="102.14" cy="101.15" r="89.7" gradientUnits="userSpaceOnUse"><stop offset="0" stop-color="#fff"/><stop offset="1"/></radialGradient></defs><g id="Library"><polygon class="cls-1" points="185.5 52.05 102.45 4.11 19.4 52.05 19.4 147.95 102.45 195.9 185.5 147.95 185.5 52.05"/><polygon class="cls-2" points="185.5 147.95 102.45 112.59 19.4 147.95 102.45 195.9 185.5 147.95"/><polygon class="cls-3" points="102.45 112.59 102.45 4.11 19.4 52.05 19.4 147.95 102.45 112.59"/><g id="Layer_4" data-name="Layer 4"><path class="cls-4" d="M37.2,70.89C41.43,77.3,42.62,85,43.13,92.48c.26,3.85.36,7.71.59,11.56.28,4.45.82,8.87,1.15,13.31a57.74,57.74,0,0,1-.59,15.59c-.12.57,2.71.15,2.85-.53,1.8-8.92.35-17.93-.35-26.89-.61-7.78-.38-15.68-1.93-23.36a33.88,33.88,0,0,0-4.75-12c-.45-.68-3.09.48-2.9.77Z"/><path class="cls-4" d="M37.49,58.09,62,46.81c1.6-.73.53-2-.86-1.68a165,165,0,0,0-22.26,6.39c-1.64.6-3.26,1.22-4.88,1.87s-3.18,1.16-4.28,2.4a4.41,4.41,0,0,0-.85,3.76c.3,2.05.82,4.08,1.22,6.11q4.51,23.13,6.95,46.58,1.39,13.42,2.1,26.91c0,.27.4.44.6.52,2.46,1.09,5.44-.14,7-2.14,2.08-2.58,1.57-6,.8-9-1.91-7.39-4-14.74-6-22.11-.31-1.14-2.91-.56-2.92.52a97.94,97.94,0,0,0,3.27,25.44c.33,1.26,3,.47,2.89-.78l-1.14-10c-.14-1.23-2.75-.46-2.91.52l-2.41,15.36a.73.73,0,0,0,.61.78,9.15,9.15,0,0,0,6.83-1.12.89.89,0,0,0,.39-1.21,8.55,8.55,0,0,1-1.41-6.67l-2.92.26-.13,3.08,2.92-.27c.4-20.07-5.82-39.4-7.64-59.25a95.39,95.39,0,0,1-.14-17.15L34,56.43A158.48,158.48,0,0,1,37.37,94.3L40.29,94a126.44,126.44,0,0,0-4-28.37l-2.9.77a253.36,253.36,0,0,1,8.73,40.2l2.9-.78a221.7,221.7,0,0,1-6.61-31.33l-2.9.78A106.23,106.23,0,0,1,38.7,97.88l2.91-.52L39.39,79.18l-1.15-9.34a57.2,57.2,0,0,1-.68-7.73,11.5,11.5,0,0,1,2-7.07c1.46-1.86,3.66-2.94,5.76-3.9,4.66-2.14,9.43-4,14-6.26a55.73,55.73,0,0,0,14.24-9.46.73.73,0,0,0-.07-1.16,1.9,1.9,0,0,0-1.75,0,187.66,187.66,0,0,0-28.21,14.3.83.83,0,0,0-.29,1.29c.45.46,1.35.28,1.86.07A126.61,126.61,0,0,0,67.65,37.4c.49-.34.74-1,.18-1.38a2,2,0,0,0-2.06.2L48,46.66c-1.33.78.15,1.87,1.19,1.49a207.45,207.45,0,0,0,20.59-8.66l-2.08-.63a412.65,412.65,0,0,0,2.46,67.78q1.14,9.49,2.71,18.93c.21,1.26,3,.48,2.9-.78Q74,102.85,73,80.84q-.49-10.94-.8-21.88-.15-5.48-.25-11a95.5,95.5,0,0,1-.1-10.29c.19-2.1,1.26-3,3-4.1l5.08-3.11L90.43,24c.52-.32.73-1,.19-1.38a2,2,0,0,0-2.07.21,83.13,83.13,0,0,1-15.27,7.34l.86,1.68L97,22.6l-2-.16c1.66,1.94.61,4.71-.09,6.85a59.85,59.85,0,0,0-2.18,8.65,81,81,0,0,0-.91,17.39c.53,12.07,2.68,24.06,4.69,36q1.77,10.5,3.8,21c.24,1.25,3,.48,2.9-.78Q100.08,80.79,99.79,50q-.08-8.67.07-17.33c0-1.46-2.67-.85-2.92.27a171.74,171.74,0,0,0-3.71,31.24l2.92-.27L97,41.07c.15-3.72.21-7.44.44-11.16.07-1.14.14-3.23,1.22-4a1.17,1.17,0,0,1,1.77.83c.27,1.24,3.18.49,2.9-.77-.66-3-5.09-2.58-6.87-1a6.69,6.69,0,0,0-1.89,4.39c-.22,2.14-.2,4.32-.28,6.47L93.23,64.13c-.06,1.41,2.87.93,2.92-.27a172.73,172.73,0,0,1,3.71-31.24l-2.92.27q-.52,30.93,1.82,61.83.67,8.76,1.57,17.51l2.9-.78Q99.6,92.79,96.8,74c-1.74-11.75-3.14-23.8-1.24-35.62A62,62,0,0,1,98,28.67c.8-2.42,1.55-5.31-.28-7.46-.47-.55-1.38-.39-2-.16L72.9,30.31c-1.55.63-.55,2.19.86,1.68a89.56,89.56,0,0,0,16.67-8l-1.88-1.17-9.73,6-4.65,2.86a14.76,14.76,0,0,0-4,3c-1.94,2.44-1.25,6.26-1.21,9.13q.09,5.73.24,11.44.56,22.53,1.9,45,.75,12.66,1.76,25.32l2.9-.78A409.78,409.78,0,0,1,70.13,57.7q0-9.56.44-19.11c.05-1-1.45-.94-2.08-.64a203.24,203.24,0,0,1-19.84,8.39l1.19,1.49L67.65,37.4l-1.88-1.18A122.3,122.3,0,0,1,43.92,48.39l1.56,1.36A184,184,0,0,1,73,35.82l-1.82-1.14c-7.75,7.41-18.14,10.69-27.65,15.16a18.58,18.58,0,0,0-6,4,11.63,11.63,0,0,0-2.81,6.56A31.73,31.73,0,0,0,35,67.78c.36,3.07.75,6.15,1.13,9.23l2.59,21.12c.14,1.15,2.94.54,2.91-.52a109,109,0,0,0-3.21-23.09c-.31-1.25-3.07-.48-2.9.78a223.11,223.11,0,0,0,6.61,31.33c.36,1.25,3.07.48,2.9-.78A254.35,254.35,0,0,0,36.3,65.66c-.38-1.23-3.22-.47-2.9.77a124.93,124.93,0,0,1,4,27.87c0,1.42,2.89.93,2.92-.27a160.53,160.53,0,0,0-3.43-38.37c-.26-1.19-2.82-.52-2.92.52-1.74,20,4.19,39.51,6.73,59.2a116.33,116.33,0,0,1,1.06,17.2c0,1.41,2.88.93,2.92-.27l.13-3.07c.06-1.45-2.7-.88-2.92.26a9.84,9.84,0,0,0,1.66,7.64l.39-1.2a4.36,4.36,0,0,1-3.24.47l.61.78,2.42-15.36-2.92.52,1.15,10.05,2.89-.78a95.77,95.77,0,0,1-3.23-24.93l-2.91.52,4.89,17.94c.74,2.74,1.91,5.71,1.78,8.58-.09,1.93-1.43,5.2-3.9,4.11l.6.53q-1.19-22.54-4.28-44.93-1.56-11.18-3.59-22.28c-.67-3.7-1.4-7.4-2.15-11.08-.32-1.59-.73-3.27.92-4.17a39.64,39.64,0,0,1,5-2A160.3,160.3,0,0,1,61.63,47l-.86-1.68L36.25,56.54c-.5.23-1.12.82-.71,1.39s1.43.39,2,.16Z"/><path class="cls-4" d="M106.39,25.77c-.08.11,0,.18.22.23l-.33-.64A544.12,544.12,0,0,0,101.66,96q0,4.95.09,9.88c0,1.65.07,3.29.11,4.94,0,.82,0,1.64.08,2.47,0,.22,0,2,.2,1.92l1.14-.21c.29,0,.45,0,.48.22l-1.13.78.11,0-1.37-.1.14.06a2.13,2.13,0,0,0,2.07-.21c.38-.28.87-1.06.2-1.36-.9-.39-2.36-.28-2.83.76a1.28,1.28,0,0,0,1.28,1.81,2.51,2.51,0,0,0,2.63-2,12.76,12.76,0,0,0,0-2.62c0-1,0-2-.08-3q-.28-11.24-.1-22.47Q105,64.4,107.25,42q.63-6.27,1.39-12.52c.12-1,.25-2,.37-2.94s.49-1.75-.38-2.31a3.72,3.72,0,0,0-4.12.39c-1.54,1.22.84,2,1.88,1.14Z"/><path class="cls-4" d="M106.57,26.82c3.21,2.88,7.47,4.56,11.29,6.47q6.17,3.09,12.37,6.11,12.45,6.08,25,11.87,7.23,3.34,14.51,6.59l-.62-.86A264.48,264.48,0,0,0,166,124q.76,9.44,2.2,18.8l.49-1c-1.8,1.25-4.24.74-6.22.25-2.26-.57-4.5-1.26-6.73-1.94q-7-2.18-13.89-4.85a197.61,197.61,0,0,1-26.81-12.87q-7.25-4.17-14.11-8.94c-1-.72-3.59.72-2.24,1.66a201.64,201.64,0,0,0,56.65,27.32c4.76,1.44,10.71,3.85,15.27.67a1.06,1.06,0,0,0,.49-1,262.19,262.19,0,0,1-1.65-66.52q1-9.42,2.62-18.74c.08-.44-.29-.71-.63-.86q-25.15-11.23-49.83-23.53c-2.33-1.16-4.65-2.32-7-3.5a26.53,26.53,0,0,1-5.85-3.73c-1-.85-3.48.54-2.24,1.66Z"/><path class="cls-4" d="M115.41,125.82c1.71,0,2.19-2.25.23-2.25-1.71,0-2.19,2.25-.23,2.25Z"/><path class="cls-4" d="M103.8,51.9c15.78,7.15,31.6,14.33,48.08,19.72q7.06,2.31,14.26,4.12c.86.21,2.37-.2,2.31-1.28a6.06,6.06,0,0,1,.72-3.21.69.69,0,0,0-.51-1A532.82,532.82,0,0,1,117.1,54.38c-4.53-1.65-9-3.33-13.91-2.31-1.08.23-1.84,1.71-.29,1.83,8.32.67,16.1,3.87,23.53,7.5s14.93,7.65,22.79,10.66a130.57,130.57,0,0,0,14.54,4.62c.61.16,3.1-.47,2.19-1.5-4.54-5.15-11-7.73-17.45-9.52-3.41-.94-6.87-1.69-10.3-2.56a109.67,109.67,0,0,1-12.12-3.91c-4.72-1.82-9.33-3.9-13.94-6a2.11,2.11,0,0,0-2.07.22c-.39.27-.87,1-.2,1.33,7.89,3.55,15.82,7.13,24.17,9.46,6.67,1.87,13.65,2.92,20,5.7a26,26,0,0,1,9.21,6.46l2.2-1.5a133.34,133.34,0,0,1-25.22-9.27c-7.47-3.63-14.76-7.73-22.6-10.55A52.8,52.8,0,0,0,104,52l-.29,1.83c4.13-.87,8.38,1.13,12.17,2.5q6.15,2.23,12.34,4.31,12.17,4.09,24.51,7.58,7.11,2,14.26,3.82l-.51-1a7.84,7.84,0,0,0-.88,4.2L167.86,74c-16.71-4.17-32.72-10.64-48.44-17.6-4.46-2-8.91-4-13.35-6a2.16,2.16,0,0,0-2.07.22c-.39.28-.87,1-.2,1.34Z"/><path class="cls-4" d="M101.68,82.29C119,84.06,134.63,92.43,151.24,97c2.1.57,4.21,1.09,6.34,1.53a19.13,19.13,0,0,0,5.46.7c1.34-.14,3.54-.77,3.63-2.43.08-1.48-1.66-2.47-2.85-2.93a40.94,40.94,0,0,0-6.51-1.48c-2.36-.47-4.73-.91-7.08-1.43-4.37-1-8.65-2.28-12.91-3.65-9.39-3-18.92-6.14-28.92-5.64a2.9,2.9,0,0,0-1.83.63c-.31.37-.26.6.29.66a143.44,143.44,0,0,1,26.54,5.85c8.77,2.65,17.48,5.48,26.22,8.24l2.36-1.2-23-6.22-11.52-3.1-5.52-1.49L119,84.27c-.57-.16-1.93-.2-1.86-1l-.32.49.07-.06-2.31.5.14.06c.67.31,3.32-.77,2.36-1.19L117,83a2.91,2.91,0,0,0-2.3.5c-1.19,1,.48,1.58,1.28,1.79L122.19,87l12.48,3.36,25,6.74a3,3,0,0,0,2-.35c.29-.15,1-.65.33-.85-8.89-2.81-17.75-5.69-26.68-8.37a144.12,144.12,0,0,0-26.58-5.81L107.18,83c8.28-.41,16.31,1.9,24.12,4.38C135.18,88.58,139,89.87,143,91c4.19,1.16,8.45,1.93,12.7,2.78a30.13,30.13,0,0,1,6,1.45,4,4,0,0,1,1.87,1.47,2.37,2.37,0,0,1,.21.9c0-.18-.08.65.16.43-.08.07-.59,0-.7,0a68.86,68.86,0,0,1-11.51-2.66c-7.63-2.23-15-5.16-22.51-7.82-8.33-3-16.84-5.55-25.68-6.45a3,3,0,0,0-2,.55c-.39.35-.43.68.2.74Z"/><path class="cls-4" d="M102.52,101.38c1.54,1.05,3.54,1.4,5.3,1.93l6.4,1.93L126.56,109l24.9,7.5c4.27,1.28,8.52,2.47,13,1.26.2,0,2-.86,1-1.1a327.83,327.83,0,0,1-45.52-14.94Q113.51,99,107.2,96.1l-2.55,1.1,11.45,5.09c.67.29,3.31-.76,2.37-1.19a33.89,33.89,0,0,0-9.25-2.64c-.34,0-3,.72-2.29,1.15a21.56,21.56,0,0,0,8.94,3.19,3.17,3.17,0,0,0,1.92-.47c.23-.15.79-.62.2-.76l-12.39-2.9a3.12,3.12,0,0,0-2,.35c-.34.18-.93.58-.34.84a62.7,62.7,0,0,0,10,3.35,3.06,3.06,0,0,0,1.86-.28c.14-.06,1.14-.59.68-.82a24.91,24.91,0,0,0-8.48-2.53,3.22,3.22,0,0,0-1.91.47c-.28.18-.75.56-.2.76l15.18,5.28c.45.16,3.16-.43,2.55-1.1a10.73,10.73,0,0,0-5.59-3.23,3.14,3.14,0,0,0-2,.35c-.26.13-1,.66-.33.83l5.25,1.34a3.05,3.05,0,0,0,2-.34c.26-.14,1-.67.34-.84l-5.26-1.34L115,102.94a9.91,9.91,0,0,1,5.22,3.07l2.55-1.1L107.6,99.62l-2.11,1.23a22.34,22.34,0,0,1,7.61,2.28l2.54-1.1a62.3,62.3,0,0,1-10-3.36l-2.37,1.19,12.39,2.9,2.11-1.23a19.52,19.52,0,0,1-8.08-2.94l-2.29,1.14a31.71,31.71,0,0,1,8.74,2.56l2.37-1.19L107,96a2.78,2.78,0,0,0-1.87.27c-.12.06-1.14.61-.67.83a329,329,0,0,0,45.23,17q6.66,2,13.39,3.64l1.05-1.1c-2.52.68-5.17,0-7.62-.64s-4.65-1.38-7-2.08l-14.94-4.5-14.7-4.42-7.36-2.22-3.79-1.14a12.5,12.5,0,0,1-3.52-1.34c-.7-.49-3.22.67-2.72,1Z"/><path class="cls-4" d="M99.76,95.24Q78.19,108,55.63,119.06q-6.5,3.16-13.05,6.18l1.7.73c14-9.88,29.74-17.07,45.57-23.57,4.53-1.86,9.09-3.66,13.64-5.47.36-.14,1.07-.52.84-1s-1.23-.29-1.58-.19c-14.68,3.94-28.21,11-41.2,18.77-1.88,1.12-3.75,2.26-5.62,3.4l-2.7,1.66-1.35.83-.57.36c-.06,0-.8.48-.44.36L52,121c.34.08-.06-.09.08-.27l-.78.54.18-.07c.42-.16,1.11-.58.79-1.09s-1.54-.13-1.91,0c-1,.38-1.88,1.76-.46,2.3,1.65.62,3.68-1.23,5-2,3.66-2.26,7.34-4.5,11-6.68A192.23,192.23,0,0,1,89,101.9a111.4,111.4,0,0,1,14.08-4.84l-.74-1.21c-16.32,6.48-32.73,13-48,21.8Q48,121.34,42,125.58c-.38.27-.38.64,0,.87a2.24,2.24,0,0,0,1.72-.13q23.06-10.6,45.22-23,6.36-3.56,12.62-7.28c.44-.26.82-.7.28-1s-1.58,0-2,.29Z"/><path class="cls-4" d="M43.61,104.65,89.91,82.8c4.14-2,8.45-4.31,13.15-4.23l.81-1c-7.8,2.41-14.93,6.33-22.09,10.2A182.88,182.88,0,0,1,59.22,98.15q-6.67,2.5-13.54,4.44l1.44.35c2.71-2.43,6.1-3.7,9.51-4.84a92.51,92.51,0,0,0,9.81-3.67c6.54-3,12.56-7,19-10.2a46.17,46.17,0,0,1,11.47-4.14l.14-1c-8.37,2.09-15.85,6.51-23.35,10.63L49.4,103.07c-.49.27-.34.48.05.63a3.16,3.16,0,0,0,1.9-.38L76,91.39c7.76-3.74,15.65-7.51,24.12-9.35l-.24-.88a5,5,0,0,1-2.15.12,3.22,3.22,0,0,0-2,.54c-.41.35-.43.58.17.65a11.66,11.66,0,0,0,5-.64c.21-.07,1-.37,1-.73s-1-.2-1.19-.15c-8.79,1.92-17,5.56-25.07,9.44q-13,6.24-25.9,12.53l2,.25,23-12.64C81.9,86.54,89.19,82,97.31,80c.27-.07,1.34-.36,1.32-.78S97.69,79,97.45,79c-7.55,1.49-14.34,5-21,8.77-3.37,1.91-6.73,3.86-10.21,5.56a85.33,85.33,0,0,1-10.82,4.16c-3.92,1.31-7.82,2.87-10.94,5.66-.7.63,1.26.41,1.44.35a179.62,179.62,0,0,0,23.46-8.42c7.51-3.31,14.6-7.39,21.9-11.15a78.55,78.55,0,0,1,12.83-5.5c.37-.11,2.13-1,.81-1.05a28.32,28.32,0,0,0-11.59,2.68c-4.17,1.77-8.23,3.82-12.33,5.76L56.16,97.54l-14.22,6.72c-.38.17-.86.48-.36.76s1.6-.17,2-.37Z"/><path class="cls-4" d="M87.81,54C82.44,60.69,74.63,64.59,67,68.2Q53,74.83,39,81.42l1.27,1.67c9-5,17.89-10,26.91-14.86,8.6-4.64,17.41-9,26.76-11.93l-.9-1.81L38.92,80.55c-.53.25-1.1.88-.69,1.47s1.41.44,2,.21A570.87,570.87,0,0,0,91.66,57.34l-1.6-1.49C83,61.43,74.62,64.8,66.3,68l-28,10.75,1.28,1.68a71.76,71.76,0,0,1,11.73-5.27c4.11-1.53,8.21-3.09,12.25-4.8A247.45,247.45,0,0,0,87.36,58.79c1.73-.95.17-2.47-1.27-1.67A248.83,248.83,0,0,1,62.29,68.7c-4,1.7-8.13,3.27-12.24,4.8a71.82,71.82,0,0,0-11.74,5.26c-.5.29-1.12.85-.69,1.47s1.4.42,2,.21Q53.78,75,68,69.53c8.42-3.25,16.86-6.75,24-12.38,1.39-1.1-.46-2.11-1.6-1.49A566.73,566.73,0,0,1,38.92,80.55l1.27,1.68L94.36,56.16c1.51-.72.56-2.27-.9-1.81C78.53,59,65,67.06,51.35,74.6L39,81.42c-1.74,1-.2,2.36,1.27,1.67L62.86,72.44c6.45-3,13.08-5.92,19-10a38.72,38.72,0,0,0,8.39-7.67c1.14-1.43-1.61-1.85-2.42-.83Z"/><path class="cls-4" d="M94,39.82c-7.73,3-13.89,8.59-20.29,13.66a69.65,69.65,0,0,1-10.47,7.07,84.6,84.6,0,0,1-12.38,5.33c-4.82,1.68-9.73,3.07-14.64,4.46l.87,1.7L88.39,50.48c3.92-1.65,8.8-3,11.42-6.62.94-1.29-1-1.5-1.82-1.15l-19.1,7.6,1.25,1.56,12.17-6.82c1.74-1,.2-2.22-1.24-1.56a41.41,41.41,0,0,0-8.26,5l2.14,1a17.26,17.26,0,0,1,8.42-4.26c.54-.1,1.38-.65,1.2-1.3s-1.17-.63-1.69-.53a21.27,21.27,0,0,0-10.33,5.34A.73.73,0,0,0,82.76,50a2,2,0,0,0,1.93-.27,37.81,37.81,0,0,1,7.62-4.65l-1.24-1.56L78.89,50.31c-.48.26-1.13.8-.71,1.39s1.42.38,2,.17l19.1-7.6-1.82-1.16c-2.29,3.13-6.63,4.27-10,5.71L75,54l-25,10.49-14.19,6c-1.57.66-.55,2.09.87,1.69,8.7-2.46,17.48-5,25.62-9a67.92,67.92,0,0,0,11.19-6.93c3.29-2.49,6.42-5.2,9.68-7.72a48.39,48.39,0,0,1,12-7.19c.52-.2,1.11-.85.71-1.4s-1.41-.37-2-.16Z"/><path class="cls-4" d="M95,18.63,81.49,24.06l1.32,1.83a41.15,41.15,0,0,0,9-5.31c1.42-1.11-.45-2.23-1.64-1.63L78.59,24.73l1.32,1.83a97.3,97.3,0,0,1,10.51-5L89.11,19.7A120.09,120.09,0,0,0,73.81,28l2,1.43,9.51-6.06c1.49-1-.45-2.28-1.64-1.64a153.7,153.7,0,0,0-15.38,9.52,1,1,0,0,0-.13,1.59,1.83,1.83,0,0,0,2.08-.15l8-5.24a1,1,0,0,0,.13-1.58,1.83,1.83,0,0,0-2.08.15L61.46,35.32l1.95,1.43,12.92-8.67c1.49-1-.46-2.23-1.64-1.64a213.86,213.86,0,0,0-21,12.06l1.95,1.44A78.2,78.2,0,0,1,71,30.46L69.4,28.82q-11.19,7.4-23,13.73L48,44.19a156.67,156.67,0,0,1,15.67-8.72l-1.31-1.84Q50,39.82,38.13,46.92c-1.68,1-.19,2.63,1.32,1.83L57.54,39.1c1.46-.78.58-2.48-.94-2A74.64,74.64,0,0,0,34,49.27c-1.56,1.23.75,2.32,2,1.44l6.84-5c1.4-1-.46-2.36-1.64-1.64a46.87,46.87,0,0,0-10.66,8.89l2.62.67,1.21-2.2L31.51,51,29.15,57l2.86.11-.12-2.47c-.08-1.57-2.94-1.22-2.95.18l0,5.12c0,1.59,2.8,1.19,2.95-.19l.61-5.65-2.94.19a10.78,10.78,0,0,0,.91,4.62c.55,1.24,2.71.81,2.92-.48L34,54.6l-2.92.48a16.85,16.85,0,0,1,.49,7.37L34.49,62c-.91-4.55,1.43-9.12,4.85-12,3.71-3.16,8.43-4.75,13-6.26l-.94-2L36.91,50.17c-1.69,1-.17,2.66,1.32,1.83a173.56,173.56,0,0,1,20.15-9.58l-1.63-1.64-12.49,8,2,1.44A85.52,85.52,0,0,1,65.7,38.44L64.07,36.8a28.89,28.89,0,0,1-7.9,4.35l1.26,1.77a76.26,76.26,0,0,1,12.78-8.11l-1.64-1.63A71.08,71.08,0,0,1,57.19,40l1.64,1.63a137,137,0,0,1,23-12.7l-1.63-1.64a13.61,13.61,0,0,1-6.81,3.06l.87,1.84A32.42,32.42,0,0,1,97.1,25.3l.6-2.23A10.4,10.4,0,0,1,90.09,21l-1.6,2a7.86,7.86,0,0,0,6.42-2.56.93.93,0,0,0-.4-1.5,1.91,1.91,0,0,0-2.05.55,3.8,3.8,0,0,1-3,1.29c-.88,0-2.9,1-1.6,2a13.38,13.38,0,0,0,9.61,2.61A1.68,1.68,0,0,0,99,24.25a1,1,0,0,0-1-1.16,36.47,36.47,0,0,0-25.74,7.66,1,1,0,0,0,.87,1.84,18,18,0,0,0,9-3.87c1.42-1.18-.45-2.15-1.64-1.64A141.87,141.87,0,0,0,56.88,40.19a1,1,0,0,0-.24,1.48,1.68,1.68,0,0,0,1.87.15,75.48,75.48,0,0,0,12-7.21c1.45-1.07-.46-2.23-1.64-1.63a79.61,79.61,0,0,0-13.42,8.51c-1.17.92.07,2.2,1.26,1.77a33.57,33.57,0,0,0,9.29-5,1,1,0,0,0,.24-1.48,1.69,1.69,0,0,0-1.88-.16A88.89,88.89,0,0,0,44.26,48.8a1,1,0,0,0-.13,1.59,1.85,1.85,0,0,0,2.08-.15l12.49-8a1,1,0,0,0,.24-1.48,1.71,1.71,0,0,0-1.88-.16,173.55,173.55,0,0,0-20.15,9.59L38.23,52,52.7,43.54c1.4-.82.6-2.49-.94-2C46.5,43.3,40.94,45.17,36.81,49c-3.75,3.5-6.26,8.53-5.21,13.73.28,1.39,2.75.65,2.92-.49A18.42,18.42,0,0,0,34,54.31c-.39-1.37-2.72-.7-2.92.48l-.63,3.8,2.92-.48a9.39,9.39,0,0,1-.87-4c0-1.59-2.79-1.19-2.94.19l-.62,5.65,2.95-.19,0-5.11-2.95.18.13,2.47c.07,1.47,2.41,1.25,2.87.11l2.36-6c.65-1.65-2.17-1.52-2.79-.39l-1.2,2.19c-.33.59.22,1.12.73,1.27a1.9,1.9,0,0,0,1.88-.59,42,42,0,0,1,9.53-8l-1.64-1.64-6.83,5,2,1.44A70.32,70.32,0,0,1,57.17,39.24l-.94-2-18.1,9.65,1.32,1.83q11.88-7.08,24.24-13.28c1.77-.89.2-2.57-1.31-1.84a165.65,165.65,0,0,0-16.31,9.12c-1.49,1,.45,2.27,1.63,1.64q12.15-6.51,23.65-14.13a1,1,0,0,0,.24-1.48,1.69,1.69,0,0,0-1.88-.16,82.35,82.35,0,0,0-16,9.88,1,1,0,0,0-.14,1.59,1.86,1.86,0,0,0,2.09-.15A205.07,205.07,0,0,1,76,28.28l-1.64-1.64L61.46,35.32a1,1,0,0,0-.13,1.59,1.85,1.85,0,0,0,2.08-.16l14.75-9.32-2-1.43-7.95,5.23,1.95,1.44A142.34,142.34,0,0,1,85,23.55l-1.63-1.64L73.81,28a1,1,0,0,0-.13,1.59,1.86,1.86,0,0,0,2.09-.16,114.63,114.63,0,0,1,14.65-7.87c.58-.26,1.07-1,.67-1.58s-1.39-.5-2-.26a97.52,97.52,0,0,0-10.52,5c-1.72.95-.19,2.59,1.32,1.83l11.57-5.78-1.64-1.63a37.84,37.84,0,0,1-8.35,4.91c-.58.25-1.06,1-.66,1.57s1.38.51,2,.26l13.48-5.42A1.14,1.14,0,0,0,97,18.89c-.43-.64-1.39-.5-2-.26Z"/><path class="cls-4" d="M115,27.5l-5.63-3.22-1.61,1.94a31.59,31.59,0,0,1,9.73,3.54l1.94-1.86a88.82,88.82,0,0,1-9.58-5l-1.94,1.86a51.25,51.25,0,0,1,11.64,4.67,1.88,1.88,0,0,0,2.08-.17c.49-.38.75-1.12.15-1.54a31.87,31.87,0,0,0-9-4.42,2,2,0,0,0-2.05.55.89.89,0,0,0,.39,1.46,63.42,63.42,0,0,1,16.13,8.47l1.94-1.85-13.86-6.08c-1.26-.55-3.36,1.26-1.66,2a164.63,164.63,0,0,1,19.89,10.47c1.07.65,3.54-.52,2.22-1.71a62.62,62.62,0,0,0-11.22-8.12l-1.94,1.86q11.35,5.76,22.25,12.4l1.94-1.86L126,30.16c-1.22-.63-3.3,1.16-1.65,2L151.14,46c1,.52,3.22-.89,1.94-1.86a70.31,70.31,0,0,0-18.13-10c-1.26-.47-3.37,1.21-1.66,2L157.5,47.36l1.65-2L143.31,38.8c-1.27-.53-3.37,1.27-1.66,2l20.13,8.6,1.66-2-16.52-5.65c-1.25-.43-3.4,1.26-1.66,2l15.39,6.59,1.65-2-12.55-4.95c-1.27-.49-3.38,1.27-1.66,2l15.72,6.75c1.25.54,3.32-1.16,1.66-2l-12-6-1.66,2,16.31,8.1c1,.51,3.3-1.13,1.94-1.86L154.64,44l-1.94,1.86,16.67,8.23c.79.39,2.59-.31,2.28-1.39-1-3.42-3.67-5.78-6.64-7.54-3.67-2.17-7.65-3.87-11.51-5.69q-12.8-6-25.8-11.58-7.45-3.18-15-6.18c-1.26-.51-3.34,1.17-1.66,2L152.9,44.32c1.24.6,3.32-1.17,1.66-2L132.26,31c-3.61-1.82-7.18-3.74-10.84-5.46C118.11,24,114.53,23,110.9,24l1.6.38a2.93,2.93,0,0,0-3.32-1.18,1.86,1.86,0,0,0-1.3,2.6c.47.92,2.43.38,2.71-.46l.62-1.83-1.88.9a33.53,33.53,0,0,1,12.23,5.71c3.61,2.68,6.2,6.6,10.62,8.06,2.18.72,4.46,1,6.69,1.53a46,46,0,0,1,6.71,2,51.81,51.81,0,0,1,12.2,6.82c4,2.93,7.86,6,12.77,7,1.46.32,2.9-1.75,1-2.17-4.33-.95-7.88-3.87-11.36-6.45a55.57,55.57,0,0,0-11.92-6.84,50.81,50.81,0,0,0-6.79-2.22c-2.19-.55-4.44-.86-6.62-1.45a12.93,12.93,0,0,1-6-3.56A46.77,46.77,0,0,0,124,28.5a36.69,36.69,0,0,0-13.64-6.29,1.8,1.8,0,0,0-1.88.9l-.62,1.83,2.72-.47c-1.16.21-1.5.48-1,.82a1.46,1.46,0,0,1,.34.36,1.57,1.57,0,0,0,1.6.38c3.51-1,7,.87,10.1,2.41l10.38,5.26,21,10.62,1.66-2L112.73,21.74l-1.66,2c16.76,6.72,33.47,13.86,49.59,22,3.36,1.7,7,3.92,8.09,7.76L171,52.11l-16.67-8.23c-1-.51-3.3,1.13-1.94,1.86l15.39,8.32,1.94-1.86-16.31-8.09c-1.23-.62-3.31,1.17-1.66,2l12,6,1.66-2-15.72-6.76-1.66,2,12.56,4.94c1.26.5,3.37-1.27,1.65-2l-15.38-6.59-1.66,2,16.52,5.66c1.25.43,3.4-1.27,1.66-2L143.31,38.8l-1.66,2,15.85,6.56c1.25.52,3.35-1.23,1.65-2L135,34.18l-1.66,2a68.33,68.33,0,0,1,17.57,9.68L152.8,44,126,30.16l-1.65,2L145.16,42.9c1,.52,3.28-1,1.94-1.85q-11.16-6.79-22.81-12.7c-1-.52-3.29,1.09-1.94,1.86a63,63,0,0,1,11.22,8.12l2.22-1.71a168.11,168.11,0,0,0-20.45-10.76l-1.66,2,13.87,6.08c1,.44,3.26-.9,1.94-1.86a66.29,66.29,0,0,0-16.7-8.77l-1.66,2a29.41,29.41,0,0,1,8.44,4.12l2.23-1.71a54.45,54.45,0,0,0-12.21-5,2,2,0,0,0-1.92.43c-.38.38-.6,1.08,0,1.43a94.74,94.74,0,0,0,10.14,5.29c1,.44,3.33-1.09,1.94-1.86a35.48,35.48,0,0,0-11-4c-.85-.16-2.94,1.18-1.61,1.94l5.64,3.22a1.88,1.88,0,0,0,2.08-.16c.45-.35.8-1.18.14-1.55Z"/><path class="cls-4" d="M171.87,59.25a25.3,25.3,0,0,1-2.18,13l2.88-.44,2.6-11.55c.2-.88-2.64-.38-2.87.44a89.37,89.37,0,0,0-3.29,19c-.06,1,2.76.37,2.87-.44l2.44-17.15-2.88.43a205.92,205.92,0,0,0-1.29,24.07c0,.71,2.8.14,2.89-.61l2-16-2.89.61,1.09,21.76c0,.72,2.94.19,2.9-.77l-.79-18.33c0-.72-2.93-.19-2.9.77a174.07,174.07,0,0,1-.54,20.43l2.89-.6L175.34,72c0-.68-2.82-.17-2.89.6a152.1,152.1,0,0,0,.35,30.84c.08.78,2.79.09,2.88-.61a78,78,0,0,0-.23-22c-.12-.8-2.79-.08-2.89.61a176.8,176.8,0,0,0-1.8,30.41c0,.72,2.87.17,2.9-.77l.55-19.45-2.9.78a132.87,132.87,0,0,1,2.17,28l2.9-.77.12-15.82c0-.69-2.83-.16-2.89.61a130,130,0,0,0,2.33,36.29l2-1.08a15.14,15.14,0,0,0-7.53,1.93c-.85.47-.62,1,.27,1l2.43.09-.27-1-2.56,1.24,2.3.09a30.69,30.69,0,0,0,1.18-20.84c-.25-.84-3-.09-2.9.78a49.46,49.46,0,0,0,3.33,15.32c.32.81,3,.09,2.9-.78a243,243,0,0,1-2.28-32.35l-2.89.78,1.31,23.6,2.9-.78q-2.05-14.42-2.92-29c0-.74-2.88-.15-2.9.78a261.79,261.79,0,0,0,1.23,29.63l2.9-.78q-3-15.1-4.79-30.44l-2.89.77a197.22,197.22,0,0,1,3.28,27l2.89-.78a149.55,149.55,0,0,1-1.4-30.27l-2.89.78,1,12.63c.06.74,3,.16,2.9-.78l-1-19.6-2.9.77a23.06,23.06,0,0,1-.5,6.37l2.88-.6L170.28,85c-.06-.74-2.92-.16-2.9.78l.34,15.09c0,.72,2.8.13,2.89-.61a74,74,0,0,0,.06-16.43c-.08-.79-2.87-.12-2.89.77a297.51,297.51,0,0,0,.74,30.16c0,.74,2.93.16,2.9-.78l-1-27.81c-.13-3.56-.41-7.17.24-10.69.54-2.93,1.74-6,4.61-7.29l-2.31-.09a217.89,217.89,0,0,0-3.78,50.14c.19,4.77.55,9.53,1.05,14.27.09.82,2.73,0,2.89-.6a45.32,45.32,0,0,0,1.16-15.08c-.07-.75-2.84-.12-2.89.61L170.12,136l2.89-.61a107.93,107.93,0,0,1-.35-14.16l-2.9.78,0,15.07,2.9-.78a71.27,71.27,0,0,1-1.57-21.4l-2.89.61,1.4,23.26,2.9-.77a72.18,72.18,0,0,1,.16-12.56l-2.89.61a47.83,47.83,0,0,1,1.19,13c0,.64,2.85.21,2.9-.78a47.83,47.83,0,0,0-1.19-13c-.19-.8-2.82-.1-2.89.61a74,74,0,0,0-.18,12.89c0,.74,2.95.17,2.9-.77l-1.4-23.27c-.05-.74-2.83-.13-2.89.61A72.55,72.55,0,0,0,169.74,137c.19.84,2.9.08,2.9-.78l0-15.07c0-.69-2.86-.18-2.9.78a109.74,109.74,0,0,0,.35,14.16c.07.75,2.84.12,2.89-.61L174.22,117l-2.89.61a44,44,0,0,1-1.14,14.73l2.89-.6a216.1,216.1,0,0,1,.45-49.94q.89-7.11,2.26-14.13c.18-1-2-.24-2.31-.09-6.54,3-6.31,11.29-6.08,17.39l1.12,29.79,2.9-.78a297.32,297.32,0,0,1-.75-30.15l-2.89.77a72.83,72.83,0,0,1-.05,16.1l2.89-.61L170.28,85l-2.9.78.76,10.18c.06.8,2.74.07,2.88-.61a23.94,23.94,0,0,0,.53-6.7c-.05-.73-3-.18-2.9.77l1,19.61,2.9-.78-1-12.63c-.06-.78-2.84-.11-2.89.78a148.11,148.11,0,0,0,1.4,30.27c.11.79,2.94.12,2.89-.78a195.53,195.53,0,0,0-3.28-27c-.15-.8-3-.12-2.89.77q1.72,15.33,4.78,30.45c.17.8,3,.11,2.9-.78a261.6,261.6,0,0,1-1.23-29.63l-2.9.78q.85,14.53,2.92,29c.11.78,2.95.13,2.9-.78l-1.32-23.6c0-.73-2.9-.16-2.89.78a241.46,241.46,0,0,0,2.27,32.35l2.9-.78a49.39,49.39,0,0,1-3.33-15.32l-2.9.78a30.1,30.1,0,0,1-1.15,20.49c-.38.89,2.09.2,2.3.09l2.56-1.23c.9-.43.58-1-.27-1l-2.43-.09.27,1a8.94,8.94,0,0,1,4.61-1.14c.45,0,2.2-.35,2-1.09a129.21,129.21,0,0,1-2.34-36l-2.89.61-.12,15.81c0,.68,2.87.2,2.9-.77a133,133,0,0,0-2.17-28c-.15-.84-2.87-.08-2.9.78l-.55,19.44,2.9-.77A175,175,0,0,1,175.44,81l-2.89.61a77,77,0,0,1,.26,21.66l2.88-.61a151.56,151.56,0,0,1-.37-30.49l-2.88.6-.58,21.91c0,.68,2.82.17,2.89-.6a177.76,177.76,0,0,0,.56-20.77l-2.9.77.79,18.33,2.9-.77L175,69.82c0-.75-2.8-.12-2.89.61l-2,16,2.89-.61a202,202,0,0,1,1.27-23.72c.11-1-2.76-.39-2.88.43L169,79.7l2.87-.44a90.65,90.65,0,0,1,3.29-19l-2.87.44-2.61,11.55c-.21.94,2.57.24,2.88-.44a26.13,26.13,0,0,0,2.2-13.34c-.07-.75-3-.16-2.9.78Z"/><path class="cls-4" d="M71.57,149.37a100.16,100.16,0,0,1,21.48-17,20.14,20.14,0,0,1,6.54-2.88,11.33,11.33,0,0,1,7,1.25c4.22,2.06,8,5.13,11.93,7.76l14.43,9.79.24-.58c-11,8.6-22,17.38-30,29l2.62-.83a70.08,70.08,0,0,1-19.82-11,69.3,69.3,0,0,1-8.18-7.61c-1.67-1.83-6.25-6.32-3.51-8.93.49-.46-.42-.54-.7-.53a3.13,3.13,0,0,0-1.93.7c-2.77,2.64.5,6.46,2.33,8.56a69.88,69.88,0,0,0,8.63,8.31,71.09,71.09,0,0,0,20.81,11.69,2.78,2.78,0,0,0,2.62-.83c7.77-11.32,18.67-19.93,29.37-28.33.13-.1.52-.39.24-.58l-14.22-9.65-7-4.75a35.91,35.91,0,0,0-6.28-3.67c-4.56-1.92-9.35-1-13.7,1a81.23,81.23,0,0,0-12.66,8,90.25,90.25,0,0,0-12.84,11.23c-.45.48.39.55.7.54a3.1,3.1,0,0,0,1.94-.71Z"/><path class="cls-4" d="M107,142.8a15.84,15.84,0,0,0,9,8.64,2.52,2.52,0,0,0,2-.29c.33-.2.93-.83.27-1.07a14.79,14.79,0,0,1-8.47-8.06c-.23-.55-1.17-.42-1.63-.29s-1.49.52-1.26,1.07Z"/><path class="cls-4" d="M70.56,155.43a148.8,148.8,0,0,1,18.77-17.24c.48-.37.31-.76-.23-.87a2.8,2.8,0,0,0-2,.55,151.44,151.44,0,0,0-19.16,17.61c-.46.51.4.7.75.7a2.67,2.67,0,0,0,1.92-.75Z"/><path class="cls-5" d="M96.56,134.11a63.44,63.44,0,0,1,24.76,16.81c.48.53,3.17-.5,2.73-1A64.48,64.48,0,0,0,96,131.83L93.61,133c12.56,1.68,22.85,9.77,32.45,17.45.55.44,3.19-.54,2.73-1a81.55,81.55,0,0,0-23-15.83c-2-.92-4.07-1.94-6.33-1.76A10.3,10.3,0,0,0,94,134.05a57.29,57.29,0,0,0-5.34,5.23L83.13,145,70.32,158c-.64.66,1.23.38,1.43.32,1.12-.31,2.47.58,3.34,1.2a23.57,23.57,0,0,1,3,2.69,53.62,53.62,0,0,0,6.09,5.38,110.8,110.8,0,0,0,14,8.66c2,1.07,4.63,1.18,6.26-.64a15.91,15.91,0,0,0,1.73-2.82c.68-1.2,1.35-2.41,2-3.6,2.69-4.56,5.81-8.42,10.35-11.24,3.9-2.42,8.26-4.36,11.51-7.7,1.38-1.41,3.56-3.68,1.64-5.49a20.93,20.93,0,0,0-3.26-2.16c-1.33-.84-2.66-1.67-4-2.49q-7.66-4.65-15.64-8.75-3.89-2-7.83-3.85a11.19,11.19,0,0,0-3.37-1.31,6.38,6.38,0,0,0-3.35.71,12.37,12.37,0,0,0-3.07,2.52q-1.8,1.78-3.56,3.6-3.36,3.48-6.57,7.1-6.47,7.32-12.28,15.18l2.8-.75-4.88-4.75c-.54-.52-3.17.56-2.73,1l4.87,4.75c.55.54,2.43-.25,2.8-.74a218.14,218.14,0,0,1,21.36-24.78l1.31-1.3c.33-.32.87-1.06,1.32-1.23s1.14.31,1.55.5l2.13,1c2.49,1.18,5,2.41,7.39,3.67q7.34,3.79,14.42,8.06c2.35,1.42,4.71,2.85,7,4.38,1.11.74,1.92,1.61,1.2,3A11.6,11.6,0,0,1,127,150.9c-3.19,3.08-7.34,4.87-11,7.22a30.17,30.17,0,0,0-9.37,9.51c-1.3,2-2.46,4.15-3.65,6.25-.27.47-.53,1-.81,1.41-.07.12-.62.83-.62.84l.36-.11c.58-.1.49-.2-.26-.32a32.26,32.26,0,0,1-3.41-1.87,87.65,87.65,0,0,1-14-9.33c-2.1-1.8-3.86-4-6.06-5.69a7.07,7.07,0,0,0-6.61-1.33l1.43.33L93,137.29c1.34-1.36,3-3.57,4.82-4.21,1.08-.37,2.47.27,3.46.69s2,.87,3,1.34a80.89,80.89,0,0,1,21.81,15.29l2.73-1c-9.69-7.75-20.11-15.88-32.8-17.58a3.62,3.62,0,0,0-2,.37c-.29.14-1,.55-.36.75a63.92,63.92,0,0,1,27.71,18l2.73-1A64.24,64.24,0,0,0,99,133a3.09,3.09,0,0,0-2,.37c-.3.15-.94.53-.36.75Z"/><path class="cls-5" d="M65.7,144.69a9.11,9.11,0,0,1,2,1.22l-.21-.17a8.78,8.78,0,0,1,2.15,2.62l-.11-.22a7.78,7.78,0,0,1,.42.93c.24.62,1.13.62,1.68.46a2,2,0,0,0,1-.52c.16-.18.37-.46.27-.72A9.31,9.31,0,0,0,68,143.16a2.13,2.13,0,0,0-2.07.23,1.12,1.12,0,0,0-.53.68.59.59,0,0,0,.33.62Z"/><path class="cls-5" d="M71.35,140.21l2.14,1.61a1.19,1.19,0,0,0,.76.17,3.36,3.36,0,0,0,1.13-.24l.33-.15a1.8,1.8,0,0,0,.47-.35c.1-.14.2-.35,0-.49l-2.14-1.61a1.19,1.19,0,0,0-.76-.17,3.36,3.36,0,0,0-1.13.24l-.33.15a1.8,1.8,0,0,0-.47.35c-.1.14-.21.35,0,.49Z"/><path class="cls-5" d="M75.65,134.14a4.78,4.78,0,0,0,3.61,2.77,2.58,2.58,0,0,0,1.07-.08,2.55,2.55,0,0,0,1-.47c.14-.13.38-.35.3-.58a.66.66,0,0,0-.55-.35l-.4-.09.26.07a4.28,4.28,0,0,1-1.07-.48l.19.12a4.19,4.19,0,0,1-1.32-1.33l.09.16a5.12,5.12,0,0,1-.27-.52A.66.66,0,0,0,78,133a2.42,2.42,0,0,0-1.07.08,2.55,2.55,0,0,0-1,.47c-.13.12-.39.36-.29.58Z"/><path class="cls-5" d="M81,131.08l2.14,1.08a1.5,1.5,0,0,0,.73.06A4.8,4.8,0,0,0,85,132l.34-.14a1.94,1.94,0,0,0,.48-.28c.09-.08.25-.25.07-.34l-2.14-1.07a1.4,1.4,0,0,0-.73-.06,4.32,4.32,0,0,0-1.13.26l-.34.13a2.31,2.31,0,0,0-.48.28c-.08.08-.24.25-.06.34Z"/><path class="cls-5" d="M87,127.43a6.34,6.34,0,0,0,1.64,1.37,7.49,7.49,0,0,0,2.31.85,2,2,0,0,0,1.15-.2,1.55,1.55,0,0,0,.74-.69.83.83,0,0,0-.06-.82,1.33,1.33,0,0,0-.83-.42l-.25-.06.34.08a5.33,5.33,0,0,1-1.23-.45l.28.14a5.85,5.85,0,0,1-1.31-.92l.21.2c-.12-.12-.23-.24-.34-.37a1.31,1.31,0,0,0-.83-.42,2,2,0,0,0-1.14.2,1.49,1.49,0,0,0-.75.69.78.78,0,0,0,.07.82Z"/><path class="cls-5" d="M94.64,125l2.13,1.62a1.58,1.58,0,0,0,1,.23,1.5,1.5,0,0,0,.59-.14,1.41,1.41,0,0,0,.5-.26,1.18,1.18,0,0,0,.51-.79.85.85,0,0,0-.36-.74l-2.13-1.62a1.62,1.62,0,0,0-1-.23,1.65,1.65,0,0,0-.58.14,1.37,1.37,0,0,0-.51.26,1.19,1.19,0,0,0-.5.79.82.82,0,0,0,.35.74Z"/><path class="cls-5" d="M101.92,128.62a11.4,11.4,0,0,0,6.2-2.66c.14-.13.36-.35.3-.57s-.36-.32-.55-.35a2.74,2.74,0,0,0-2.05.55l-.49.4-.26.19c-.11.08-.09.06.06-.05l-.13.09c-.18.11-.36.22-.55.32l-.29.15c.38-.21.1,0,0,0l-.56.22-.15.06.15-.06-.31.09-.31.08-.15,0,.15,0c-.21,0-.42.07-.63.09a3.1,3.1,0,0,0-1.1.36c-.19.12-.5.33-.56.57-.16.62.91.57,1.22.53Z"/><path class="cls-5" d="M110.75,133.85l4.8-2.71c.1-.06.38-.27.34-.44s-.39-.21-.51-.21a4,4,0,0,0-2,.55l-4.8,2.71c-.1.06-.38.27-.34.44s.39.21.51.21a3.9,3.9,0,0,0,2-.55Z"/><path class="cls-5" d="M117,138l3.74-2.68c.21-.15.5-.33.56-.6a.45.45,0,0,0-.3-.51,1.81,1.81,0,0,0-1-.1,2.66,2.66,0,0,0-1.1.37l-3.74,2.69c-.2.14-.49.33-.55.6a.45.45,0,0,0,.29.51,1.75,1.75,0,0,0,1,.09A2.48,2.48,0,0,0,117,138Z"/><path class="cls-5" d="M121.31,142c.34-.3.69-.58,1-.85.18-.12.36-.25.54-.36s.22-.14,0,0,0,0,0,0l.32-.19a12.81,12.81,0,0,1,1.18-.57l.3-.12c.24-.1-.29.1-.11,0l.16-.06c.22-.08.44-.14.66-.21a1.85,1.85,0,0,0,.94-.58,1,1,0,0,0,.23-.85,1.37,1.37,0,0,0-1.73-.65,14.24,14.24,0,0,0-5.51,3,1.29,1.29,0,0,0-.5.8.85.85,0,0,0,.36.76,1.84,1.84,0,0,0,2.08-.16Z"/><path class="cls-5" d="M128.42,153.14l.66.12a1.14,1.14,0,0,0,.32.07c-.2-.05-.24-.06-.1,0l.16,0a9.78,9.78,0,0,1,1.18.43c.2.08.41.18.61.28l.22.11c-.33-.14,0,0,.08.05a11.84,11.84,0,0,1,1.1.75,1.79,1.79,0,0,0,2.09-.15c.49-.43.72-1.14.12-1.6a12,12,0,0,0-5.47-2.32,2,2,0,0,0-1.15.19,1.5,1.5,0,0,0-.73.72,1,1,0,0,0,.91,1.33Z"/><path class="cls-5" d="M123.28,156.22l4.26,2.18a1.75,1.75,0,0,0,1.11,0,1.8,1.8,0,0,0,.94-.59,1,1,0,0,0,.22-.87,1.1,1.1,0,0,0-.63-.64l-4.26-2.18a1.76,1.76,0,0,0-1.11,0,1.8,1.8,0,0,0-.94.59,1,1,0,0,0-.22.87,1.1,1.1,0,0,0,.63.64Z"/><path class="cls-5" d="M116.51,161.7l5.32,2.22a2,2,0,0,0,.94.05,3.17,3.17,0,0,0,1.1-.36c.35-.21.93-.72.3-1l-5.32-2.22a2,2,0,0,0-.94,0,3.1,3.1,0,0,0-1.1.36c-.34.2-.92.72-.3,1Z"/><path class="cls-5" d="M112.54,166.74l.17-.05c.2-.05-.06,0-.12,0l.36-.05c.11,0,.25,0,.36,0-.07,0-.29,0-.1,0h.55l.18,0c.17,0,0,0-.06,0a1.43,1.43,0,0,0,.36.06,2.59,2.59,0,0,1,.4.09l.35.1c.16,0-.16-.06,0,0l.17.07a5,5,0,0,1,.66.31,5.73,5.73,0,0,1,.62.38c.12.09-.1-.08,0,0l.14.11.31.27a1.9,1.9,0,0,0,1.93.06c.32-.16,1.26-.75.76-1.21a8,8,0,0,0-7.46-1.69c-.45.12-1.41.54-1.25,1.15s1.23.49,1.66.38Z"/><path class="cls-5" d="M105,173.63a26.45,26.45,0,0,1,6.79,2.41,1.87,1.87,0,0,0,.94.05,3,3,0,0,0,1.1-.36c.39-.23.88-.7.29-1a27.94,27.94,0,0,0-7.31-2.54,2.74,2.74,0,0,0-2.05.55c-.47.38-.34.78.24.89Z"/><path class="cls-5" d="M102.65,178.88l6.94,3.25a2.19,2.19,0,0,0,2.07-.23c.38-.28.87-1,.21-1.27l-6.94-3.25a2.17,2.17,0,0,0-2.06.23c-.38.28-.88,1-.22,1.27Z"/><path class="cls-5" d="M94.36,181.32l5.2-5.49c.43-.46-.39-.48-.68-.45a4.32,4.32,0,0,0-1.12.25,2.22,2.22,0,0,0-.82.43l-5.2,5.5c-.43.45.39.48.68.45a4.42,4.42,0,0,0,1.13-.26,2.12,2.12,0,0,0,.81-.43Z"/><path class="cls-5" d="M89.48,179.77l4.89-5.28a.87.87,0,0,0-.38-1.44,2,2,0,0,0-2,.55L87,178.88a.88.88,0,0,0,.39,1.44,2,2,0,0,0,2-.55Z"/><path class="cls-5" d="M84.61,175.47l3.48-5.72c.34-.56-.29-.81-.77-.8a2.75,2.75,0,0,0-1.13.23,1.67,1.67,0,0,0-.78.54l-3.49,5.73c-.34.55.3.8.77.8a2.77,2.77,0,0,0,1.14-.23,1.62,1.62,0,0,0,.78-.55Z"/><path class="cls-5" d="M80.65,171.05l3-4.91c.26-.42-1-.25-1.14-.23a5.28,5.28,0,0,0-1.11.34,1.52,1.52,0,0,0-.6.42l-3.06,4.92c-.26.42,1,.24,1.15.22a4.25,4.25,0,0,0,1.1-.34,1.32,1.32,0,0,0,.61-.42Z"/><path class="cls-5" d="M76.55,167.78l3.75-4.28c.15-.18.35-.39.28-.65a.73.73,0,0,0-.57-.43,2.36,2.36,0,0,0-1.09.05,2,2,0,0,0-1,.5l-3.75,4.28c-.15.18-.35.39-.28.65a.73.73,0,0,0,.57.43,2.32,2.32,0,0,0,1.08-.05,2.05,2.05,0,0,0,1-.5Z"/><path class="cls-5" d="M71.21,164.61a12.7,12.7,0,0,0,3-5.26.57.57,0,0,0-.32-.59,1.67,1.67,0,0,0-1-.15c-.63.09-1.44.38-1.63,1.06-.06.22-.13.44-.21.65a2.83,2.83,0,0,0-.11.31c-.05.13.06-.15,0,0l-.06.14a13,13,0,0,1-.61,1.24c-.23.38-.47.75-.74,1.11,0,.06-.18.19-.19.26s.13-.16,0,0l-.11.13q-.22.27-.48.54a.63.63,0,0,0,.31,1.16,2.3,2.3,0,0,0,2-.55Z"/><path class="cls-6" d="M92.12,131.63a186.12,186.12,0,0,0-12.77,15.92q-3,4.14-5.71,8.46c-.64,1-1.26,2-.62,3.16.71,1.33,2.25,2.31,3.36,3.29l8.12,7.23c2.33,2.07,4.61,4.49,7.4,6a9.32,9.32,0,0,0,7.67.57c2.69-1,3.79-3.25,4.85-5.75,2.17-5.1,6.33-8.68,10.63-12,2.11-1.63,4.26-3.21,6.3-4.92,1.2-1,5.19-3.8,2.8-5.43A33.75,33.75,0,0,0,119.8,146q-2.37-1.14-4.75-2.24c-3.17-1.46-6.38-2.86-9.64-4.12-2.6-1-5.34-1.76-7.84-3a10.87,10.87,0,0,1-3.07-2.12c-.61-.64-1.73-2-1.41-3,.39-1.15,2.5-1.49,3.48-1.5a9.48,9.48,0,0,1,4.49,1.28c3.09,1.66,5.59,4.26,8.44,6.28a56.81,56.81,0,0,0,9,5.23,9.3,9.3,0,0,1,3.57,2.36,2.82,2.82,0,0,1,.67,2,2.9,2.9,0,0,1-.21.88,1.94,1.94,0,0,1-.32.58c-.28.27-.24.3.11.08-.85-.21-3.39,1.1-1.79,1.48a4.2,4.2,0,0,0,5.1-3.41c.29-2.53-2.2-4-4.17-5a62.52,62.52,0,0,1-8.75-4.9c-2.63-1.82-5-4-7.6-5.83-4.19-2.81-10.72-4-14.52.23-1.55,1.72,1,4.39,2.39,5.4a27,27,0,0,0,6.94,3.15,190.18,190.18,0,0,1,19.66,8.55c.62.3,1.89.64,2.24,1.25.43.77-.5,1.51-1,2-1,1-2.13,1.87-3.23,2.76-2.18,1.73-4.44,3.37-6.62,5.11a43.21,43.21,0,0,0-5.75,5.4,27.36,27.36,0,0,0-4.18,7.09c-.51,1.16-1.17,2.62-2.44,3.14s-3.17-.12-4.41-.78c-2.9-1.56-5.32-4.23-7.76-6.4l-9.23-8.21c-.72-.65-1.81-1.44-1.55-2.55a8.83,8.83,0,0,1,1.39-2.34q1.52-2.34,3.09-4.63A188.42,188.42,0,0,1,94.8,131.63c.47-.53-.4-.76-.76-.77a2.61,2.61,0,0,0-1.92.77Z"/><path class="cls-7" d="M95,137.68,80.73,154c-.79.91-2.29,2.09-2.42,3.4s1.67,2.43,2.53,3.23l7.92,7.31,3.6,3.33c.94.87,1.84,1.84,3.21,1.92,2.82.16,4-2.38,5.25-4.4,2.44-3.89,6.55-6.37,10.29-8.87,4.21-2.81,8.6-5.92,10.66-10.73.45-1-.94-1.07-1.59-.95a12.15,12.15,0,0,1-7.57-1.08c-2.17-1.06-4.17-2.37-6.42-3.28-4.77-1.95-9.84-3.27-14.75-4.81a2.15,2.15,0,0,0-1.92.44c-.35.3-.66.91-.08,1.2l.81.41a2.14,2.14,0,0,0,2.06-.23c.41-.28.86-1,.21-1.31l-.81-.4-2,1.64L98,143.4a55.34,55.34,0,0,1,7.89,2.83c2.29,1.12,4.38,2.61,6.83,3.38a16.26,16.26,0,0,0,8,.31L119,149c-3.29,7.65-12.22,10.43-17.9,15.89a20.48,20.48,0,0,0-3.61,4.67,8.8,8.8,0,0,1-.83,1.34c-.5.62-.36.34-1-.17-1.24-1.06-2.4-2.22-3.6-3.32l-6.84-6.32-3.23-3c-.56-.52-1-.8-.58-1.58a15.58,15.58,0,0,1,1.77-2.05l14.07-16.1c1.16-1.33-1.63-1.52-2.37-.66Z"/><path class="cls-8" d="M93.08,143.9a75.65,75.65,0,0,0-6.57,6.34q-1.5,1.63-2.9,3.36c-.68.84-2.17,2.16-2,3.37s2,2,2.76,2.54l4.17,3c2.2,1.57,4.59,4.12,7.53,3.51a15.75,15.75,0,0,0,3.74-1.64c1.4-.71,2.79-1.43,4.18-2.18a73.88,73.88,0,0,0,7.55-4.65,42.46,42.46,0,0,0,3.35-2.62,11.67,11.67,0,0,0,2.6-2.65c.39-.66.73-1.65.08-2.28-.92-.89-2.63-.28-3.71-.11a31.06,31.06,0,0,1-10.49-.24c-1.95-.38-8.66-1.48-7.88-4.6.25-1-2.6-.47-2.89.39-1.3,3.76,5,3.95,7.17,4.26L112,151.46a2.66,2.66,0,0,0,2.05-.55c.4-.39.38-.86-.26-.95l-10.32-1.49-5-.72c-1.39-.21-3.61-.79-3-2.7l-2.89.39c-.5,2,1.48,3.34,3.11,4a31,31,0,0,0,7.87,2,35.52,35.52,0,0,0,7.85.16c.52,0,3.33-.7,3.57-.29.52.87-1.46,2.34-1.94,2.77a62.43,62.43,0,0,1-13.12,8.52c-1.08.56-2.15,1.13-3.24,1.66-.76.37-1,.23-1.74-.23s-1.29-.92-1.93-1.38l-7.15-5.13c-.48-.34-1.44-.76-1.34-1.49s.86-1.3,1.22-1.76q1.38-1.74,2.85-3.39a71.81,71.81,0,0,1,6.79-6.61c.49-.41.29-.79-.25-1a2.58,2.58,0,0,0-2,.55Z"/><path class="cls-9" d="M91.85,148.38l-3.52,4.5c-.57.71-1.14,1.42-1.69,2.15-.38.49-1,1.09-.64,1.76a2.23,2.23,0,0,0,1.19.89l2.51,1.12c1.73.77,3.44,1.58,5.18,2.31,3.32,1.38,6.11.15,9.18-1.25s6.33-3.09,9.37-4.85c.42-.24.85-.76.27-1.09-7-4-15.22-1.35-22.78-2.17v1.17l.84-.57c1.62-1.09-.89-1.41-1.78-.8l-.85.57c-.46.31-.93,1.06,0,1.16,7.29.78,15.56-1.81,22.25,2l.27-1.08c-2.37,1.37-4.78,2.66-7.25,3.84-1.25.59-2.51,1.17-3.79,1.71a3.57,3.57,0,0,1-2.19.4,10.39,10.39,0,0,1-2.07-.79l-3.88-1.74-2-.91c-.58-.27-1.7-.46-1.4-1.27a8.64,8.64,0,0,1,1.38-1.76l1.23-1.57,2.91-3.71c.43-.54-.36-.79-.77-.81a2.51,2.51,0,0,0-1.92.78Z"/><path class="cls-10" d="M97,153.28a6,6,0,0,0-4.21,2.46c-.23.33,0,.64.23.85a8.34,8.34,0,0,0,6.25,1.62c1.25-.21,2.85-.92,2.73-2.43a2.35,2.35,0,0,0-1.78-1.9c-1.62-.44-3.27.36-4.6,1.22-.32.21-.68.63-.46,1a1.22,1.22,0,0,0,1.23.43l2.42-.43c.58-.11,1.51-.37,1.62-1.07s-.82-.86-1.29-.78l-2.42.43.76,1.46c.12-.08.24-.16.37-.23a1.18,1.18,0,0,1,.19-.11l-.08,0,.34-.17.2-.08c-.21.07-.23.08-.07,0s-.31,0,0,0c.16,0,.14,0,0,0l.21,0c-.17,0-.2,0-.08,0l.07,0c-.15-.06-.17-.07-.06,0l.13.08c.09.07.08.06,0,0l.08.07.18.2c0,.06.15.31.07.11a1.8,1.8,0,0,1,.08.21c0,.07,0,.33,0,.1a1.36,1.36,0,0,1,0,.2c0,.11,0,.09,0-.05a.63.63,0,0,1-.07.12c.11-.13.12-.15,0,0a.5.5,0,0,1,.2-.15c.11-.06.12-.06,0,0,.23-.08.27-.09.12,0s-.12,0,.12,0l-.18,0-.29,0c-.16,0-.13,0,.07,0h-.21c-.23,0-.47,0-.7,0s-.29,0-.07,0a1.79,1.79,0,0,1-.4-.09,5.82,5.82,0,0,1-.68-.2l-.19-.07h0l-.28-.13a7,7,0,0,1-1.28-.8l.23.85c.07-.1.07-.1,0,0l.13-.15.19-.2.14-.13c-.13.11-.15.12,0,0l.27-.19c.31-.19-.21.08,0,0l.17-.08c.13,0,.12,0,0,0s.12,0,.18,0l.18,0c-.24,0-.27.06-.11,0,.58-.08,1.51-.38,1.62-1.07s-.82-.84-1.29-.77Z"/><path class="cls-11" d="M91.74,133.5c2.29,5-1.86,10.53.19,15.66.46,1.15,3.33.3,2.9-.77-2-5.1,2.12-10.58-.19-15.67-.52-1.13-3.37-.26-2.9.78Z"/><path class="cls-11" d="M97.94,146.94a24.56,24.56,0,0,0,7.08-11.2c.21-.68-.87-.86-1.31-.83A1.8,1.8,0,0,0,102.1,136a22.54,22.54,0,0,1-6.55,10.21.72.72,0,0,0,.34,1.26,2.19,2.19,0,0,0,2-.55Z"/><path class="cls-11" d="M95.26,149.58a14.82,14.82,0,0,0,6.17-5,1,1,0,0,0,.23-.84,1,1,0,0,0-.62-.6,1.92,1.92,0,0,0-2,.54,14.17,14.17,0,0,1-1.14,1.42l-.28.29-.16.16s-.23.21-.07.07,0,0-.07.07l-.17.15-.35.29c-.22.18-.44.35-.68.52s-.24.18-.37.26l-.19.12c-.1.07-.26.1,0,0a6.85,6.85,0,0,0-.79.44c-.27.14-.54.27-.82.39-.51.22-1.12,1-.67,1.52a1.67,1.67,0,0,0,2,.24Z"/><path class="cls-11" d="M104.48,137.68c2,1.92-1.51,4.73-1.51,6.83,0,2.41,2.63,3.49,4.7,3.27,2.7-.29,4.56-2,6.14-4.06.53-.71,1.34-2.17,2.39-1.91a1.53,1.53,0,0,1,.87,2.23c-.67,1.51-2.31,2.4-2.87,4-.68,1.88,1.09,2.76,2.57,3.25.85.29,2,.69,1.82,1.84-.33,1.71-2.37,1-3.5.82-2.23-.35-4.7-.09-6.3,1.69a5,5,0,0,0-1,4.9c.2.54,1.22,1.42.57,1.81s-2.28-.06-3.07-.1c-2-.09-4.89.4-5.59,2.59s1.79,4.07,1.3,6.28c-.55,2.43-3.18,2.1-4.71.91a9.23,9.23,0,0,1-2.11-2.42c-.59-1-1.75-2.67-1.71-3.84,0-.94,1.42-1.28,1.79-2.13a1.93,1.93,0,0,0-1.12-2.42,4.53,4.53,0,0,0-2.92-.4c-1.28.2-2.82,1.2-3.86,0a2.59,2.59,0,0,1-.37-3c.63-1,1.86-1.42,2.38-2.5a1.6,1.6,0,0,0-1.08-2.26c-1.13-.46-2.07-.52-2.72-1.71a3.89,3.89,0,0,1-.31-3c.45-1.38,1.78-1.6,3-2.09a5.35,5.35,0,0,0,2.89-2.22,2.24,2.24,0,0,0-.28-2.94c-.74-.63-3.43.49-2.7,1.11a1.39,1.39,0,0,1,.33,1.73,2.59,2.59,0,0,1-1.73,1.37,8.16,8.16,0,0,0-3.64,2.08,4.47,4.47,0,0,0,.28,5.75c.83.86,1.78.76,2.73,1.29,1.59.89-1.06,2.42-1.65,3.13a3.37,3.37,0,0,0,1.24,5.08c1.36.6,2.91.21,4.27-.15.77-.21,1.37-.42,2,.17s.46,1.2-.22,1.71a2.29,2.29,0,0,0-1,3,17.22,17.22,0,0,0,2.07,3.88,7,7,0,0,0,6.71,3.19c2.1-.29,4.76-1.5,5.29-3.78.36-1.55-.56-2.91-1.08-4.31a2.82,2.82,0,0,1-.22-2c.31-.81,1-.68,1.72-.63,2.5.18,6.28.46,7.36-2.47a.34.34,0,0,0-.09-.36,3.74,3.74,0,0,1-.56-4.71c.55-.91,1.07-1,2.1-.86a15.32,15.32,0,0,0,4,.36c1.68-.22,4.21-1.37,4.38-3.32s-2.16-2.26-3.51-2.89c-1.91-.9-.67-2.48.28-3.57s2.09-2.25,1.87-3.72c-.29-1.84-2.51-2.2-4-2-2.31.31-3.78,1.82-5.12,3.6-.74,1-1.86,2.65-3.29,2.34a2.4,2.4,0,0,1-1.72-3c.57-2.07,3.32-4.48,1.18-6.59-.68-.67-3.42.4-2.7,1.11Z"/><path class="cls-12" d="M93,151.8a75.06,75.06,0,0,1,11.55-3.52l-1.18-.34a17.85,17.85,0,0,1-9,7.47l1.36.61a23.32,23.32,0,0,1,7.15-1.83l-.82-.39q-2.28,3.62-4.9,7c-.39.5.35.55.7.54a19.91,19.91,0,0,0,5.82-1.09c.28-.09,1.2-.47.85-.88s-1.53,0-1.87.13a12,12,0,0,1-3.56.59l.7.54c1.82-2.35,3.54-4.78,5.13-7.3.24-.38-.71-.39-.82-.38A32.54,32.54,0,0,0,94,155.55c-.3.13-.85.5-.42.78s1.37,0,1.78-.17a21.14,21.14,0,0,0,10.86-8.71c.29-.48-1.11-.35-1.18-.34A85.37,85.37,0,0,0,92,151.05c-.27.11-1.2.47-.84.88s1.54,0,1.87-.13Z"/><path class="cls-12" d="M101.56,137l3.59,1.55a2.6,2.6,0,0,0,1.87-.24c.2-.1,1.11-.62.65-.92a18.87,18.87,0,0,0-6.2-2.71,2.9,2.9,0,0,0-2,.32c-.3.17-1,.73-.31,1,2.59.84,6.09-.34,7.23-2.92.2-.43-.64-.49-.84-.48a3,3,0,0,0-1.73.56,5.94,5.94,0,0,0-2.4,5c0,.41,1,.32,1.22.29l5.78-1.11-1.21-.45c-.23,1.23-.4,2.78.93,3.43a3.66,3.66,0,0,0,4-.83l-2.78.42a15.87,15.87,0,0,0,7.74,8c.72.35,3.39-.76,2.34-1.26a15,15,0,0,1-7.19-7.52c-.38-.87-2.36,0-2.77.43,1.24-.08,1.62-.24,1.14-.47a.76.76,0,0,1-.25-.19,1.36,1.36,0,0,1-.34-.69,4.35,4.35,0,0,1,.1-1.76c.11-.58-.9-.51-1.21-.45l-5.78,1.1,1.22.29a4.78,4.78,0,0,1,1.77-3.94l-2.58.08c-.45,1-1.07,1.51-2,1.21l-2.35,1.27a17.51,17.51,0,0,1,5.84,2.5l2.53-1.16-3.59-1.56a2.68,2.68,0,0,0-2,.32c-.35.2-.91.69-.3.95Z"/><path class="cls-12" d="M87.44,141.44c.7,1,2.14.83,3.13.48A5.9,5.9,0,0,0,93.24,140l-2.81.11a4.45,4.45,0,0,0,.3,2.34,2.24,2.24,0,0,0,2.46,1.19,4.92,4.92,0,0,0,2-.78l.27-.16c-.25.13.19,0,0,0l.21-.05c-.26.05.09,0,0,0s.45,0,.32,0a2.94,2.94,0,0,1,.53.14,2.68,2.68,0,0,1,1,.74c.7.79,3.48-.27,2.68-1.16a5.22,5.22,0,0,0-5.78-1,8.94,8.94,0,0,0-1.27.68s.63-.11.66-.12.11.12.06,0c0,.07,0,0,0,0a1.56,1.56,0,0,1-.16-.2,3.19,3.19,0,0,1-.31-1.93c0-.59-.63-.71-1.09-.7a2.31,2.31,0,0,0-1.72.81l-.38.37c-.29.25.14-.08-.18.14,0,0-.31.22-.19.12s-.25,0,.07,0c.13,0,.24,0,.36,0s.08.1,0,0c0,.08-.14-.18-.13-.17-.61-.85-3.41.15-2.68,1.16Z"/><path class="cls-12" d="M82.57,148.24a2.89,2.89,0,0,0-.86,1.21,3,3,0,0,0-.17.7,3.47,3.47,0,0,0,0,.72,2.58,2.58,0,0,0,1.25,1.9,1.74,1.74,0,0,0,1,.25,2,2,0,0,0,1.09-.41l1.11-1a1.25,1.25,0,0,0,.5-.79.84.84,0,0,0-.35-.76,1.59,1.59,0,0,0-1-.24,2,2,0,0,0-1.09.4l-1.11.95,2.08-.16a1.84,1.84,0,0,1-.37-.27l.22.21a2.14,2.14,0,0,1-.37-.52l.13.26a2,2,0,0,1-.19-.72l0,.29a2.06,2.06,0,0,1,.07-.7l-.08.28a1.79,1.79,0,0,1,.19-.45l-.17.27a1.42,1.42,0,0,1,.25-.3l-.25.24,0,0a1.25,1.25,0,0,0,.5-.79.82.82,0,0,0-.36-.76,1.54,1.54,0,0,0-1-.24,1.88,1.88,0,0,0-1.09.41Z"/><path class="cls-12" d="M81.83,164.06c1.35-1,3.59,1.81,4.41,2.58a10.48,10.48,0,0,0,4.68,2.49c3.2.82,7,.6,9.58,3,1,.91,3.47-.54,2.23-1.71-3.08-2.88-7.51-2.33-11.24-3.6-2.21-.76-3.39-2.55-5.2-3.89a5.38,5.38,0,0,0-6.4-.24,1,1,0,0,0-.14,1.55,1.87,1.87,0,0,0,2.08-.17Z"/><path class="cls-12" d="M109.87,168c3-3.83,6-7.74,9.16-11.51a10.3,10.3,0,0,1,2.12-2,10.38,10.38,0,0,0,2.47-1.55,2.53,2.53,0,0,0-1.13-4,2,2,0,0,0-2,.55.86.86,0,0,0,.38,1.42.88.88,0,0,1,.43,1.13c-.13.21-.64.34-.85.45a8.73,8.73,0,0,0-1.18.7,18.27,18.27,0,0,0-3.78,4l-8,10.07a.85.85,0,0,0,.38,1.41,2,2,0,0,0,2.05-.55Z"/><path class="cls-13" d="M109.86,34.88l-.48,13,2.92-.5a56.67,56.67,0,0,1,.49-14.31l-2.94.21a49.85,49.85,0,0,0,.89,15.07c.27,1.26,2.94.69,2.92-.5l-.23-14.26c0-1.61-2.64-1-2.94.21A49.89,49.89,0,0,0,109.29,50c.1,1.27,2.91.69,2.91-.49l0-11.5c0-1.58-2.33-1-2.86-.07A12.49,12.49,0,0,0,108.16,48c.43,1.36,3.32.57,2.9-.78a10.91,10.91,0,0,1,1.09-9l-2.86-.07,0,11.5,2.92-.49a48.71,48.71,0,0,1,1.25-15.59l-2.94.21.23,14.26,2.92-.49a48,48,0,0,1-.85-14.5c.14-1.53-2.73-1.09-2.94.21a58.84,58.84,0,0,0-.45,14.88c.13,1.29,2.88.68,2.92-.49l.48-13c.06-1.54-2.89-1.14-2.94.21Z"/><path class="cls-13" d="M117.06,67a21.47,21.47,0,0,0-.23,6.3c.07.61,1.1.61,1.49.54a1.74,1.74,0,0,0,1.42-1.06,10,10,0,0,0,.33-5.17c-.12-.6-1-.61-1.49-.53s-1.33.43-1.42,1.06a54.6,54.6,0,0,0-.36,10.77c0,.6,1.12.6,1.49.53.56-.11,1.29-.43,1.42-1.06a28.48,28.48,0,0,0,.47-7.87c-.05-.6-1.12-.6-1.49-.53s-1.42.45-1.42,1.06V78.7c0,.69.72.87,1.3.82s1.62-.43,1.62-1.1V71.13c0-.69-.72-.87-1.31-.82s-1.61.42-1.61,1.1v6.32c0,.69.72.87,1.3.82s1.62-.43,1.62-1.1V71.13l-2.92.28V78.7l2.92-.28V70.74l-2.91.53a26.8,26.8,0,0,1-.49,7.37l2.91-.53a51.88,51.88,0,0,1,.38-10.27l-2.91.53a8.94,8.94,0,0,1-.35,4.67l2.91-.53A19.87,19.87,0,0,1,120,66.7c.25-1.3-2.69-.89-2.92.28Z"/><path class="cls-13" d="M128,75.55a21.28,21.28,0,0,0,.54,6.84c.32,1.29,2.88.72,2.92-.48a27.13,27.13,0,0,1,.75-5.38l-2.92.49.82,6.79c.08.65,1.05.75,1.53.67S133,84,133,83.32l0-6.22c0-1.45-2.46-1.18-2.86-.09a11.71,11.71,0,0,0-.56,5.78c.11.71,1.2.8,1.72.64s1.29-.67,1.18-1.42a9.54,9.54,0,0,1,.44-4.62l-2.86-.09,0,6.22L133,83l-.82-6.79c-.08-.65-1.06-.75-1.53-.67a1.6,1.6,0,0,0-1.39,1.16,27.13,27.13,0,0,0-.75,5.38l2.92-.49a19.19,19.19,0,0,1-.5-6.27c.12-1.54-2.83-1.16-2.94.2Z"/><path class="cls-13" d="M141.77,74.76l-.53,13.14c0,.38,2.85,0,2.9-.78L145,75.21c0-.39-2.77,0-2.9.77a33.82,33.82,0,0,0-.19,10.29c.08.57,2.8-.12,2.9-.77l1.41-9.63c.06-.38-2.64.08-2.87.65a27.29,27.29,0,0,0-1.94,10.56c0,.42,2.91,0,2.9-.78A26.51,26.51,0,0,1,146.16,76l-2.87.65-1.42,9.62,2.9-.77A33.5,33.5,0,0,1,145,75.21l-2.9.77-.82,11.92,2.9-.78L144.66,74c0-.37-2.86,0-2.89.78Z"/><path class="cls-13" d="M152.36,83.83a43.8,43.8,0,0,1,.23,7.68c0,.56,2.68-.06,2.87-.63a11.86,11.86,0,0,0,.55-5.54l-2.9.78a6.45,6.45,0,0,1,.56,3.27c0,.17.46.21.51.22a3.5,3.5,0,0,0,1.07-.14c.41-.12,1.26-.33,1.32-.86a11.4,11.4,0,0,0-.25-4c-.11-.45-1.31-.15-1.58-.08a3.7,3.7,0,0,0-1,.41c-.14.09-.39.26-.34.45a11.17,11.17,0,0,1,.25,4l2.9-.78a6.47,6.47,0,0,0-.56-3.27c-.2-.44-1.24-.17-1.58-.07s-1.39.36-1.32.85a11.19,11.19,0,0,1-.51,5.26l2.88-.64a43.89,43.89,0,0,0-.22-7.69c0-.18-.42-.21-.52-.21a3.18,3.18,0,0,0-1.06.13c-.32.09-1.38.37-1.32.86Z"/><path class="cls-13" d="M144.15,101.26l-.55,7.4c-.1,1.4,2.54,1.11,2.86,0l2-6.78-2.85-.06a34.05,34.05,0,0,1-1.39,6.11.77.77,0,0,0,.06.8,1.22,1.22,0,0,0,.82.42c.61,0,1.66-.2,1.89-.89a37,37,0,0,0,1.56-6.66c.08-.65-.64-.94-1.16-1s-1.51.27-1.7.89l-2,6.79,2.85.05.54-7.39c.11-1.49-2.84-1.09-2.93.22Z"/><path class="cls-13" d="M131.2,100.79v5.88a.5.5,0,0,0,.3.53,1.75,1.75,0,0,0,1,.11,2.66,2.66,0,0,0,1.1-.37c.19-.13.54-.36.54-.62v-5.89a.5.5,0,0,0-.29-.53,1.76,1.76,0,0,0-1-.11,2.67,2.67,0,0,0-1.1.38c-.19.12-.55.36-.55.62Z"/><path class="cls-13" d="M151.56,120.06a39.33,39.33,0,0,1-1.73,6.38c-.08.22.12.44.3.53a1.74,1.74,0,0,0,1,.11,2,2,0,0,0,1.64-1,38.78,38.78,0,0,0,1.73-6.38c.2-1.13-2.72-.65-2.9.36Z"/><path class="cls-13" d="M76.53,73.67l1,16.53c.06,1,2.83.36,2.9-.55l.11-1.52c.09-1.24-2.83-.7-2.91.33L77.56,90l2.91-.55-1-16.54c-.07-1-3-.39-2.9.78Z"/><path class="cls-13" d="M85.17,75.84v9.1c0,.22.42.36.56.39a2.46,2.46,0,0,0,1.08-.07c.54-.16,1.26-.46,1.26-1.1v-9.1c0-.22-.42-.36-.56-.39a2.32,2.32,0,0,0-1.08.07c-.54.15-1.26.45-1.26,1.1Z"/><path class="cls-13" d="M50.74,111.75c.45,1.66.9,3.32,1.37,5a2,2,0,0,0,.41.9c.43.45,1.34.28,1.85.14a2.42,2.42,0,0,0,1.53-.92c.18-.34,0-.55-.33-.67a2.19,2.19,0,0,0-.92,0,3.88,3.88,0,0,0-1.11.35c-.3.16-.95.57-.34.8-.13-.14-.18-.17-.13-.07v0s0,0,0,0c-.17.29.06.15.68-.4l1.13-.25c.71-.07.56.19.38,0a1.36,1.36,0,0,1-.1-.21c-.08-.22-.14-.45-.2-.68l-.44-1.58c-.29-1-.58-2.11-.86-3.16,0-.19-.39-.22-.52-.23a3.43,3.43,0,0,0-1.06.13,3.21,3.21,0,0,0-1,.42c-.13.09-.38.26-.33.45Z"/><path class="cls-13" d="M54.65,110.1l2.1,4.83c.08.19.35.21.51.22a3.21,3.21,0,0,0,1.07-.13,3.26,3.26,0,0,0,1-.42c.12-.08.42-.26.34-.44l-2.1-4.84c-.08-.18-.35-.2-.51-.22a4,4,0,0,0-2,.55c-.12.08-.42.27-.34.45Z"/><path class="cls-13" d="M63.17,121.34a49,49,0,0,0,1.07,8.43c.1.44,1.32.13,1.57.06s1.31-.33,1.33-.84l0-1.47c0-.43-2.86-.07-2.89.78l-.06,1.47,2.9-.78a48.73,48.73,0,0,1-1.07-8.43c0-.49-2.93,0-2.9.78Z"/><path class="cls-13" d="M66,118.47a12.17,12.17,0,0,0,1.54,8.46c.12.2.6.25.78.25a2.64,2.64,0,0,0,1.14-.23c.45-.2,1.1-.59.77-1.15a11.19,11.19,0,0,1-1.33-7.7c.2-1.09-2.72-.62-2.9.37Z"/><path class="cls-13" d="M45.31,58.67l.54-2.32L43,56.94l3.47,11.47c.28.91,3.17.11,2.9-.78L45.85,56.17c-.15-.51-1.07-.38-1.42-.3s-1.34.34-1.47.89l-.53,2.31c-.23,1,2.67.51,2.88-.4Z"/><path class="cls-14" d="M115.54,38.87A22,22,0,0,1,111.89,53l2.85-.5,1.69-8.21c.14-.65-2.71-.21-2.85.51L111.89,53c-.17.79,2.54,0,2.85-.5a22.37,22.37,0,0,0,3.7-14.39c0-.54-3,0-2.9.78Z"/><path class="cls-15" d="M149.09,78.81l-.57-2c-.21-.77-2.81-.07-2.88.61l-1.17,10.07c-.07.57.84.47,1.2.42s1.61-.34,1.67-.87l1.17-10.07-2.89.62.57,2c.22.81,3.12,0,2.9-.77Z"/><path class="cls-15" d="M156.27,86l-.54,4.81c0,.17.47.2.51.2a3.47,3.47,0,0,0,1.06-.14,4,4,0,0,0,1-.4c.16-.12.31-.22.34-.43l.54-4.82c0-.17-.47-.2-.51-.2a4.4,4.4,0,0,0-2,.55c-.17.11-.32.22-.34.43Z"/><path class="cls-15" d="M116.12,93.2l-.55,7c-.13,1.58,2.83,1.24,3-.17l.55-7c.13-1.58-2.83-1.24-2.95.18Z"/><path class="cls-15" d="M118.89,116.29v2.14a.38.38,0,0,0,.06.33.44.44,0,0,0,.25.25,1.66,1.66,0,0,0,1,.13,2.54,2.54,0,0,0,1.1-.38l.26-.2a.89.89,0,0,0,.28-.45V116a.39.39,0,0,0-.06-.33.47.47,0,0,0-.25-.25,1.71,1.71,0,0,0-1-.13,2.45,2.45,0,0,0-1.09.38l-.26.2a.89.89,0,0,0-.28.45Z"/><path class="cls-15" d="M126.36,120.27l.53,2.14c.06.22.37.29.54.32a2.64,2.64,0,0,0,1.08-.1,2.53,2.53,0,0,0,1-.45c.16-.13.37-.31.31-.54l-.53-2.14c-.06-.22-.37-.29-.54-.32a2.64,2.64,0,0,0-1.08.1,2.53,2.53,0,0,0-1,.45c-.16.13-.37.31-.31.54Z"/><path class="cls-15" d="M51.08,82.38a46.13,46.13,0,0,1,2.11,11.11,4.47,4.47,0,0,0,.38,2.32,2,2,0,0,0,2.49.4,1.43,1.43,0,0,0,.86-1.7c-.36-1-2-.84-2.62-.26-.44.4-.79,1-.17,1.46a1.92,1.92,0,0,0,2.07-.18l.07-.06-.7.32h-1l0,0-.48-.33c-.13-.16,0-.36.12-.49l.57-.42-.07,0,.77-.21h-.1l.71.07c.25.08.09-.07.06-.32s0-.43,0-.65c0-.59-.07-1.19-.12-1.78-.1-1.13-.24-2.26-.42-3.38A47.07,47.07,0,0,0,54,81.61c-.41-1.3-3.3-.5-2.9.77Z"/><path class="cls-15" d="M60.55,89.75,61.62,93c.21.64,1.15.64,1.68.49a2,2,0,0,0,1-.54.79.79,0,0,0,.26-.73L63.45,89c-.22-.64-1.16-.65-1.69-.49a2,2,0,0,0-.95.53.79.79,0,0,0-.26.73Z"/><path class="cls-15" d="M74.52,35.48l-.65,10.16c0,.65.78.72,1.26.66s1.6-.38,1.64-1l.65-10.17c0-.65-.77-.71-1.26-.65s-1.6.38-1.64,1Z"/><path class="cls-15" d="M81.43,56.57,82,60.85c0,.2.4.27.53.29A3,3,0,0,0,83.57,61a2.89,2.89,0,0,0,1-.44c.16-.13.34-.29.31-.52l-.53-4.28c0-.2-.4-.27-.53-.29a3,3,0,0,0-1.07.11,2.81,2.81,0,0,0-1,.44c-.16.13-.35.29-.32.52Z"/><path class="cls-15" d="M124.51,45.65,123.94,58c0,.62.78.64,1.24.58s1.63-.37,1.65-1l.57-12.34c0-.63-.78-.64-1.24-.58s-1.63.36-1.65,1Z"/><path class="cls-16" d="M134.39,48.8a48.48,48.48,0,0,0-1.06,12.31c0,.71.68,1,1.33.94s1.63-.46,1.6-1.17a49,49,0,0,1,1.06-12.31c.16-.71-.82-1-1.33-.94a1.68,1.68,0,0,0-1.6,1.17Z"/><path class="cls-16" d="M136.5,74.24a38.66,38.66,0,0,1,.41,11.61c-.13,1.09,2.78.56,2.89-.38a39.91,39.91,0,0,0-.4-12c-.18-.94-3.09-.24-2.9.77Z"/><path class="cls-16" d="M120.46,91.36a51.42,51.42,0,0,1-.4,11c-.18,1.26,2.75.79,2.91-.31a53.75,53.75,0,0,0,.39-11.48c0-.65-1.29-.54-1.67-.44-.57.16-1.28.54-1.23,1.21Z"/><path class="cls-16" d="M76.14,95.64l1.12,9.62c.08.7,1.23.72,1.71.58s1.27-.62,1.19-1.35L79,94.86c-.08-.69-1.23-.72-1.7-.58-.63.19-1.28.63-1.19,1.36Z"/><path class="cls-16" d="M85.17,95.11l1.07,4.28c.05.19.38.23.52.24a3.15,3.15,0,0,0,1.06-.13,3.21,3.21,0,0,0,1-.42c.14-.1.38-.26.33-.47l-1.07-4.28c0-.19-.38-.23-.52-.24a3.15,3.15,0,0,0-1.06.13,3.21,3.21,0,0,0-1,.42c-.13.1-.38.26-.33.47Z"/><path class="cls-16" d="M86.72,113.31l.66,6.41c0,.22.39.32.54.34A2.63,2.63,0,0,0,89,120c.44-.13,1.33-.43,1.27-1l-.65-6.41c0-.22-.4-.32-.54-.35a2.8,2.8,0,0,0-1.08.09c-.44.13-1.34.43-1.28,1Z"/><path class="cls-17" d="M106.33,85.24a79.56,79.56,0,0,0-.23,12.54c0,.61,1.31.42,1.64.34C108.25,98,109,97.64,109,97a79.11,79.11,0,0,1,.23-12.12c.11-1.16-2.8-.62-2.89.36Z"/><path class="cls-17" d="M112.52,87.08a43.36,43.36,0,0,0,.28,9.66c.06.41,1.35.08,1.56,0s1.4-.35,1.34-.79a43.36,43.36,0,0,1-.28-9.66c0-.33-2.83,0-2.9.77Z"/><path class="cls-17" d="M123.48,70.73,122.13,83.2l2.94-.23,0-1.75c0-.71-.69-1-1.33-.92s-1.62.45-1.6,1.15l0,1.75c0,1.49,2.8,1,2.94-.23l1.34-12.48c.16-1.45-2.79-1-2.93.24Z"/><path class="cls-17" d="M140.93,49.91l-2.12,11.24c-.25,1.34,2.69.93,2.92-.26l2.12-11.25c.25-1.33-2.7-.92-2.92.27Z"/><path class="cls-17" d="M146.73,54.43v7.49c0,.63,2.9.17,2.9-.78V53.65c0-.63-2.9-.17-2.9.78Z"/><path class="cls-17" d="M155.92,57.41a16.28,16.28,0,0,0,.62,8.39c.22.63,1.14.65,1.68.49s1.45-.62,1.22-1.27a15.24,15.24,0,0,1-.6-7.89c.13-.68-.82-.87-1.3-.81s-1.49.39-1.62,1.09Z"/><path class="cls-17" d="M168.94,121.62l-.55-1.61a.78.78,0,0,0-.58-.46,1.48,1.48,0,0,0-.51,0,1.89,1.89,0,0,0-.58.08,2.1,2.1,0,0,0-1,.52c-.16.17-.36.43-.27.69l.55,1.6a.79.79,0,0,0,.58.47,1.48,1.48,0,0,0,.51,0,2.25,2.25,0,0,0,.58-.08,2.1,2.1,0,0,0,1-.52c.16-.18.36-.43.27-.69Z"/><path class="cls-17" d="M162.71,119.43l-.19,17.13c0,1.6,2.93,1.23,2.95-.18l.18-17.13c0-1.59-2.93-1.23-2.94.18Z"/><path class="cls-18" d="M63.39,99.37l1.25,10.21c.08.66,1.26.56,1.67.45.56-.15,1.31-.55,1.23-1.22L66.29,98.59c-.08-.65-1.25-.56-1.67-.45s-1.31.56-1.23,1.23Z"/><path class="cls-18" d="M56.73,121.9a35.89,35.89,0,0,1,2.33,7.44c.14.7,1.18.79,1.72.62s1.32-.67,1.18-1.39a36.51,36.51,0,0,0-2.33-7.44,1.39,1.39,0,0,0-1.72-.63c-.48.15-1.47.73-1.18,1.4Z"/><path class="cls-18" d="M87.85,87.39a21.9,21.9,0,0,0,1.6,10.4c.25.6,1.14.53,1.66.39S92.6,97.6,92.35,97a21.06,21.06,0,0,1-1.6-10c.11-1.24-2.81-.71-2.9.33Z"/><path class="cls-18" d="M107.62,62.73a30.56,30.56,0,0,0-.28,9.87c.11.81.25,1.61.43,2.4s.44,1.34,1.24,1.5a2,2,0,0,0,2.28-1.14c.26-.92-.64-1.32-1.43-1.28-.62,0-1.52.46-1.59,1.16s.77,1,1.33.94h.08l-1.2-.41.08-.7.94-.56h-.08l1.1,0c.24.26.32.28.22.06s0-.24-.08-.36c-.06-.28-.11-.56-.17-.84-.09-.48-.17-1-.23-1.44a27.5,27.5,0,0,1-.26-3.14,30.35,30.35,0,0,1,.55-6.31c.27-1.42-2.69-1-2.93.23Z"/><path class="cls-18" d="M115.76,44.78l1.08,7c0,.26.37.44.59.5a2,2,0,0,0,1.09,0c.56-.16,1.32-.57,1.22-1.26l-1.09-7c0-.26-.37-.44-.59-.5a2,2,0,0,0-1.09,0c-.55.16-1.32.57-1.21,1.26Z"/><path class="cls-18" d="M77.05,37.85l1.23,7.47c0,.23.37.36.56.4a2.19,2.19,0,0,0,1.08-.06c.47-.13,1.36-.49,1.26-1.12L80,37.07c0-.23-.38-.36-.57-.4a2.2,2.2,0,0,0-1.08.06c-.47.13-1.36.49-1.25,1.12Z"/><path class="cls-18" d="M83.57,40.51v4.82c0,.2.42.27.53.28a2.6,2.6,0,0,0,1.07-.11c.43-.12,1.29-.38,1.29-1V39.73c0-.19-.42-.27-.53-.28a2.6,2.6,0,0,0-1.07.11c-.43.12-1.29.38-1.29.95Z"/><path class="cls-18" d="M53.6,52.82,55,60.35c.12.62,1.24.51,1.66.39s1.36-.52,1.24-1.17L56.49,52c-.11-.62-1.24-.51-1.65-.39s-1.37.52-1.24,1.17Z"/><path class="cls-18" d="M63.23,51a13.35,13.35,0,0,0,.51,5.62c.21.67,1.14.75,1.71.58s1.41-.66,1.19-1.35a13.24,13.24,0,0,1-.57-3l0,.27a12.75,12.75,0,0,1,.07-2.31c.08-.7-.77-1-1.33-.91s-1.52.43-1.6,1.15Z"/><path class="cls-18" d="M52.52,67.06v5.35a.5.5,0,0,0,.3.54,1.76,1.76,0,0,0,1,.12,2.63,2.63,0,0,0,1.09-.38c.2-.13.55-.36.55-.63V66.71a.5.5,0,0,0-.3-.54,1.75,1.75,0,0,0-1-.11,2.66,2.66,0,0,0-1.1.37c-.19.13-.54.37-.54.63Z"/><path class="cls-18" d="M57.91,66a3.8,3.8,0,0,0-.06,1.61,3.63,3.63,0,0,0,.63,1.47c.14.21.58.26.78.26a2.61,2.61,0,0,0,1.14-.22,1.73,1.73,0,0,0,.78-.57l.09-.22a.41.41,0,0,0-.1-.39,1.64,1.64,0,0,1-.14-.22l.1.18a3.35,3.35,0,0,1-.43-1.64v.21a3.24,3.24,0,0,1,.11-.82.49.49,0,0,0-.3-.53,1.75,1.75,0,0,0-1-.11,2.63,2.63,0,0,0-1.09.38,1.13,1.13,0,0,0-.55.61Z"/><path class="cls-18" d="M50.29,82.8a47.73,47.73,0,0,0,2.89,12.8c.3.81,3.17-.07,2.9-.78A47.59,47.59,0,0,1,53.18,82c-.06-.7-3-.14-2.89.77Z"/><path class="cls-19" d="M144.79,117v0l-1,.4c-1.09.31-.61,0-.34.58a1.9,1.9,0,0,1,.14.57,11.78,11.78,0,0,1,0,1.68c0,1.24-.09,2.48-.2,3.71a57,57,0,0,1-1.19,7.49c-.12.56,2.7.16,2.86-.53a57.88,57.88,0,0,0,1.38-10c0-.84.07-1.68.06-2.52a2.16,2.16,0,0,0-.5-1.68,2.29,2.29,0,0,0-1.9-.26,3.11,3.11,0,0,0-2.17,1.11c-.26.43,1,.25,1.15.23.49-.09,1.41-.27,1.7-.76Z"/><path class="cls-19" d="M149.79,96.5a48.43,48.43,0,0,0-1.86,14.66c0,.69,2.93.19,2.9-.77a47.22,47.22,0,0,1,1.84-14.33c.23-.81-2.63-.41-2.88.44Z"/><path class="cls-19" d="M162.16,82a33.7,33.7,0,0,0-1,9.11,1.13,1.13,0,0,0,1.35,1c.57-.06,1.61-.47,1.59-1.2a33.77,33.77,0,0,1,1-9.12c.18-.7-.83-1-1.35-1a1.68,1.68,0,0,0-1.59,1.2Z"/><path class="cls-19" d="M80.47,73.68a56.19,56.19,0,0,1,1,10.19c0,.4,2.9,0,2.9-.78a55.32,55.32,0,0,0-1-10.19c-.1-.55-3,.11-2.89.78Z"/><path class="cls-19" d="M57.52,82.79a87.66,87.66,0,0,0,1.58,12.6c.1.5,1.13.34,1.42.28.48-.1,1.3-.34,1.47-.88l.42-1.34c.27-.86-2.6-.48-2.88.42l-.42,1.34,2.89-.6A87.66,87.66,0,0,1,60.42,82c0-.79-3-.24-2.9.78Z"/><path class="cls-19" d="M64.78,82.8l.65,8c0,.24.39.4.57.45a2.12,2.12,0,0,0,1.09,0c.55-.16,1.29-.51,1.24-1.19l-.66-8c0-.24-.39-.4-.57-.45a2.37,2.37,0,0,0-1.09,0c-.55.17-1.29.52-1.23,1.19Z"/><path class="cls-19" d="M45,94l.64,3.73c0,.25.37.39.57.44a2.24,2.24,0,0,0,1.09,0,2.16,2.16,0,0,0,1-.5.78.78,0,0,0,.28-.66l-.65-3.73c0-.25-.37-.39-.57-.44a2.55,2.55,0,0,0-2.05.55A.74.74,0,0,0,45,94Z"/><path class="cls-19" d="M57.42,103A12.89,12.89,0,0,0,60,113c.57.73,3.36-.26,2.7-1.1a12.13,12.13,0,0,1-2.39-9.36c.17-1-2.74-.52-2.89.4Z"/><path class="cls-19" d="M48.32,127.2l1.61,6.42c.06.23.36.31.55.35a2.75,2.75,0,0,0,1.07-.09,2.68,2.68,0,0,0,1-.46c.16-.14.36-.33.3-.57l-1.61-6.42c-.06-.23-.36-.31-.55-.35a2.76,2.76,0,0,0-1.07.09,2.68,2.68,0,0,0-1,.46c-.15.14-.36.34-.3.57Z"/><path class="cls-19" d="M53,124.55a13.3,13.3,0,0,0,1.09,5.35c.24.54,1.18.4,1.63.27a2.44,2.44,0,0,0,1-.47c.14-.13.39-.36.3-.58a13.3,13.3,0,0,1-1.09-5.35c0-.21-.42-.33-.55-.35a2.58,2.58,0,0,0-1.07.08c-.51.15-1.27.43-1.28,1Z"/><path class="cls-20" d="M146.29,119.66a15.83,15.83,0,0,0-1.45,11.79c.17.6,2.69-.2,2.88-.66a54.51,54.51,0,0,0,3.09-10.62c.06-.32-1.3-.06-1.36,0-.32.07-1.43.3-1.51.71l-1.78,8.94c-.09.46.91.26,1.14.22a4.75,4.75,0,0,0,1.11-.34c.16-.08.56-.23.6-.42l1.78-8.94-2.88.66a53,53,0,0,1-3,10.38l2.87-.66a15.36,15.36,0,0,1,1.41-11.55c.23-.43-1-.24-1.15-.22-.47.09-1.43.27-1.71.76Z"/><path class="cls-21" d="M153.26,123.22l-.86,10.72c-.11,1.45,2.83,1,2.93-.24l.86-10.72c.11-1.45-2.83-1-2.93.24Z"/><path class="cls-21" d="M157.43,122.94v12.31c0,.46,2.9.06,2.9-.77V122.17c0-.47-2.9-.06-2.9.77Z"/><path class="cls-21" d="M140.91,117.39a54.39,54.39,0,0,0-1.49,10.16c0,.66.77.74,1.27.68s1.61-.38,1.64-1a54.37,54.37,0,0,1,1.48-10.16c.28-1.13-2.65-.71-2.9.34Z"/><path class="cls-21" d="M135,119.73v7.49c0,.49,2.9.07,2.9-.77V119c0-.48-2.9-.07-2.9.78Z"/><path class="cls-21" d="M132.24,116a42.49,42.49,0,0,1-.15,7.31c-.07.64.8.71,1.25.65a2.67,2.67,0,0,0,1.1-.38c.21-.14.52-.35.55-.62a45.47,45.47,0,0,0,.15-7.74c0-.23-.4-.37-.57-.41a2.32,2.32,0,0,0-1.08,0c-.52.16-1.29.48-1.25,1.14Z"/><path class="cls-21" d="M124.75,116.23l-.59,4.27c-.1.72.77,1,1.35,1s1.48-.45,1.59-1.2l.59-4.27c.1-.72-.77-1-1.35-1s-1.49.46-1.59,1.2Z"/><path class="cls-21" d="M114.08,108v8.57c0,.22.42.36.56.39a2.31,2.31,0,0,0,1.08-.06c.54-.16,1.26-.46,1.26-1.11v-8.56c0-.23-.41-.37-.56-.4a2.32,2.32,0,0,0-1.08.07c-.54.15-1.26.46-1.25,1.1Z"/><path class="cls-21" d="M108.72,108.79v8.56c0,.67.72.84,1.28.76s1.63-.4,1.63-1.06v-8.56c0-.67-.73-.84-1.29-.77s-1.62.4-1.62,1.07Z"/><path class="cls-22" d="M123.73,95.45l-1,10.17c-.06.63.81.65,1.24.59s1.59-.36,1.65-1l1-10.18c.06-.63-.81-.64-1.24-.59s-1.6.36-1.66,1Z"/><path class="cls-22" d="M125.85,96.18v9.63c0,.49,2.9.07,2.9-.77V95.4c0-.49-2.9-.07-2.9.78Z"/><path class="cls-22" d="M132.79,95.46a26,26,0,0,1,1.45,5.68,25.4,25.4,0,0,1,.23,2.88c0,.5,0,1,0,1.49,0,.33.07,1-.18,1.19l.8-.46-.12.05,1.44-.24h-.08l.43.13c-.08,0-.08-.07,0-.14l-.59.48.06,0-2,.35h.08a3.19,3.19,0,0,0,2-.35c.24-.12,1-.69.33-.82a3.08,3.08,0,0,0-1.77.19c-.32.12-.82.31-1,.65-.23.52.27.77.71.8.81,0,2.27-.28,2.65-1.14a6.12,6.12,0,0,0,.17-2.18,25.45,25.45,0,0,0-1.69-9.3c-.28-.76-3.14.13-2.89.77Z"/><path class="cls-22" d="M137.36,96.74l1.12,11.72c.07.8,3,.21,2.89-.78L140.26,96c-.08-.8-3-.21-2.9.78Z"/><path class="cls-22" d="M141.38,106.35V108a.22.22,0,0,0,.16.14,1,1,0,0,0,.34.06,2.63,2.63,0,0,0,.49,0,3.82,3.82,0,0,0,.57-.11,3.74,3.74,0,0,0,1-.4c.15-.1.34-.22.34-.42v-1.61a.21.21,0,0,0-.17-.13.61.61,0,0,0-.33-.06,2.63,2.63,0,0,0-.49,0,3.38,3.38,0,0,0-.57.12,3.17,3.17,0,0,0-1,.4c-.15.1-.34.21-.34.42Z"/><path class="cls-22" d="M153.11,99.21a55.34,55.34,0,0,0-1.57,5.71c-.2.92-.38,1.86-.53,2.8-.08.5-.16,1-.22,1.52l-.09.65c0,.12,0,.23,0,.35-.11.33.07.25.56-.22l1.46-.22h-.09l.45.17s0,0,0,0l-.3.37.05,0-2.05.55.07,0a2.83,2.83,0,0,0,2.05-.55c.47-.37.35-.77-.23-.87s-2.27.15-2.49,1c-.16.63.59.8,1.06.79.83,0,2-.4,2.33-1.28a14.55,14.55,0,0,0,.3-2.1A54.1,54.1,0,0,1,156,98.78c.19-.58-.93-.52-1.21-.48-.51.08-1.48.32-1.67.91Z"/><path class="cls-22" d="M156.81,101.84a23.3,23.3,0,0,0-.91,10.39c.12.89,3,.25,2.9-.78a22.44,22.44,0,0,1,.9-10c.2-.61-.91-.6-1.23-.56-.55.08-1.46.34-1.66,1Z"/><path class="cls-22" d="M159,102.61a37.1,37.1,0,0,0,.59,6.48c.19,1,.42,2.1.7,3.13.15.53.3,1.06.47,1.59a4.48,4.48,0,0,1,.16.52c.11.55-.22.49.61.15l1.45-.23c.17.09.23.1.18,0s0-.12-.11,0l-.8.49.07,0-1.45.23H161a3,3,0,0,0,2.05-.55c.45-.34.37-.71-.21-.78s-2.32.16-2.56,1c-.16.56.45.88.9.92.82.08,2.26-.27,2.63-1.13.27-.63-.11-1.39-.29-2a37.6,37.6,0,0,1-1.58-10.64c0-.64-2.9-.17-2.9.78Z"/><path class="cls-22" d="M113.12,63.08l1.08-1-2.76.47,0,14.94,1.71-1-.15,0h.93a.21.21,0,0,1-.13-.31c.2-.52-1-.37-1.18-.34-.46.08-1.48.3-1.69.82-.41,1,1.08,1.09,1.7,1,.42-.09,1.71-.34,1.71-1l0-15c0-.36-1-.21-1.19-.18a3.1,3.1,0,0,0-1.57.66l-1.09,1c-.5.45.44.55.7.54a3.32,3.32,0,0,0,1.94-.71Z"/><path class="cls-22" d="M113.6,68.09l.52,11.24c0,.69.7.88,1.31.83s1.65-.43,1.62-1.1l-.53-11.24c0-.69-.69-.89-1.3-.83s-1.65.43-1.62,1.1Z"/><path class="cls-22" d="M119.44,74l-.1,9.52,2.91-.51-.46-1.49c-.2-.67-1.14-.73-1.7-.56s-1.41.65-1.2,1.33l.46,1.5c.19.61,1,.68,1.51.59s1.4-.47,1.41-1.1l.1-9.53c0-.69-.71-1-1.32-.89s-1.6.43-1.61,1.14Z"/><path class="cls-22" d="M125.73,73.16l-.52,9.63c0,.37,2.86,0,2.9-.78l.52-9.63c0-.37-2.85,0-2.9.78Z"/><path class="cls-22" d="M129.63,73.15a38.19,38.19,0,0,1,1,12.6c-.1,1,2.59.26,2.88-.44l.61-1.51c.23-.57-1-.49-1.2-.45-.54.07-1.44.31-1.68.88l-.61,1.52,2.88-.44a39.33,39.33,0,0,0-.95-12.93c-.2-.82-3.11-.08-2.9.77Z"/><path class="cls-22" d="M133.73,75.85l.6,11.69c0,.79,2.85.19,2.89-.6l.09-1.52c0-.6-.8-.57-1.22-.51s-1.64.36-1.67.92l-.08,1.52,2.89-.59-.61-11.69c0-.78-3-.23-2.89.78Z"/><path class="cls-22" d="M141.88,78l1.22,10.69c.07.56,3,0,2.9-.78l-1.23-10.68c-.06-.56-3,0-2.89.77Z"/><path class="cls-22" d="M150,81.73l-.05,3.92,0,1.88a15.61,15.61,0,0,0,0,1.81c.17,1.62,2.71,1.28,3.43.25a.83.83,0,0,0,0-1,1.37,1.37,0,0,0-1-.23,2.85,2.85,0,0,0-1.63.62c-.44.39-.33.85.26,1a2.65,2.65,0,0,0,2-.54l0,0-.59.34h0l-1.13.23h0l-.58-.11c-.19-.24-.25-.29-.2-.15s0,.07,0,0,.08-.11,0,0l.46-.39,0,0,.7-.29h-.05l.76-.1h-.06l.58.1c-.1,0-.12,0,0,0s0,0,0-.07-.05-.19-.07-.29a6,6,0,0,1,0-1l0-2.21.06-4.5c0-.22-.42-.34-.56-.36a2.48,2.48,0,0,0-1.08.07c-.52.15-1.25.44-1.26,1.07Z"/><path class="cls-22" d="M158,83.72l-.65,6.41c-.06.54.85.43,1.18.37a3.72,3.72,0,0,0,1.1-.35c.17-.1.56-.28.59-.49l.65-6.42c.05-.54-.85-.42-1.19-.36a3.92,3.92,0,0,0-1.1.35c-.17.09-.56.27-.58.49Z"/><path class="cls-22" d="M163.26,60l-.72,8.59c-.12,1.52,2.83,1.13,2.94-.21l.72-8.59c.13-1.52-2.83-1.13-2.94.21Z"/><path class="cls-22" d="M159.72,59.83a13.68,13.68,0,0,0-.77,7.46c.05.27.37.45.6.52a1.92,1.92,0,0,0,1.09,0c.56-.16,1.33-.59,1.21-1.29a12.24,12.24,0,0,1,.61-6.44c.58-1.47-2.31-1.33-2.74-.24Z"/><path class="cls-22" d="M150.48,55.78l-1.15,9.63c-.17,1.36,2.77.91,2.92-.28l1.15-9.62c.17-1.36-2.78-.91-2.92.27Z"/><path class="cls-22" d="M142.43,59l-1.14,5.87c-.22,1.09,2.7.63,2.89-.37l1.15-5.87c.21-1.09-2.7-.62-2.9.37Z"/><path class="cls-22" d="M138.14,48l.62,9.62c0,.45,2.94,0,2.9-.77L141,47.23c0-.45-2.95,0-2.9.78Z"/><path class="cls-22" d="M130.13,48.54c0,2-.08,4-.26,6-.09,1-.24,1.94-.37,2.91-.05.34-.09.68-.12,1,0,.18,0,.23,0,.32l.31-.31h0l1.74-.54h0l.57,0c.25.08,0,0-.05-.12-.39-.37-1.46,0-1.87.15-.23.08-1.24.49-.86.85a1.15,1.15,0,0,0,1,.3c.56,0,1.83-.26,2.1-.9a2.84,2.84,0,0,0,.08-.77c.06-.6.16-1.19.24-1.79a63.23,63.23,0,0,0,.49-7.9c0-.49-2.88-.09-2.9.78Z"/><path class="cls-22" d="M119.41,41.93a62,62,0,0,0-.54,10.55c0,.62-.05,1.43.48,1.87.7.6,2,.23,2.71-.23.38-.27.79-.86.37-1.3-.64-.68-2.11-.06-2.69.37s-.3.81.25.91a2.88,2.88,0,0,0,2-.55l.07,0-1.37.54h.06l-.94-.06c-.23-.12-.2,0-.15-.11l.46-.37-.07,0,1.47-.4h-.09l.58.09c-.27-.09-.24-.7-.26-.93,0-.48,0-.95,0-1.43,0-1,0-2.11,0-3.16a61,61,0,0,1,.54-6.19c.14-1-2.77-.49-2.89.41Z"/><path class="cls-22" d="M71.75,45.87a24.94,24.94,0,0,1-.14,5.79c-.07.52.87.38,1.18.33a3.92,3.92,0,0,0,1.1-.35c.17-.09.56-.26.59-.47a26.89,26.89,0,0,0,.17-6.08c0-.19-.42-.23-.52-.23a2.92,2.92,0,0,0-1.06.13,3,3,0,0,0-1,.42c-.15.11-.35.24-.33.46Z"/><path class="cls-22" d="M81.42,40.51,82,45.33c0,.16.43.17.5.17a3.82,3.82,0,0,0,1.06-.15,4,4,0,0,0,1-.4c.13-.08.37-.21.35-.4l-.54-4.82c0-.16-.43-.17-.5-.17a3.39,3.39,0,0,0-1,.16,3.59,3.59,0,0,0-1,.39c-.13.09-.37.21-.34.4Z"/><path class="cls-22" d="M86.2,34.09a38.34,38.34,0,0,0,1.65,8.56c.15.51,1.26.26,1.59.16s1.46-.43,1.3-.93a39.11,39.11,0,0,1-1.65-8.57c0-.68-3-.13-2.89.78Z"/><path class="cls-22" d="M84.1,53.36l.64,5.87c0,.18.42.2.51.21a3.47,3.47,0,0,0,1.06-.14,3.7,3.7,0,0,0,1-.41c.14-.1.36-.23.33-.43L87,52.58c0-.18-.42-.2-.51-.21a3.48,3.48,0,0,0-1.06.15,3.17,3.17,0,0,0-1,.4c-.14.1-.36.23-.34.44Z"/><path class="cls-22" d="M77.05,53.37l.56,5.88c0,.2.41.27.53.28a3.38,3.38,0,0,0,2-.55c.16-.13.34-.27.32-.51L80,52.59c0-.2-.41-.27-.53-.28a3,3,0,0,0-1.07.11,2.81,2.81,0,0,0-1,.44c-.17.13-.34.27-.32.51Z"/><path class="cls-22" d="M72.74,57.13l1.12,5.34c0,.18.4.2.51.21a3.82,3.82,0,0,0,1.06-.15,3.17,3.17,0,0,0,1-.4c.13-.09.38-.24.34-.44l-1.12-5.34c0-.18-.4-.2-.51-.2a4.11,4.11,0,0,0-2,.55c-.13.09-.38.23-.34.43Z"/><path class="cls-22" d="M88.48,70.48A78.44,78.44,0,0,0,90,83.07c.18.88,2.79.15,2.89-.59a2.69,2.69,0,0,0-.63-2.23c-.57-.69-3.35.31-2.7,1.08A2.05,2.05,0,0,1,90,82.89l2.89-.59a78.42,78.42,0,0,1-1.53-12.6c0-.78-2.94-.24-2.9.78Z"/><path class="cls-22" d="M72.87,76.17l0,9.09A4.59,4.59,0,0,0,73,87.07c.38.82,1.47.74,2.19.51.56-.18,1.38-.65,1.27-1.36s-1.28-.68-1.83-.52-1.4.5-1.26,1.12,1.27.45,1.65.34l.07,0L74,87.2H74L73.56,87c-.11-.13,0-.22.1-.34l.59-.36-.07,0,1.13-.22h-.08l.59.12c-.13-.06-.09-.65-.09-.76,0-.43,0-.86,0-1.29V81.37l0-5.56c0-.64-.75-.69-1.25-.63s-1.64.38-1.65,1Z"/><path class="cls-22" d="M79.82,96.18A18.3,18.3,0,0,1,81,100.07c.27,1.13.45,2.29.8,3.4a.5.5,0,0,0,.27.36,2.56,2.56,0,0,0,1.59-.14c.36-.12.94-.29,1.14-.66s-1-.31-1.16-.28a4,4,0,0,0-1.11.35,1.23,1.23,0,0,0-.59.44l.31-.28,1.73-.54h0l.56,0a.26.26,0,0,1,.23.15v0s0,0,0-.06,0-.14-.07-.2c-.06-.23-.12-.46-.17-.69l-.48-2.1a20,20,0,0,0-1.34-4.42c-.22-.43-1.24-.15-1.57-.05s-1.52.45-1.33.83Z"/><path class="cls-22" d="M83.09,96.16l1.12,4.27c.05.18.39.2.51.2a4.11,4.11,0,0,0,2-.55c.12-.08.39-.24.34-.42L86,95.39c0-.18-.39-.2-.51-.2a3.47,3.47,0,0,0-1.06.14,3.74,3.74,0,0,0-1,.4c-.13.09-.39.24-.34.43Z"/><path class="cls-22" d="M95.11,87.36a29.84,29.84,0,0,0,.06,9.29c.1.62,1.25.49,1.65.37s1.35-.5,1.24-1.14A28.31,28.31,0,0,1,98,87c.17-1.17-2.75-.69-2.91.34Z"/><path class="cls-22" d="M93.28,107.71a21,21,0,0,1,2,8,1.14,1.14,0,0,0,1.36,1c.57,0,1.62-.47,1.59-1.22a23.76,23.76,0,0,0-2.31-9.1,1.23,1.23,0,0,0-.84-.46,2.08,2.08,0,0,0-1.15.19,1.16,1.16,0,0,0-.66,1.58Z"/><path class="cls-22" d="M88.93,107.74a22.51,22.51,0,0,0,.78,7.79c.18.6,1.21.49,1.65.36s1.43-.52,1.25-1.14a21.28,21.28,0,0,1-.78-7.36c0-.64-.78-.72-1.26-.65a2.66,2.66,0,0,0-1.1.37c-.2.14-.52.36-.54.63Z"/><path class="cls-22" d="M82,111.16l1.65,8.55c.14.69,1.2.75,1.71.59s1.33-.64,1.19-1.36l-1.65-8.56c-.14-.69-1.19-.74-1.71-.59s-1.33.65-1.19,1.37Z"/><path class="cls-22" d="M78.09,112.78l.66,8.56c0,.21.41.3.55.32a2.76,2.76,0,0,0,1.07-.09c.43-.13,1.33-.42,1.28-1L81,112c0-.21-.4-.3-.54-.32a2.82,2.82,0,0,0-1.08.09c-.43.13-1.32.42-1.28,1Z"/><path class="cls-22" d="M75.41,113.86a31,31,0,0,1,.36,7.82c0,.64.79.72,1.26.65a2.66,2.66,0,0,0,1.1-.37c.2-.14.52-.36.54-.63a33,33,0,0,0-.36-8.24c-.11-.62-1.26-.48-1.65-.37s-1.36.51-1.25,1.14Z"/><path class="cls-22" d="M64.29,122.73v2.14a.35.35,0,0,0,.06.31.38.38,0,0,0,.25.23,1.72,1.72,0,0,0,1,.12,2.67,2.67,0,0,0,1.1-.38l.26-.2a.92.92,0,0,0,.29-.43v-2.14a.34.34,0,0,0-.06-.31.38.38,0,0,0-.25-.23,1.64,1.64,0,0,0-1-.12,2.67,2.67,0,0,0-1.1.38l-.26.19a1,1,0,0,0-.29.44Z"/><path class="cls-22" d="M56.73,124a10.89,10.89,0,0,1,.82,5.35c0,.18.46.24.52.25a3,3,0,0,0,1.07-.13c.44-.12,1.26-.35,1.31-.9a10.85,10.85,0,0,0-.82-5.34c-.08-.2-.34-.24-.52-.26a3.24,3.24,0,0,0-1.07.13,2.94,2.94,0,0,0-1,.42c-.12.1-.41.29-.33.48Z"/><path class="cls-22" d="M52.46,124,54.08,131c.16.66,1.2.66,1.69.51s1.37-.6,1.21-1.29l-1.62-6.95c-.16-.66-1.19-.66-1.69-.51s-1.37.6-1.21,1.29Z"/><path class="cls-22" d="M46.63,110.1A60.52,60.52,0,0,0,48,120c.23,1,3.12.31,2.89-.77l-.29-1.38c-.22-1-3.13-.3-2.9.78L48,120l2.89-.77a61.72,61.72,0,0,1-1.36-9.94c0-.24-.4-.38-.57-.42a2.32,2.32,0,0,0-1.08,0c-.54.16-1.28.49-1.25,1.15Z"/><path class="cls-22" d="M55.2,106.88A50.56,50.56,0,0,1,57.85,116c.12.63,1.23.55,1.67.42s1.35-.54,1.23-1.2a50.79,50.79,0,0,0-2.65-9.11c-.24-.6-1.14-.57-1.67-.42s-1.47.59-1.23,1.2Z"/><path class="cls-22" d="M63.79,104.56a10.72,10.72,0,0,0,.9,6.14c.26.53,1.17.39,1.62.26a2.68,2.68,0,0,0,1-.46c.13-.13.4-.37.3-.58a10.13,10.13,0,0,1-.91-5.76c.08-.61-.84-.59-1.23-.53a3,3,0,0,0-1.1.36c-.2.12-.52.32-.56.57Z"/><path class="cls-22" d="M68.12,102.06l.55,4.81c0,.25.38.4.57.45a2.24,2.24,0,0,0,1.09,0c.52-.15,1.31-.51,1.23-1.17L71,101.28c0-.24-.38-.39-.57-.44a2.19,2.19,0,0,0-1.08,0c-.53.16-1.32.51-1.24,1.18Z"/><path class="cls-22" d="M47.17,89.22a112.39,112.39,0,0,0,3.21,11.09c.39,1.15,2.47.8,2.84-.2l.53-1.46c.59-1.59-2.31-1.62-2.78-.37l-.53,1.46,2.84-.21a112.39,112.39,0,0,1-3.21-11.09c-.33-1.38-3.23-.61-2.9.78Z"/><path class="cls-22" d="M56.14,87.67A21.66,21.66,0,0,1,58,94.57c0,.22.39.33.55.36a2.64,2.64,0,0,0,1.08-.08c.46-.14,1.32-.45,1.27-1.06A21.67,21.67,0,0,0,59,86.9c-.25-.55-1.17-.42-1.63-.29a2.58,2.58,0,0,0-1,.47c-.15.13-.4.38-.3.59Z"/><path class="cls-22" d="M63.23,63.53v3.21c0,.22.41.36.56.4a2.76,2.76,0,0,0,2.05-.55l.18-.21a.5.5,0,0,0,.1-.42V62.75c0-.23-.41-.36-.56-.4a2.76,2.76,0,0,0-2.05.55l-.18.21a.48.48,0,0,0-.1.42Z"/><path class="cls-22" d="M60.55,65.13l.53,1.07a.38.38,0,0,0,.21.25.66.66,0,0,0,.36.16,1.46,1.46,0,0,0,.51,0,1.88,1.88,0,0,0,.57-.09l.38-.13a2.22,2.22,0,0,0,.59-.36l.18-.21a.5.5,0,0,0,.1-.42l-.53-1.07a.39.39,0,0,0-.2-.25.73.73,0,0,0-.37-.16,1.41,1.41,0,0,0-.5,0,1.9,1.9,0,0,0-.58.09l-.38.13a2.13,2.13,0,0,0-.59.36l-.18.21a.5.5,0,0,0-.1.42Z"/><path class="cls-22" d="M47.68,70.74v5.35a1.11,1.11,0,0,0,1.35,1,2,2,0,0,0,1.09-.4,1.15,1.15,0,0,0,.5-.79V70.53a1.12,1.12,0,0,0-1.35-1,2.05,2.05,0,0,0-1.09.41,1.19,1.19,0,0,0-.5.79Z"/><path class="cls-22" d="M42.94,73.65l-.53,1.61a.59.59,0,0,0-.07.43.57.57,0,0,0,.14.41.82.82,0,0,0,.35.29,1,1,0,0,0,.48.15,1.88,1.88,0,0,0,1.14-.19l.32-.2a1.39,1.39,0,0,0,.42-.51L45.73,74a.64.64,0,0,0,.06-.43.61.61,0,0,0-.13-.41.77.77,0,0,0-.36-.28,1,1,0,0,0-.48-.16,2,2,0,0,0-1.14.19l-.32.2a1.48,1.48,0,0,0-.42.51Z"/><path class="cls-22" d="M39.48,60.36l1.66,7c0,.19.39.23.52.24a3.24,3.24,0,0,0,1.07-.13,3.42,3.42,0,0,0,1-.42c.14-.1.38-.27.33-.47l-1.66-6.94c-.05-.19-.39-.23-.52-.25a3.24,3.24,0,0,0-1.07.13,3.42,3.42,0,0,0-1,.42c-.14.1-.38.27-.33.47Z"/><path class="cls-22" d="M46.21,64.29l.54.54a.76.76,0,0,0,.34.24,1.09,1.09,0,0,0,.47.12,1.57,1.57,0,0,0,.57,0A1.63,1.63,0,0,0,48.7,65L49,64.8a1.41,1.41,0,0,0,.44-.47l.08-.25a.59.59,0,0,0-.13-.49l-.53-.53a.67.67,0,0,0-.34-.24,1.14,1.14,0,0,0-.47-.13,1.54,1.54,0,0,0-.57,0,1.63,1.63,0,0,0-.57.17l-.33.18a1.49,1.49,0,0,0-.43.47l-.09.26a.63.63,0,0,0,.13.48Z"/><path class="cls-22" d="M49.31,61.92l.53,3.21c0,.26.38.44.59.51a2.05,2.05,0,0,0,1.1,0c.55-.16,1.33-.57,1.21-1.26l-.53-3.22c-.05-.26-.37-.44-.59-.5a2.06,2.06,0,0,0-1.1,0c-.55.16-1.33.57-1.21,1.26Z"/><path class="cls-22" d="M52,60.86,53,63a.54.54,0,0,0,.22.33.7.7,0,0,0,.38.22,2,2,0,0,0,1.1,0,1.87,1.87,0,0,0,1-.55l.17-.25a.73.73,0,0,0,.08-.52l-1.07-2.14a.56.56,0,0,0-.23-.33.77.77,0,0,0-.38-.22,1.93,1.93,0,0,0-1.09,0,1.9,1.9,0,0,0-1,.55l-.17.25a.72.72,0,0,0-.07.52Z"/><path class="cls-22" d="M59,51.55a22.46,22.46,0,0,0,.49,7.17c.14.58,1.25.42,1.64.31s1.4-.49,1.26-1.09a21.08,21.08,0,0,1-.49-6.76c0-.63-.81-.66-1.25-.6a2.94,2.94,0,0,0-1.09.37c-.2.13-.53.34-.56.6Z"/><path class="cls-22" d="M46.11,56a28.87,28.87,0,0,0,3.29,7.73,1.13,1.13,0,0,0,.81.36,2.37,2.37,0,0,0,1.14-.21c.52-.26,1.08-.76.72-1.37A27.18,27.18,0,0,1,49,55.25c-.17-.65-1.18-.65-1.69-.5s-1.39.6-1.21,1.28Z"/></g><g id="Layer_3" data-name="Layer 3" class="cls-23"><path class="cls-24" d="M45.69,78.84C46.05,72.4,52,64.67,59.17,67.09a11.68,11.68,0,0,1,6.9,6.69c1.37,3.52.36,6.69-1.65,9.71s-4.05,6-3.39,9.83,3.23,7,5.52,9.89A64.65,64.65,0,0,1,78,125a62.52,62.52,0,0,1,1.59,6.86c.19,1.12.35,2.25.48,3.38a14.42,14.42,0,0,1,.15,1.6,3.27,3.27,0,0,1-.1.94c0,.14-.44.75-.42.79l.36-.12c.46-.08.49-.15.09-.23a5.79,5.79,0,0,0-.65-.37,6.12,6.12,0,0,1-1-.94,16.78,16.78,0,0,1-2-3.14l-3.9-6.93c-.32-.57-1.54-.25-2-.06-3,1.3-3.88,4.24-3.28,7.3.4,2.1,1.35,4.17,1.24,6.34a4.84,4.84,0,0,1-.67,2.26c-.5.84-.93,1.43-1.84.82-2.47-1.65-1.57-5.74-3.11-8a4.35,4.35,0,0,0-7.18-.62,5.65,5.65,0,0,0-.79,2.66c-.19,1.24-.37,2.47-.56,3.71l-1.21,8.15,2.79-.75-4.63-6-2.09-2.73A15,15,0,0,0,47,137.08c-1.37-1.09-3.4-.67-4.79.19a5.59,5.59,0,0,0-2.5,4.29c-.15,1.28-.07,4.54-1.59,5.08-1.24.44-3.2-1.31-3.81-2.27-1.19-1.89-1.08-4.35-.73-6.46s.88-4.2,1.4-6.27c1.08-4.26,2.52-8.45,5.25-11.95a21.39,21.39,0,0,0,3.33-5,10.14,10.14,0,0,0,.56-5.06c-.46-3.83-2.34-7.31-3.27-11a13.84,13.84,0,0,1-.3-6.07A22.22,22.22,0,0,1,42.69,87c1-2.08,2.19-4.1,3-6.26S47.1,76.27,48,74.15c.78-1.79,1.9-3.73,3.83-4.43a3.56,3.56,0,0,1,4.24,1.45l2-1.07a17.25,17.25,0,0,0-12.39,6.17L48.51,76c1.09-2.46,2.73-6.7,5.87-7.09,2.66-.34,4.89,3.27,3.18,5.41l2.77-.44c-.64-3.65-5.49-3.71-8.19-2.61-4.06,1.67-4.81,6.29-4.57,10.19.06.94,2.63-.19,2.89-.61a13.66,13.66,0,0,0,1.9-8.78c-.1-.84-2.5.05-2.78.44a27.29,27.29,0,0,0-4.67,20.1c0,.19.39.27.53.28a6.53,6.53,0,0,0,5.45-2.14c1.57-1.8,1.67-4.13,1.5-6.4a24.57,24.57,0,0,1,.31-7.84A18.4,18.4,0,0,1,53.94,73a12.05,12.05,0,0,1,.86-1.63L55,71.1c.41-.35.29-.47-.35-.36,0,0,.37.57.39.62.31,1-.19,2.2-.42,3.15l-1,4.28-2,8.08c-.21.86-1,2.54-.51,3.31a2.54,2.54,0,0,0,2,1,6,6,0,0,0,4.89-1.8c1.54-1.81,1.12-4.52.93-6.69L58,73c-.06-.72-2-.06-2.31.09A11.13,11.13,0,0,0,50,84.4c.12.76,3,.11,2.9-.78a14.88,14.88,0,0,1,6.29-13.41l-2.58.26a16.35,16.35,0,0,1,.65,8.06l2.8-.75c-1.76-1.53-.22-4.62-2.81-5.52-1.29-.45-4.69-.11-4.34,1.87.14.74,2,.05,2.32-.1,1.74-.82,4.06,1.17,4.65,2.67a4.86,4.86,0,0,1-1.37,5.48l2.57-.1a16.19,16.19,0,0,0-1.73-13l-2.8.91c3.4,2.52,4.68,6.94,4.3,11-.45,4.86-3,9.24-5.4,13.38l2.62-.84a8,8,0,0,0-8.26,3.54c-2.18,3.4-1,7.53.46,11,1.17,2.82,3.08,6.05,6.64,4.8s2.6-6.14,2.07-9c-.76-4-2.19-8.35-.31-12.3.26-.56-1-.45-1.2-.43l-8,.88c-.43,0-1.45.3-1.62.78s.37.57.78.55a14.31,14.31,0,0,0,12.44-8.64,12.24,12.24,0,0,0,.77-7.57c-.34-1.41-1.16-2.63-1.54-4a2.82,2.82,0,0,1-.1-1.38c0-.08.28-.57.28-.59s-.75-.06-.6.19.6.35.75.47a5,5,0,0,1,.75.78,7.61,7.61,0,0,1,1.2,5,17.17,17.17,0,0,1-1.46,6.55L64,83.75A13,13,0,0,0,60.31,69l-2.71,1c3.31,1.91,4,6.14,3.36,9.62-.79,4.5-2.81,8.59-2.68,13.25s1.81,9.1,3.81,13.24c2.08,4.3,4.5,8.44,6.8,12.62L77.28,134c.4.74,3.14,0,2.89-.78a122.77,122.77,0,0,0-14.91-31.58l-2.8.91a20.26,20.26,0,0,1,4.83,4.77l2.71-1a24.67,24.67,0,0,1-3.37-5.82,5,5,0,0,1-.36-1.83c.34-.47.25-.58-.27-.32a2.84,2.84,0,0,1,.64.1,9.87,9.87,0,0,1,2.42,1.07,22.31,22.31,0,0,1,8.4,8.19l2.63-1a43.55,43.55,0,0,1-13.45-6.77l-2.71,1,9.15,6.3c.47.32,3.2-.13,2.81-.91a11.81,11.81,0,0,0-7.3-6.16c-.51-.15-2.84.12-2.63,1a95.73,95.73,0,0,0,8,21.61l2.9-.77A143.33,143.33,0,0,0,61.48,99c-.48-.59-2.84.1-2.8.91l.9,18.09L61.94,117a15.37,15.37,0,0,1-12-8.12,15.7,15.7,0,0,1,.68-15.23l-2.88.45a21.91,21.91,0,0,0-2.83,11l2.89-.77a44.45,44.45,0,0,1-3.26-9.14c-.2-.84-2.7,0-2.89.61a9.45,9.45,0,0,0-.29,4.26l2.9-.77a17.48,17.48,0,0,1,1.19-14.93l-2.88.44a16.31,16.31,0,0,0-.18,13c.32.78,2.73.09,2.88-.61a12.43,12.43,0,0,0-.45-6.94l-2.62,1c3.17,1.27,2.59,5.74,1.65,8.29-1.27,3.42-3.94,7.4-1.7,11,.46.73,2.64.13,2.89-.61a26.1,26.1,0,0,0,1.3-10.56l-2.9.78,2.78,16.63,2.9-.78L47,108.32c-.22-.79-2.77-.06-2.89.61A143.73,143.73,0,0,1,35,140l2.89-.61A33.54,33.54,0,0,1,40.19,128c.29-.76-2.51-.26-2.87.45a22.75,22.75,0,0,0-2.25,13.66c.12.78,2.9.09,2.9-.77a57.79,57.79,0,0,1,4.15-21.14c.3-.74-2.51-.3-2.87.45a42.61,42.61,0,0,0-4.39,18.68c0,.67,2.85.16,2.9-.77.5-8.84,1.86-19.8,10.07-24.94l-2.57.1A137.41,137.41,0,0,1,42.78,130c-.18.86,2.65.34,2.88-.45A84.92,84.92,0,0,1,51.6,114.6l-2.89.62a24.53,24.53,0,0,1-.35,12.3l2.88-.45,2.16-10c.21-1-2.46-.17-2.76.27a28.63,28.63,0,0,0-5,13.35c-.1.93,2.7.33,2.87-.45a96.1,96.1,0,0,1,3.53-12.09l-2.89.61A43.39,43.39,0,0,1,49,131.44l2.87-.45,1.3-10.57-2.89.61a16.6,16.6,0,0,1-.63,7.24l2.89-.62c.11-2.2-2.38-3.12-4.22-3a8.48,8.48,0,0,0-6,3.83,52,52,0,0,0-7.73,15.44c-.28.88,2.45.22,2.76-.27L48,126.85l-2.77.28A43.2,43.2,0,0,1,35.07,142l2.78-.43a16.44,16.44,0,0,1,5.55-16.21l-2.46-.08a47.83,47.83,0,0,0-6,11.24,44.85,44.85,0,0,0-1.81,6.23c-.17.78-.3,1.27.31,1.88a3.12,3.12,0,0,0,1.87.76c4.26.44,6.13-3.77,8-6.8L50.91,126l-2.87.45a80.25,80.25,0,0,0-.83,13.68c.09,2.83,1.26,5.71,4.52,5.28.52-.06,1.65-.37,1.69-1a70.65,70.65,0,0,0-1.15-17.54c-.15-.77-3.05-.09-2.9.78l1,5.89.5,2.95c.07.39.6,2.11.18,2.42l1.38-.53-.18,0,.94,0a1.14,1.14,0,0,0-.1-.19l-2.25.72H51a2.88,2.88,0,0,0,2-.55c.37-.35.44-.75-.22-.8s-3.21.33-2.53,1.62c.59,1.11,2.81.3,3.42-.42a2,2,0,0,0,.3-1.65c-.14-1.15-.39-2.29-.58-3.43l-1.17-6.88-2.9.78a70.13,70.13,0,0,1,1.15,17.53l1.69-1c-.88.12-1.57-1.8-1.75-2.39a15.07,15.07,0,0,1-.37-4.34A80.24,80.24,0,0,1,50.91,126c.15-1.05-2.54-.09-2.87.45l-5.85,9.59-3,5a18.39,18.39,0,0,1-1.36,2.1c-.51.64-.79,1.09-1.52.45-.93-.83.29-3.68.6-4.72a46,46,0,0,1,6.73-13.77c.73-1-2.09-.37-2.46-.08A17.45,17.45,0,0,0,35,142.3c.2.91,2.44-.11,2.78-.43a44.61,44.61,0,0,0,10.33-15.19c.32-.78-2.44-.26-2.77.27l-10.6,16.81,2.76-.27a52.75,52.75,0,0,1,5.22-11.65,24.61,24.61,0,0,1,3.53-4.93c.74-.73,1.32-1.12,2.29-.56a2.15,2.15,0,0,1,1.14,2.08c0,.72,2.69,0,2.89-.61a17.47,17.47,0,0,0,.65-7.57c-.1-.76-2.8-.07-2.89.62L49,131.44c-.11.91,2.74.35,2.87-.45a44.26,44.26,0,0,0,.24-13c-.11-.85-2.68,0-2.89.62a95.58,95.58,0,0,0-3.52,12.09l2.87-.45a28.06,28.06,0,0,1,4.73-13l-2.76.28-2.17,10c-.18.86,2.65.35,2.88-.45a25.37,25.37,0,0,0,.37-12.63c-.21-.92-2.62.1-2.89.61A85.86,85.86,0,0,0,42.78,130l2.88-.45a141.66,141.66,0,0,0,2.48-16.27c.09-1-2.22-.12-2.57.1-8.68,5.43-10.18,16.61-10.71,26l2.9-.77a42.08,42.08,0,0,1,4.36-18.36l-2.87.45a58.42,58.42,0,0,0-4.18,21.46l2.9-.77A22.16,22.16,0,0,1,40.19,128l-2.87.45A34.71,34.71,0,0,0,35,140.18c0,.8,2.65-.06,2.89-.61A145.12,145.12,0,0,0,47,108.48l-2.89.61,2.12,7.69c.22.79,3,.07,2.9-.78L46.35,99.37c-.13-.77-3-.1-2.9.78a25.17,25.17,0,0,1-1.28,10.22l2.89-.61c-2.46-4,1.06-8.07,2-11.88.75-2.88.63-6.61-2.54-7.88-.46-.18-2.92.19-2.63,1a11.74,11.74,0,0,1,.48,6.61L45.3,97a15.76,15.76,0,0,1,.16-12.68c.25-.55-1-.46-1.2-.43a2.3,2.3,0,0,0-1.68.87A18,18,0,0,0,41.37,100c.3.79,3,.07,2.9-.77a8.44,8.44,0,0,1,.27-3.93l-2.89.61a44.77,44.77,0,0,0,3.27,9.13c.38.8,2.9.08,2.89-.77a21.35,21.35,0,0,1,2.82-10.7c.29-.53-1-.45-1.2-.43a2.33,2.33,0,0,0-1.68.88,16.1,16.1,0,0,0-.34,16.2,16.54,16.54,0,0,0,12.7,8c.59.06,2.41-.2,2.37-1.06l-.9-18.09-2.81.92A141.6,141.6,0,0,1,74,122.81c.44.82,3.22-.15,2.9-.77a95.8,95.8,0,0,1-8-21.62l-2.62,1a11,11,0,0,1,6.75,5.7l2.81-.92-9.16-6.3c-.7-.49-3.33.59-2.71,1a44.79,44.79,0,0,0,13.81,7c.38.12,3.06-.27,2.62-1a23.17,23.17,0,0,0-5.07-6c-1.87-1.57-4.3-3.29-6.74-3.79-1.81-.36-5.1.13-5.21,2.5-.06,1.35.89,2.86,1.51,4a29,29,0,0,0,2.44,3.75c.48.64,3.26-.29,2.71-1a19.89,19.89,0,0,0-4.83-4.77c-.48-.34-3.23.26-2.8.91A123.66,123.66,0,0,1,77.28,134l2.89-.78c-4.87-8.85-10-17.61-14.57-26.63-2.09-4.13-3.92-8.51-4.35-13.16a20.55,20.55,0,0,1,.66-7.15c.61-2.29,1.45-4.52,1.89-6.86.71-3.74.12-8.38-3.49-10.45-.63-.36-3.4.48-2.71,1a12.46,12.46,0,0,1,3.53,14.14c-.28.7,2.53.37,2.88-.44a18,18,0,0,0,1.42-5.64,10.79,10.79,0,0,0-.49-5.17C63.8,70.4,61.11,69,58.56,70.66c-3,1.91.14,5.56.54,8a12.26,12.26,0,0,1-1.75,8.16c-1.61,2.65-4.29,5-7.51,5.15L49,93.36l8-.88-1.19-.43c-1.44,3-1,6.33-.36,9.49.34,1.7.74,3.39.95,5.11a18,18,0,0,1,.15,2.54,8.93,8.93,0,0,1-.14,1.55,11.53,11.53,0,0,0-.41,1.15c.46,0,.54-.1.23-.21a1.79,1.79,0,0,1-.44-.27,5,5,0,0,1-.75-.7,7.79,7.79,0,0,1-1.42-2.32,25.56,25.56,0,0,1-1.9-5.52,8.47,8.47,0,0,1,.52-5.37c.61-1.24,1.91-3,3.49-2.65A2.62,2.62,0,0,0,58.31,94c2.49-4.33,5.13-8.9,5.45-14,.25-4.13-1.1-8.47-4.52-11-.48-.36-3.22.24-2.81.91a15.8,15.8,0,0,1,1.76,12.63c-.28,1,2.29.12,2.57-.1C63.09,80.6,64,77.12,62,74.65s-5.81-2.49-8.55-1.2l2.31-.1a.52.52,0,0,1,0-.35l-1.2.43a5,5,0,0,1,.65.22A1.93,1.93,0,0,1,56,75.21c.23,1.32.2,2.67,1.28,3.62.53.45,2.67,0,2.8-.75a17,17,0,0,0-.64-8.38c-.27-.81-2.16,0-2.58.26A16,16,0,0,0,50,84.4l2.9-.78a9.82,9.82,0,0,1,4.52-9.9l-2.31.1.65,7.45c.18,2.11.69,4.5.2,6.59-.12.52-.53,1.84-1.1,2-1.4.25-.79-1.83-.64-2.44L56,80.24c.6-2.46,1.22-4.91,1.8-7.37.31-1.33.5-3.1-1.18-3.49-4.22-.95-6.18,5-6.85,8a25.2,25.2,0,0,0-.24,7.51A11.3,11.3,0,0,1,49.27,89c-.22.7-1.06,2.65-2,2.58l.53.29a26.5,26.5,0,0,1,4.44-19.42l-2.78.44a13,13,0,0,1-1.88,8.44l2.89-.61c-.17-2.72,0-6.46,2.39-8.29,1.72-1.31,4.25.43,4.57,2.27.16.87,2.48-.07,2.78-.44a3.84,3.84,0,0,0,.09-4.64,5.17,5.17,0,0,0-5.08-2c-5.12.52-7.68,4.58-9.59,8.88-.36.81,2.43.14,2.77-.28a12,12,0,0,1,8.53-4.7c.26,0,2.43-.46,2-1.07-1.82-2.94-5.82-2.61-8.62-1.4-3.92,1.69-5.32,5.52-6.54,9.32a40.07,40.07,0,0,1-2.51,6.15,59.14,59.14,0,0,0-2.89,6.07c-1.56,4.25-.8,8.21.65,12.37,1.32,3.75,3.19,7.94,1.79,11.93-.76,2.15-2.41,3.79-3.73,5.59a25.77,25.77,0,0,0-3.21,5.93,51.65,51.65,0,0,0-2,6.77,44.07,44.07,0,0,0-1.35,6.92c-.29,3.77,1.39,7.53,5.54,7.93a6.07,6.07,0,0,0,5.33-2c1.43-1.89.77-4.33,1.55-6.43a3.7,3.7,0,0,1,.95-1.53c.86-.69.07-.13.28,0a6.75,6.75,0,0,1,.67.64c1,1.13,1.83,2.38,2.74,3.56l5.68,7.41c.43.56,2.69-.07,2.8-.75.64-4.32,1-8.78,2-13.05a8.21,8.21,0,0,1,.33-1c.09-.28.59-.45,0-.31s-.07.09.12.25a7.49,7.49,0,0,1,1.66,1.57c.85,1.27.92,2.75,1.22,4.21.56,2.73,2,5,5.12,4.55a5.83,5.83,0,0,0,5-6.46c-.19-2.15-1.14-4.16-1.36-6.3-.14-1.37.07-4.05,1.6-4.72l-2-.05,4,7.14c1,1.71,1.88,3.59,3.72,4.53a4.42,4.42,0,0,0,4.76-.67c1.55-1.4.82-4,.56-5.85a62.29,62.29,0,0,0-10.21-26.18c-2.58-3.78-6.06-7.15-7.84-11.42a9.52,9.52,0,0,1-.51-6.58c.69-2.14,2.12-3.92,3.32-5.79,2.07-3.24,2.87-6.73,1.21-10.35a12.36,12.36,0,0,0-8-6.78C52,63.37,43.27,71,42.8,79.62c0,.61,2.84.2,2.89-.78Z"/><path class="cls-24" d="M65,127.76c.46,1.58,1,3.31,2.55,4.17a4.38,4.38,0,0,0,4.17,0c1.67-.92,1.75-2.58,1.45-4.27-.38-2.14-.78-4.32-1.26-6.44-.63-2.72-2.64-5.73-5.83-4.51a3.64,3.64,0,0,0-2.37,3.23c-.08,1.82,1.18,3.25,2.37,4.47a1.84,1.84,0,0,0,2.53-.23,7.81,7.81,0,0,0,1.46-6.72c-.52-2.13-2.33-4.92-4.8-4.9-2.95,0-3.37,2.93-2.79,5.2a21.41,21.41,0,0,0,4.29,8.29c.73.87,3,.24,2.78-1a37.23,37.23,0,0,0-6.08-15.39c-.67-1-2.93-.18-2.77,1A39.7,39.7,0,0,0,64.88,124c.51,1,3.18.13,2.78-1L64,112.38c-.46-1.32-3-.52-2.9.77a75.72,75.72,0,0,0,2.66,15.1l2.78-1-5.6-10.08c-.49-.87-2.86-.27-2.8.75a31.18,31.18,0,0,0,2.81,11.35c.55,1.19,3.36.47,2.89-.78a42.17,42.17,0,0,0-5.75-10.54c-.74-1-2.85-.17-2.78,1a35.52,35.52,0,0,0,2.64,11.26c.5,1.21,3.2.55,2.9-.78a50.56,50.56,0,0,0-4.58-12.29c-.53-1-2.62-.17-2.79.75a29.7,29.7,0,0,0,0,10.88c.23,1.21,2.92.6,2.91-.51A34,34,0,0,0,55,118.46c-.37-1.22-2.78-.59-2.92.51a53.49,53.49,0,0,0,0,13.79c.15,1.2,2.93.59,2.91-.51l-.19-8.51c0-1.46-2.91-1-2.93.24a91.27,91.27,0,0,1-2,17.44c-.28,1.36,2.48,1,2.85,0L56.51,132c.86-2.16,1.67-5.73,3.89-6.94l-2.08-.43a7.49,7.49,0,0,1,.92,2.93,2.32,2.32,0,0,1-.26,1.1,1,1,0,0,1-.37.32c.22,0,.19-.07-.09-.2l-.17,1.44c2.23-1.78,5.31,1.5,4.95,3.8l2.59-.94c-1.28-1.11-3.51-.2-4.21,1.18-.91,1.76.89,3.12,2.26,3.85.73.39,3,.05,2.57-1.2a13.79,13.79,0,0,0-2.94-5.2c-.79-.87-2.9-.26-2.78,1a19,19,0,0,0,3.48,9.3c.71,1,2.86.16,2.78-1a100.83,100.83,0,0,0-1.56-12l-2.9.78a48.75,48.75,0,0,1,2.34,12.88c.07,1.47,3,1,2.93-.24A153.65,153.65,0,0,1,68.57,122l-2.8.75L76.5,137.27c.57.75,2,.38,2.54-.23,1.69-2,1.66-4.56,1.27-7a45.72,45.72,0,0,0-2.15-8.39,49,49,0,0,0-8.6-15,1.78,1.78,0,0,0-2.79.75l-1,6.82c-.09.59-.13,1.2-.27,1.78a2.26,2.26,0,0,1-.22.68l.37-.31a7,7,0,0,0-1.77-1.86,9.29,9.29,0,0,0-9.49-1.11L55.62,115l3.57-1.8-1.58-1.44-4.44,2.86c-1.13.73-.17,1.66.81,1.64a8.59,8.59,0,0,0,7.8-6.39c1.16-4.12-.24-9.2-2-13-1.57-3.47-4.72-6.38-8.79-5.81-3.63.5-5.67,3.6-6,7C44.73,102,46,106,47.63,109.4a30.08,30.08,0,0,0,3.31,5.43c1.2,1.55,2.64,3,4.64,3.38,3.58.64,6.36-2.23,7.49-5.34,1.42-4,1.21-8.66.32-12.7C62.91,98,62.22,95.58,60.62,94a6.67,6.67,0,0,0-5.69-1.85c-4.87.58-7.61,4.62-9.82,8.55-.76,1.34,2,1.36,2.58.54a16.85,16.85,0,0,1,8.94-6.45c1.46-.43,1.59-2-.12-2-1.95,0-5.28-.49-4.68-3.25l-2.8.75,3.58,3.93a1.7,1.7,0,0,0,2,.19,23,23,0,0,0,7.26-6.76c2-2.72,3.79-5.78,4.19-9.18a8.86,8.86,0,0,0-2.83-7.88,7.5,7.5,0,0,0-7.85-1.44l1.59,1.44c1.64-1.21,3.82-.39,4.92,1.16.72,1,3.5-.07,2.66-1.26-2.14-3-6.64-3.26-9.49-1.15-.46.34-.7.89-.27,1.35s1.32.29,1.85.09c1.95-.73,4.09.95,5.17,2.41a8.22,8.22,0,0,1,1,7.17,21.2,21.2,0,0,1-3.85,7.15,19.09,19.09,0,0,1-5.62,5.27l2,.19L51.69,89a1.78,1.78,0,0,0-2.79.75,3.86,3.86,0,0,0,1.86,4c1.62,1,3.63,1,5.48,1l-.12-2a20.28,20.28,0,0,0-10.84,7.56l2.59.54C49.29,98.4,51,95.2,54,94.3c3.39-1,5.25,2.06,6.08,4.86a26.28,26.28,0,0,1,.86,10.69,12,12,0,0,1-1,3.81c-.46.94-1.23,2.27-2.33,2.54-1.36.34-2.64-1.08-3.41-2a27.83,27.83,0,0,1-6-13.29c-.33-2.2-.3-5.13,1.26-6.9,2.12-2.41,5.41.11,6.73,2.11a18,18,0,0,1,2,5,21.91,21.91,0,0,1,1.1,6c0,3-1.43,7.07-5,7.13l.81,1.65L59.51,113a.85.85,0,0,0,.27-1.34,1.72,1.72,0,0,0-1.85-.09l-3.58,1.79c-.51.26-1.11.85-.7,1.44s1.42.42,2,.19a5.72,5.72,0,0,1,5.27.59c1.54,1,2.31,3,4.38,3s3-1.85,3.24-3.69c.41-2.6.79-5.2,1.19-7.8l-2.8.75a47.24,47.24,0,0,1,10.22,21.25c.43,2.22,1.12,5.2-.49,7.12l2.53-.23L68.43,121.53c-.63-.84-2.69-.31-2.79.75a155.37,155.37,0,0,0-.71,20.35l2.93-.24A50.64,50.64,0,0,0,65.49,129c-.41-1.27-3.15-.53-2.9.78a100.56,100.56,0,0,1,1.56,12l2.78-1a17.93,17.93,0,0,1-3.24-8.82l-2.78,1a12.42,12.42,0,0,1,2.7,4.73l2.57-1.21a5.71,5.71,0,0,1-1.34-.87,2.37,2.37,0,0,1-.41-.6.29.29,0,0,1,0-.33c.14-.36-.12-.35-.76,0a1.83,1.83,0,0,0,2.59-.93c.81-5.12-6.2-7.66-9.79-4.81-.49.39-.74,1-.17,1.44,1.46,1.15,3.73.53,4.92-.73,1.59-1.69.88-3.95,0-5.83a1.52,1.52,0,0,0-2.08-.42c-2.72,1.48-3.75,4.16-4.84,6.89L50,141.15l2.84,0a91.27,91.27,0,0,0,2-17.44l-2.93.24.19,8.51L55,132a51.63,51.63,0,0,1,0-13.26l-2.91.51a32.18,32.18,0,0,1,1.4,9.29l2.92-.51a28,28,0,0,1,0-10.36l-2.8.75a48.34,48.34,0,0,1,4.34,11.82l2.9-.78a35.19,35.19,0,0,1-2.64-11.26l-2.78,1a39.74,39.74,0,0,1,5.52,10.06l2.89-.78A30.23,30.23,0,0,1,61,117.67l-2.79.75,5.6,10.07c.55,1,3.11.16,2.78-1A75.26,75.26,0,0,1,64,112.38l-2.9.77,3.69,10.56,2.78-1a38.58,38.58,0,0,1-4-12.83l-2.78,1a36.08,36.08,0,0,1,5.85,14.92l2.77-1a20,20,0,0,1-3.28-5.44,16.18,16.18,0,0,1-1-3.18,3.62,3.62,0,0,1-.07-.93,3.82,3.82,0,0,1,.09-.59q.32-.62-.24.18c0,.1.83.73.94.87a5.26,5.26,0,0,1,.55.76,6.57,6.57,0,0,1,.84,2.39,5.9,5.9,0,0,1-1.1,4.53l2.54-.23a6.8,6.8,0,0,1-2-2.78c-.1-.36-.18-1.8.22-1.89s1.13,1.12,1.28,1.39a8.62,8.62,0,0,1,.85,2.52,59.58,59.58,0,0,1,1.31,6.83c0,.37.11,1.11-.29,1.17s-.74-.37-.91-.54A6.5,6.5,0,0,1,67.9,127c-.37-1.29-3.26-.51-2.9.77Z"/><path class="cls-24" d="M41.79,96.57A10.21,10.21,0,0,0,45.06,109c.5.35,2.77-.17,2.82-.87a10.38,10.38,0,0,0-3.25-8.32c-.38-.37-3,.26-2.82.87.9,3.62,3.13,6.59,5.47,9.42,2.15,2.59,5.27,5.49,5.81,9a3.35,3.35,0,0,1-2.4,4,13.12,13.12,0,0,0-4.09,1.83c-3.33,2.66-1.31,7,.41,10l2.64-.93-3.94-.58c-.32-.05-2.94.35-2.64.93.73,1.45,1.89,3.11,3.65,3.27a4.94,4.94,0,0,0,4.53-2.16c2.37-3.55,5.6-6.31,9.94-7l-.55-.66a17.8,17.8,0,0,0-7.36,5.71c-.28.37.92.27,1,.26a3.69,3.69,0,0,0,1.76-.65c1.48-1.18,3.05-2.69,5-1.79s1.8,2.75,2.49,4.38c.59,1.42,1.8,1.56,3.17,1.13.7-.21,2.52-1.18,1.4-2-.61-.47-3.1.69-2.74,1a.36.36,0,0,1,.12.52c1.41,0,1.85-.2,1.32-.71-.15-.39-.42-.74-.56-1.17a16.4,16.4,0,0,0-.7-2.26,4.06,4.06,0,0,0-3.24-2.21c-3.36-.47-6.39,1.44-8.9,3.43l2.73-.39a15.09,15.09,0,0,1,6.17-4.87c1.17-.49.23-.77-.55-.66a19.79,19.79,0,0,0-9.66,4.2,16.69,16.69,0,0,0-3.4,3.81c-.1.17-.86,1.11-.85,1.2.71-.16.81-.31.33-.47a3.13,3.13,0,0,1-.42-.29A7.18,7.18,0,0,1,46,133.49l-2.64.93,3.94.57c.31,0,3-.38,2.65-.93-1.73-2.93-4.13-8.38.51-10,2.78-1,6.15-2.08,5.57-5.74-.54-3.48-3.66-6.38-5.81-9-2.34-2.82-4.57-5.79-5.47-9.42l-2.81.87A10.17,10.17,0,0,1,45,108.91L47.8,108a9.9,9.9,0,0,1-3.16-12c.18-.38-2.51-.2-2.85.53Z"/><path class="cls-24" d="M36.91,99.4,30,104.83c-.43.33-.82,1-.19,1.39a2,2,0,0,0,2.07-.21l6.9-5.43c.42-.33.81-1,.19-1.38a2,2,0,0,0-2.07.2Z"/><path class="cls-24" d="M31,111.3a20.35,20.35,0,0,0,11.27-10.4c.55-1.2-1.37-1-2-.8a33.84,33.84,0,0,0-12.82,8.67.65.65,0,0,0,.18,1.14,2.21,2.21,0,0,0,1.93-.28,30.49,30.49,0,0,0,10.65-10.1c.34-.53-.21-.9-.66-1a2.26,2.26,0,0,0-1.89.58,133.57,133.57,0,0,0-10.55,11.25c-1,1.17,1,1.44,1.78,1A34.17,34.17,0,0,0,40.7,101c.39-.56-.35-1-.83-1-3.86,0-7.23,1.71-10.29,4-2.06,1.51-6.57,4.25-4.93,7.42,1.81,3.5,7,0,9.1-1.35a39.63,39.63,0,0,0,8.64-7.65L40,101.71a33.17,33.17,0,0,1-10.8,8.6l1.78,1a10.86,10.86,0,0,1,11.89-2.44l1.73-1.74c-2.76-.77-4.83-3.08-7.89-2.69-2.12.27-4.61,1.62-4.36,4.06.05.5.93.57,1.28.53a21.9,21.9,0,0,1,7.94.52l1.4-1.8a6.5,6.5,0,0,1-5.2-3l-2.2,1.47,6.64,2.29c.59.21,3.12-.57,2.2-1.47A8.9,8.9,0,0,1,42,102.73l-2.78,1L50.91,116.3c.78.83,3.54-.27,2.67-1.2L41.84,102.52c-.64-.69-3.07-.19-2.78,1a9.8,9.8,0,0,0,2.7,4.77l2.2-1.47-6.64-2.3c-.71-.24-2.92.42-2.21,1.47a8.56,8.56,0,0,0,6.81,3.66,2.13,2.13,0,0,0,1.81-.72.65.65,0,0,0-.41-1.07,25.79,25.79,0,0,0-9.34-.62l1.29.53c-.17-1.62,1.65-1.6,2.69-1.17,1.7.69,3.14,1.82,4.93,2.32,1,.28,3.42-1.07,1.73-1.74a15.13,15.13,0,0,0-16,3.53c-1.1,1.14,1.08,1.39,1.79,1a36.72,36.72,0,0,0,12-9.38c1.13-1.36-1.64-1.5-2.37-.65a37.21,37.21,0,0,1-5.74,5.55,36.52,36.52,0,0,1-3.44,2.34c-.81.5-2.71,2-3.38.76-1.17-2.24,2.71-4.44,4.14-5.47,2.11-1.53,4.51-3,7.2-3l-.83-1A30.27,30.27,0,0,1,27.67,110l1.79,1A135.12,135.12,0,0,1,40,99.76l-2.55-.41a27.9,27.9,0,0,1-9.77,9.21l2.11.86a30.55,30.55,0,0,1,11.66-7.9l-2-.8a17.51,17.51,0,0,1-9.75,9.15c-.48.19-1.12.78-.73,1.31s1.43.31,1.94.12Z"/><path class="cls-24" d="M67.87,101.73l2,1,1.71-1.57a2.54,2.54,0,0,1-2.44-2.52l-2.8,1,3.79,2.88a2,2,0,0,0,1.93.06c.33-.15,1.25-.76.76-1.21l-5-4.62L65.28,98a25.31,25.31,0,0,1,9.8,7.49c1.35,1.66,3,2.91,5.26,2.58,1.88-.28,3.52-1.58,3.35-3.59-.15-1.78-1.44-3.47-1-5.28l-2.9.34c-.36,1.68-1.54,7-4.27,5.14L75,106c3.19-1.29,7.92-3.75,6.77-8-.28-1.07-2.71-.28-2.9.56a7.21,7.21,0,0,1-5.44,5.6l1.37,1a9.36,9.36,0,0,1,5.12-1.92l-1.26-.45a9.33,9.33,0,0,1-.54,4.25l2.79-.75-1-1.49c-.55-.85-3.36.11-2.68,1.15l1,1.49c.27.41,1.17.29,1.55.19a1.74,1.74,0,0,0,1.24-.94,10,10,0,0,0,.54-4.67c-.06-.5-1-.48-1.27-.45a14.41,14.41,0,0,0-7.83,3.06.57.57,0,0,0-.07.92,1.82,1.82,0,0,0,1.45.11,10.2,10.2,0,0,0,7.94-7.48l-2.9.56c.89,3.3-2.57,5-5,6-.55.22-1.27.86-.57,1.35,1.93,1.33,4.74.59,6.46-.74,1.93-1.48,2.54-3.92,3-6.18.24-1.16-2.65-.66-2.9.34-.46,1.84.61,3.51.93,5.27a2.27,2.27,0,0,1,0,1.13c0,.08-.16.31-.17.38s-.3.12.06.09c-.91.07-1.73-.79-2.28-1.4a39.59,39.59,0,0,0-4.78-4.91,25.76,25.76,0,0,0-6-3.54,2.28,2.28,0,0,0-1.89.17c-.31.17-1.05.71-.6,1.13l5,4.61,2.69-1.15L69,98.44c-.72-.55-2.87-.2-2.79,1a4,4,0,0,0,4.23,3.45,2.61,2.61,0,0,0,1.72-.59c.3-.3.44-.75,0-1l-2-1a2.26,2.26,0,0,0-2.06.26c-.4.25-.86.86-.24,1.18Z"/></g><g id="Layer_5" data-name="Layer 5"><path class="cls-24" d="M37.65,97.76l-1.8,2.45,2.7.38a165,165,0,0,1,7.56-22.8,41.14,41.14,0,0,1,2.4-5.33,7.89,7.89,0,0,1,3.91-3c2.72-1.24,5.82-2.34,8.84-2.1a6.68,6.68,0,0,1,6.1,5c.77,3,0,6.22-.94,9.06-1.83,5.46-5.46,12.79-1,18,3.75,4.44,11.87,3.77,15-1.12l-2.33.4a5.26,5.26,0,0,1,2.11,5.93A4.26,4.26,0,0,1,75,107.36c-.7-.21-2.8.26-2.28,1.41,4.31,9.5,5.63,19.94,6.14,30.27l2.58-1A28.87,28.87,0,0,1,73,129.74c-.6-.92-2.32-.42-2.71.46-1,2.19-.56,4.51-.14,6.78.35,1.91,1,4.87-.89,6.19-2.19,1.47-4.78-.55-6-2.32-1.32-2-1.66-4.4-3-6.35a4.58,4.58,0,0,0-5.23-1.92,5.17,5.17,0,0,0-3.31,4.35c-.38,2.2.31,4.2.65,6.35.2,1.27.52,5.05-1.74,4.71-1.41-.22-2.59-1.73-3.33-2.82s-1.25-2.3-1.94-3.41c-1.43-2.28-3.44-4.15-6.29-4-.76.05-1.73.62-1.56,1.51.32,1.67,1.09,5.86-1.33,6.47a3.4,3.4,0,0,1-2.77-1,5.8,5.8,0,0,1-1.66-3.91c-.22-3,.72-6.16,1.56-9A54.93,54.93,0,0,1,36.87,123q1.07-2.13,2.32-4.16a17.05,17.05,0,0,0,2.07-4c.66-2.17.05-4.88-2.22-5.87-2.85-1.25-5.26,1.28-7.41,2.76-1.82,1.26-5.14,2.63-6.68.12-1.87-3.05,2.66-6,4.66-7.43l9.7-7a1,1,0,0,0,.13-1.58,1.83,1.83,0,0,0-2.08.15l-10.1,7.33c-2.33,1.69-5.31,3.9-5.64,7s2.31,4.92,5,5.17c3.27.3,6-1.57,8.48-3.43.5-.38,1.32-1.25,2-1.15s1.05.86,1.25,1.35c.7,1.66-.28,3.43-1.14,4.83a66.78,66.78,0,0,0-4.89,9.33,55.53,55.53,0,0,0-3,10c-.62,3-1,6.81,1.24,9.33,2,2.24,5.56,3.1,8.08,1.22,2.68-2,2.38-5.57,1.82-8.49L38.89,140c2.44-.16,4,3.06,4.9,4.87,1.16,2.19,2.89,4.54,5.43,5.19A5,5,0,0,0,55,147.38c.93-2.11.4-4.66-.11-6.8-.36-1.51-.84-4.53.58-5.72,1.58-1.32,3,2.57,3.4,3.53.92,2.39,2,4.74,4.17,6.22a7.36,7.36,0,0,0,7.12.61c2.54-1.19,3.5-3.68,3.28-6.34s-1.52-5.67-.37-8.29l-2.71.46a30.33,30.33,0,0,0,8.82,8.77c.71.46,2.63.19,2.58-1C81.26,128.33,80,117.68,75.6,108l-2.27,1.41A8,8,0,0,0,82.46,106a6.91,6.91,0,0,0-2.24-9,1.84,1.84,0,0,0-2.34.39,6,6,0,0,1-6.08,2.71,6.33,6.33,0,0,1-5.33-5.24c-.7-3.3.45-6.8,1.58-9.88a34.81,34.81,0,0,0,2.5-9.15,10.13,10.13,0,0,0-2.34-8,10.16,10.16,0,0,0-8.09-2.79,25.59,25.59,0,0,0-9,2.52,12.21,12.21,0,0,0-4.18,2.75A16.61,16.61,0,0,0,44.34,75a169.58,169.58,0,0,0-8.74,25.77c-.35,1.39,2.19,1.07,2.7.38l1.8-2.45c1.11-1.5-1.61-2.08-2.45-.95Z"/><path class="cls-24" d="M47,85.49,47.62,90c0,.17.42.19.5.19a3.19,3.19,0,0,0,.87-.1,4.22,4.22,0,0,0,.91-.3c.18-.09.53-.23.59-.44a5.48,5.48,0,0,0-.84-4.89c-.27-.36-1-.17-1.37-.09a2.43,2.43,0,0,0-1.5.73,4.82,4.82,0,0,0-.5,4.25c.14.39,1.13.15,1.37.09a4.41,4.41,0,0,0,.91-.3c.19-.09.5-.22.59-.43a4.93,4.93,0,0,0-.32-4.48c-.23-.37-1-.16-1.37-.09a4,4,0,0,0-.91.3,1.4,1.4,0,0,0-.6.44A3.66,3.66,0,0,0,46,88.57c.25.41,1.2.14,1.56,0a3.88,3.88,0,0,0,1-.4c.16-.1.34-.22.34-.42l.1-5.15-2.9.78v3.66c0,.17.44.19.5.19a3.13,3.13,0,0,0,1.06-.15,3.55,3.55,0,0,0,1-.4c.16-.09.34-.22.34-.42l0-3.66c0-.17-.45-.19-.51-.19a3.47,3.47,0,0,0-1.06.14,3.88,3.88,0,0,0-1,.4c-.15.1-.34.22-.34.43L46,88.57l2.89-.78a3.37,3.37,0,0,1-.1-3.39l-2.88.65a4.59,4.59,0,0,1,.37,4.21l2.87-.64a4.48,4.48,0,0,1,.46-4l-2.87.64a5.35,5.35,0,0,1,.88,4.64l2.88-.65-.59-4.55c0-.17-.42-.19-.51-.19a3.82,3.82,0,0,0-1.06.15,3.55,3.55,0,0,0-1,.4c-.14.09-.37.23-.34.42Z"/><path class="cls-24" d="M55.22,83.32l1.61,5.23a1.28,1.28,0,0,0,1.53.71,1.81,1.81,0,0,0,.89-.37,1.2,1.2,0,0,0,.5-.82,13.74,13.74,0,0,0-1.67-6c-.24-.46-1-.51-1.41-.44a1.69,1.69,0,0,0-1.3.89,8.74,8.74,0,0,0-.57,5.43c.12.55.85.79,1.34.74a1.8,1.8,0,0,0,1.51-.93,6.47,6.47,0,0,0,.43-3.56c0-.29-.38-.54-.62-.64a1.83,1.83,0,0,0-1.11,0,1.4,1.4,0,0,0-1.17,1.45s0,.46,0,.19c0,.1,0,.19,0,.29a6.13,6.13,0,0,1,0,.74c0,.11,0,.22,0,.33s0,.13,0,.2v0c0-.14-.07.2-.08.23s-.09.24-.14.36l2.84-.19c0-.19-.08-.38-.11-.57l0-.29c0-.26,0,.16,0-.09a8.11,8.11,0,0,1,0-1.21,5.77,5.77,0,0,1,.08-.58l.06-.28s.08-.33,0-.19l0-.18c0-.09.06-.18.1-.27s.15-.39.24-.59l-2.72.46.18.35s.16.32.05.09q.15.31.27.63a11.87,11.87,0,0,1,.74,2.67c0,.23.07.46.09.68,0,.06,0,.35,0,.1,0,.13,0,.27,0,.4l2.93-.48-1.61-5.23c-.21-.7-1.12-.86-1.73-.68s-1.39.73-1.17,1.45Z"/><path class="cls-24" d="M53.19,99.2a17.11,17.11,0,0,0,2.39,12.2c.26.41,1.18.27,1.54.17s1.14-.41,1.25-.92A14,14,0,0,0,55.44,98.9c-.54-.66-2.7-.15-2.79.75a19.19,19.19,0,0,0,1.17,8.78c.39,1,2.66.28,2.9-.57a9.58,9.58,0,0,0-2.87-9.65c-.66-.58-2.6-.21-2.79.75a10.85,10.85,0,0,0,2.34,9.14c.65.76,2.5.05,2.8-.75A10.81,10.81,0,0,0,55,97.58c-.25-.36-1-.28-1.35-.22a2.09,2.09,0,0,0-1.35.75,7.78,7.78,0,0,0,2.39,10.57c.69.43,2.39,0,2.6-.89.9-3.58,1.64-8.32-2.17-10.53a2.22,2.22,0,0,0-2.5.67,8.61,8.61,0,0,0,2.19,10.58,2,2,0,0,0,2.79-.74c.49-1.36,1-3,.46-4.37a3.23,3.23,0,0,0-3-2.09,2.27,2.27,0,0,0-1.91.8c-.34.59.3.86.8.89.74,0,1.23,1.08,1.35,1.69a6.69,6.69,0,0,1-.62,3.43l2.79-.75A7.73,7.73,0,0,1,55.3,98l-2.5.67c3.3,1.91,2.32,6.47,1.57,9.45l2.6-.89a6.83,6.83,0,0,1-2-9.06l-2.69.53a9.94,9.94,0,0,1,1,9l2.79-.75A9.92,9.92,0,0,1,54,98.61l-2.79.75a8.73,8.73,0,0,1,2.65,8.85l2.9-.56a18.17,18.17,0,0,1-1.17-8.35l-2.79.74a13.1,13.1,0,0,1,2.71,11l2.79-.75a16.11,16.11,0,0,1-2.17-11.4c.21-1.14-2.72-.67-2.9.35Z"/></g><polygon class="cls-25" points="185.19 53.2 102.14 5.26 19.09 53.2 19.09 149.1 102.14 197.05 185.19 149.1 185.19 53.2"/></g></svg>