<svg xmlns="http://www.w3.org/2000/svg" viewBox="0 0 200 200"><defs><style>.cls-1{opacity:0.84;}.cls-2{fill:#ffebba;}.cls-3{fill:#e6e7e8;}.cls-4{fill:#373014;}.cls-5{fill:#ffe0a2;}.cls-6{fill:#292728;}.cls-7{fill:#a1d8cc;}.cls-8{fill:#8baeaa;}.cls-9{fill:#231f20;}.cls-10{fill:#e54225;}</style></defs><g id="Layer_18" data-name="Layer 18"><polygon class="cls-2" points="183.7 51.96 100.65 4.01 17.6 51.96 17.6 147.85 100.65 195.8 183.7 147.85 183.7 51.96"/><path class="cls-3" d="M100.65,199.26,14.6,149.58V50.23L100.65.55l86,49.68v99.35ZM20.6,146.12l80.05,46.22,80-46.22V53.69l-80-46.22L20.6,53.69Z"/><polygon class="cls-4" points="183.7 147.85 100.65 112.5 17.6 147.85 100.65 195.8 183.7 147.85"/><polygon class="cls-5" points="100.65 112.5 100.65 4.01 17.6 51.96 17.6 147.85 100.65 112.5"/></g><g id="Layer_20" data-name="Layer 20"><path class="cls-6" d="M74.9,55c.61-3.28-1.89-6-4.79-7.12-3.32-1.26-6.9-.18-9.58,2-3.07,2.5-5,6.18-6.24,9.86A45.26,45.26,0,0,0,52,73a85.29,85.29,0,0,0,.76,13.83c.61,4.89,1.43,9.75,2.43,14.57s2.19,9.7,3.57,14.47a36.16,36.16,0,0,0,4.32,10.36c1.76,2.62,4.23,4.88,7.46,5.34,3.77.53,7.47-1.45,9.8-4.33,2.8-3.47,3.79-8,4.63-12.33a96.85,96.85,0,0,0,1.7-13.68,99.2,99.2,0,0,0-2.46-27.75A96.59,96.59,0,0,0,80,60.12a29.57,29.57,0,0,0-5.59-9.68,10.52,10.52,0,0,0-9.07-3.65c-3.58.47-6.48,2.87-8.54,5.72a38,38,0,0,0-5.15,11.2A71.93,71.93,0,0,0,49,77.1a134.52,134.52,0,0,0,.35,27.58c.46,4.65.89,9.35,1.78,13.95a30.15,30.15,0,0,0,4.77,12.12,17,17,0,0,0,8.92,6.65,16.59,16.59,0,0,0,10.8-.83,21.49,21.49,0,0,0,8.93-6.87,31.32,31.32,0,0,0,5.18-11.44,65.72,65.72,0,0,0,1.63-12.89,93.3,93.3,0,0,0-.4-13.58A85.08,85.08,0,0,0,84,65.68a49.8,49.8,0,0,0-6.26-10.84c-2.29-2.84-5.3-5.38-9-5.92-7.87-1.14-13,6.41-15.61,12.75A71.59,71.59,0,0,0,48.24,88a150.23,150.23,0,0,0,2.69,27.58c.78,4.41,1.66,8.8,2.56,13.19l1-.26a80.2,80.2,0,0,1-5.1-37.32l-1,.26a73.45,73.45,0,0,0,7.51,30.33,71.81,71.81,0,0,0,4.44,7.77c.15.23,1.06-.05,1-.25a127.44,127.44,0,0,1-8.93-26.46q-.84-3.84-1.44-7.73l-1,.26L58.07,121l2.29,7.25,1-.26-9.19-17.67c-.12-.22-1,0-1,.26,1.14,5.27,2.31,10.76,5.39,15.29,2.55,3.73,6.38,6.74,11,7.2a16.26,16.26,0,0,0,11.84-4.12,22.25,22.25,0,0,0,7.13-12.29c1.38-6,1-12.3.57-18.42,0-.21-1,0-1,.26a96.48,96.48,0,0,1-3.57,23.94c-.61,2.19-1.31,4.37-2.08,6.51-.09.26.83,0,1-.16A52.58,52.58,0,0,0,90,97.31a50.79,50.79,0,0,0-1.32-9.25c0-.23-1,0-1,.26a52.48,52.48,0,0,1-2.79,32.35,50.88,50.88,0,0,1-4.42,8.23l1-.16a96.92,96.92,0,0,0,5.26-23.6c.22-2.31.35-4.63.41-7l-1,.26c.65,9.66,1.32,20.91-5.67,28.62-2.89,3.19-7,5.69-11.39,5.58s-8.38-2.86-11-6.35c-3.48-4.64-4.73-10.47-5.92-16l-1,.26,9.19,17.67c.12.23,1,0,1-.26l-8.09-25.56-2.3-7.26c-.07-.24-1,0-1,.26a127.18,127.18,0,0,0,7.27,27c1,2.44,2,4.85,3.09,7.22l1-.25a73.44,73.44,0,0,1-11.16-29.18,72.24,72.24,0,0,1-.79-8.93c0-.2-.94,0-1,.26a81.11,81.11,0,0,0,2.46,29.34,80.13,80.13,0,0,0,2.64,8c.09.24,1,0,1-.26C52.68,119.87,51,111.19,50,102.41a101,101,0,0,1,.09-26.17,65.42,65.42,0,0,1,3.12-12.47,31.62,31.62,0,0,1,5.44-10.13C61,50.88,64.26,48.81,68,49.33s6.65,3.14,8.89,5.93A49,49,0,0,1,83,65.84,80.69,80.69,0,0,1,87.35,78a90.19,90.19,0,0,1,3.09,25.59c-.16,8.18-1,17-5.38,24.11-3.86,6.38-11.52,11.46-19.21,9.42-8-2.13-12.06-10.44-13.62-17.93a131.16,131.16,0,0,1-1.79-13.28c-.45-4.4-.81-8.82-1-13.24a91.36,91.36,0,0,1,2.37-26.22,48.85,48.85,0,0,1,4.37-11.59c1.71-3,4.22-6.27,7.69-7.35s6.91.54,9.34,3a27.44,27.44,0,0,1,5.58,9.29,97.58,97.58,0,0,1,6.4,25.61,98.61,98.61,0,0,1-.68,26.69c-.7,4.21-1.46,8.68-3.4,12.52-1.78,3.52-5.2,6.93-9.45,6.61-3.31-.25-5.89-2.59-7.67-5.24a34.53,34.53,0,0,1-4.11-9.66A191.7,191.7,0,0,1,54,88.55c-1.2-8.67-1.82-17.71.44-26.26a26.52,26.52,0,0,1,5.21-10.76,11.7,11.7,0,0,1,4.5-3.32,7.14,7.14,0,0,1,5,0c2.84,1,5.37,3.74,4.78,6.94,0,.25.9.09,1-.16Z"/><path class="cls-6" d="M60.74,134.84l-2.46,10.51c-.1.43.86.22,1-.1l4.2-11.75c.14-.4-.8-.22-.94,0A73.78,73.78,0,0,0,56,148.79c-.12.39.86.26,1-.1l3.77-11.8-1,.1-1,5.94c-.08.43.82.24.94,0l3.48-7.78-.91-.06-2.74,7.11.94,0,2-6.23c.13-.4-.81-.23-.94,0l-4.1,8,.94,0,1.85-9.7c.08-.43-.87-.24-1,.1l-2.65,9.35,1-.1,2.29-10.31c.1-.45-.81-.22-.94,0a30.1,30.1,0,0,0-3.73,12.23c0,.45.9.25,1-.1l2-8.72c.1-.44-.86-.22-1,.1a29.55,29.55,0,0,0-1.9,9.71c0,.43.83.27.94,0l3.27-8.55c.19-.49-.74-.35-.91-.06l-3.34,5.86c-.25.43.73.38.91.06l3.34-5.86-.91-.06-3.27,8.55.94,0a29.31,29.31,0,0,1,1.91-9.71l-1,.1-2,8.72,1-.1a29.45,29.45,0,0,1,3.66-12.06l-.94,0-2.29,10.31c-.09.42.87.25,1-.1l2.65-9.35-1,.1L57.41,144c-.09.44.81.22.94,0l4.1-8-.94,0-2,6.23c-.13.38.82.28.94,0l2.74-7.11c.18-.48-.76-.39-.91-.06l-3.48,7.78.94,0,1-5.94c.07-.45-.87-.23-1,.1L56,148.79l1-.1a72.81,72.81,0,0,1,6.47-15.11l-.94,0-4.21,11.75,1-.1,2.45-10.51c.09-.4-.89-.27-1,.1Z"/><path class="cls-6" d="M66.92,139.64v5.9l1-.06-.14-6.83c0-.54-.89-.38-1,.06L65.49,145c-.09.48.84.41,1,0l1.83-6-1,0-1.15,5.2,1-.06.77-5.61c.07-.54-.87-.37-1,.06l-1.46,5.66,1-.07L67.93,138c.11-.47-.84-.41-1,0l-2.09,6.39c-.18.54.79.57.93.13l2.09-6.39-1,0-1.46,6.23c-.06.24.27.35.45.34a.54.54,0,0,0,.53-.41l1.46-5.65-1,.06-.77,5.61c-.07.53.88.38,1-.06l1.15-5.2c.1-.47-.84-.41-1,0l-1.83,6,1,0,1.29-6.33-1,.06.14,6.83c0,.53,1,.4,1-.06v-5.91c0-.52-1-.4-1,.07Z"/><path class="cls-6" d="M73.39,137.08l2.3,9.35c.11.42,1,.15,1-.25a24.8,24.8,0,0,0-2.46-9.13c-.18-.36-1.09-.15-1,.26l2,7c.12.41,1.08.15,1-.25l-1.3-4.78-.92.33,1.72,2c.2.25,1.09,0,.93-.33l-1.24-2.73c-.17-.37-1.1-.13-1,.26l.76,2.24c.14.4,1.1.13,1-.26l-.76-2.24-1,.26,1.24,2.73.93-.33-1.72-2c-.22-.26-1-.07-.93.33l1.29,4.77,1-.25-2-7-1,.26a24.61,24.61,0,0,1,2.46,9.12l1-.25-2.3-9.36c-.1-.4-1.07-.14-1,.26Z"/><path class="cls-7" d="M65,95.07a13.11,13.11,0,0,1,2,5c.09,1.06-.29,2.52-1.43,2.92-2,.71-2.77-5.86-3-7A151.66,151.66,0,0,1,59.54,70.6c-.11-3.21-.39-6.59.57-9.7.64-2.07,2.17-4,4.59-3,2.87,1.17,4.52,4.56,5.76,7.16A64.86,64.86,0,0,1,74.4,75.93,99.27,99.27,0,0,1,77.5,99c.12,3.82.13,7.67,0,11.49-.12,2.47-.42,5.65-2.19,7.46-2,2.05-5.11,1-6.92-.85-2.54-2.57-3.71-6.46-4.74-9.83A63.75,63.75,0,0,1,61,83.7a51.65,51.65,0,0,1,2-11.31c.32-1,.89-2.62,2.12-2.87s1.37,1.68,1.55,2.42a54.2,54.2,0,0,1,.13,23.81,59.39,59.39,0,0,1-1.63,5.94l4.57-.6A18,18,0,0,1,73.2,81.45l-3.93-3L60.92,91.73l4.32,2.52a67,67,0,0,0,7.33-23.4,2.51,2.51,0,0,0-3.16-2.41A22.8,22.8,0,0,0,57.21,79c-1.55,2.89,2.45,5.09,4.32,2.52,1.72-2.38,3.35-4.83,4.85-7.36,1.38-2.34,3.34-5.1,3.19-7.94a5,5,0,0,0-5.49-4.8c-3,.21-4.81,2.42-6.37,4.7L62.28,68l3.31-11.64-3.67,1.49a4.39,4.39,0,0,1,2,1.48c.33.38-.11-.2.2.26l.33.52c.24.4.45.81.65,1.23a1.82,1.82,0,0,1,.16.36c.1.24.19.49.28.74.18.51.35,1,.51,1.54.31,1,.58,2,.88,3.05,1.27,4.32,3,8.51,7.52,10.22l-1.75-1.74c2.86,12.49,4.57,28.21-6.47,37.4L70.42,114l-1.82-6.38c-.64-2.25-4.34-2.52-4.82,0a21.18,21.18,0,0,0,1.09,12.17A2.55,2.55,0,0,0,68,121.57a11.48,11.48,0,0,0,7.76-9.85c.3-2.79-4.36-3.41-4.91-.66L70,114.83a2.53,2.53,0,0,0,1.45,3,2.47,2.47,0,0,0,3.12-1l2.62-5.88-4.66-1.26-.92,8.2c-.25,2.2,2.87,3.23,4.27,1.77,5.7-6,8.06-14.14,8.08-22.25,0-9.09-2.91-17.73-6.19-26.09C75.79,66.11,73.67,61,72,55.74l-4.18,2.44a30.91,30.91,0,0,1,9.49,26.36,2.51,2.51,0,0,0,2.5,2.5,2.56,2.56,0,0,0,2.5-2.5,35.56,35.56,0,0,0-11-29.9c-1.74-1.63-5,0-4.17,2.43C72.11,72.64,82.35,88.7,78,105.62a23.31,23.31,0,0,1-5.62,10.43l4.27,1.77.92-8.2c.27-2.42-3.67-3.48-4.66-1.26l-2.62,5.88,4.57,1.92.76-3.77-4.91-.67a6.24,6.24,0,0,1-4.09,5l3.07,1.75A16.52,16.52,0,0,1,68.6,109H63.78l1.82,6.39a2.53,2.53,0,0,0,4.18,1.1c8.71-7.26,11-19.35,9.87-30.12A88.66,88.66,0,0,0,78.16,77c-.3-1.43-.38-3.53-1.77-4.35a9.72,9.72,0,0,1-1.75-1,10.27,10.27,0,0,1-2-3.43c-.6-1.62-1-3.3-1.52-5-1.13-3.81-2.74-8-6.63-9.78A2.54,2.54,0,0,0,60.77,55L57.46,66.68c-.81,2.83,3,4.2,4.57,1.92a8.67,8.67,0,0,1,1.51-1.85c.38-.31.64-.26,1-.4.57-.2,0,.35,0-.08,0,.14,0,.3,0,.45a5.46,5.46,0,0,1-.79,1.84A94.33,94.33,0,0,1,57.21,79l4.32,2.52a17.56,17.56,0,0,1,9.21-8.22l-3.17-2.41a60.33,60.33,0,0,1-6.65,20.88,2.5,2.5,0,0,0,4.32,2.52l8.35-13.31c1.51-2.41-2-5-3.93-3a23.18,23.18,0,0,0-4.31,25.7c1,2.09,4,1.27,4.57-.6a60.73,60.73,0,0,0,2.17-29c-.69-4.09-2-10-7.39-9.4-5.25.59-6.66,6.1-7.54,10.45a68.58,68.58,0,0,0,.34,28.81c1.74,7.68,5.28,20.57,15.32,20.27,9.66-.29,9.7-12.16,9.75-19.12a117.94,117.94,0,0,0-2.76-28,73.63,73.63,0,0,0-4.57-13.41c-1.7-3.74-3.92-7.79-7.69-9.79A8.13,8.13,0,0,0,56.8,56.31c-2.12,3-2.39,7.1-2.34,10.67a159.52,159.52,0,0,0,3.36,30.58c.8,3.83,1.64,9.39,6.29,10.32,4.88,1,8.36-4.09,7.85-8.49a18.7,18.7,0,0,0-2.64-6.84c-1.57-2.81-5.89-.29-4.31,2.52Z"/><path class="cls-8" d="M53.55,59.86c.21,11.62.16,23.28.69,34.9.47,10.36,2.43,21.36,9.81,29.18,1.87,2,4.2,3.9,7,4.38a7.34,7.34,0,0,0,7.39-2.87,2.52,2.52,0,0,0-.9-3.42,2.55,2.55,0,0,0-3.42.9c-.81,1.08-2.74.42-3.65-.11a15.64,15.64,0,0,1-4.24-4,31.07,31.07,0,0,1-5.27-11.34,66.33,66.33,0,0,1-1.75-14.39C59,87.89,59,82.7,58.87,77.53l-.32-17.67c-.06-3.21-5.06-3.22-5,0Z"/><path class="cls-8" d="M56.06,58.53,54,64.72a2.51,2.51,0,0,0,1.75,3.07,2.54,2.54,0,0,0,3.07-1.74l2.06-6.19a2.5,2.5,0,0,0-1.74-3.07,2.56,2.56,0,0,0-3.08,1.74Z"/><path class="cls-9" d="M58,49.77c-11.72,12-13.86,29.47-13.37,45.52.23,7.57.43,15.37,2,22.81,1.33,6.38,4.11,12.64,9.63,16.44,5.84,4,13.41,3.65,19.64.78,6.76-3.1,11.28-9.26,13.7-16.14,2.63-7.5,2.78-15.76,2-23.6C90.6,86.69,88.42,78,86,69.42c-2.1-7.55-4-16.25-10.29-21.5-2.85-2.36-6.46-4.09-10.25-3.88a12.47,12.47,0,0,0-9,4.41,9.74,9.74,0,0,0-2.17,4.73,2.58,2.58,0,0,0,1.74,3.07,2.52,2.52,0,0,0,3.08-1.74,6.31,6.31,0,0,1,4.46-5.09,9,9,0,0,1,7.86,1.52c5.8,3.93,7.43,11.65,9.19,18a186.62,186.62,0,0,1,5.45,23.56c1,7.07,1.33,14.52-.3,21.53-1.39,6-4.3,11.91-9.54,15.37-4.46,2.94-10.62,4.46-15.65,2s-7.5-7.52-8.81-12.7c-1.6-6.25-1.76-12.83-2.07-19.24-.72-14.51-.23-30.17,8.6-42.42a33.44,33.44,0,0,1,3.14-3.69c2.25-2.3-1.29-5.84-3.54-3.53Z"/><path class="cls-9" d="M108.9,45.34a33.31,33.31,0,0,0,15.56,18.54,32,32,0,0,0,6.46,2.68l-.13-.48c-2.61,3.15.4,7.24,3.22,9,3.41,2.13,8,2.06,11,5,1.66,1.68,2.1,4,2.68,6.2a29.1,29.1,0,0,0,3,7c2.77,4.83,5.79,9.52,8.69,14.27l10,16.3c.23.38,1.15,0,.88-.43q-8.66-14.16-17.31-28.32a41.33,41.33,0,0,1-3.54-6.75c-.83-2.18-1.08-4.58-2.11-6.69-1.84-3.75-6.09-4.68-9.7-5.92A10.85,10.85,0,0,1,132.06,72c-1.22-1.66-1.9-3.92-.46-5.66a.3.3,0,0,0-.13-.49,32.78,32.78,0,0,1-18.74-14.55,31.32,31.32,0,0,1-2.86-6.26c-.15-.45-1.12-.19-1,.26Z"/><path class="cls-9" d="M86.08,25.75A3.81,3.81,0,0,0,82.74,29c-.36,2.1.94,4,2.32,5.42,1.58,1.66,3.62,3.11,4.45,5.34s.2,4.36-.11,6.48-.32,4,1,5.68,3.1,2.67,2.92,4.83c-.26,3.26-4,5.47-3.62,8.89.24,2.2,2.38,3.32,4,4.39a5.82,5.82,0,0,1,2.34,2.5,2.33,2.33,0,0,1-.33,2.86c-.18.14-.08.3.1.37a.78.78,0,0,0,.68-.19c1.4-1.18.85-3.1-.11-4.38-1.19-1.58-3.2-2.17-4.58-3.52-3-2.93.54-6.3,1.85-9.06a4.37,4.37,0,0,0,0-4.3,14.5,14.5,0,0,0-2-2.24,5.39,5.39,0,0,1-1.43-2.73c-.38-2.07.31-4.19.51-6.25a7.52,7.52,0,0,0-1.62-5.76c-1.59-2-3.9-3.39-5-5.71a4.4,4.4,0,0,1-.33-3.28A2.67,2.67,0,0,1,86,26.31c.49,0,.79-.62.12-.56Z"/><path class="cls-9" d="M17.53,53.8c.9,1.83,2.71,2.76,4.5,3.53s3.91,1.38,5.19,2.93c2,2.4.18,5.3-.87,7.67a9.12,9.12,0,0,0,5.54,12.58l-.2-.25c-.54,3.1-3.45,4.83-5.3,7.11a8.09,8.09,0,0,0-1.9,3.85,4.83,4.83,0,0,0,1.28,3.84A32.11,32.11,0,0,1,28.32,98a10.64,10.64,0,0,1,1.42,3.28,12.66,12.66,0,0,1-.28,6.93,10.91,10.91,0,0,1-4.84,6.15.26.26,0,0,0-.06.45c.18.16.51,0,.69-.07,4.15-2.39,6.23-7.38,5.75-12a11.23,11.23,0,0,0-2.76-6.34c-1-1.11-2.3-2.14-2.69-3.66a5.56,5.56,0,0,1,1.25-4.56c1.93-2.67,5.26-4.46,5.86-7.94a.24.24,0,0,0-.2-.26A8.5,8.5,0,0,1,27.13,75a8.65,8.65,0,0,1-.71-3.54,9.33,9.33,0,0,1,1-3.82c1-2.26,2.5-4.86,1-7.28-1-1.62-2.9-2.39-4.57-3.09-2-.82-4.39-1.65-5.41-3.72-.19-.38-1.14-.09-1,.26Z"/><path class="cls-9" d="M64.35,45.18l-2.6-1.84-.75.54,2.58,1.64c.28.18,1.07-.06.82-.48l-2.73-4.61c-.21-.35-1.14,0-.89.42l2.73,4.61.82-.48-2.58-1.64a.66.66,0,0,0-.69.06c-.16.12-.25.34-.06.48l2.6,1.84c.33.24,1.18-.23.75-.54Z"/><path class="cls-9" d="M65.23,42.88c-3.07-1.75-7.8,1-7.49,4.58,0,.31.83,0,.93-.13L61.74,43l-.93.08c-1.11,4.34-6.8,6.42-10.39,3.67l-.75.42a7.63,7.63,0,0,1,5.41,9.13l1-.2L53,50l-.67.37a6.15,6.15,0,0,0,2.57-.29,26.86,26.86,0,0,0,2.62-2l5.32-4.12-.83.13a9.34,9.34,0,0,0,12.63-3l-.93.08-1.55,6.48,1-.2L71.8,44.39l-1,.26,8.64,13.83,4.28,6.86c1.4,2.24,2.92,4.44,4.17,6.76a6.41,6.41,0,0,1,1,3.58,3.11,3.11,0,0,1-1.75,2.75l.67,0a7.41,7.41,0,0,1,1.78-7.26l-.93.14a2.68,2.68,0,0,1-.84,3.4s-.14.13-.1.18l3.17,5.13.11-.18-3.07,2.2s-.14.13-.1.19a30.12,30.12,0,0,1,4,22.12l1-.2.35-9.59c0-.25-.92-.06-1,.2l-2.25,14c0,.32.92.15,1-.14l2.25-14-1,.2-.35,9.59c0,.25.91,0,1-.2a30.27,30.27,0,0,0-4-22.24l-.11.18L91.77,80s.13-.13.1-.18l-3.18-5.14-.1.19a3,3,0,0,0,1-3.77c-.14-.29-.77,0-.92.14a7.7,7.7,0,0,0-1.86,7.5c.07.22.55.07.66,0a4,4,0,0,0,2.29-4.55,9.84,9.84,0,0,0-1.45-3.3c-.74-1.21-1.5-2.41-2.25-3.61L76.94,52.62,71.8,44.39c-.16-.25-1.08,0-1,.26l1.3,3.06c.12.28.9,0,1-.2L74.64,41c.08-.33-.82-.09-.92.08a7.81,7.81,0,0,1-10.83,2.6.83.83,0,0,0-.84.13L54.11,50l.58-.19-2,.11c-.11,0-.8.14-.68.37l3.07,6.11c.13.27.89.06,1-.2a7.89,7.89,0,0,0-5.76-9.46c-.14,0-1,.22-.76.42,4,3.07,11,.76,12.25-4.17.09-.35-.82-.07-.92.08l-3.07,4.3.93-.13c-.25-2.92,3.11-5.4,5.74-3.9.24.13,1.14-.23.78-.43Z"/><path class="cls-9" d="M57.55,52.17a15.66,15.66,0,0,0-2.66-2.49l-3.21-2.13c-.2-.14-1,.23-.91.32L54,50.35c.2.15,1-.23.92-.32l-3.36-2.62c-.18-.13-1,.19-.91.32l2.5,2.49c.12.12,1-.1.94-.29a2.18,2.18,0,0,0-1.59-1.54c-.14,0-1,.22-.85.34l3.58,2.83c.16.13,1-.19.94-.28l-1.49-1.9-.8.31a8.08,8.08,0,0,0,6-2.71A7.24,7.24,0,0,0,61.6,43.8a10.87,10.87,0,0,0-.32-4.35l-1,.26,3.6,4.85c.14.19,1-.13,1-.26L62.57,40l-.94.29,4.48,4.49c.14.14,1-.19.94-.29l-2.14-3.2-1,.26c2.19,2.89,7.44,2.37,9.27-.68l-.95.18-1.07,3.71c-.06.18.85,0,1-.18l1.7-3.19c.06-.1-.82,0-1,.18l-2.17,3.68c-.06.11.81,0,1-.18l2-2.39-1,.18c-.55,2-3.57,1.1-3.41-.78a1.85,1.85,0,0,1,1.93-1.65c.36,0,1.23.35,1,.82a5.72,5.72,0,0,1-.83,1l-.84,1c-.1.12.75,0,.84-.09l1.76-1-.85.13,2.61,5,1-.26L74.5,44.7c-.11-.18-1,.09-1,.26l3,9.56c.06.19,1-.08,1-.26l-3-9.56-1,.26,1.35,2.37c.13.21,1-.14,1-.26l-2.62-5c-.1-.2-.71.06-.85.13l-1.75,1,.84-.09,1.82-2.21v0c-1.34-1.79-5.57-.34-5,2s4.71,1.81,5.28-.22c.06-.22-.84,0-1,.18l-2,2.39,1-.18,2.17-3.68-1,.18-1.7,3.19,1-.18,1.07-3.71c.05-.19-.85,0-.95.18a4.51,4.51,0,0,1-7.35.24c-.16-.21-1,.16-1,.26l2.14,3.2.94-.29L62.55,40c-.14-.13-1,.16-.94.29l2.31,4.31,1-.26-3.6-4.85c-.12-.17-1,0-1,.26a13.12,13.12,0,0,1,.43,3.63,6.81,6.81,0,0,1-1,2.85,6.35,6.35,0,0,1-5.19,3.13c-.08,0-.9.19-.8.32l1.49,1.89.94-.29-3.58-2.83-.85.34a2,2,0,0,1,1.42,1.44l.94-.29-2.51-2.49-.91.32L54,50.35l.92-.32-3.26-2.48-.91.32L54,50a16.54,16.54,0,0,1,2.66,2.5c.16.16,1-.19.91-.32Z"/><path class="cls-9" d="M43.12,77.11l2.66-4.33-.91-.08-3.13,6.9c-.22.5.73.38.92.08l1.92-3.07-.91-.08-1.2,2.4a.22.22,0,0,0,.08.31l3,1.45c.3.14,1.19-.17.75-.53l-3-2.49c-.26-.21-1.05.09-.82.47l1.93,3.2c.18.3,1,0,.92-.34l-.68-2-1,.26a14.38,14.38,0,0,1-5.5,17.84l.63.38a4.24,4.24,0,0,1,6,1.68l.88-.41-3.78-4.52a.61.61,0,0,0-.93.25,4.4,4.4,0,0,0,1.32,4.1c.23.22.88.13.93-.24l.67-6c0-.46-.82-.28-1,0a9.08,9.08,0,0,1-4.6,4.73l.52.45,7.45-4.93c.18-.12.24-.32.06-.46s-.52,0-.68.07a12.1,12.1,0,0,0-2.79,2.35A12.38,12.38,0,0,0,41.78,96c-.16.24-.31.5-.45.76s-.37.56-.37.79.63,1,.89,1.19a1.91,1.91,0,0,0,1.27.5c.82,0,1.8-.61,1.65-1.53-.07-.39-1-.17-1,.17a43.18,43.18,0,0,1-3.3,15.78c-.16.4.44.4.67.3a3.84,3.84,0,0,1,3.71.25c.25.16,1.12-.09.82-.46a8.72,8.72,0,0,1-1.88-4.83c0-.4-1-.17-1,.26l.19,3.13c0,.42.82.1.94-.09a4.17,4.17,0,0,0-.25-4.78c-.21-.26-1-.06-.93.34l.69,2.36c.12.42,1,.16,1-.25l-.28-2.41-1,.26A12.49,12.49,0,0,0,47,115.06c.29.27,1.21-.11.89-.41a12.16,12.16,0,0,1-3.75-7.19c-.06-.41-1-.17-1,.26l.28,2.4,1-.25-.7-2.37-.92.33a3.73,3.73,0,0,1,.22,4.29L44,112l-.18-3.13-1,.26a9.1,9.1,0,0,0,2,5l.82-.47a5.1,5.1,0,0,0-4.88-.24l.67.29a43.71,43.71,0,0,0,3.35-16l-1,.18c.12.67-.59.68-1,.41a3.83,3.83,0,0,1-.92-1.08v.25a11.29,11.29,0,0,1,4.36-4.94l-.62-.39-7.46,4.93c-.51.34.17.61.52.45a10.05,10.05,0,0,0,5.11-5.16h-.94l-.68,6,.93-.24a4,4,0,0,1-1.23-3.79l-.93.25,3.79,4.52c.25.3,1.1,0,.88-.41a5.24,5.24,0,0,0-7.46-1.65c-.17.12-.23.31-.06.45s.52,0,.69-.07A14.94,14.94,0,0,0,44.63,79c-.17-.38-1.1-.15-1,.26l.68,2,.92-.33-1.92-3.2-.82.47,3,2.49.75-.53-3-1.45.08.3,1.2-2.4c.24-.48-.72-.38-.91-.08L41.74,79.6l.92.08,3.12-6.9c.23-.5-.73-.39-.91-.08L42.21,77c-.27.43.71.41.91.08Z"/><path class="cls-9" d="M91.83,94.25a7.21,7.21,0,0,1-.64,9.13c-.15.15.14.17.23.16a1,1,0,0,0,.65-.23A7.35,7.35,0,0,0,92.8,94c-.17-.24-1,.15-1,.26Z"/><path class="cls-9" d="M73.37,136.16a20.33,20.33,0,0,1,3.76,8.25l1-.26-1.86-8-.93.3L78.55,141c.13.18,1-.08.93-.3l-2.21-5.38-1,.26,4.17,6c.17.24,1.07-.06,1-.25l-3.17-5.83c-.14-.25-1.06.06-1,.26l2.42,5.09c.12.24,1,0,1-.26a8.88,8.88,0,0,0-3-4.9c-.15-.13-1,.07-.93.3l2.26,4.94.94-.3-2.3-2.33-.91.34,1.86,1.85c.19.19,1.08-.16.9-.34l-1.85-1.85c-.19-.19-1.09.16-.91.34l2.3,2.33c.15.15,1-.08.94-.3l-2.27-4.94-.93.3a8.66,8.66,0,0,1,2.9,4.82l1-.26-2.42-5.09-1,.26,3.17,5.82,1-.25-4.17-6c-.15-.21-1.06,0-1,.26l2.22,5.38.93-.3-3.24-4.47c-.12-.18-1,.06-.93.3l1.85,7.95c.06.24,1,0,1-.26a20.57,20.57,0,0,0-3.82-8.33c-.16-.21-1.08.11-.91.34Z"/><path class="cls-9" d="M75.92,137.82l2.7.52c.11,0,1-.12.88-.31l-1.75-3.25c-.12-.22-1,.13-1,.26l2.42,4.56c.1.2,1,0,1-.26A2.61,2.61,0,0,0,78.94,137c-.13-.08-1,.08-.94.29l1.22,4.32.94-.29L77.69,139c-.17-.16-1,.18-.91.32L78.43,141l.67-.35-2,.12c-.1,0-.76.13-.7.31l1,3c.08.22.88-.07,1-.22.78-1.45-2.38-2.08-2.88-.67,0,.16.34.09.39.08.52-.1,1.13-.42.56-1a1,1,0,0,0-1.44.28l1-.21c-.91-2.78-5.27-3.16-6.85-.8a3.73,3.73,0,0,0,0,4,3.32,3.32,0,0,0,3.69,1.24,4,4,0,0,0,3.25-3.27c0-.11-.94,0-1,.26A3,3,0,0,1,72,146.59a3.14,3.14,0,0,1-2.43-3c-.1-1.32.59-3.06,2.1-3.17A3.37,3.37,0,0,1,75,142.67c.07.21.9,0,1-.21.13-.31-.59-.05-.52.13s.16.15.18.18c.2.29-.06.3.45.2l.39.08a1.59,1.59,0,0,1,.15-.29c-.06.12-.27,0,0,.06a2.24,2.24,0,0,1,.54.26.74.74,0,0,1,.27,1l1-.22-1-3-.7.31,2-.12c.1,0,.82-.18.66-.35L77.69,139l-.91.32,2.47,2.38c.13.12,1-.1.94-.3L79,137.05l-.94.29a2.51,2.51,0,0,1,1.18,2.26l1-.26-2.42-4.56-1,.26,1.75,3.25.88-.31-2.7-.52a1.11,1.11,0,0,0-.67.13c-.07,0-.34.19-.13.23Z"/><path class="cls-9" d="M167.54,65.94l-3.39-7.55c-.1-.24-.62,0-.77,0a24.87,24.87,0,0,0-7.95,6.15l.88,0a4.9,4.9,0,0,1,7.63-.43c.18.2,1.09-.14.9-.35-2.41-2.7-7.45-2.16-9.41.81-.22.33.73.14.88,0A23.69,23.69,0,0,1,164,58.61l-.77,0,3.38,7.55c.13.27,1.07,0,1-.26Z"/><path class="cls-9" d="M151.92,57.37l-1.31.91.79.09c1-3.4,2.22-8.31-1.67-10.37a4.56,4.56,0,0,0-4.07-.21,3.2,3.2,0,0,0-1.57,4,3.45,3.45,0,0,0,4.65,1.57c.19-.08.48-.39.1-.46-2.52-.43-5.42,1.62-5.21,4.33s3.22,4.11,5.54,3.33c.56-.19.45-.68-.13-.49a3.59,3.59,0,0,1-4.38-2.66c-.45-2,1.45-4.35,3.59-4l.11-.47c-1.92.86-3.77-1.07-3.49-3a2.42,2.42,0,0,1,1.41-1.92,3,3,0,0,1,2.11.12,4.7,4.7,0,0,1,3,3.74c.38,2.2-.31,4.45-.95,6.54-.11.35.67.16.78.08l1.31-.91c.53-.38-.29-.51-.6-.29Z"/><path class="cls-9" d="M132.24,48.16a3.22,3.22,0,0,1,3.79-1,4.34,4.34,0,0,1,2.69,3.58c.57,3.83-2.43,6.74-5.32,8.69-.54.36.25.68.63.42,2.66-1.8,5.34-4.25,5.69-7.63.3-2.92-1.4-5.81-4.52-6a4.27,4.27,0,0,0-3.76,1.64c-.35.5.56.63.8.27Z"/><path class="cls-9" d="M117.78,46.19l.09,2.28,0,1.14a2.86,2.86,0,0,0,0,.51,1,1,0,0,0,.23.31,4.24,4.24,0,0,0,2.34,1.23,5.06,5.06,0,0,0,5-1.89,4.32,4.32,0,0,0-.71-5.29,4.21,4.21,0,0,0-5.35-.67,4.63,4.63,0,0,0-1.91,5.69c.2.39,1.15.09,1-.26a4,4,0,0,1,.89-4.5,3,3,0,0,1,2-1,3.24,3.24,0,0,1,2.17.8A4.14,4.14,0,0,1,125,49a3.68,3.68,0,0,1-5.78,1.14,1.09,1.09,0,0,1-.23-.25,1.07,1.07,0,0,1-.06-.44l0-1.07-.1-2.28c0-.48-1-.3-1,.09Z"/><path class="cls-9" d="M107.47,69l1,4.42.94-.3a6.79,6.79,0,0,1-.9-7.2,6,6,0,0,1,6.38-3.29l.71-.39a16.1,16.1,0,0,0-8.6,2.62s-.13.09-.12.15l.76,3.91c0,.15.46,0,.52,0l4.24-1.07c.08,0,.65-.24.36-.34-2.57-.93-6,.81-6.1,3.71a4.08,4.08,0,0,0,2,3.58.85.85,0,0,0,.71.1c.54-.1,1.08-.24,1.62-.36l3.25-.73c.09,0,.48-.13.44-.28s-.45,0-.52,0l-4.87,1.09h.49a4,4,0,0,1-2-4.38,3.23,3.23,0,0,1,4.23-2.33l.36-.34-4.24,1.08.52,0-.75-3.91-.11.14a13.58,13.58,0,0,1,7.23-2.25,1.17,1.17,0,0,0,.64-.16c.06,0,.28-.19.07-.23A7.84,7.84,0,0,0,108.18,65a6.84,6.84,0,0,0,.29,8.41c.12.15,1-.07.93-.29l-1-4.42c0-.21-1,0-1,.26Z"/><path class="cls-9" d="M121.69,78.33l.57-7-.88.32,4.32.92c.13,0,1-.1.88-.32-.76-2.06-3.63-2-5.24-1.1A2.49,2.49,0,0,0,120,73.56a3.24,3.24,0,0,0,1.91,2.4,3.59,3.59,0,0,0,3.7-.4c.18-.14-.15-.15-.22-.14a1.26,1.26,0,0,0-.65.22,2,2,0,0,1-2.21-.15,3.09,3.09,0,0,1-1.53-2,2.18,2.18,0,0,1,.78-2.14,2.27,2.27,0,0,1,1.89-.37,2.46,2.46,0,0,1,1.93,1.53l.88-.31-4.33-.92c-.18,0-.86.06-.88.31l-.56,7c0,.11.94,0,1-.26Z"/><path class="cls-9" d="M143.54,71.57c-2.74-1.49-7,.28-7.23,3.57a4.85,4.85,0,0,0,1.91,4.14,4.5,4.5,0,0,0,4.71.41A4.89,4.89,0,0,0,145.81,75c0-.37-1-.15-1,.26l.42,6c0,.37,1,.16,1-.26l-.42-6-1,.26A4.15,4.15,0,0,1,143,79a3.31,3.31,0,0,1-3.76,0c-2.25-1.5-2.73-5-.38-6.58a3.77,3.77,0,0,1,3.93-.29c.32.18,1.2-.27.76-.51Z"/><path class="cls-9" d="M153.87,75l.25,10,1-.18-.35-6.62-.93.33a4.94,4.94,0,0,0,5.81.52,4.58,4.58,0,0,0,1.88-5.36c-.13-.37-.78-.13-.93.1a11,11,0,0,0-1.48,8.87c.1.39,1.07.14,1-.26a10.51,10.51,0,0,1,1.42-8.55l-.94.1a4.09,4.09,0,0,1-1.16,4.47,3.68,3.68,0,0,1-4.68-.29c-.26-.24-.95-.08-.93.33l.35,6.62c0,.36,1,.17,1-.18l-.25-10c0-.46-1-.28-1,.09Z"/><path class="cls-9" d="M167.1,78.47l-.65,6.87c0,.48.94.34,1-.08l.65-6.87c0-.49-.94-.34-1,.08Z"/><path class="cls-9" d="M168.19,95.75a2.32,2.32,0,0,1,1.1,2.68,2.13,2.13,0,0,1-2.39,1.79c-3.22-.38-4.14-4-4.11-6.68l-.68.35L171,93.1c.18,0,.54-.06.64-.24s-.08-.23-.24-.22l-8.87.8c-.19,0-.68.09-.69.35,0,2.61.72,5.63,3.43,6.63,2,.75,4.82-.11,5.06-2.53A2.42,2.42,0,0,0,169,95.33c-.23-.1-1.12.27-.78.42Z"/><path class="cls-9" d="M155.58,88.88,155.67,99l1-.26a21.1,21.1,0,0,0-6.75-10c-.24-.19-1.15.15-.9.37l6.69,6,.16-.31-7.62,4.81c-.55.35.3.43.59.25l7.62-4.81c.08,0,.27-.2.15-.31l-6.69-6-.9.37A20.75,20.75,0,0,1,155.67,99c.1.32,1,0,1-.26l-.09-10.15c0-.27-1-.09-1,.26Z"/><path class="cls-9" d="M142.3,88.07l-.77,8.73.65-.4L137,95.25c-.5-.11-1,.6-.33.74l5.2,1.14a.57.57,0,0,0,.66-.39l.77-8.73c0-.52-.94-.4-1,.06Z"/><path class="cls-9" d="M131.8,94.81a18.76,18.76,0,0,0-2.17-9.53c-.12-.21-.87.06-1,.21L125,91.64l1-.22-2.73-7c-.08-.19-1,0-1,.26l.38,9.67c0,.14,1,0,1-.26l-.38-9.67-1,.26,2.74,7c.08.21.87-.08.95-.22l3.63-6.14-1,.21a18.72,18.72,0,0,1,2.18,9.53c0,.12.95,0,1-.25Z"/><path class="cls-9" d="M116.68,92.74a13.75,13.75,0,0,0-1.39-8.07c-.1-.2-1,0-1,.26a13.54,13.54,0,0,1-3.57,9.21l.92-.17-2.56-10.85c0-.2-1,0-1,.26l2.55,10.85c.06.23.83-.07.92-.17a13.73,13.73,0,0,0,3.66-9.39l-1,.26A13.83,13.83,0,0,1,115.72,93c0,.11.93,0,1-.26Z"/><path class="cls-9" d="M114.93,98.93a4.46,4.46,0,0,0-3.51,2.75,3.57,3.57,0,0,0,.86,4,4.67,4.67,0,0,0,4.19.87,3.81,3.81,0,0,0,3-2.93,4,4,0,0,0-1.72-4.24c-.16-.09-.47,0-.62.07s-.43.17-.3.25c2.16,1.29,2.49,5.12.12,6.39a3.49,3.49,0,0,1-3.38-.44,3.38,3.38,0,0,1-1.42-3.3c.19-1.32,1.18-2.9,2.6-3.12.11,0,.54-.11.57-.25s-.32-.08-.38-.07Z"/><path class="cls-9" d="M123.72,100.45l-.56,6.41,1-.17a11.82,11.82,0,0,1-1.36-4.55,3.13,3.13,0,0,1,1.37-3,2.67,2.67,0,0,1,2.35-.2,1.73,1.73,0,0,1,.57,2.51c-.94,1.55-2.94,1.41-4.49,1.18-.46-.07-1,.58-.34.68,1.79.26,3.81.3,5.2-1,.94-.93,1.35-2.58.25-3.56a3.36,3.36,0,0,0-3.15-.45,3.65,3.65,0,0,0-2.56,2.53c-.59,2.08.35,4.26,1.2,6.12.16.36.93.24,1-.17l.56-6.41c0-.48-.94-.34-1,.08Z"/><path class="cls-9" d="M138.62,102a5.47,5.47,0,0,0-6.58,1,4.85,4.85,0,0,0,.09,6.94,5.51,5.51,0,0,0,7.26.73,6,6,0,0,0,2.21-7,6.74,6.74,0,0,0-7.4-3.8c-.62.12-.42.83.19.71a5.87,5.87,0,0,1,5.83,2.59,5.18,5.18,0,0,1-.53,6.18,4.32,4.32,0,0,1-6,.78c-1.8-1.29-2.82-3.8-1.61-5.83a4.35,4.35,0,0,1,5.79-1.66c.38.24,1.21-.28.73-.58Z"/><path class="cls-9" d="M135.68,108.18l5.5,4.13a.64.64,0,0,0,.64,0c.1,0,.44-.27.26-.41l-5.5-4.12a.64.64,0,0,0-.64,0c-.1,0-.44.27-.26.4Z"/><path class="cls-9" d="M146.64,105.37l-.07,5.52.93-.31a5.88,5.88,0,0,1-.94-5.85,5.27,5.27,0,0,1,4.75-3.32l-.28-.1c.46,1.39-.4,3.57-2.06,3.66-.15,0-.83.16-.65.41l3.34,4.73c.16.22,1.09-.09.91-.36L149.22,105l-.65.41c2.14-.11,4.17-2.17,3.42-4.39,0-.1-.19-.1-.28-.1a6.76,6.76,0,0,0-5.8,3.28,6,6,0,0,0,.69,6.71c.17.2.93,0,.93-.31l.08-5.52c0-.22-1-.07-1,.26Z"/><path class="cls-9" d="M161.08,104a4,4,0,0,0-5.14,2.07c-.79,2.11,1.12,4.31,3.22,4.36l-.29-.21a3.69,3.69,0,0,1-5.89,1.13c-.23-.23-1.15.13-.9.37,2.21,2.18,6.58,1.2,7.76-1.62.06-.16-.21-.2-.3-.2a3.08,3.08,0,0,1-2.75-3.56,2.6,2.6,0,0,1,3.52-1.89.78.78,0,0,0,.68-.09c.13-.08.3-.27.09-.36Z"/><path class="cls-9" d="M163.82,106.66v6.18c0,.5,1,.35,1-.08v-6.18c0-.5-1-.35-1,.08Z"/><path class="cls-9" d="M161.94,105.46l9.62.68a1,1,0,0,0,.68-.18c.13-.11.15-.23-.06-.24l-9.63-.69a1.07,1.07,0,0,0-.68.18c-.13.12-.15.23.07.25Z"/><path class="cls-9" d="M162.13,121.64a2.37,2.37,0,0,1,.25,3,1.67,1.67,0,0,1-.49.5l-.07.05,0,0a1.21,1.21,0,0,1-.2.09l-.12,0s-.1,0,0,0l-.16,0a1.85,1.85,0,0,1-.75-.11,2.46,2.46,0,0,1-.76-.42,2.2,2.2,0,0,1-.83-1.71c0-.48-1-.33-1,.09a2.93,2.93,0,0,0,2.9,2.83,2.87,2.87,0,0,0,2.9-2.72,2.61,2.61,0,0,0-.73-2.06.59.59,0,0,0-.65-.06c-.14.07-.41.31-.24.48Z"/><path class="cls-9" d="M152.16,119.57a3.93,3.93,0,0,1-1,4.44,3.29,3.29,0,0,1-4.55-.29,3.72,3.72,0,0,1-1.19-2.68c0-.53-1-.41-1,.06a4.62,4.62,0,0,0,3.93,4.43,4.47,4.47,0,0,0,4.8-3.1,4.3,4.3,0,0,0-.17-3.3c-.2-.41-1.12,0-.88.44Z"/><path class="cls-10" d="M106.14,75.22l1.43,1.71a.52.52,0,0,0,.53.12,1.33,1.33,0,0,0,.64-.42,1.17,1.17,0,0,0,.26-.55,1.3,1.3,0,0,0-.21-1,1.06,1.06,0,0,0-.55-.38.68.68,0,0,0-.69.18.35.35,0,0,0-.08.27.32.32,0,0,0,.21.2l.07,0s0,0,0,0-.09,0-.05,0l.13.09s-.05-.06,0,0l0,0,0,0a1,1,0,0,1,.08.14l0-.08a1.07,1.07,0,0,1,.1.39v-.09a1.32,1.32,0,0,1,0,.28s0,0,0,.06,0,0,0,0,0,.09,0,.12l0,.06c0,.08.06-.07,0,0l-.07.09s.1-.08,0,0l-.05,0c.1-.09.08,0,0,0s-.13,0,.05,0l.53.12L107,74.79a.56.56,0,0,0-.65-.07c-.16.08-.39.31-.23.5Z"/><path class="cls-10" d="M154.34,66.87l-1.62,1.8.91-.14a13.62,13.62,0,0,1,8.25-8.77l-.65,0c5.5,7.57,11.09,15.32,14.37,24.16a46.14,46.14,0,0,1,2.12,7.65c0,.18,1,0,1-.26-1.69-9.29-6.51-17.57-11.81-25.25-1.52-2.21-3.1-4.39-4.67-6.56-.11-.15-.52,0-.65,0a14.32,14.32,0,0,0-8.87,9.15c-.07.22.82,0,.91-.13l1.62-1.79c.18-.2-.72-.09-.87.08Z"/><path class="cls-10" d="M159.44,65.7l2.24-.13c.31,0,.81-.42.34-.63l-4.14-1.77-.57.6,3.92,1.36a.71.71,0,0,0,.68-.19.24.24,0,0,0-.11-.42l-3.92-1.35a.68.68,0,0,0-.68.18c-.17.17-.09.33.11.42l4.14,1.78.33-.62-2.23.13c-.2,0-.51.14-.54.37s.27.28.43.27Z"/><path class="cls-10" d="M153.1,76.45l1.11,5.2c.08.4,1,.13,1-.25l-.26-4.09-.93.33a4.14,4.14,0,0,0,5.24.12,3.75,3.75,0,0,0,.77-4.92c-.17-.25-.93-.06-.93.25L159,79.18c0,.45,1,.26,1-.1L160,73l-.93.25a3.32,3.32,0,0,1-.32,4,2.85,2.85,0,0,1-3.91,0c-.26-.23-1-.07-.93.33l.27,4.08,1-.25-1.11-5.21c-.08-.38-1.05-.13-1,.26Z"/><path class="cls-10" d="M165.88,79.18,165.2,84c-.06.42.91.26,1-.1l.68-4.81c.06-.42-.91-.26-1,.1Z"/><path class="cls-10" d="M137.45,94.12a5.1,5.1,0,0,0,4.94.5A4.73,4.73,0,0,0,144.61,88c-.23-.39-1.14,0-.88.43a4.18,4.18,0,0,1-.68,4.92,3.86,3.86,0,0,1-4.86.23c-.36-.27-1.2.24-.74.57Z"/><path class="cls-10" d="M142,101.52l-1.87-1.36-.94-.69a4.77,4.77,0,0,0-1-.73,2.83,2.83,0,0,0-1.48.26,7.44,7.44,0,0,0-1.53.74,6.31,6.31,0,0,0-3.13,5.49,5.56,5.56,0,0,0,3.76,4.79,4.48,4.48,0,0,0,5.07-1.61c1.15-1.62,1.41-4.06-.11-5.55-.32-.31-1.23.09-.88.43,1.91,1.88.75,5.84-2,6.21a4.44,4.44,0,0,1-4.07-2.1,4.68,4.68,0,0,1-.33-4.67,6,6,0,0,1,4.36-3.29l-.33-.08,3.74,2.73c.36.27,1.19-.24.74-.57Z"/><path class="cls-10" d="M137.74,108.84l3.43,2.75c.05,0,.19,0,.25,0a1.25,1.25,0,0,0,.37-.09c.06,0,.42-.15.29-.25l-3.43-2.75a.4.4,0,0,0-.24,0,1.61,1.61,0,0,0-.38.08c-.06,0-.42.16-.29.26Z"/><path class="cls-10" d="M145.37,120.6a4.15,4.15,0,0,0,3.32,4.36,4.61,4.61,0,0,0,4.82-2.4,3.87,3.87,0,0,0,.26-3c-.08-.22-1,.07-1,.25a3.73,3.73,0,0,1-.29,3,3.34,3.34,0,0,1-2.16,1.81,3.56,3.56,0,0,1-2.92-1.19,3.84,3.84,0,0,1-1.09-3.1c0-.1-.94,0-1,.26Z"/><path class="cls-10" d="M160.29,119.59a10.94,10.94,0,0,0,.24,7.94c.15.34.82.21.94-.09l2.61-6.35c.2-.49-.77-.44-.92-.08l-2.6,6.35.94-.09a10.55,10.55,0,0,1-.3-7.6c.18-.5-.78-.45-.91-.08Z"/><path class="cls-10" d="M154.89,133.55l0,3.2c0,.07.15.11.19.11l3.51.35-.18-.18-1.31,2.74a.08.08,0,0,0,0,.11,12,12,0,0,0,6.55,3.16c.12,0,1-.23.75-.42l-1.36-.9-.27.35a4.56,4.56,0,0,1,4.57.8l.84-.4c-2.76-1.5-6.89.23-7.58,3.34-.06.25.43.16.53.14l3.74-.93-.5-.21-1,1.81c-.05.1-.05.17.06.21a5.41,5.41,0,0,0,3.48.29c.29-.07.67-.47.14-.46-1.79,0-3.61,1.92-2.63,3.73L165,150a18.18,18.18,0,0,0-11,6.3l.93-.14c-1-3,2.19-5.27,3-7.9a3.52,3.52,0,0,0-.38-3.15A2.51,2.51,0,0,0,155,144l.41.11c0-1.25,1.78-1.43,2.2-.36.64,1.62-1.73,2.7-1.83,4.2-.08,1.12.75,2.32,2,1.88a2.55,2.55,0,0,0,.82-.56c.41-.34.84-.66,1.28-1a14.67,14.67,0,0,1,2.65-1.42,13.05,13.05,0,0,1,1.63-.56,3.2,3.2,0,0,1,1.6-.24c1.24.36,2.47,1,3.68,1.46.26.1,1.14-.29.78-.44l-3.58-1.41a2,2,0,0,0-1.36-.09c-.52.11-1,.23-1.53.38a16.66,16.66,0,0,0-5.67,3c-.13.11-.4.45-.55.47.08,0-.17-.14-.25-.22a1.87,1.87,0,0,1-.48-1.11c-.12-1,.71-1.69,1.23-2.43a2.42,2.42,0,0,0,.59-2.18,1.54,1.54,0,0,0-1.21-.89c-1.16-.22-3,.34-2.92,1.76,0,.14.33.13.41.11,1.11-.21,2,.92,2.27,1.87a4.47,4.47,0,0,1-.73,3.48c-1.17,2-3.2,4.11-2.4,6.62.1.31.8,0,.93-.13a16.5,16.5,0,0,1,9.92-5.81c.08,0,.67-.17.56-.37-.53-1-.09-2.95,1.27-3l.14-.45a4.09,4.09,0,0,1-2.6-.3l.06.21,1-1.81c.17-.3-.35-.24-.5-.2l-3.74.93.54.14a4.1,4.1,0,0,1,5.84-2.76c.2.1,1.09-.2.84-.4a5.76,5.76,0,0,0-5.84-.77c-.06,0-.44.23-.26.35l1.36.89.75-.42a11.3,11.3,0,0,1-4.52-1.67c-.4-.26-1.65-.95-1.6-1.47a2.6,2.6,0,0,1,.3-.63l.31-.63.6-1.26c.06-.11-.1-.17-.17-.18l-3.52-.34.18.11.05-3.2c0-.25-1-.08-1,.26Z"/><path class="cls-10" d="M159.23,143.68a4.37,4.37,0,0,0-.19,4.69c.14.24.6.17.77,0l3.43-3.17-.81-.2-.66,3.76.93-.25-1.38-1.59a.56.56,0,0,0-.66-.08,4.13,4.13,0,0,0-2.36,3.29c-.06.53.87.34,1-.07l.66-2.63c.12-.47-.81-.35-.95,0l-2.46,5.65c-.17.39.43.51.68.35a14.1,14.1,0,0,0,5.44-6.08l-1,0a8.39,8.39,0,0,1-2.61,4.57l.79.29,1.9-4.78c.21-.53-.65-.47-.87-.21l-3.63,4.13.89,0c-.41-1.86-1-4.4.33-6.05.85-1.06,2.72-1.66,3.67-.39.27.36,1.19,0,.88-.43-1.21-1.62-3.67-1.1-5,.11-1.92,1.78-1.36,4.76-.87,7,.09.4.71.23.89,0l3.63-4.13-.87-.21-1.9,4.78c-.18.46.55.51.79.29a9.32,9.32,0,0,0,2.94-5.1c.1-.49-.81-.34-1,0a13,13,0,0,1-5,5.61l.68.36,2.46-5.65-.95,0-.66,2.63,1-.07a3.28,3.28,0,0,1,1.81-2.63l-.66-.08,1.39,1.6a.58.58,0,0,0,.93-.25l.66-3.77c.07-.41-.62-.37-.82-.19l-3.43,3.17h.77a3.77,3.77,0,0,1,.11-4c.35-.51-.55-.69-.81-.3Z"/><path class="cls-10" d="M100.63,83.91a9.26,9.26,0,0,0-.72,6.17c.09.35.84.13.94-.11a8.35,8.35,0,0,0,0-6.85c-.17-.37-1.12-.07-1,.26a8,8,0,0,1,0,6.54l.94-.1a8.76,8.76,0,0,1,.66-5.85c.21-.45-.76-.38-.91-.06Z"/><path class="cls-10" d="M101.77,99.58a3.65,3.65,0,0,0,1.11,4.25c.27.2,1,0,.85-.43l-1.22-4.26-.92.35,3.17,3.22a.56.56,0,0,0,.67.09c.15-.07.39-.35.22-.53l-3.18-3.22a.53.53,0,0,0-.6-.12c-.18.07-.39.25-.33.47l1.23,4.26.85-.42a3,3,0,0,1-.92-3.53.33.33,0,0,0-.3-.44.6.6,0,0,0-.63.31Z"/><path class="cls-10" d="M107.59,109.35a2,2,0,0,0-.59,2.55c.09.15.34.1.47.07s.45-.11.5-.27l.74-3-1,.2,1.41,3.33.69-.35-2.38,0a.92.92,0,0,0-.64.25c-.15.17.13.19.23.2l2.38,0a1.15,1.15,0,0,0,.49-.13s.24-.13.2-.22l-1.41-3.32c-.06-.15-.36-.09-.47-.07s-.45.11-.49.27l-.75,2.95,1-.21a1.75,1.75,0,0,1,.37-2.22s.12-.09.1-.16-.12-.08-.17-.09a1.07,1.07,0,0,0-.68.18Z"/><path class="cls-10" d="M112.6,119.22a1.69,1.69,0,0,0,1.36,2.29,2.17,2.17,0,0,0,2.4-1.69c0-.27-.4-.21-.54-.17A10.82,10.82,0,0,1,107,118a10.63,10.63,0,0,1-3.07-3.23c-.24-.41-.28-.68.08-1a1.6,1.6,0,0,1,.92-.4,1.87,1.87,0,0,1,1.68.76l.39-.43-2.43.53c-.11,0-.58.23-.39.42a21,21,0,0,0,9.72,5.3c.3.07,1.13-.39.59-.51a20.42,20.42,0,0,1-9.41-5.17l-.39.42,2.44-.52c.14,0,.54-.21.38-.42a2.88,2.88,0,0,0-3.24-.72,2.93,2.93,0,0,0-1.41,1,.54.54,0,0,0,0,.74,9.86,9.86,0,0,0,.58.94,11.79,11.79,0,0,0,7.52,4.67,11.53,11.53,0,0,0,5.06-.23l-.54-.17c-.1.76-.81,1.38-1.49.76a1.45,1.45,0,0,1-.35-1.61c.12-.29-.84-.18-1,.13Z"/><path class="cls-10" d="M113.9,102.29a3.77,3.77,0,0,0-2,3.14,4,4,0,0,0,1.43,3.43c2.33,1.74,6.12,0,6.86-2.62a4.24,4.24,0,0,0-1.46-4.19,4.83,4.83,0,0,0-4.34-1.08c-3,.76-5,4.39-3.44,7.21a5.85,5.85,0,0,0,8.14,1.92c.54-.38-.28-.57-.61-.34-1.9,1.32-4.61.53-6-1.13a4.54,4.54,0,0,1,1-6.59c2.36-1.62,5.56.36,5.92,3,.31,2.36-2.3,4.67-4.6,3.68s-2.63-4.82-.4-6c.59-.31,0-.68-.4-.45Z"/><path class="cls-10" d="M74.5,74.4A2.33,2.33,0,0,1,75,78.11a.36.36,0,0,0-.16.37q1.94,8,3.88,16c.12.48,1.08.22,1-.26q-2-8-3.89-16l-.15.38A3,3,0,0,0,75,73.71c-.43-.2-1.11.43-.54.69Z"/><path class="cls-10" d="M21.72,111.53l2.56,13.09c0,.22,1,0,1-.26l-2.55-13.09c0-.22-1,0-1,.26Z"/><path class="cls-10" d="M26.39,114.62a2.81,2.81,0,0,1,1.66,2.7,2.39,2.39,0,0,1-2.26,2.23c-.15,0-.8.14-.67.42a12,12,0,0,1,.21,9.24c-.13.33.84.22,1-.11a12.23,12.23,0,0,0-.22-9.39l-.66.42a3.63,3.63,0,0,0,3.45-2.25,3.08,3.08,0,0,0-1.72-3.74c-.3-.13-1.18.3-.76.48Z"/><path class="cls-10" d="M55,66.23l.86,6.16.94-.3c-1.56-1.29-2.88-3.92-1.26-5.69a1.85,1.85,0,0,1,2.21-.6,1.77,1.77,0,0,1,.92,1.81c0,.46-.4,1.62-1,1.52l-.11.26a2.07,2.07,0,0,1,2,.58A2.87,2.87,0,0,1,60.67,72a1.93,1.93,0,0,1-1,1.79,2.38,2.38,0,0,1-1.76,0,2.35,2.35,0,0,1-1.53-1.69c0-.22-1,0-1,.26.4,2,2.9,2.37,4.51,1.76a2.53,2.53,0,0,0,1.72-2,2.94,2.94,0,0,0-1.22-2.59,3.16,3.16,0,0,0-3.39-.3c-.07,0-.35.22-.12.26a2.34,2.34,0,0,0,2.48-1.17,2.25,2.25,0,0,0-.2-2.51c-.82-.88-2.26-.69-3.25-.25a3.32,3.32,0,0,0-2.05,2.67,5,5,0,0,0,2,4.18c.16.13,1,0,.94-.3L56,66c0-.2-1,0-1,.26Z"/><path class="cls-10" d="M64.46,66.13a3.59,3.59,0,0,0-2.8,2.53,2.77,2.77,0,0,0,1.08,3.16c2.09,1.33,5.95-.23,5.08-3A3.27,3.27,0,0,0,66.5,67a2.91,2.91,0,0,0-2.28-.38c-.15,0-.46.18-.42.38s.42.15.55.12a2.41,2.41,0,0,1,2.37,1.54,2.13,2.13,0,0,1-.57,2.67,2,2,0,0,1-1.14.38,2.51,2.51,0,0,1-1.24-.25,2.34,2.34,0,0,1-1.24-2.44,3.22,3.22,0,0,1,.63-1.55,2.7,2.7,0,0,1,.57-.55l.32-.17a1.25,1.25,0,0,1,.29-.1c.17,0,.51-.11.54-.33s-.28-.24-.42-.22Z"/><path class="cls-10" d="M69.6,64.88a2.92,2.92,0,0,0-1.21,3,2.6,2.6,0,0,0,2.37,2.19,3.63,3.63,0,0,0,3.3-1.78,2.43,2.43,0,0,0-.68-3.13A3.35,3.35,0,0,0,69.44,65c-.13.09-.29.27-.08.39a.75.75,0,0,0,.68-.09l.26-.17a1.09,1.09,0,0,1,.25-.09.82.82,0,0,1,.25,0,1.49,1.49,0,0,1,.3,0,2.6,2.6,0,0,1,1.26.45,2.18,2.18,0,0,1,.94,2.47,2.37,2.37,0,0,1-.83,1.14,2.61,2.61,0,0,1-.58.33l-.11,0-.19,0H71.5l-.15,0a2,2,0,0,1-1.93-1.62,2.47,2.47,0,0,1,.79-2.7c.14-.09.28-.28.08-.39a.77.77,0,0,0-.69.08Z"/></g></svg>