<svg id="Observatory" xmlns="http://www.w3.org/2000/svg" xmlns:xlink="http://www.w3.org/1999/xlink" viewBox="0 0 200 200"><defs><style>.cls-1{fill:#312c44;stroke:#e6e7e8;}.cls-1,.cls-12,.cls-4{stroke-miterlimit:10;}.cls-1,.cls-12{stroke-width:6px;}.cls-2{fill:#121212;}.cls-3{fill:#1a0e34;}.cls-4{fill:#f7ec13;stroke:#2d2e87;}.cls-5{fill:#2d2e87;}.cls-6,.cls-7{fill:#fcf6b5;}.cls-11,.cls-7{opacity:0.11;}.cls-8{fill:#796ca1;}.cls-9{fill:#7f7f7f;}.cls-10{fill:#58595b;}.cls-12{stroke:#312c44;opacity:0.45;fill:url(#radial-gradient);}.cls-13{opacity:0.84;}</style><radialGradient id="radial-gradient" cx="100" cy="100" r="89.7" gradientUnits="userSpaceOnUse"><stop offset="0" stop-color="#fff"/><stop offset="1"/></radialGradient></defs><polygon class="cls-1" points="183.05 52.05 100 4.11 16.95 52.05 16.95 147.95 100 195.9 183.05 147.95 183.05 52.05"/><polygon class="cls-2" points="183.05 147.95 100 112.59 16.95 147.95 100 195.9 183.05 147.95"/><polygon class="cls-3" points="100 112.59 100 4.11 16.95 52.05 16.95 147.95 100 112.59"/><path class="cls-3" d="M27.16,60.15c.14,18,.43,35.93.37,53.89q0,7.8-.29,15.58c0,1,0,2,0,3.07,0,.5,0,1,0,1.5,0,0,0,.49,0,.25.74-20.17.24-40.39.08-60.57L27.2,56.62c0,.11,0-.73,0-.73s0,.84,0,.73c0,1.18,0,2.36,0,3.53Z"/><path class="cls-3" d="M28.21,56.66c-.63,4.76-1.79,9.4-1.9,14.23-.12,5.07,0,10.16.11,15.23l.5,30.47.28,17.34c0,.95,0-.81,0-.89,0-1.14,0-2.29,0-3.43q-.43-27-.87-54c0-.23,0-.47,0-.71,0-.92-.06,2.27,0,.08,0-.61.06-1.23.11-1.84.1-1.27.27-2.54.47-3.8.42-2.56.95-5.1,1.29-7.68.22-1.64-.21-3.37,0-5Z"/><polygon class="cls-4" points="31.59 131.52 22.41 135.88 22.41 56.31 32.39 50.72 31.59 131.52"/><polygon class="cls-4" points="45.68 124.37 35.71 129.99 35.71 47.61 45.68 42.02 45.68 124.37"/><polygon class="cls-4" points="59.96 118.11 48.79 123.86 48.79 39.57 58.76 33.97 59.96 118.11"/><path class="cls-5" d="M66.33,43.63a127.88,127.88,0,0,1,22.53-10V28.69c-1.34,19.94-2.6,40.09-.53,60v-5l-8.85,2-4.06.93a27.88,27.88,0,0,1-4.65,1c-1.32.07-1.33-1.18-1.45-2.21-.17-1.55-.33-3.11-.48-4.66-.31-3.17-.56-6.34-.77-9.52-.4-6.07-.65-12.16-.67-18.25a56.53,56.53,0,0,1,.22-8.73c.45-2.87,3.08-3.37,5.45-4.21l19.45-6.86V28.37q-.75,29.12-.64,58.22l0-3.16q-6.08.54-12.11,1.38c-2,.29-4,.59-6,.92a4.64,4.64,0,0,1-1.44.25c-.4-.13-.15,0-.29-.45a4.53,4.53,0,0,1-.09-.74c-.11-1.06-.22-2.13-.32-3.19-.81-8.37-1.32-16.81-1.31-25.22,0-4.76.2-9.52.48-14.26.06-1,0-2.06,0-3.08,0-.49,0-1,0-1.49,0,0,0-.5,0-.26-.56,9.66-.65,19.35-.4,29q.18,7,.7,13.9c.18,2.46.4,4.92.64,7.38l.18,1.72c0,.32,0,1.56.19,1.72s1.36-.23,1.68-.29l1.93-.31q8.07-1.26,16.21-2c.07,0,0-3.09,0-3.16q-.07-26,.61-52.07c0-.47-.22-4.84,0-4.92L73.07,35.14a18,18,0,0,0-3.95,1.58,4.12,4.12,0,0,0-1.58,3.39c-.23,3.12-.17,6.29-.19,9.41a353.83,353.83,0,0,0,1.89,40.26,6.39,6.39,0,0,0,.42,2.45c.44.75,1.23.47,1.93.32l5.26-1.21,11.48-2.62a34.64,34.64,0,0,0,0-5c-1.73-16.74-.58-33.48.54-50.21,0-.48-.23-4.84,0-4.91a127.88,127.88,0,0,0-22.53,10,9.84,9.84,0,0,0,0,2.5,11.08,11.08,0,0,1,0,2.5Z"/><path class="cls-5" d="M69.47,44.64l-.51.51a1.48,1.48,0,0,0,0,.21c0,.17,0,.35,0,.52,0,.59,0,1.18,0,1.77s0,1.18,0,1.76v.4c0,.11,0,.22,0,.34l.51-.51c0-.08,0-.15,0-.22s0-.34,0-.52V45c0-.12,0-.23,0-.34Z"/><path class="cls-5" d="M89.43,76.81a.18.18,0,0,1-.1-.16v.09c0-.08,0-.19,0,.23V79.8h0v1.5c0,.42,0,.32,0,.24v.08a.2.2,0,0,1,.11-.18.17.17,0,0,1,.2.07.21.21,0,0,1,0,.13v-.09h0q0,.13,0-.24V79.14h0V77q0-.37,0-.24h0v-.09a.17.17,0,0,1-.07.13c0,.07,0,.14,0,.21s0,.35,0,.52v3.93c0,.11,0,.22,0,.34a.15.15,0,0,0,.06-.09v0a1.77,1.77,0,0,0,0-.23c0-.35,0-.69,0-1s0-.84,0-1.27c0-.65,0-1.3,0-2,0-.13,0-.2,0-.32v-.14a.65.65,0,0,0,0-.19.27.27,0,0,0-.07-.08.17.17,0,0,0-.2,0,.41.41,0,0,0,0,.09.13.13,0,0,0,0,.06c0,.11,0,.24,0,.36,0,.94,0,1.88,0,2.83,0,.5,0,1,0,1.5a2.17,2.17,0,0,1,0,.26.49.49,0,0,0,0,.12l0,0a.15.15,0,0,0,.08.08,1.55,1.55,0,0,0,0-.22c0-.17,0-.34,0-.51,0-.59,0-1.18,0-1.77s0-1.18,0-1.77v-.39c0-.11,0-.23,0-.34Z"/><path class="cls-6" d="M73.9,43.69a1.55,1.55,0,0,0-.43,0l-.2,0-.2,0h0l-.38.13h0l-.32.18h0c-.1.07-.19.16-.28.23l0,0a2.56,2.56,0,0,0-.2.26l0,.06a1.66,1.66,0,0,0-.12.31s0,0,0,.06,0,.18,0,.26h0v0a1.16,1.16,0,0,0,.14.27,0,0,0,0,1,0,0,2.11,2.11,0,0,0,.23.19h0l.14.06.14.06h0l.33.06h.42l.4-.07h0l.38-.13h0l.33-.18,0,0h0l.26-.22h0l0,0a3.15,3.15,0,0,0,.22-.29s0,0,0,0a2.34,2.34,0,0,0,.09-.24h0v0a0,0,0,0,0,0,0v-.15a.45.45,0,0,1,0-.13,0,0,0,0,0,0,0h0a1.51,1.51,0,0,0-.11-.22l0,0-.12-.09a.48.48,0,0,0-.11-.09,1,1,0,0,0-.44-.14,1.35,1.35,0,0,0-.53,0,1.65,1.65,0,0,0-.58.14,1.5,1.5,0,0,0-.51.24l-.26.21a.89.89,0,0,0-.27.48v.24a.62.62,0,0,0,.32.37v0l-.2-.17,0,0L72,45.16a.17.17,0,0,1,0,.07V45a.28.28,0,0,1,0,.09l.09-.24,0,.07.18-.23-.05,0,.26-.21,0,0,.32-.18h0l.37-.13h0l.39-.08h.32l.33,0h0l.27.11,0,0,.2.16s0,0,0-.06l.11.21a.24.24,0,0,1,0-.09v.24a.36.36,0,0,1,0-.11l-.09.24a.41.41,0,0,1,0-.09l-.18.23,0,0-.25.21,0,0-.32.18,0,0-.37.14h0l-.39.07h-.31a1.84,1.84,0,0,0,.57,0,1.63,1.63,0,0,0,.57-.17,1.31,1.31,0,0,0,.45-.28.92.92,0,0,0,.31-.34l.1-.24A.56.56,0,0,0,74.7,44l-.2-.17a1.34,1.34,0,0,0-.6-.16Z"/><path class="cls-6" d="M78.38,51.08l-.25.41a.38.38,0,0,0-.1.3.26.26,0,0,0,.1.27l0,0a1.66,1.66,0,0,0,.24.16,2,2,0,0,0,.68.13l.42,0a1.64,1.64,0,0,0,.44-.09,3.09,3.09,0,0,0,.75-.3,2.18,2.18,0,0,0,.31-.22,1.61,1.61,0,0,0,.22-.23l0,0c0-.07.07-.15.11-.22a.3.3,0,0,0,0-.1,1.91,1.91,0,0,0,0-.24.11.11,0,0,0,0,0,.08.08,0,0,0,0,0,1.32,1.32,0,0,0-.13-.2s0,0,0,0a1.3,1.3,0,0,0-.23-.15,1.67,1.67,0,0,0-.63-.11,2.35,2.35,0,0,0-.6.06,2.9,2.9,0,0,0-.62.18,2.82,2.82,0,0,0-.63.37,2.22,2.22,0,0,0-.22.23l0,0a2.53,2.53,0,0,0-.12.23v0a.5.5,0,0,0,0,.24v.05l.11.19a1.16,1.16,0,0,0,.22.13l.06,0a1.91,1.91,0,0,0,.34.1,1.58,1.58,0,0,0,.38,0,3,3,0,0,0,.39,0,3.56,3.56,0,0,0,.79-.22,2.27,2.27,0,0,0,.64-.37,1,1,0,0,0,.31-.43.09.09,0,0,0,0-.05v-.1a.41.41,0,0,0,0-.11v0a.89.89,0,0,0-.11-.2s-.08-.06-.12-.09L81,50.56a1.56,1.56,0,0,0-.6-.11,2.36,2.36,0,0,0-.38,0l-.4.08-.39.13a1.89,1.89,0,0,0-.46.26,1,1,0,0,0-.32.29.35.35,0,0,0-.1.3.29.29,0,0,0,.09.27l.19.12a1.51,1.51,0,0,0,.59.11l.36,0a3.46,3.46,0,0,0,.78-.21h0l-.38.12h0l-.39.08h0l-.37,0h0l-.32,0h0l-.26-.08h0l-.19-.13,0,0-.1-.17a.25.25,0,0,1,0,.07v-.19a.13.13,0,0,1,0,.06l.1-.21,0,0,.19-.2h0L79,51h0l.32-.16h0l.38-.13h0l.4-.08h0l.36,0h0l.32,0-.06,0,.26.08-.12-.05L81,51a.14.14,0,0,1,0-.07v.2a.24.24,0,0,1,0-.08l-.1.2,0,0-.18.2,0,0-.26.19,0,0-.33.16h0l-.38.13h0l-.39.08h0l-.36,0h0l-.32,0h0l-.26-.08,0,0-.19-.12a.12.12,0,0,1,.06.06l-.1-.16a.2.2,0,0,1,0,.13v-.2a.23.23,0,0,1,0,.11l.11-.21a.1.1,0,0,1,0,0l.19-.2,0,0,.26-.18,0,0,.33-.17,0,0,.38-.13h0l.39-.08h0l.37,0h0l.33,0h-.07l.27.07a.19.19,0,0,1-.08,0l.19.12-.05,0v.56l.25-.41a.38.38,0,0,0,.1-.3.27.27,0,0,0-.1-.27.65.65,0,0,0-.32-.16,1.37,1.37,0,0,0-.45-.07l-.37,0a3,3,0,0,0-.77.2l-.33.17a1.47,1.47,0,0,0-.45.38Z"/><path class="cls-6" d="M84.28,42l.3-.25,0,0c.07-.08.13-.17.2-.26v0l0-.05,0,0c0-.1.07-.2.1-.3l0-.11a.61.61,0,0,0-.13-.47.92.92,0,0,0-.48-.29,1.83,1.83,0,0,0-.7-.06,2.59,2.59,0,0,0-.77.21,2.71,2.71,0,0,0-.37.21h0l-.13.11-.13.12h0a.08.08,0,0,0,0,0,2.88,2.88,0,0,0-.21.28,1.27,1.27,0,0,0-.06.18.85.85,0,0,0-.06.17.13.13,0,0,0,0,.06,1.51,1.51,0,0,0,0,.3L82,42l.21.18.27.11a1.15,1.15,0,0,0,.52.06,1,1,0,0,0,.38,0,1,1,0,0,0,.38-.1.93.93,0,0,0,.35-.16,1.4,1.4,0,0,0,.42-.3l.19-.18a.85.85,0,0,0,.23-.37.55.55,0,0,0-.19-.68.75.75,0,0,0-.37-.2l-.33-.06a2.22,2.22,0,0,0-.77.07l-.37.14a1.91,1.91,0,0,0-.58.39l-.2.18,2.65,0a.08.08,0,0,1,0,0v.25a.59.59,0,0,1,0-.13l-.09.25.05-.09-.17.24,0-.06-.26.22,0,0-.32.19h0l-2.07-.61,0,.13.09-.25a.6.6,0,0,1-.09.15l.18-.24-.08.09.25-.22h0a1,1,0,0,0-.35.33.74.74,0,0,0-.17.37.44.44,0,0,0,.06.36.51.51,0,0,0,.26.28l.28.12a1.83,1.83,0,0,0,.7.06l.39-.07a2.23,2.23,0,0,0,.7-.32Z"/><path class="cls-6" d="M84,46.92l.42-.18a2,2,0,0,0,.58-.38.74.74,0,0,0,.23-.35.44.44,0,0,0,0-.34A.6.6,0,0,0,85,45.3h0a1.48,1.48,0,0,0-.29-.12h0l-.33-.05h-.42l-.4.07a3.25,3.25,0,0,0-.4.15,2.31,2.31,0,0,0-.35.18h0l-.26.21h0a.67.67,0,0,0-.23.34.47.47,0,0,0,0,.35.5.5,0,0,0,.21.28.77.77,0,0,0,.37.19l.33,0a2.17,2.17,0,0,0,.76-.08l.38-.13a1.88,1.88,0,0,0,.58-.38h0l-.26.21,0,0-.32.18h0l-.38.13h0l-.39.08h-.31l-.33,0h0l-.27-.11,0,0,.54-1.43-.42.17a1.48,1.48,0,0,0-.45.28,1.08,1.08,0,0,0-.31.33.46.46,0,0,0-.09.35.36.36,0,0,0,.11.32l.2.16a1.4,1.4,0,0,0,.6.15h.37a2.65,2.65,0,0,0,.77-.2Z"/><path class="cls-6" d="M72.43,61.45l0,.29a.3.3,0,0,0,.19.19A.61.61,0,0,0,73,62l.32,0a3.26,3.26,0,0,0,.75-.12l.45-.15h0l.34-.15,0,0,.17-.11.16-.1.07,0a2.65,2.65,0,0,0,.29-.29l0,0,.13-.21,0-.07a.2.2,0,0,0,0-.24.33.33,0,0,0-.23-.18l-.26,0a2.23,2.23,0,0,0-.68,0,4.13,4.13,0,0,0-.9.24h0l-.34.15,0,0a2.2,2.2,0,0,0-.32.21l-.06,0-.22.2,0,0s0,0-.05.05l0,0-.12.21a.21.21,0,0,0,0,.24.33.33,0,0,0,.23.18,1.22,1.22,0,0,0,.42.06,1.8,1.8,0,0,0,.52,0l.39-.09a2.89,2.89,0,0,0,.71-.27l.27-.17a.86.86,0,0,0,.3-.36l0,0-.11.18a.58.58,0,0,1,.1-.12l-.19.18.09-.07-.27.17.07,0-.33.15.07,0-.38.13.06,0-.39.08h0l-1.21-.45a.41.41,0,0,1,0,.09l.11-.18a.44.44,0,0,1-.12.15l.2-.18-.1.07L73.2,61l-.08,0,.33-.16-.07,0,.38-.12h0l1.61.2,0-.29a.29.29,0,0,0-.18-.19.63.63,0,0,0-.35-.11,2.09,2.09,0,0,0-.5,0,2.84,2.84,0,0,0-.57.1l-.38.13a2.16,2.16,0,0,0-.6.32l-.2.18a.41.41,0,0,0-.11.35Z"/><path class="cls-6" d="M84.24,60.35c1.68,0,2.2-2.21.23-2.21-1.68,0-2.2,2.21-.23,2.21Z"/><path class="cls-6" d="M85.33,62.68c.61,0,1.61-.19,1.9-.83s-.23-1-.83-1-1.61.18-1.9.83.23,1,.83,1Z"/><path class="cls-6" d="M79.55,74.2c.56,0,1.63-.2,1.92-.76s-.25-.76-.76-.76-1.63.2-1.92.76.25.76.76.76Z"/><path class="cls-6" d="M78.68,82v.1a.24.24,0,0,0,.18.17.67.67,0,0,0,.34.09,2.1,2.1,0,0,0,.5,0,2.84,2.84,0,0,0,.57-.1l.38-.12a2.85,2.85,0,0,0,.6-.31l.2-.17a.34.34,0,0,0,.13-.31v-.1A.27.27,0,0,0,81.4,81a.7.7,0,0,0-.35-.09,2,2,0,0,0-.49,0,2.61,2.61,0,0,0-.57.1l-.38.12a2.69,2.69,0,0,0-.61.31l-.19.17a.34.34,0,0,0-.13.31Z"/><path class="cls-6" d="M85.12,78.8c1.63,0,2.25-2.06.28-2.06-1.63,0-2.25,2.06-.28,2.06Z"/><path class="cls-7" d="M78.15,46a2.63,2.63,0,0,0,1.7-.87c.22-.17-1.76-1.31-1.71-1.28-.29-.17-1.5-1.11-2-.87l-.8.17c-.54,0,.71,1.17.8,1.27C76.51,44.71,77.6,46.14,78.15,46Z"/><path class="cls-7" d="M78.86,47.66a2.7,2.7,0,0,0,1.76-1c.21-.17-2.27-1.72-2.21-1.68-.35-.23-1.88-1.49-2.46-1.28l-1,.09a.64.64,0,0,0,.28.54c.48.53,1,1.05,1.51,1.55C77,46.13,78.34,47.81,78.86,47.66Z"/><path class="cls-7" d="M78.27,45.21c1.13-.21.74-.07,1.79-.8,0,0-1.9-1.43-2.33-1.21l-1,.19c-.46,0,.2.68.2.67C77.1,44.28,77.91,45.28,78.27,45.21Z"/><path class="cls-7" d="M78.32,49.94a2.39,2.39,0,0,0,1.69-1s-3.72-2.85-4.5-2.72l-.94,0c-.53-.11,1,1.48,1.17,1.61C76.09,48.1,77.71,50.14,78.32,49.94Z"/><path class="cls-7" d="M78.28,48.23a2.57,2.57,0,0,0,1.71-1c.21-.18-2.41-1.84-2.36-1.81-.42-.27-1.95-1.57-2.61-1.4l-1,0a.76.76,0,0,0,.32.57c.54.58,1.09,1.14,1.66,1.69C76.17,46.51,77.74,48.4,78.28,48.23Z"/><path class="cls-7" d="M78.32,46.61a2.7,2.7,0,0,0,1.74-.89c.22-.16-2.1-1.58-2-1.55-.33-.2-1.75-1.36-2.29-1.14l-.8.13c-.55-.06.91,1.36,1,1.48C76.32,45,77.7,46.78,78.32,46.61Z"/><path class="cls-7" d="M78.08,49a2.4,2.4,0,0,0,1.69-1s-3.54-2.89-4.34-2.69l-1,0c-.54-.08,1,1.43,1.12,1.56C75.93,47.22,77.47,49.17,78.08,49Z"/><path class="cls-7" d="M79,46.31a2.59,2.59,0,0,0,1.68-.89c.23-.18-1.64-1.17-1.59-1.14-.29-.16-1.39-1-1.82-.71l-.75.18c-.52,0,.63,1.08.7,1.16C77.52,45.21,78.48,46.46,79,46.31Z"/><path class="cls-7" d="M78.71,49.49a2.53,2.53,0,0,0,1.73-1.07c.21-.19-2.52-1.92-2.47-1.89-.46-.3-2-1.64-2.72-1.48H74.14a.82.82,0,0,0,.35.6c.57.61,1.16,1.21,1.77,1.79C76.46,47.64,78.18,49.67,78.71,49.49Z"/><path class="cls-7" d="M78.12,47.38a2.63,2.63,0,0,0,1.72-.94c.22-.17-2.21-1.68-2.15-1.64-.38-.24-1.82-1.44-2.41-1.24l-.84.08c-.55-.07,1,1.45,1.14,1.59C75.94,45.59,77.49,47.56,78.12,47.38Z"/><path class="cls-7" d="M79,48.7a2.58,2.58,0,0,0,1.74-1c.22-.19-2.41-1.83-2.35-1.8-.4-.25-2-1.58-2.61-1.39l-1.06.06a.73.73,0,0,0,.32.57q.8.87,1.65,1.68C76.93,47,78.5,48.87,79,48.7Z"/><path class="cls-7" d="M78.92,50.45a2.43,2.43,0,0,0,1.7-1.11s-4.15-3.25-5-3.11l-.92,0c-.54-.12,1.17,1.61,1.33,1.77C76.4,48.33,78.29,50.66,78.92,50.45Z"/><path class="cls-7" d="M80,43.4c.73-.36,8.11-2.24,5.79-1.59.68-.19-1.46-.49-1.13-.45a9.88,9.88,0,0,0-3.42-.21c-1.88.55-4.3.93-6.06,2.05-.58.37,1.43.34,1.23.33C77.32,43.56,79,43.84,80,43.4Z"/><path class="cls-7" d="M80.67,44.94c.75-.35,8-2.2,5.83-1.58.73-.21-1.67-.5-1.31-.46-1.09-.13-2.83-.59-3.92-.25-1.85.58-4.16,1-5.86,2.11-.57.39,1.52.33,1.34.33C77.81,45.11,79.67,45.41,80.67,44.94Z"/><path class="cls-7" d="M80.15,42.29A7,7,0,0,1,81.32,42a25.79,25.79,0,0,0,4.62-1.22c.58-.16-1.1-.45-.85-.42a7.18,7.18,0,0,0-2.57-.11c-1.69.44-4.43.82-6.2,1.85-.54.32,1.17.34,1,.33A7,7,0,0,0,80.15,42.29Z"/><path class="cls-7" d="M80.08,47l.68-.32-.94.1c2.76-.09,2.12-.21,6.08-1.32.63-.17-1.28-.46-1-.42a8.21,8.21,0,0,0-3-.14c-1.71.51-3.91.75-5.42,1.91-.45.35,1,.33.91.33A6.51,6.51,0,0,0,80.08,47Z"/><path class="cls-7" d="M79.92,45.54A58.88,58.88,0,0,1,85.78,44c.73-.21-1.67-.51-1.3-.46-1.09-.14-2.82-.59-3.91-.25-2,.61-4.07.91-5.75,2.12-.55.39,1.46.33,1.3.32C77.15,45.71,79,46,79.92,45.54Z"/><path class="cls-7" d="M80.16,44.07a3.19,3.19,0,0,1,1.17-.32A14.1,14.1,0,0,0,86,42.47c.72-.2-1.64-.5-1.29-.46-1.07-.13-2.77-.57-3.85-.24-1.91.58-4.22.95-6,2.11-.59.39,1.55.33,1.36.33C77.25,44.23,79.17,44.55,80.16,44.07Z"/><path class="cls-7" d="M79.81,46.19a6.29,6.29,0,0,1,1.28-.31,18.34,18.34,0,0,0,4.55-1.26c.64-.18-1.33-.47-1-.43a8.32,8.32,0,0,0-3.1-.17c-1.82.54-4,.81-5.59,2-.49.36,1.12.33,1,.33A7.42,7.42,0,0,0,79.81,46.19Z"/><path class="cls-7" d="M80.86,43.51l.67-.31-1.15.09c2.89-.08,2.22-.19,6.27-1.32.66-.19-1.38-.48-1.06-.44a9.45,9.45,0,0,0-3.22-.17c-1.68.48-4.31.9-6,2-.57.35,1.36.33,1.15.33C78.41,43.67,80,43.92,80.86,43.51Z"/><path class="cls-7" d="M80.26,46.57a4.82,4.82,0,0,1,1.3-.3A15,15,0,0,0,86.15,45c.72-.21-1.59-.5-1.24-.46-1-.13-2.71-.56-3.75-.23-1.89.6-4,.88-5.59,2.08-.52.39,1.33.33,1.19.33C77.73,46.74,79.35,47,80.26,46.57Z"/><path class="cls-7" d="M79.86,44.8a58.75,58.75,0,0,1,5.83-1.6c.72-.2-1.62-.5-1.27-.46-1.06-.13-2.73-.56-3.79-.24-1.95.6-4.15.93-5.86,2.11-.56.39,1.47.33,1.3.33C77.09,45,78.9,45.26,79.86,44.8Z"/><path class="cls-7" d="M80.71,45.83A4.27,4.27,0,0,1,82,45.54a14.48,14.48,0,0,0,4.61-1.28c.73-.21-1.64-.5-1.28-.46-1.08-.13-2.79-.58-3.86-.25-1.84.58-4.08.93-5.73,2.1C75.16,46,77.15,46,77,46,78,46,79.75,46.28,80.71,45.83Z"/><path class="cls-7" d="M80.56,47.38l.69-.31-1,.09c2.86-.07,2.17-.18,6.2-1.32.67-.19-1.42-.47-1.1-.43a9.19,9.19,0,0,0-3.3-.17c-1.72.53-3.89.79-5.4,2-.47.37,1.11.33,1,.33A7.49,7.49,0,0,0,80.56,47.38Z"/><path class="cls-7" d="M73.79,50.87,70.66,54.5c0,.06,2.69,0,2.65,0,.62-.06,2.1,0,2.61-.51L79,50.81c.07-.07-2.67-.21-2.63-.21C75.94,50.6,74.2,50.39,73.79,50.87Z"/><path class="cls-7" d="M74.42,52.41l-3,3.49c-.39.44,1.15.22,1.12.22.64,0,2.66.05,3.16-.46l3.2-3.29a14.65,14.65,0,0,0-2.22-.22C76.18,52.16,74.8,52,74.42,52.41Z"/><path class="cls-7" d="M73.48,49.76l-3,3.49c-.38.44,1.13.2,1.09.2.65-.06,2.54,0,3-.5l3.2-3.24a13.87,13.87,0,0,0-2.17-.22C75.19,49.5,73.85,49.32,73.48,49.76Z"/><path class="cls-7" d="M73.34,54.48l-3,3.5c-.38.44,1.14.2,1.11.21.64-.06,2.59,0,3.09-.5l3.15-3.24a13.87,13.87,0,0,0-2.17-.22C75.06,54.23,73.71,54.05,73.34,54.48Z"/><path class="cls-7" d="M73.83,53,70.7,56.64s2.84,0,2.82,0c.62-.06,2.24,0,2.76-.52L79.38,53c.06-.06-2.81-.22-2.77-.22C76.13,52.75,74.26,52.51,73.83,53Z"/><path class="cls-7" d="M74.08,51.53,71,55.16c0,.06,2.71,0,2.68,0,.62-.06,2.13,0,2.64-.51l3.11-3.13c.07-.06-2.69-.21-2.65-.21C76.26,51.27,74.49,51.05,74.08,51.53Z"/><path class="cls-7" d="M73.36,53.66,70.21,57.3s1.71.06,1.93,0c.66-.07,2.43.07,2.92-.43l3.21-3.29a21.83,21.83,0,0,0-2.46-.22C75.35,53.4,73.76,53.2,73.36,53.66Z"/><path class="cls-7" d="M74.27,50.87l-3.09,3.58c-.36.41,1,.21.93.21.56,0,2.13,0,2.57-.45l3-3.15c.37-.38-.86-.33-.88-.33C76.4,50.72,74.61,50.48,74.27,50.87Z"/><path class="cls-7" d="M74,54l-3.15,3.63s1.64,0,1.85,0c.63-.06,2.31.07,2.78-.42L78.67,54a19.94,19.94,0,0,0-2.34-.23C75.87,53.79,74.38,53.59,74,54Z"/><path class="cls-7" d="M73.78,52.26,70.66,55.9s2.87,0,2.84,0c.64-.06,2.27,0,2.8-.52l3.12-3.12c0-.05-2.85-.21-2.82-.21C76.12,52,74.21,51.77,73.78,52.26Z"/><path class="cls-7" d="M74.33,53.3l-3,3.49c-.38.43,1.08.22,1.06.22.61,0,2.52.05,3-.44l3.17-3.3a12,12,0,0,0-2.11-.22C76,53.05,74.7,52.88,74.33,53.3Z"/><path class="cls-7" d="M73.81,54.86l-3,3.48c-.37.42,1,.21,1,.21.58,0,2.28,0,2.73-.46l3-3.15c.37-.38-1.23-.33-1.37-.33C75.6,54.6,74.22,54.38,73.81,54.86Z"/><path class="cls-7" d="M76.46,63.36l2.31,1.08c.5.24-.08-1-.06-1-.22-.57-.62-2.12-1.2-2.45l-1.92-1.1c-.47-.28,0,1,0,1C75.67,61.32,76,63.13,76.46,63.36Z"/><path class="cls-7" d="M77.22,65.1l2.37,1.06s-.49-1.75-.58-2c-.28-.7-.65-2.45-1.33-2.86l-2.07-1.25s.58,2.6.58,2.59C76.33,63.11,76.64,64.83,77.22,65.1Z"/><path class="cls-7" d="M76.61,63l2.21,1c.33.15-.31-1.71-.71-1.91l-1.87-1C75.88,60.89,76.22,62.78,76.61,63Z"/><path class="cls-7" d="M76.63,67.71l2.42,1s-1-3-1-3c-.3-.71-.73-2.34-1.46-2.82l-1.85-1.2a.87.87,0,0,0,0,.69c.22.8.46,1.59.72,2.38C75.6,65.25,76,67.43,76.63,67.71Z"/><path class="cls-7" d="M76.68,65.77l2.39,1s-1-3-1-3c-.28-.68-.7-2.37-1.42-2.82l-1.9-1.17a.81.81,0,0,0,0,.68c.21.8.44,1.59.7,2.37C75.65,63.34,76.05,65.5,76.68,65.77Z"/><path class="cls-7" d="M76.78,64l2.34,1.08s-.42-1.59-.5-1.78c-.25-.63-.59-2.19-1.21-2.56l-1.92-1.13c-.47-.28.14,1.54.19,1.7C75.86,61.92,76.12,63.7,76.78,64Z"/><path class="cls-7" d="M76.46,66.65l2.4,1s-.93-2.84-.92-2.83c-.28-.66-.67-2.21-1.37-2.64L74.65,61a.76.76,0,0,0,0,.64c.2.75.42,1.5.67,2.24C75.48,64.38,75.84,66.38,76.46,66.65Z"/><path class="cls-7" d="M77.2,63.84l2.26,1c.47.21,0-.87,0-.85-.18-.49-.56-1.74-1.07-2l-1.85-1c-.44-.25-.09.82-.09.82C76.51,62.15,76.78,63.66,77.2,63.84Z"/><path class="cls-7" d="M77,67.17l2.43,1a.93.93,0,0,0-.1-.74c-.3-.85-.63-1.7-1-2.53s-.76-2.61-1.53-3.09l-1.91-1.2a1,1,0,0,0,0,.74c.24.87.5,1.73.78,2.59C75.88,64.47,76.33,66.89,77,67.17Z"/><path class="cls-7" d="M76.57,64.82l2.36,1.06s-.5-1.8-.59-2c-.24-.6-.49-1.18-.75-1.77A4.69,4.69,0,0,0,77,60.91l-2-1.26s.6,2.67.6,2.66C75.66,62.77,76,64.55,76.57,64.82Z"/><path class="cls-7" d="M77.31,66.26l2.41,1s-1-2.92-1-2.91c-.27-.66-.68-2.28-1.39-2.72l-1.91-1.17a.77.77,0,0,0,0,.66c.2.77.43,1.53.68,2.29C76.32,63.92,76.69,66,77.31,66.26Z"/><path class="cls-7" d="M77.16,68.28l2.45,1a.93.93,0,0,0-.11-.74Q79,67.3,78.48,66c-.32-.75-.79-2.58-1.58-3.09l-1.84-1.22a1,1,0,0,0,0,.75c.24.87.5,1.74.79,2.6C76,65.56,76.49,68,77.16,68.28Z"/><path class="cls-7" d="M85.51,62.87l-.75.47-.18-2.85-.6.3c-.45.12-.87,1.42-1,1.79-.05.11-.63,1.32-.4,1.31a5.35,5.35,0,0,0,3.18-.68c.39-.24-.82-3.12-1.09-3.27l-.69-.37c-.53-.28.23,1.11.16,1q.41.8.87,1.56A2.43,2.43,0,0,0,85.51,62.87Z"/><path class="cls-7" d="M86.14,64.51,84,65l.54-3.75-.42.23c-.37.19-1.4,3.93-1.25,3.93a6.35,6.35,0,0,0,3.38-.45c.38-.19-1.37-4.38-1.66-4.54L83.86,60c-.61-.34.43,1.48.34,1.3.39.73.79,1.46,1.21,2.18A4.94,4.94,0,0,0,86.14,64.51Z"/><path class="cls-7" d="M84.93,61.09l.76,1.48-.49-1.63a1.12,1.12,0,0,1-1.27.85c-.38.05-1.57,1.57-1.11,1.57a4.87,4.87,0,0,0,3.12-.66c.33-.23-.21-1.53-.4-1.72l-.42-.4C84.69,60.16,84.83,60.9,84.93,61.09Z"/><path class="cls-7" d="M85.78,67.06,82,67.24a.56.56,0,0,0,0,.55,7.58,7.58,0,0,0,2.07.19,2,2,0,0,0,1.68-.48c.36-.18-1.48-5.06-2.11-5.34l-.77-.35a.72.72,0,0,0,.14.64q.53,1.06,1.11,2.1c.38.7.79,1.38,1.21,2A.76.76,0,0,0,85.78,67.06Z"/><path class="cls-7" d="M85.77,65.21l-1,.62L84,60.75l-.15.62.23-.53-.12.06c-.75.35-1.65,5.06-1.63,5.06a6.14,6.14,0,0,0,3.43-.43c.34-.17-1.43-5.16-2.08-5.39l-.9-.31s1.29,2.8,1.3,2.81q.59,1.06,1.23,2.1A.75.75,0,0,0,85.77,65.21Z"/><path class="cls-7" d="M84.45,61.52l1,1.91-1.26-3.26.46,3-.27-2.89-.32.24c-.75.26-1.47,3.91-1.51,3.91a5.88,5.88,0,0,0,3.24-.64c.39-.23-1.15-3.92-1.44-4.06l-.75-.37C83.11,59.1,84.52,61.64,84.45,61.52Z"/><path class="cls-7" d="M85.56,66l-3.65.27a.54.54,0,0,0,0,.54,7.69,7.69,0,0,0,2,.09,2,2,0,0,0,1.57-.5c.39-.2-1.35-4.77-2-5l-.78-.33a.7.7,0,0,0,.12.62q.49,1,1,2c.36.65.74,1.3,1.14,1.93A.67.67,0,0,0,85.56,66Z"/><path class="cls-7" d="M85.06,61.3l1.13,2.15L85.37,61c.08.69-.16,1.09-.74,1.2-.37.16-1.71,2.1-1.2,2.1a4.91,4.91,0,0,0,3-.62c.41-.25-.66-2.57-.9-2.76l-.6-.48C84.52,60.07,85.16,61.49,85.06,61.3Z"/><path class="cls-7" d="M86,66.47l-1.13.36-.75-5.1-.16.71.23-.56-.3.23c-.31.23-1.68,5-1.42,5.07a5.68,5.68,0,0,0,3.65-.2c.31-.14-1.61-5.64-2.32-5.92l-.89-.35a.92.92,0,0,0,.18.71c.27.56.57,1.11.87,1.66s.75,1.36,1.15,2A6.78,6.78,0,0,0,86,66.47Z"/><path class="cls-7" d="M85.62,64.29l-1.08.3-.46-4.25-.36.3c-.52.11-.87,1.9-1,2.21,0-.05-.8,2.36-.51,2.36a6,6,0,0,0,3.37-.6c.4-.22-1.26-4.49-1.84-4.72L83,59.58S84.1,62,84.1,62.05c.34.63.7,1.24,1.08,1.84A.65.65,0,0,0,85.62,64.29Z"/><path class="cls-7" d="M86.28,65.62,84,66l.46-4.2L84,62a14,14,0,0,0-1.2,4.33,6.7,6.7,0,0,0,3.56-.27c.34-.14-1.48-4.92-2.09-5.24l-.6-.31c-.65-.34.5,1.61.41,1.44.45.83.9,1.64,1.37,2.46A5.86,5.86,0,0,0,86.28,65.62Z"/><path class="cls-7" d="M86.17,67.53l-3.8.07a.58.58,0,0,0,0,.56,8.69,8.69,0,0,0,2.08.29,2.19,2.19,0,0,0,1.76-.38c.3-.12-1.67-5.54-2.35-5.87l-.8-.39a.9.9,0,0,0,.18.7c.27.56.56,1.1.87,1.64s.74,1.36,1.13,2A7.5,7.5,0,0,0,86.17,67.53Z"/><path class="cls-7" d="M85.07,69.26,86.75,67c.49-.56-1.63.23-1.38.15-.82.28-1.64.58-2.45.9a5.27,5.27,0,0,0-1.23.57A11.36,11.36,0,0,0,79.85,71c-.31.47,1.82-.26,2-.33C82.66,70.35,84.59,70.05,85.07,69.26Z"/><path class="cls-7" d="M85.67,70.8l1.72-2.31c.49-.55-1.63.24-1.37.15-.81.28-1.62.58-2.42.89a5,5,0,0,0-1.21.58,11,11,0,0,0-1.78,2.34c-.31.46,1.76-.25,2-.32C83.34,71.87,85.2,71.57,85.67,70.8Z"/><path class="cls-7" d="M85.08,68.24a8.92,8.92,0,0,1,1.8-2.43c.46-.52-1.46.19-1.22.1-.87.3-2.51.63-3.17,1.33a10.41,10.41,0,0,0-1.87,2.31c-.37.53,1.36-.11,1.23-.07.72-.23,1.44-.48,2.15-.75A3.78,3.78,0,0,0,85.08,68.24Z"/><path class="cls-7" d="M85.09,72.93a8,8,0,0,1,1.73-2.37c.37-.42-1,0-.86,0a5,5,0,0,0-2.09.95,9,9,0,0,0-1.62,2.2c-.28.43.86,0,.81.07C83.51,73.64,84.82,73.38,85.09,72.93Z"/><path class="cls-7" d="M84.81,71.61a9,9,0,0,1,1.83-2.45c.47-.53-1.56.21-1.3.12-.88.3-2.78.65-3.42,1.39A11.07,11.07,0,0,0,80.16,73c-.36.55,1.38-.12,1.28-.09.75-.24,1.5-.5,2.24-.78A4.15,4.15,0,0,0,84.81,71.61Z"/><path class="cls-7" d="M85.25,69.94l1.69-2.3c.49-.56-1.72.27-1.46.18-.86.3-1.72.61-2.57.94a5.92,5.92,0,0,0-1.3.6,15.6,15.6,0,0,0-1.93,2.52.75.75,0,0,0,.65,0c.75-.22,1.48-.45,2.22-.72S84.85,70.6,85.25,69.94Z"/><path class="cls-7" d="M84.74,72.19a8.66,8.66,0,0,1,1.81-2.43c.41-.46-1.18.08-1,0a6.29,6.29,0,0,0-2.49,1.06,11,11,0,0,0-1.72,2.3c-.3.48,1,0,1,0C82.85,73,84.41,72.72,84.74,72.19Z"/><path class="cls-7" d="M85.91,69.3A8.32,8.32,0,0,1,87.62,67c.48-.54-1.55.22-1.29.13-.92.32-2.72.67-3.41,1.42a10.36,10.36,0,0,0-1.83,2.29c-.31.45,1.7-.23,1.87-.29C83.71,70.32,85.45,70.05,85.91,69.3Z"/><path class="cls-7" d="M85.13,72.61A8.81,8.81,0,0,1,87,70.16c.44-.49-1.37.14-1.14.07-.76.25-2.37.56-2.93,1.22a10.85,10.85,0,0,0-1.72,2.31c-.33.5,1.19-.06,1.1,0C82.89,73.54,84.76,73.21,85.13,72.61Z"/><path class="cls-7" d="M84.89,70.71l1.72-2.3c.48-.54-1.61.22-1.35.14-.8.27-1.59.57-2.38.87a4.83,4.83,0,0,0-1.19.57,11,11,0,0,0-1.79,2.34c-.31.47,1.74-.24,1.93-.31C82.6,71.76,84.43,71.47,84.89,70.71Z"/><path class="cls-7" d="M85.57,71.85a8.49,8.49,0,0,1,1.83-2.46c.47-.52-1.5.19-1.25.1-.84.29-2.65.63-3.26,1.34a11,11,0,0,0-1.75,2.33c-.35.53,1.32-.1,1.22-.07.71-.23,1.43-.48,2.13-.75A3.78,3.78,0,0,0,85.57,71.85Z"/><path class="cls-7" d="M85.52,73.31a8.27,8.27,0,0,1,1.76-2.39c.4-.44-1.1.07-.91,0a5.68,5.68,0,0,0-2.29,1,9.77,9.77,0,0,0-1.62,2.2c-.29.45.93,0,.87,0C83.81,74.07,85.23,73.79,85.52,73.31Z"/><path class="cls-7" d="M77.19,76.61,77.64,79c0,.16.06.19.19.1,1.51-.76,1-.3,2-1.76.32-.45-.7-2.62-.81-1.78l.22-2.09c-.06-.58-.82.73-.77.65C78.21,74.62,77.08,76,77.19,76.61Z"/><path class="cls-7" d="M77.75,78.18l.45,2.47c0,.18.06.22.2.1,1.63-.83,1.08-.34,2.19-1.91.27-.38,0-1.56-.11-2a1.36,1.36,0,0,0-.18-.66c-.09-.08-.16-.08-.23,0l.2-1.86c-.06-.63-1,.93-.88.83C79,75.76,77.62,77.46,77.75,78.18Z"/><path class="cls-7" d="M76.81,76l.43,2.31a.12.12,0,0,0,.2.09,2.72,2.72,0,0,0,1.88-1.7c.23-.35-.8-1.2-1-.71l-.16.47.29-.14-.37-2.07C78.05,73.94,76.71,75.52,76.81,76Z"/><path class="cls-7" d="M76.69,81l.5,2.48.18-.1A4.43,4.43,0,0,0,80,80.77a5.37,5.37,0,0,0,.23-2.63c0-.28-.19-1-.38-.29l.12-2.29a.83.83,0,0,0-.5.47c-.46.7-.9,1.4-1.32,2.12C77.79,78.67,76.54,80.22,76.69,81Z"/><path class="cls-7" d="M77.14,79.08l.49,2.47.18-.1c1.74-1,1.19-.46,2.33-2.12.4-.59.25-2.33.2-2.93,0-.32-.21-1.15-.39-.32l.38-2.36a.81.81,0,0,0-.5.46c-.45.69-.89,1.39-1.3,2.1C78.22,76.8,77,78.33,77.14,79.08Z"/><path class="cls-7" d="M77.46,77.18l.44,2.46c0,.18,0,.21.2.1,1.54-.76,1-.31,2.09-1.78.26-.36-.06-1.57-.15-1.95a1.34,1.34,0,0,0-.2-.65c-.09-.09-.16-.08-.22,0l.29-1.9c-.07-.63-.93.9-.87.8C78.7,74.83,77.33,76.47,77.46,77.18Z"/><path class="cls-7" d="M76.69,80l.5,2.48.18-.09A4.24,4.24,0,0,0,79.85,80,5.48,5.48,0,0,0,80,77.33c0-.27-.21-1-.39-.28l.16-2.31a.79.79,0,0,0-.49.46c-.44.67-.87,1.35-1.27,2C77.74,77.76,76.54,79.24,76.69,80Z"/><path class="cls-7" d="M77.59,77.1,78,79.45c0,.13.09.16.2.1a2.94,2.94,0,0,0,2-1.86c.2-.29-.86-1.5-1-1l-.47.86.61-.5-.24-2.14c-.06-.5-.68.47-.65.42C78.28,75.64,77.51,76.62,77.59,77.1Z"/><path class="cls-7" d="M77.19,80.37l.5,2.48.18-.1c1.9-1.15,1.29-.53,2.5-2.38a6.69,6.69,0,0,0,.28-2.94c0-.31-.18-1.16-.38-.33l-.84,3.43,1-3.37-.72,1.33,1-1.25-.21-2.47a.87.87,0,0,0-.52.49c-.47.72-.92,1.44-1.36,2.19C78.34,78,77,79.59,77.19,80.37Z"/><path class="cls-7" d="M77.19,78.17l.48,2.46.16-.08c1.64-.88,1.11-.39,2.21-1.94.34-.48.12-2.15,0-2.61-.06-.27-.26-1-.41-.25L80,73.6c-.05-.56-1.2,1.34-1.3,1.52C78.32,75.8,77,77.3,77.19,78.17Z"/><path class="cls-7" d="M77.69,79.4l.48,2.47.17-.07c1.75-1,1.17-.42,2.32-2.11.31-.46.1-1.69,0-2.19a1.68,1.68,0,0,0-.14-.74c-.08-.11-.15-.11-.22,0l-.54,1.45.91-1-.23-2.25c0-.55-1.18,1.31-1.28,1.48C78.79,77.09,77.53,78.55,77.69,79.4Z"/><path class="cls-7" d="M77.14,81.38l.5,2.48.18-.1c2-1.31,1.37-.6,2.6-2.59a5.7,5.7,0,0,0,.24-2.68c0-.28-.18-1.07-.38-.3l.12-2.27a.87.87,0,0,0-.51.47c-.46.7-.91,1.41-1.33,2.14C78.25,79.05,77,80.62,77.14,81.38Z"/><path class="cls-7" d="M79,75.25c-.74.09-1.06.45-1,1.07l.13.13a3.86,3.86,0,0,0,3.27.93,7.88,7.88,0,0,0,2.17-.28c.54-.18-.92-.46-.72-.42a4.73,4.73,0,0,0-2.24-.12l-1.08-.26,3.9.89a3.85,3.85,0,0,0,.86-.31c.52-.2-1.67-.83-1.88-.89C81.8,75.78,79.77,74.83,79,75.25Z"/><path class="cls-7" d="M79.77,76.84c-.83.45-.87.24-1,1l.11.13,1.06.83c.51.41,2.61-.09,3.17-.33l.2-.09c.43-.19-.65-.38-.55-.36a3.25,3.25,0,0,0-1.64,0l0-.42,2,.81.76-.29c.5-.19-1.31-.73-1.43-.76C81.83,77.18,80.41,76.5,79.77,76.84Z"/><path class="cls-7" d="M78.78,74.09c-.5.28-1.22.41-.87,1.13a4.3,4.3,0,0,0,1.81,1,6.57,6.57,0,0,0,3.22-.44c.46-.18-.72-.4-.59-.38a3.62,3.62,0,0,0-1.79,0l-1.36-.31,3.46.77c.28-.12.57-.22.86-.32.52-.18-1.49-.77-1.66-.82C81.2,74.52,79.47,73.7,78.78,74.09Z"/><path class="cls-7" d="M78.82,78.74c-.91.52-.89.29-1.18,1.08l.1.12,1.13.88c.39.3,2.33-.19,2.69-.48l.17-.14c.35-.29-1.29-.32-1.44-.26L79,80.49l2.57-.27.51-.3c.52-.21-.83-.6-.76-.57C80.91,79.2,79.3,78.47,78.82,78.74Z"/><path class="cls-7" d="M79.23,77.44a1.09,1.09,0,0,0-1.07,1l.13.13,1.11.87c.29.23,1.8,0,2,0a5.65,5.65,0,0,0,2-.25l.12,0c.48-.24-.82-.43-.7-.41a4.52,4.52,0,0,0-2.13-.08l-1-.25,3.76.85.78-.31c.52-.2-1.55-.8-1.73-.85C82,78,79.71,77,79.23,77.44Z"/><path class="cls-7" d="M79.38,76c-.71.09-1,.43-1,1l.12.13a3.53,3.53,0,0,0,3.17.9,8.49,8.49,0,0,0,2.14-.29c.54-.16-.92-.45-.72-.41a4.65,4.65,0,0,0-2.22-.11l-1-.24,3.84.87a3.21,3.21,0,0,0,.83-.31c.52-.19-1.62-.81-1.82-.87C82,76.47,80.1,75.54,79.38,76Z"/><path class="cls-7" d="M78.78,78.05c-.84.46-.85.25-1.11,1l.11.12,1.16.89c.46.35,2.81,0,3.26-.34l.17-.12c.32-.22-1.77-.49-2.14-.33L78.94,79l3.36.63.63-.26c.51-.19-1.31-.73-1.44-.77C80.87,78.4,79.42,77.7,78.78,78.05Z"/><path class="cls-7" d="M79.69,75.26c-.91.51-1,.27-1.08,1.09l.1.12c1.16.8,1.07.94,2.2.81a6.11,6.11,0,0,0,1.76-.41c.73-.32-1.16-.53-1.47-.39l-1.49-.25,2.81.63.79-.34c.55-.22-.94-.62-.85-.59C82,75.77,80.2,75,79.69,75.26Z"/><path class="cls-7" d="M79.48,78.38c-.9.5-.93.29-1.21,1.06l.1.12,1,.86c.41.35,2.71-.09,3.13-.39l.14-.09c.32-.24-1.68-.44-2-.29l-1.2-.3,3.18.59.6-.26c.55-.22-1-.63-.88-.6C81.85,78.91,80,78.08,79.48,78.38Z"/><path class="cls-7" d="M79.14,76.68c-.69.1-1,.44-1,1l.14.13c1.38,1,1.58,1,3.23.91a7,7,0,0,0,2.18-.27c.53-.2-.92-.45-.74-.42A5,5,0,0,0,80.64,78l-1-.24,3.93.89.81-.3c.52-.2-1.64-.83-1.85-.89C81.84,77.21,79.86,76.26,79.14,76.68Z"/><path class="cls-7" d="M79.82,77.63c-.91.5-.94.28-1.17,1.06l.09.12,1,.84c.44.36,2.4-.16,2.85-.41l.18-.1c.3-.16-.26-.31-.3-.33a2.76,2.76,0,0,0-1.37,0l-1.37-.23,3,.55.63-.26c.53-.22-.9-.62-.82-.59C82,78.12,80.33,77.34,79.82,77.63Z"/><path class="cls-7" d="M79.21,79.09c-.91.52-.86.28-1.13,1.06l.08.12,1,.86c.28.22,1.83-.26,2.09-.44l.26-.17c.57-.39-.81-.36-1-.27l-1.22.54,2.18-.34.48-.33c.47-.2-.68-.55-.63-.53C81,79.45,79.62,78.85,79.21,79.09Z"/><path class="cls-8" d="M175.9,66.18a21.62,21.62,0,0,0-.5,5.9l-.06,6.24L175.23,91l2.59-.93-1.3-.6.33.65a100.18,100.18,0,0,1,1.38-12.71c.67-4,1.23-8,.3-12-.28-1.22-3.18-.47-2.9.77.93,4,.27,8-.4,12a94.94,94.94,0,0,0-1.3,12.25.66.66,0,0,0,.33.65l1.3.61c.68.31,2.58.15,2.59-.93L178.27,78l0-6.23a21.62,21.62,0,0,1,.5-5.9c.37-1.24-2.58-.88-2.92.27Z"/><path class="cls-8" d="M174.33,96.58c1.66,8-1.89,15.89-1,23.9.1.89,3,.27,2.9-.77-.9-8,2.65-15.91,1-23.91-.19-.92-3.1-.21-2.89.78Z"/><path class="cls-8" d="M171.7,67.21c-.8,4-1.83,8-2.29,12.06a56.59,56.59,0,0,0-.22,5.83c0,1.91-.34,4.12.18,6,.36,1.32,3.26.54,2.89-.78-.49-1.8-.14-4-.13-5.88a47,47,0,0,1,.27-5.81c.5-3.9,1.46-7.77,2.24-11.63.28-1.41-2.68-1-2.94.23Z"/><path class="cls-8" d="M169.38,97.37a33.46,33.46,0,0,1-.21,5.66l-.42,5.71-.82,11.42c-.1,1.31,2.83.8,2.91-.31L171.7,108l.43-5.94a31.92,31.92,0,0,0,.15-5.44c-.11-1.1-3-.44-2.9.77Z"/><path class="cls-8" d="M162.67,56.43a123.26,123.26,0,0,0-1.45,22l2.79-.75-.38-.7c-.59-1.08-3.36,0-2.66,1.26l.38.7c.49.89,2.82.26,2.8-.75a123.2,123.2,0,0,1,1.45-22c.22-1.41-2.74-1-2.93.24Z"/><path class="cls-8" d="M158.72,53a154.75,154.75,0,0,0-2.13,26.24c0,.45,2.9,0,2.89-.78a154.73,154.73,0,0,1,2.09-26c.11-.67-2.74-.19-2.85.51Z"/><path class="cls-8" d="M157.2,82.75a259.69,259.69,0,0,0-.77,27.48c0,1.39,2.93.87,2.92-.28a259.69,259.69,0,0,1,.77-27.48c.13-1.36-2.81-.89-2.92.28Z"/><path class="cls-8" d="M161.79,83.11a167.78,167.78,0,0,0-1,30.31l2.89-.77-.19-1.2c-.18-1.16-3.09-.46-2.9.77l.2,1.2c.19,1.21,3,.42,2.89-.77a165.19,165.19,0,0,1,1-29.83c.16-1.32-2.77-.86-2.92.29Z"/><path class="cls-8" d="M143.51,44.26q-1.44,13.25-2.09,26.56l2.89-.6v-1c0-.71-2.89-.23-2.9.78v1c0,.73,2.85.2,2.89-.6q.64-13.3,2.1-26.56c.1-1-2.79-.42-2.89.43Z"/><path class="cls-8" d="M147.16,46.31q-.47,13-1.64,26l2.9-.58,0-.65c0-.86-2.92-.31-2.89.78v.65c0,.87,2.82.27,2.9-.58q1.16-13,1.63-26c0-1.15-2.86-.55-2.89.38Z"/><path class="cls-8" d="M141.36,75.64q-.84,12.09-1.41,24.21c-.07,1.54,2.36.87,2.85,0l.23-.38c.37-.64-.33-1.12-.88-1.2a2,2,0,0,0-1.89.88l-.23.39,2.85,0q.57-12.12,1.41-24.22c.1-1.47-2.84-1.05-2.93.24Z"/><path class="cls-8" d="M145.83,76.68q-.56,6.43-.7,12.9c-.08,4.17.13,8.32.14,12.48,0,1.45,2.92,1,2.92-.25,0-4.16-.22-8.31-.13-12.48s.33-8.61.7-12.9c.12-1.43-2.82-1-2.93.25Z"/><path class="cls-8" d="M59.43,98c-2.92,3.32-5.87,6.74-7.73,10.78a15.71,15.71,0,0,0-1.66,6A3.2,3.2,0,0,0,53.79,118c2.3-.17,4.27-2,5.72-3.62a40.11,40.11,0,0,0,3.81-5.58,21.35,21.35,0,0,0,2.75-6.17c.42-1.8.51-4.13-.7-5.66-1.45-1.85-4.11-1.38-5.48.31a14,14,0,0,0-1.71,3.36l-1.84,4.2c-.68,1.55,2.24,1.64,2.79.39q1.18-2.75,2.39-5.47a4.46,4.46,0,0,1,1-1.75s-.2-.11,0,.06a2,2,0,0,1,.58.83c1.28,3-1,6.84-2.47,9.36a45,45,0,0,1-2.82,4.27c-.86,1.12-2.19,2.86-3.65,3.2-1.73.41-1.06-2.37-.86-3.22A18.37,18.37,0,0,1,55.07,108a48.39,48.39,0,0,1,6.81-9.06.91.91,0,0,0-.4-1.48,1.91,1.91,0,0,0-2,.54Z"/><path class="cls-9" d="M58.72,99.13c-2.26,2.86-4.83,5.67-6.61,8.87a13,13,0,0,0-1.64,5c-.11,1.17-.24,3.73,1.14,4.23s3.21-.85,4.37-1.68a28.51,28.51,0,0,0,3.46-2.93,28.17,28.17,0,0,0,5.36-7.41,27.81,27.81,0,0,0,1.69-4.3c.41-1.33,1.09-3.15.1-4.38s-3.16-.83-4.34.14a46.26,46.26,0,0,0-3.73,3.68,31,31,0,0,0-6,8.48c-.81,1.81-3.28,7.88.74,7.49,1.77-.17,3.41-1.66,4.43-3,1.22-1.61,1.69-3.59,2.83-5.24a25.55,25.55,0,0,0,2.91-5,19.4,19.4,0,0,0,1.34-5.61c.12-1.34-2.49-.88-2.83,0-2.2,5.82-5.64,11-9.31,16l2.74.23c2.84-5.45,4.06-12.06,8.74-16.37a.7.7,0,0,0-.06-1.14,1.87,1.87,0,0,0-1.75,0,9.22,9.22,0,0,1-2.44.92l.86,1.65c.32-.17.73-.52,1.09-.32s.18,1.08.08,1.47a26.42,26.42,0,0,1-1.43,3.8c-1.12,2.52-2.4,5-3.63,7.46a19.94,19.94,0,0,1-1.71,3.19c-.15.19-.33.34-.48.52-.37.42.06,0,.05.12,0-.26-.15-.58-.14-.88s.06-.69.11-1A18.3,18.3,0,0,1,57.21,106c.37-.61-.33-1-.85-1.08a2,2,0,0,0-1.89.85A19.66,19.66,0,0,0,51.7,114c-.12,1.18-.09,2.47,1.22,2.92a4.1,4.1,0,0,0,3.64-.78,8.22,8.22,0,0,0,2.2-2.95c.76-1.49,1.49-3,2.23-4.49a60.14,60.14,0,0,0,3.63-8.26c.42-1.33.71-2.86-.79-3.6s-3-.15-4.33.53c-.44.23-1,.69-.77,1.26s1.13.5,1.63.39a12,12,0,0,0,3.19-1.2l-1.81-1.11c-4.86,4.47-6.15,11.2-9.09,16.85-.33.63.29,1,.84,1.09a2.1,2.1,0,0,0,1.9-.86c3.68-5,7.12-10.19,9.32-16l-2.84,0a17.69,17.69,0,0,1-1.63,6.18c-.92,1.93-2.4,3.49-3.35,5.4-.46.93-.77,1.94-1.31,2.84a6.74,6.74,0,0,1-.86,1.13c-.34.37-.86.62-1.17,1s.34,0,.41-.18a6,6,0,0,0,.06-.74c.06-.43.14-.87.24-1.29a16.14,16.14,0,0,1,1.09-3.18c1.78-3.94,4.75-7.12,7.8-10.12.07-.06,1.22-1.11,1.2-1.15h-.26c-.33-.07-.36,0-.08.23a5.25,5.25,0,0,1,.15.71,10.31,10.31,0,0,1-.72,3,25.09,25.09,0,0,1-2.4,5.21,25.79,25.79,0,0,1-3.77,4.87,23.06,23.06,0,0,1-2.33,2.08c-.39.31-.8.6-1.21.89a5.5,5.5,0,0,1-1.28.83l1.09,0c.26.06,0-.51-.07-.77a6,6,0,0,1-.11-1.11,8.82,8.82,0,0,1,.25-2.23,13.51,13.51,0,0,1,1.77-4,88.45,88.45,0,0,1,5.73-7.5c1.11-1.4-1.65-1.65-2.39-.71Z"/><path class="cls-9" d="M57.24,115.19c1.81,1.26,4.06,2.32,6.23,1.23,2-1,2.86-3.43,3.85-5.25a27.73,27.73,0,0,0,3-6.07c.24-.93.54-2.38-.31-3.09a3.5,3.5,0,0,0-1.66-.59l-1.72-.34.74,1.59.09-.11-.57.44a1.81,1.81,0,0,0-1,0c-.07-.07-.09,0-.05.19s-.19.51-.31.76c-.28.64-.56,1.28-.85,1.92-.52,1.18-1,2.35-1.57,3.52A16.69,16.69,0,0,1,59.45,115l2.21,1.2A89.34,89.34,0,0,0,69,103.3c.31-.67-.28-1.22-.91-1.32a1.85,1.85,0,0,0-1.88.91,84.93,84.93,0,0,1-7,12.37c-1,1.42,1.27,2,2.2,1.2C64,114.15,65.33,111,66.7,108l1.18-2.64a7.79,7.79,0,0,0,.91-2.52c.13-2.16-2.76-2.46-3.92-1.09-.6.72,0,1.44.75,1.59l1.22.25.62.13.37.07-.27-.12s-.06.91-.09,1.06a5.5,5.5,0,0,1-.31,1,37.92,37.92,0,0,1-2.37,4.56l-1.29,2.34a7.45,7.45,0,0,1-1.08,1.72c-.77.79-2.3-.46-3-.92a1.83,1.83,0,0,0-2.08.15,1,1,0,0,0-.13,1.6Z"/><path class="cls-9" d="M68.66,106.78a3.55,3.55,0,0,0,3.48.87l-1.58-.91-4.12,9,2.7-.52-.85-1c-.28-.33-.29-.29,0-.66.44-.65.88-1.3,1.3-2,.87-1.38,1.67-2.79,2.42-4.24.31-.61-.28-1-.82-1a2.14,2.14,0,0,0-1.9.83l-2.33,4.12c-.34.6.29,1,.82,1a2.16,2.16,0,0,0,1.9-.83L72,107.34l-2.72-.16c-.84,1.61-1.74,3.18-2.72,4.7-.23.35-.46.71-.7,1.06a3.55,3.55,0,0,0-.72,1.25,1.28,1.28,0,0,0,.38,1.07c.31.38.64.73,1,1.1.59.67,2.34.27,2.7-.51l4.12-8.95c.47-1-1-1-1.58-.9.2,0,.29,0,.11-.06a1.32,1.32,0,0,1-.47-.34c-.76-.83-3.52.26-2.68,1.18Z"/><path class="cls-9" d="M70.12,109.54a7.57,7.57,0,0,0,2.17.76c.31,0,2.95-.43,2.64-.93-.57-.93-1.58-.89-2.55-.72-.13,0-2.16.72-1.65,1l12.67,6,.06-.34c.54-.09.64-.14.32-.14a1.63,1.63,0,0,1-.31,0l-.7-.12c-.53-.11-1.07-.23-1.6-.37q-1.61-.41-3.15-1a38.13,38.13,0,0,1-5.84-2.7l-.06.35c-.23.23-1.51.06-.6.3a4,4,0,0,1,.58.2c.51.22,1,.48,1.49.72l3.12,1.51c.49.23,3.2-.46,2.74-1a10,10,0,0,0-3.79-2.58c-.36-.13-3.12.3-2.82.87.6,1.13,1.82,1.52,2.94,2l4.7,1.84a2.89,2.89,0,0,0,1.85-.2c.12,0,1.3-.57.88-.76a41.24,41.24,0,0,0-10.06-3.14c-.31-.06-3,.51-2.64.92,1.38,1.76,3.58,1.62,5.52,1,.11,0,1.3-.51.88-.76a36.84,36.84,0,0,0-4.21-2.12c-.51-.22-3.21.55-2.74,1a8,8,0,0,0,3.31,1.7l2.39-1.07a4.11,4.11,0,0,1-1.6-.84c-.5-.41-2.52.2-2.79.75a2.73,2.73,0,0,1-.58.81,1.55,1.55,0,0,1-.33.24c.63-.11.72-.17.27-.17a3.93,3.93,0,0,0-1.77.41c-.08,0-.92.49-.54.63,5,1.82,10,3.93,15.19,5.1.47.1,2.69-.22,2.65-.93L86,114.6a.26.26,0,0,0-.25-.15,4.75,4.75,0,0,0-3.16.68c-.08,0-.4.23-.35.39a.44.44,0,0,0,.21.36l2.27-.24c-.4-.64-1.29-.48-1.92-.35s-1.73.4-2,1.11,2.44-.09,2.73-.4l-1.37.38.34.05a3,3,0,0,0,.6,0,5.14,5.14,0,0,0,1.3-.15A3.43,3.43,0,0,0,86.57,115a19.33,19.33,0,0,0,2.36-5.85l-2.37.82s.17.42.18.49a1.5,1.5,0,0,1-.28.76c-.31.54-.65,1.07-1,1.6-.68,1.08-1.37,2.16-2.08,3.22l2.85-.53a2.26,2.26,0,0,1,.68-1.06l-2.73.41c-.14.2-.09.31.14.31-.23.09-1.18.4-.88.77s1.58-.1,1.86-.2c.73-.26,1.52-.61,1.73-1.42s-2.46.17-2.73.4a3,3,0,0,0-.92,1.32c-.19.54,2.51,0,2.85-.53q1.4-2.11,2.73-4.26c.59-1,1.15-2.34-.52-2.39-.47,0-2.22.22-2.37.82a24.47,24.47,0,0,1-.93,2.9c-.19.47-.39.93-.61,1.39a7.82,7.82,0,0,0-.69,1.35l-.13.22,1.23-.19s-.38,0-.45,0a5.06,5.06,0,0,0-1.1,0,4.08,4.08,0,0,0-2.53,1l2.73-.41-1.83.55c.35.55,1.87-.06,2.27-.24.62-.26,1.27-.68,1-1.42l-.34.39-1.43.38-.25-.15.2,3.13,2.64-.93c-5.08-1.14-10-3.2-14.85-5l-2.31,1c1.94.14,4.45-.69,5.38-2.53l-2.8.75a4.93,4.93,0,0,0,2,1,3.42,3.42,0,0,0,2-.39c.25-.12,1-.52.37-.68a7.29,7.29,0,0,1-3-1.59l-2.74,1a36,36,0,0,1,4.21,2.12l.89-.76c.37-.12.46,0,.07-.13a5.6,5.6,0,0,1-.66-.21,3.09,3.09,0,0,1-1.07-.86l-2.64.92a40.47,40.47,0,0,1,9.72,3l2.73-1-4.35-1.71c-1.1-.43-2.53-.78-3.12-1.9l-2.82.86a9.91,9.91,0,0,1,3.79,2.59l2.74-1a39.46,39.46,0,0,0-5.28-2.46,5,5,0,0,0-4.66,1c-.09.09-.24.25-.06.35a38.39,38.39,0,0,0,8.36,3.52c2.71.77,5.83,1.46,8.26-.43.09-.07.24-.27.07-.35l-12.67-6-1.65,1c-.37.06.12.37.21.52l2.65-.93a6.17,6.17,0,0,1-1.82-.64,2.68,2.68,0,0,0-1.86.2c-.12,0-1.29.54-.88.76Z"/><path class="cls-10" d="M60.17,99.47a11.11,11.11,0,0,0-3.06,3.27l-3,4.25c-1.69,2.39-4.08,5.16-3.39,8.31.1.43.94.39,1.24.34a11.26,11.26,0,0,0,6.75-4.22A30.16,30.16,0,0,0,63.16,104a28.81,28.81,0,0,0,1.43-4.13,1.82,1.82,0,0,0,0-1.55,1.81,1.81,0,0,0-1.78-.47c-1.67.25-2.52,1.36-3.42,2.66l-2.81,4.1c-1.85,2.7-4.17,5.5-4.56,8.86-.09.76,1.23.54,1.62.45a8.45,8.45,0,0,0,5.28-4c1.28-2.14,1.87-4.61,3.26-6.67.38-.55-.32-.75-.75-.75a2.62,2.62,0,0,0-1.92.76,34.18,34.18,0,0,0-5.41,7.72c-.27.51.84.56,1,.54a2.61,2.61,0,0,0,1.74-.75c2.21-2.42,4.49-5,5.18-8.32.23-1.1-2.45-.3-2.78.21a61.73,61.73,0,0,0-3.86,6.81c-.26.52.83.56,1,.55a2.55,2.55,0,0,0,1.74-.75,23.79,23.79,0,0,0,4.61-9.94L60,100c1.74,1.94-.85,4.38-2,5.85A17.56,17.56,0,0,0,54.75,112l2.88-.41.21-1c.21-1-2.69-.52-2.88.4l-.21,1c-.21,1,2.65.48,2.88-.41A18,18,0,0,1,61.37,105c1.34-1.65,3.1-4,1.31-6-.53-.6-2.63,0-2.79.75a22.63,22.63,0,0,1-4.4,9.55l2.79-.21a59.06,59.06,0,0,1,3.65-6.43l-2.79.21c-.66,3.17-2.84,5.61-5,7.93l2.78-.2a33.15,33.15,0,0,1,5.2-7.33H59.48a41.84,41.84,0,0,0-2.78,5.76c-.69,1.43-1.79,3.25-3.44,3.64l1.62.45c.35-3.08,2.37-5.58,4.07-8.06l2.73-4,.72-1.06a5.8,5.8,0,0,0,.65-.85c-1-.24-1.38-.1-1.2.43a1.78,1.78,0,0,1-.08.45,11.05,11.05,0,0,1-.3,1.09,29.86,29.86,0,0,1-3.69,8,22.1,22.1,0,0,1-2.6,3.35,5.67,5.67,0,0,1-2.81,1.81l1.23.34c-.63-2.85,1.64-5.38,3.17-7.54l2.56-3.6c.74-1,1.49-2.48,2.6-3.18.39-.25.86-.71.28-1a2.47,2.47,0,0,0-2,.3Z"/><path class="cls-10" d="M60.58,114.07c2-.93,3.09-3.11,4.24-4.91l3.88-6c.39-.6-.33-1.06-.85-1.11a2.07,2.07,0,0,0-1.9.86L62.4,108.4c-.57.89-1.13,1.78-1.71,2.66A7.06,7.06,0,0,1,60,112a2.14,2.14,0,0,1-.69.56c-.48.22-1.14.84-.71,1.4s1.41.4,1.95.16Z"/><path class="cls-10" d="M68.5,113.12a8.4,8.4,0,0,0,2.17-6c0-.22-.41-.35-.56-.38a2.46,2.46,0,0,0-1.08.07c-.5.15-1.29.45-1.26,1.09a7.45,7.45,0,0,1-.47,2.81c-.09.23-.18.46-.29.68s0-.1,0,0l-.09.16c-.05.1-.12.21-.18.31a7.58,7.58,0,0,1-.91,1.2.44.44,0,0,0,0,.58,1.15,1.15,0,0,0,.78.24,2.63,2.63,0,0,0,1.92-.78Z"/><path class="cls-10" d="M87.13,110.25l.4.5.18.11a1,1,0,0,0,.42.08,1.37,1.37,0,0,0,.35,0,2.26,2.26,0,0,0,.57-.09l.06,0a3,3,0,0,0,.42-.14l.37-.17.06,0a2.71,2.71,0,0,0,.35-.24,2.39,2.39,0,0,0,.23-.22l0-.05.07-.09a2.64,2.64,0,0,0,.15-.29,1.18,1.18,0,0,0,0-.42.27.27,0,0,0-.19-.2.55.55,0,0,0-.35-.12,3,3,0,0,0-.42,0h-.11a3.57,3.57,0,0,0-.46,0c-.14,0-.29.05-.43.09l-.43.14c-.09,0-.17.08-.26.12a2.1,2.1,0,0,0-.26.13,2.54,2.54,0,0,0-.34.23,2.23,2.23,0,0,0-.27.26.35.35,0,0,0-.11.28.25.25,0,0,0,.09.25.77.77,0,0,0,.32.14,1.33,1.33,0,0,0,.45.05l.36,0a4,4,0,0,0,.77-.2l.33-.16a1.47,1.47,0,0,0,.46-.36l0-.05-.19.19.11-.09-.27.18.1,0-.33.15.1,0-.38.12.08,0-.39.08H89l-.36,0h.11l-.32,0h.1l-.54-.33s0,0,0,0v-.18a.54.54,0,0,1-.08.28l.1-.18a.61.61,0,0,1-.12.16l.19-.19a.39.39,0,0,1-.1.08l.27-.17-.08,0,.33-.15-.07,0,.38-.13-.07,0,1.52.08-.39-.5a.58.58,0,0,0-.32-.14,1.12,1.12,0,0,0-.45-.06,3.51,3.51,0,0,0-1.13.24l-.33.16a1.47,1.47,0,0,0-.46.36l-.11.19a.3.3,0,0,0,.09.33Z"/><path class="cls-10" d="M74.34,116.15l-.41,3.15c-.11.89,2.67.29,2.87-.46l.87-3.16-2.87.46-3.92,16.93L69,141.29l-1,4.35c-.14.58-.25,1.17-.42,1.74a5.08,5.08,0,0,1-.34.92,1.19,1.19,0,0,1-.25.38c-.28.29-.2.31.25.07-.36-.07-3,.65-2.28,1.18l1,.73,2-1.19-2.11.13c-.29,0-2.63.62-2,1.18a5.65,5.65,0,0,0,3.39,1.33,3,3,0,0,0,2-.54c.39-.36.43-.71-.2-.77l-2.35-.24a3.12,3.12,0,0,0-1.91.47c-.28.19-.76.61-.19.8l1.1.37a2.89,2.89,0,0,0,2-.34c.35-.19.92-.62.32-.88l-2.4-1c-.52-.23-3.18.62-2.53,1.13a3.22,3.22,0,0,0,3,.31c.32-.09,1.44-.43,1.3-.94s-1.32-.23-1.59-.15c.51,0,.52,0,0-.26l-2.53,1.13,2.4,1L68.05,151,67,150.61l-2.1,1.27,2.34.23,1.85-1.31a4.14,4.14,0,0,1-2.52-1.06l-2,1.19,2.11-.13c.28,0,2.66-.66,2-1.18l-1-.73-2.28,1.18a4.85,4.85,0,0,0,3.48-.81,4.75,4.75,0,0,0,1.77-3.11c.81-3.38,1.56-6.77,2.34-10.16l4.7-20.31c.18-.8-2.66-.33-2.87.46l-.87,3.16,2.87-.46.41-3.15c.12-.87-2.76-.33-2.87.46Z"/><path class="cls-10" d="M76,117.1l.14,12.15c0,1.95,0,3.9.09,5.84a21.54,21.54,0,0,0,.25,2.67c.13.72.85,2.26.2,2.8l.81-.46-.26.11,1.45-.25,0,0-2.3,1.13,1.77,0a3.29,3.29,0,0,0,2-.55c.43-.35.4-.62-.19-.7a3.53,3.53,0,0,0-1.41.09c-.32.09-1.94.56-.43.26h.93l0,.14-.8.46.13,0-1.87.13.07.09c.43.58,3.2-.36,2.72-1l-.07-.09c-.29-.4-1.57,0-1.87.13-.48.18-1.7.79-.87,1.29s2.3-.24,3.06-.61l-1.77.39.34,0L80,139.85l-1.76,0a3.78,3.78,0,0,0-1.78.4c-.15.07-.9.51-.52.73,1.17.69,3.82,0,4-1.55.09-1-.48-2.25-.6-3.3a34.65,34.65,0,0,1-.17-3.82q-.1-8-.2-16c0-.55-2.9-.1-2.89.77Z"/><path class="cls-10" d="M78,116.05q4.09,13.32,7.62,26.8c.3,1.15,3.2.39,2.89-.78Q85,128.6,80.93,115.27c-.35-1.15-3.25-.36-2.9.78Z"/><path class="cls-10" d="M86.2,141.88l2.44,8.42,2-1.25-1.64.06,0,1.49c.47-.17-.26.07.21-.07l.37-.11.37-.08.21,0-.4-1.47-1.9.76c-.35.14-1,.54-.87,1s.89.51,1.26.45a15.45,15.45,0,0,0,3.94-1.13c.39-.18,1.2-.71.76-1.22s-1.41-.23-1.93-.05l-1.72.6c-.41.14-1.18.73-.76,1.21s1.41.24,1.92.06l1.73-.6-1.17-1.27-.65.27-.14,0-.38.12-.69.18-.3.07c.24,0-.24,0-.23,0l.39,1.48L91,150.1c.35-.15,1-.55.87-1s-.89-.51-1.27-.45a13.17,13.17,0,0,0-2.69.71c-.35.13-.9.49-.87.91s.53.59.9.58l1.64,0a2.77,2.77,0,0,0,1.46-.4c.26-.16.65-.49.54-.85l-2.44-8.41c-.17-.61-1.2-.51-1.65-.38s-1.43.53-1.25,1.15Z"/><path class="cls-10" d="M75.77,114.63l2,1,2-1.07H80l-.32,0,.26,0a2.41,2.41,0,0,1-.59-.14l.18.07a2.43,2.43,0,0,1-.89-.59l-2.55,1a4.37,4.37,0,0,1,.62.17l-.17-.06a3.53,3.53,0,0,1,.81.44.74.74,0,0,0,.3.08,1.62,1.62,0,0,0,.44,0,4.23,4.23,0,0,0,1.12-.25c.17-.07,1.29-.52.87-.82a4.17,4.17,0,0,0-1.61-.68,2.37,2.37,0,0,0-.92,0,5.06,5.06,0,0,0-.94.27,2,2,0,0,0-.64.37l-.12.14a.17.17,0,0,0,.06.24,2.44,2.44,0,0,0,.87.59,3.48,3.48,0,0,0,.65.19,5.08,5.08,0,0,0,1,.05,3.2,3.2,0,0,0,.75-.14,3.4,3.4,0,0,0,.85-.33,1.14,1.14,0,0,0,.4-.29.16.16,0,0,0,.07-.14.13.13,0,0,0-.07-.17l-2-1a1.52,1.52,0,0,0-.73-.09,4.32,4.32,0,0,0-1.13.26l-.34.14a1.75,1.75,0,0,0-.47.29c-.09.1-.25.29-.06.38Z"/><path class="cls-3" d="M25.61,57l-.88,58.71-.25,16.73c0,1.32,2.9.77,2.92-.31l.87-58.7.25-16.74c0-1.32-2.89-.77-2.91.31Z"/><path class="cls-3" d="M24.44,93.79c1.14-.89,2.28-1.77,3.44-2.63s2.13-1.57,3.35-2.43c.37-.27.88-.82.26-1.13a2.36,2.36,0,0,0-2.06.27q-3.72,2.63-7.31,5.45a.69.69,0,0,0-.29.62c.06.23.36.36.56.4a2.65,2.65,0,0,0,2.05-.55Z"/><path class="cls-3" d="M38.11,49.58a36.84,36.84,0,0,0,.19,6.64c0,.27.38.45.59.52a2.16,2.16,0,0,0,1.1,0c.58-.18,1.29-.58,1.21-1.28A34.16,34.16,0,0,1,41,49.3c0-.68-.75-.89-1.31-.82a2.15,2.15,0,0,0-1.09.39c-.22.16-.51.41-.52.71Z"/><path class="cls-3" d="M39.09,56.19c.39,2.4.77,4.79,1,7.21.07.69.12,1.39.16,2.08,0,.32,0,.65.05,1,.09,1.26.06-2.55,0-2.18-.16,1.41-.18,2.82-.43,4.22-.42,2.34-1.11,4.62-1.47,7a43.86,43.86,0,0,0-.3,6.78,61.24,61.24,0,0,0,1.53,13c.48,2.23,1,4.47,1.35,6.72.18,1.05.33,2.1.43,3.15.07.72,0,1.5.14,2.21,0,.26.06-2.87,0-1.75,0,.39,0,.79,0,1.18-.28,5.49-.78,11-1.19,16.46-.07,1,0,2.06,0,3.08,0,.49,0,1,0,1.49,0,0,0,.49,0,.25.39-5.4.88-10.81,1.17-16.22a69.28,69.28,0,0,0-.59-15.3c-.85-4.92-2.28-9.76-2.68-14.75,0-.4,0-.86-.08-1.26,0-.16-.14,3.88,0,2.14.06-.73.12-1.45.23-2.18.2-1.33.52-2.64.82-3.95a38.65,38.65,0,0,0,1.1-7.41,92.62,92.62,0,0,0-1.25-17.91c.26,1.62-.26,3.37,0,5Z"/><path class="cls-3" d="M35.4,90.68l8-3.62a4.73,4.73,0,0,0,0-.73c0-.59,0-1.18,0-1.77s0-1.18,0-1.76a6.47,6.47,0,0,1,0-.74l-8,3.62a4.75,4.75,0,0,0,0,.73c0,.59,0,1.18,0,1.77s0,1.18,0,1.77a6.3,6.3,0,0,1,0,.73Z"/><path class="cls-3" d="M53.11,46.68a44.82,44.82,0,0,1,2,7.27c.12.76.21,3.77.21.48s-.09-.19-.18.57c-.16,1.33-.39,2.66-.61,4a115.49,115.49,0,0,0-1.5,15.42C52.9,79.69,53,85,53.25,90.26c.08,1.31.12,2.61.2,3.92.08,1.5,0-.88,0-.93a4.26,4.26,0,0,1-.05,1c0,.83-.1,1.67-.18,2.51-.22,2.61-.56,5.2-.81,7.81s-.34,5.42-.34,8.15a48.31,48.31,0,0,0,.53,8.58c-.29-1.61.28-3.38,0-5a38,38,0,0,1-.47-4.11c0-.86.25-1.8,0,1.53,0-.23,0-.47,0-.71,0-.83.1-1.67.17-2.5.21-2.53.54-5,.78-7.57a102.88,102.88,0,0,0,.28-15c-.06-1.23-.14-2.45-.2-3.68,0-.65-.07-1.31-.09-2A12,12,0,0,1,53,79.71c0,.19,0,2.05,0,.5,0-.41,0-.82,0-1.22,0-.57,0-1.14.07-1.72.07-1.52.17-3,.3-4.55.23-2.6.55-5.2.95-7.78a64.24,64.24,0,0,0,1-7.15,51.31,51.31,0,0,0-.1-7.94,39.36,39.36,0,0,0-2.15-8.17,9.53,9.53,0,0,1,0,2.5,8.71,8.71,0,0,0,0,2.5Z"/><path class="cls-3" d="M49.84,84.24a34.56,34.56,0,0,1,7.64-4.88,6.16,6.16,0,0,0,0-.73c0-.59,0-1.18,0-1.77s0-1.18,0-1.77a6.09,6.09,0,0,1,0-.73,34.56,34.56,0,0,0-7.64,4.88,3.62,3.62,0,0,0,0,.73c0,.59,0,1.18,0,1.77s0,1.18,0,1.77a3,3,0,0,1,0,.73Z"/><path class="cls-3" d="M41.84,59.46l-.77.51a1.48,1.48,0,0,0,0,.21c0,.17,0,.34,0,.52v3.92c0,.12,0,.23,0,.35l.77-.51a1.55,1.55,0,0,0,0-.22c0-.17,0-.34,0-.51,0-.59,0-1.18,0-1.77s0-1.18,0-1.77V59.8a1.93,1.93,0,0,0,0-.34Z"/><path class="cls-3" d="M40.06,62.33c0-.18-.11-1,.24-.93.19,0,.25,1,.26,1.08V57.57l0,.38c0,.91,0,1.83,0,2.74a8.78,8.78,0,0,1,0,2.17L41,61.37c.16-.5-.17-5,0-5-.82.13-.56,1.34-.56,2a20,20,0,0,0,.06,4,8.53,8.53,0,0,0,1.43,2.4A8.74,8.74,0,0,1,43,67.91a3.87,3.87,0,0,1,0,.49c.07.89.08.41,0-1.44,0-3.14,0-1.82-.12-1a8.9,8.9,0,0,1-.43,1.53,8,8,0,0,1-.7,1.44c-.05.08-.31.57-.4.58s-.19-1-.2-1.11c-.09-.65.07-1.92-.23-2.4a18.27,18.27,0,0,0,0,2.55q.14-7.29,0-4.53l0,.49-.29,4.7c-.1,1.6.25,3.34,0,4.91l.41-2.59v-5l-.53,5.9c-.07.82,0,1.67,0,2.5a12.3,12.3,0,0,1,0,2.5l.51-2.21v-5c-1.36,9-2.63,17.93-2.63,27a61.84,61.84,0,0,0,.18,6.24,36.41,36.41,0,0,0,1.26,6c.53,2,1.12,3.88,1.47,5.87.1.55.18,1.1.24,1.66.3,3.13.32-5.1,0-2.16a10.46,10.46,0,0,1-.85,3.14,8,8,0,0,0,0,2.5c0,.59,0,1.18,0,1.77a2.56,2.56,0,0,1,0,.73,12.66,12.66,0,0,0,.94-5.08,47.6,47.6,0,0,0-.14-6.32c-.46-3.85-2-7.48-2.66-11.3q-.12-.69-.21-1.38a8.13,8.13,0,0,0-.17-2.24c0,1.62,0,2,0,1.31l0-.71q0-.84.09-1.68c.13-2.31.34-4.62.59-6.92.5-4.51,1.18-9,1.86-13.48a17.37,17.37,0,0,0,0-2.5,11.62,11.62,0,0,1,0-2.5l-.51,2.21v5l.53-5.9c.15-1.63-.25-3.39,0-5l-.41,2.59V74l.37-5.94c.06-1,0-2,0-3.07,0-.5,0-1,0-1.5,0,0,0-.49,0-.25a58.1,58.1,0,0,0,0,8.55c.06.68.14,1.35.26,2s-.08.72.33.38a2.53,2.53,0,0,0,.46-.76,8.78,8.78,0,0,0,1-3.21,32.72,32.72,0,0,0,.07-3.57A25.93,25.93,0,0,0,43,62.91a8.94,8.94,0,0,0-1.1-3.17c-.53-.91-1.31-1.57-1.47-2.66v4.43l0,.34a.54.54,0,0,1,.54-.48v-5l-.45,1.49v4.91c.07-1.35,0-2.7,0-4.05a4.88,4.88,0,0,0-.48-2.64v.09l-.05,1.34c0,1,0,2.05,0,3.08,0,.49,0,1,0,1.49,0,0,0,.49,0,.25Z"/><path class="cls-3" d="M52.43,83.74a7.86,7.86,0,0,1,1,3l.06.71c.08-3.73.08-4.82,0-3.25s-.39,3-.65,4.53a53.8,53.8,0,0,0-.52,9.5c0,1.47.06,2.93.13,4.4,0,1,.05,1.94.09,2.91s0-1.77,0,0c0,.4,0,.81,0,1.21a108,108,0,0,1-1,10.77c-.23,1.64.23,3.37,0,5a134.22,134.22,0,0,0,1-24.46l-.06-1.4,0-.7q0-1.71,0,1.56c.12-1,.17-2,.32-3,.29-1.8.67-3.58.8-5.41s.09-3.92,0-5.87a9.67,9.67,0,0,0-1.07-4.54,3.4,3.4,0,0,1,0,.73V83a2.52,2.52,0,0,0,0,.73Z"/><path class="cls-3" d="M19.64,62.6a8,8,0,0,0,2.78-2.28,27.92,27.92,0,0,1,9.1-6.77v-5l-9,5.46a3.83,3.83,0,0,0,0,.74c0,.59,0,1.18,0,1.76s0,1.18,0,1.77a4.65,4.65,0,0,1,0,.73l9-5.46a3.73,3.73,0,0,0,0-.73c0-.59,0-1.18,0-1.77s0-1.18,0-1.76a6.47,6.47,0,0,1,0-.74,28.1,28.1,0,0,0-6.39,4.11,26.9,26.9,0,0,0-2.64,2.59,8.4,8.4,0,0,1-2.85,2.35,6.33,6.33,0,0,0,0,.74c0,.58,0,1.17,0,1.76s0,1.18,0,1.77a6.09,6.09,0,0,1,0,.73Z"/><path class="cls-11" d="M105.34,53.72l-.19,4.48c0,.54.87-.62.8-.53.4-.48,1.51-1.49,1.55-2.16l.31-4.27c0-.53-.88.53-.82.47C106.62,52.1,105.36,53.12,105.34,53.72Z"/><path class="cls-11" d="M105.83,55.13l-.18,4.5c0,.58.95-.71.87-.62.45-.53,1.73-1.69,1.79-2.43l.33-4.3c0-.56-1,.63-.9.56C107.32,53.27,105.86,54.46,105.83,55.13Z"/><path class="cls-11" d="M105,53.07l-.19,4.42c0,.44.62-.32.57-.27a3.19,3.19,0,0,0,.9-1.4l.31-4.24c0-.42-.61.23-.59.21C105.69,52,105,52.66,105,53.07Z"/><path class="cls-11" d="M104.8,57.52l-.14,4.53a.73.73,0,0,0,.49-.35q.5-.57,1-1.17c.5-.63,1.81-1.76,1.89-2.6l.41-4.45a.73.73,0,0,0-.51.31c-.5.51-1,1-1.45,1.57S104.83,56.82,104.8,57.52Z"/><path class="cls-11" d="M105.24,55.91l-.15,4.51a.71.71,0,0,0,.5-.35c.34-.38.67-.78,1-1.18s.81-1,1.2-1.51a6,6,0,0,0,.75-1.11l.38-4.47a.68.68,0,0,0-.51.32c-.51.51-1,1.05-1.49,1.59S105.26,55.2,105.24,55.91Z"/><path class="cls-11" d="M105.58,54.25l-.19,4.51c0,.57,1-.73.88-.63.45-.54,1.74-1.71,1.8-2.46l.33-4.28c0-.57-1,.63-.9.56C107.08,52.39,105.61,53.58,105.58,54.25Z"/><path class="cls-11" d="M104.8,56.68l-.14,4.53a.68.68,0,0,0,.49-.34c.33-.37.65-.75,1-1.15.49-.6,1.82-1.73,1.89-2.55l.37-4.48a.67.67,0,0,0-.5.3c-.5.51-1,1-1.44,1.55S104.83,56,104.8,56.68Z"/><path class="cls-11" d="M105.64,54.11l-.18,4.42c0,.46.68-.4.63-.34.31-.35,1-1.07,1-1.58l.29-4.21c0-.45-.68.3-.64.27C106.5,52.94,105.66,53.66,105.64,54.11Z"/><path class="cls-11" d="M105.27,57l-.14,4.53a.73.73,0,0,0,.5-.36c.35-.39.69-.79,1-1.2s.82-1,1.21-1.53a5.38,5.38,0,0,0,.77-1.13l.38-4.49a.72.72,0,0,0-.51.33c-.52.53-1,1.07-1.51,1.62S105.29,56.29,105.27,57Z"/><path class="cls-11" d="M105.3,55.13l-.16,4.35c0,.61,1.07-.86,1-.76.49-.6,1-1.21,1.45-1.83a4.61,4.61,0,0,0,.67-1l.35-4.29c0-.5-1.29,1-1.42,1.13C106.69,53.25,105.33,54.32,105.3,55.13Z"/><path class="cls-11" d="M105.75,56.18l-.16,4.35c0,.6,1-.79.93-.69.48-.57,1.9-1.85,2-2.66l.34-4.31c0-.49-1.22.92-1.33,1C107,54.43,105.78,55.41,105.75,56.18Z"/><path class="cls-11" d="M105.22,57.85l-.14,4.52a.65.65,0,0,0,.48-.34c.33-.37.65-.76,1-1.15.49-.62,1.78-1.73,1.86-2.56l.41-4.45a.68.68,0,0,0-.5.31c-.49.5-1,1-1.44,1.54S105.25,57.16,105.22,57.85Z"/><path class="cls-11" d="M108.7,50.44l.23-.76-3,4,3-3.23-3,2.78,2,3.38a.52.52,0,0,0,.48-.06,27.52,27.52,0,0,0,4-1.43c1.2-.63,1.44-1.95,2.31-3l-3.09,1.25,3.41-1.12-3.46.94,1.45-.15-1,0,3.7,1-2.26-.83.44.37c.06.2,1.81,2.65,1.94,2.45a10.58,10.58,0,0,0,1.72-5.2c.06-.62-3.62-.52-3.62-.53a3,3,0,0,1,0,3.15l1.91,2.58c.6-1,1.48-2.61.32-3.65a2.11,2.11,0,0,0-2.21-.3,15.2,15.2,0,0,0-3.14,1.17c-1.23.68-1.36,1.77-2.13,2.82L112.38,55c-2.07-.9-2.94-2.82-2.63-5.75l-.17,0-.64.2c-.75.24-1.52,1.62-1.94,2.16s-1.58,1.65-1.61,2.42l0,.79c0,.68,1.16-1.13,1-1A13.09,13.09,0,0,0,108.7,50.44Z"/><path class="cls-11" d="M109.09,52l.22-.78-2.45,3.25,2.57-2.72-2.57,2.29,1.86,3.69a.44.44,0,0,0,.44,0,17.08,17.08,0,0,0,4-1.35c1.06-.63,1.23-1.84,2-2.81l-3,1.23,3.36-1.12-3.49,1,1.38-.14-1.1.05c1.27.38,2.56.73,3.86,1l-2.71-.92,1,.7-.76-.73,0,.11,2.6,3a10.45,10.45,0,0,0,1.68-5.42c0-.61-3.79-.64-3.79-.62a3.38,3.38,0,0,1-.49,3.06c-.34.58,2.59,3,2.6,3,.73-1.09,1.79-2.75.45-3.87a2.55,2.55,0,0,0-2.68-.15,12,12,0,0,0-3,1.22c-1,.67-1.09,1.56-1.69,2.45l3.56-1.06c-2.11-.68-3-2.53-2.7-5.55l-.15,0-.87.36c-.47.2-1.22,1.39-1.45,1.68s-1.27,1.29-1.28,1.82v.91c0,.6,1-.87.89-.75A9.86,9.86,0,0,0,109.09,52Z"/><path class="cls-11" d="M108.79,49.23l.22-.74-3,3.93L109,49.3,106.13,52l2.24,3.12a.4.4,0,0,0,.42,0,22.44,22.44,0,0,0,3.43-.95c1.32-.59,1.66-2,2.57-3l-3.3,1.28,3.74,1.28c0,.13.64,1.8.91,1.37a9,9,0,0,0,1.49-4.8c0-.38-2.63,0-2.53.26l.14,3,.9,1.54a4.32,4.32,0,0,0,.53-2.76,2.06,2.06,0,0,0-2.59-1.22,12.64,12.64,0,0,0-2.85,1.1c-1.12.65-1.2,1.53-2,2.47l3.11-.78q-3-1.38-2.49-5.69l-.17,0-.62.13c-.63.14-1.12,1.12-1.49,1.59l-1.21,1.56a6.14,6.14,0,0,0-.75,1.15l-.08,1c0,.69,1.18-1.14,1.05-1A13.39,13.39,0,0,0,108.79,49.23Z"/><path class="cls-11" d="M108.75,53.38l.12-.66-1.13,1.5,1.13-1-1,.58L110,58.1a.2.2,0,0,0,.24.1,7.16,7.16,0,0,0,2.31-.24c1.1-.41,1.37-1.79,2.17-2.59l-1.78.79,2.24-.75-2.21.56c1.06.38,2.1.81,3.12,1.28L114,56.19l-.12.15,2,3.3a9.51,9.51,0,0,0,1.49-5.42c0-.43-2.56-.46-2.54-.21a2.23,2.23,0,0,1-1,2.33c-.52.48,2.06,3.23,2,3.3.76-1.12,1.57-2.45.6-3.68a1.79,1.79,0,0,0-1.88-.8,7.66,7.66,0,0,0-1.94.6,5.67,5.67,0,0,0-1.38.93c-.59.57,0,.24-.79,1.22l2-.15-2.92-5.41a.23.23,0,0,0-.29,0l-.57.22c-.38.14-1.31,1.16-1.29,1.59l0,.69C107.48,55.23,108.68,53.74,108.75,53.38Z"/><path class="cls-11" d="M108.49,52.68l.21-.78-2.26,3,2.42-2.56-2.41,2.11,1.73,3.83a.38.38,0,0,0,.43,0A22.62,22.62,0,0,0,112.34,57c1.17-.6,1.28-1.86,2.13-2.86l-2.89,1.18,3.26-1.1-3.39.92,1.34-.15-1.09,0,4.83,1.42.15,0a8.61,8.61,0,0,0,.59-3.72c0-.65-3.92-.74-3.92-.75a3,3,0,0,1-.63,2.86c-.41.57,3,3.37,3,3.38.48-.76,1.31-2,1-3-.21-.64-.94-1-1.47-1.26s-1.21.13-1.7.25A7,7,0,0,0,111,55a6.15,6.15,0,0,0-1.75,1.66,12.82,12.82,0,0,1-.54,1.21l3.53-1q-3.15-.93-2.74-5.45h-.15l-.85.39c-.47.22-1.1,1.23-1.35,1.54S106,54.5,106,55v.9c0,.58.92-.78.84-.67A8.92,8.92,0,0,0,108.49,52.68Z"/><path class="cls-11" d="M108.81,51.16l.22-.77-2.94,3.9,2.9-3.16-2.94,2.74,1.84,3.47a.49.49,0,0,0,.49-.07c1-.35,3.27-.85,4.43-1.69.91-.66,1.22-1.92,2-2.79l-3.25,1.33,3.55-1.2-3.69,1,1.47-.18-1.14.06,4,.92L113,53.86l1.4,1.64s1.29,1.53,1.43,1.3a11.05,11.05,0,0,0,1.72-5.33c.06-.65-4-.64-4-.68a3.46,3.46,0,0,1-.22,3.12l2.52,2.89c.65-1.06,1.65-2.67.4-3.74-.88-.75-1.8-.44-2.69-.13a13.36,13.36,0,0,0-3.25,1.32c-1,.71-1.13,1.68-1.75,2.61l4-1.23q-3.15-1.25-2.7-5.69l-.17,0-.83.3a5.82,5.82,0,0,0-.91,1c-.41.51-.82,1-1.21,1.54S105.6,54,105.6,54.66l0,1a.77.77,0,0,0,.48-.39c.32-.42.64-.84.93-1.27A10.72,10.72,0,0,0,108.81,51.16Z"/><path class="cls-11" d="M108.41,53l.19-.77-1.53,2L109,52.44l-1.74,1.33,2,4.17a.25.25,0,0,0,.31.05,7.8,7.8,0,0,0,3.12-.77c.83-.58,1.12-1.78,1.82-2.55l-2.11.89,2.55-.84-2.53.66a20.49,20.49,0,0,1,3.41,1.17l-2.21-1-.11.15,2.25,3.14a10.23,10.23,0,0,0,1.47-5.46c0-.52-3-.56-2.93-.4a2.77,2.77,0,0,1-.79,2.72c-.46.55,2.28,3.08,2.25,3.14.53-.84,1.33-2,.94-3.12a2.75,2.75,0,0,0-1.56-1.34c-.57-.28-2.55.45-3,.79a4.87,4.87,0,0,0-1.69,1.36,8.38,8.38,0,0,0-.59,1.11l2.52-.47-2.84-5.44-.13,0-.83.38a4.55,4.55,0,0,0-1.74,2.17l0,.84c0,.49.71-.47.64-.39A5.3,5.3,0,0,0,108.41,53Z"/><path class="cls-11" d="M109.32,50.47l.23-.77-2.67,3.54,2.73-2.87-2.69,2.44,2.13,3.31a.38.38,0,0,0,.41,0,20.27,20.27,0,0,0,3.58-1c1.26-.59,1.46-1.87,2.36-2.9l-2.82,1.15,3.9.89-1.93-.81.63.8c.08.24,1.18,2.11,1.29,1.94a9.3,9.3,0,0,0,1.75-5c0-.49-3-.28-3-.15l-.1,3,1.33,2.15c.62-1,1.49-2.59.38-3.66a2.26,2.26,0,0,0-2.53-.23,13.05,13.05,0,0,0-2.82,1.15c-1.08.69-1,1.33-1.75,2.29l3.25-.81c-2.07-.8-2.93-2.68-2.61-5.64l-.16,0-.84.28c-.46.15-1.4,1.61-1.58,1.84-.36.47-1.36,1.38-1.39,2l0,.93c0,.64,1.06-1,1-.84A11.54,11.54,0,0,0,109.32,50.47Z"/><path class="cls-11" d="M108.81,53.41l.18-.76-1.67,2.22,2-2-1.92,1.51,1.8,4.17a.3.3,0,0,0,.35,0,15,15,0,0,0,3.15-.81c1.17-.54,1.24-1.79,2.09-2.77l-2.46,1,2.88-1-3,.78.54,0-.44-.12L115.63,59a.53.53,0,0,0,.43.26,10.5,10.5,0,0,0,1.46-5.56c0-.59-3.46-.75-3.45-.67a2.81,2.81,0,0,1-.9,2.7c-.44.5,2.89,3.52,2.89,3.53.54-.81,1.4-2,1-3.12-.26-.71-1.06-1.06-1.66-1.35-.31-.15-1.63.31-1.8.36a5,5,0,0,0-1.75.58,8.45,8.45,0,0,0-1.38,1.14c-.56.65,0,.36-.79,1.44l2.94-.66-2.82-5.46h-.14l-.83.38c-.5.24-1.9,1.81-1.89,2.38v.81c0,.5.74-.51.68-.44A5.42,5.42,0,0,0,108.81,53.41Z"/><path class="cls-11" d="M108.49,52l.21-.77-2.56,3.39,2.63-2.83-2.63,2.38,1.78,3.66a.46.46,0,0,0,.46,0,16.41,16.41,0,0,0,4.19-1.54c.89-.64,1.18-1.89,1.89-2.72l-3,1.23,3.36-1.14-3.48,1,1.4-.17-1.1,0a9.72,9.72,0,0,1,4.21,2L113,54.35l-.06.06,2.76,3.11a11.14,11.14,0,0,0,1.6-5.43c0-.64-3.93-.65-3.93-.67a3.22,3.22,0,0,1-.43,3c-.37.61,2.77,3.09,2.76,3.11.61-1,1.7-2.9.32-3.81-1-.7-2.12-.32-3.16,0A8.37,8.37,0,0,0,110,55.09c-.81.71-.88,1.41-1.45,2.24l3.68-1.14c-2.06-.72-2.95-2.56-2.67-5.5l-.16,0-.84.35c-.49.21-1.28,1.46-1.51,1.76s-1.33,1.34-1.34,1.9v.92c0,.62,1-.92.92-.79A10.38,10.38,0,0,0,108.49,52Z"/><path class="cls-11" d="M109.11,52.79l.2-.77-2,2.63,2.23-2.27-2.19,1.84,1.86,3.94a.33.33,0,0,0,.38,0,13.83,13.83,0,0,0,3.6-1.08c1-.6,1.18-1.81,2-2.73l-2.7,1.1,3.1-1-3.21.85a23.69,23.69,0,0,1,4,1l-2.71-1,.39.33-.26-.38-.11.11,2.73,3.16a10.32,10.32,0,0,0,1.58-5.52c0-.58-3.58-.67-3.57-.58a3.19,3.19,0,0,1-.74,2.94c-.38.53,2.71,3.18,2.73,3.16.55-.81,1.41-2,1.06-3.12a2.56,2.56,0,0,0-1.46-1.3c-.45-.24-1.14.1-1.61.21a6.59,6.59,0,0,0-2.36.75,4.75,4.75,0,0,0-1.65,1.5,3,3,0,0,0-.55,1.2L113,57l-2.79-5.48H110l-.86.38c-.42.19-1,1.06-1.2,1.35s-1,1-1,1.48v.86c0,.54.83-.66.76-.57A7.44,7.44,0,0,0,109.11,52.79Z"/><path class="cls-11" d="M109.08,54l.18-.87-1.09,1.47,1.13-1-1,.58,2,4.31a.2.2,0,0,0,.24.1,7.54,7.54,0,0,0,2.37-.26c1.12-.41,1.34-1.78,2.13-2.6l-1.9.83,2.36-.8-2.64.61a26.1,26.1,0,0,1,3.53,1.28l-2.32-1.09-.16.08,2.35,3.43a9.43,9.43,0,0,0,1.49-5.52c0-.44-2.76-.54-2.75-.28a2.4,2.4,0,0,1-1.09,2.37c-.49.44,2.36,3.41,2.35,3.43.87-1.25,1.84-2.89.34-4.13a1.62,1.62,0,0,0-1.68-.41,8,8,0,0,0-2.1.65,5.69,5.69,0,0,0-1.57,1.14,4.08,4.08,0,0,0-.47,1l2.11-.17L110,52.67a.23.23,0,0,0-.29,0l-.62.26c-.38.17-1.27,1.12-1.26,1.56l0,.7C107.88,55.57,109,54.2,109.08,54Z"/><path class="cls-11" d="M118.77,56.73a7.07,7.07,0,0,0,3.48,2,5.37,5.37,0,0,0,2.74-.41,4,4,0,0,0,2.26-2.15c.31-.45-3-1.68-3-1.65a1.73,1.73,0,0,1-1.63,1.1,4.27,4.27,0,0,1-3.81-2.07c-.34-.34-.28,1.08-.28,1.19C118.52,55.17,118.34,56.38,118.77,56.73Z"/><path class="cls-11" d="M119.28,58.21c1.26,1.06,2.45,2,4.17,2a4,4,0,0,0,2.14-.42,4.13,4.13,0,0,0,2.32-2.35c.19-.27-1.67-1.39-1.7-1.41s-2-1.15-1.94-1.07l-.62.74a1.92,1.92,0,0,1-1.3.2c-1.4-.16-2.24-1.22-3.15-2.25,0,0-.17,2.31-.17,2.29C119,56.34,118.86,57.85,119.28,58.21Z"/><path class="cls-11" d="M118.61,56.32a7.66,7.66,0,0,0,3.74,1.91,5.41,5.41,0,0,0,2.78-.47,4.11,4.11,0,0,0,2.27-2.16c.13-.19-1.73-1.08-1.89-.68a3,3,0,0,1-2.81,1.55,7.5,7.5,0,0,1-3.93-1.82C118.44,54.39,118.34,56.11,118.61,56.32Z"/><path class="cls-11" d="M118.62,60.66c1.29,1.09,2.51,2.09,4.3,2A3.82,3.82,0,0,0,125.1,62a4.47,4.47,0,0,0,2.2-2.67c.19-.34-3.15-2.43-3.44-2.39-.87.1-1.33.64-2.3.44-1.41-.28-2.24-1.5-3.06-2.57a.79.79,0,0,0-.15.62c0,.77,0,1.53,0,2.3C118.36,58.2,118.13,60.25,118.62,60.66Z"/><path class="cls-11" d="M118.78,58.87c1.27,1.05,2.47,2,4.21,1.94a3.93,3.93,0,0,0,2.13-.49,4.28,4.28,0,0,0,2.26-2.46c.21-.33-2.21-1.9-2.29-2s-1.77-1.24-1.58-.8c.28.67-2.24.46-2.27.45a6.23,6.23,0,0,1-2.56-2.35.75.75,0,0,0-.16.6c0,.74,0,1.49,0,2.23C118.52,56.48,118.31,58.47,118.78,58.87Z"/><path class="cls-11" d="M119,57.24c1.25,1,2.42,2,4.12,2a4.68,4.68,0,0,0,4.39-2.6c.19-.29-2-1.53-2-1.56s-1.55-1-1.41-.54-1.66.84-1.93.82c-1.35-.15-2.21-1.13-3.12-2.11-.33-.36-.28,1.34-.28,1.49C118.7,55.24,118.47,56.84,119,57.24Z"/><path class="cls-11" d="M118.52,59.68c1.28,1.08,2.5,2.07,4.26,2a3.83,3.83,0,0,0,2.15-.56,4.4,4.4,0,0,0,2.21-2.56c.26-.46-3.42-2.5-3.48-2.37-.29.7-1.53.67-2.12.57-1.42-.24-2.28-1.45-3.12-2.49a.68.68,0,0,0-.16.57c0,.72,0,1.44,0,2.15C118.26,57.4,118.05,59.29,118.52,59.68Z"/><path class="cls-11" d="M119.23,57.12a8.57,8.57,0,0,0,2.91,1.75,4.56,4.56,0,0,0,2.76,0,5.08,5.08,0,0,0,3-2.41c.21-.3-2.68-1.43-2.7-1.17l-.85.93a2.45,2.45,0,0,1-1.49.32,6.33,6.33,0,0,1-3.5-1.9C119.15,54.41,118.84,56.8,119.23,57.12Z"/><path class="cls-11" d="M119,60.13c1.29,1.09,2.51,2.07,4.28,2a4,4,0,0,0,2.2-.55,4.26,4.26,0,0,0,2.27-2.67c.18-.33-1.82-1.66-1.88-1.7-.52-.41-1.06-.8-1.61-1.17a.62.62,0,0,0-.52-.19c.4.79-2.31.53-2.33.52a6.15,6.15,0,0,1-2.53-2.4.83.83,0,0,0-.15.65c0,.81,0,1.63,0,2.44C118.71,57.5,118.47,59.71,119,60.13Z"/><path class="cls-11" d="M118.74,58c1.25,1,2.44,2,4.15,2a4,4,0,0,0,2.11-.44,4.13,4.13,0,0,0,2.26-2.31c.2-.31-2.08-1.69-2.13-1.73s-1.64-1.12-1.49-.65-1.68.66-1.89.63c-1.38-.21-2.23-1.32-3.1-2.34,0,0-.17,2.43-.17,2.44C118.49,56,118.3,57.62,118.74,58Z"/><path class="cls-11" d="M119.3,59.26c1.27,1.07,2.48,2,4.23,2a4,4,0,0,0,2.17-.48A4.29,4.29,0,0,0,128,58.25c.18-.3-1.74-1.52-1.79-1.55s-2-1.28-2-1.2l-.66.66a1.91,1.91,0,0,1-1.28.15c-1.38-.2-2.2-1.29-3.06-2.34,0,0-.17,2.61-.17,2.65C119,57.05,118.84,58.87,119.3,59.26Z"/><path class="cls-11" d="M119,61.15c1.3,1.1,2.54,2.09,4.33,2,2.35-.15,3.43-1.45,4.45-3.41.31-.59-3.44-2.44-3.89-2.7a1.91,1.91,0,0,1-1.2.46,2,2,0,0,1-1.28-.1,6.64,6.64,0,0,1-2.53-2.46.89.89,0,0,0-.16.66q0,1.23,0,2.46C118.77,58.49,118.53,60.73,119,61.15Z"/><path class="cls-11" d="M113.92,72.15a5.61,5.61,0,0,1,2.5-3.17l-4.54,2a7,7,0,0,1,2.27,3c.24.45,3.22,1.12,3.5.69a4.41,4.41,0,0,1,2.19-2.92l-3.24.08,2.05.33-1.72-.38c1.33,1.22,2.41,3,4.13,3.66,2.38,1,5.6-.86,7.65-1.69.45-.19-.68-.61-.69-.62-.52-.24-1.78-1-2.39-.89a12.67,12.67,0,0,1-7.89.12l2.56,2a5.92,5.92,0,0,0,0-2.84c-.15-.38-1.88-.17-2.06-.16-2.74.1-2.33,0-4.06,2.57l3.5.69q-.62-2.94-1.15-5.89a24.94,24.94,0,0,0-4.54,2,7.41,7.41,0,0,0-2.54,3.45c-.3.56,1.4-.39,1.26-.33.73-.36,1.45-.74,2.17-1.13A5,5,0,0,0,113.92,72.15Z"/><path class="cls-11" d="M114.41,73.55a5.62,5.62,0,0,1,2.56-3.2l-4.36,1.93a6.81,6.81,0,0,1,1.84,3.15c.19.47,3.56,1.12,3.82.71a7.89,7.89,0,0,1,2.14-3.1l-.44.18.47,0-3.84,0,1.69.73-.87-.46a7.15,7.15,0,0,0,2,1.88c.58.48,1.74,1.68,2.7,1.87,2.4.47,5.42-1.27,7.44-2.13,0,0-1.34-.83-1.51-.91-.6-.28-1.83-1.15-2.51-1-2.6.5-5.11,1-7.78.48L121,76c.14-1.12.42-2-.07-3-.26-.54-3.58-.15-4-.07-1.78.37-1,.2-2.49,2.5l3.82.71c-.36-2-.77-4-1.23-5.93-.05-.24-4.15,1.71-4.36,1.92a7.28,7.28,0,0,0-2.43,3.38c-.28.55,1.31-.34,1.18-.28.67-.33,1.34-.68,2-1A4.26,4.26,0,0,0,114.41,73.55Z"/><path class="cls-11" d="M114,71.07a5.6,5.6,0,0,1,2.51-3.14l-4,1.79,3,3.3c.17.25,2,1,2.29.61l2.6-2.82-3,.19c1.55.43,2.18,2.56,3.36,3.4a3.64,3.64,0,0,0,1.76.7c2.2.31,4.56-1.17,6.43-2,.28-.11-1.54-1-2-.86a15,15,0,0,1-4.08,1.22c-1.58.07-2.16-.43-3.63-1.32l1.25,1.22a6.25,6.25,0,0,0,0-2.69c-.08-.23-.82-.15-.86-.15a7.25,7.25,0,0,0-2.28.14c-1,.37-1.12,1.18-1.86,2.21l2.32.72q-.72-2.89-1.21-5.84c0-.25-3.82,1.6-4,1.79a7.24,7.24,0,0,0-2.63,3.4c-.3.54,1.3-.34,1.15-.26C111.77,72.39,113.63,71.78,114,71.07Z"/><path class="cls-11" d="M114,75.26l2.31-2.94-2.28.9A9.1,9.1,0,0,1,115.29,77c.09.41,2.32,1.24,2.56.88l2-2.83-2.52.19,2.66.37-2.31-.6a5.56,5.56,0,0,0,.3.88l2.63,2.76a2.27,2.27,0,0,0,.68.42,2,2,0,0,0,1.64.27c2.12-.24,4.21-1.46,6.11-2.27,0,0-1.29-.74-1.45-.81-.62-.26-1.71-1-2.4-.85a18.68,18.68,0,0,0-5.44.38,2.64,2.64,0,0,1-1.34,0L121,78.73c-.66-1.65.77-4-1.66-3.94a7.4,7.4,0,0,0-2,.12c-1.07.34-1.09.94-2,2.1l2.56.88A36.49,36.49,0,0,0,116.5,72c-.1-.35-2.33.94-2.45,1.06-1.67,1.63-1.17.93-2.29,3.11-.2.41.75,0,.69,0C112.85,76,113.77,75.68,114,75.26Z"/><path class="cls-11" d="M113.74,74.17A5.72,5.72,0,0,1,116.3,71l-4.09,1.8a6.35,6.35,0,0,1,1.47,3.13c.15.48,3.79,1.17,4,.76l2.38-3-4.18.08,2.58,1-1.94-1c.45.94,1.3,1.35,2.15,2.06.47.39,1.93,1.81,2.87,2,2.3.46,5.45-1.39,7.38-2.2,0,0-1.44-.9-1.63-1-.65-.31-1.95-1.25-2.7-1.13a22.54,22.54,0,0,1-4.4.55c-.92-.05-1.78.21-2.71.22l3.35,3c-.17-1.16,0-2.71-.66-3.73-.29-.49-2.85-.16-3.23-.14-2.12.09-1.8.34-3.29,2.51l4,.76a55.88,55.88,0,0,0-1.34-5.83c-.07-.27-3.9,1.59-4.09,1.8a7.12,7.12,0,0,0-2.4,3.36c-.27.52,1.22-.3,1.1-.24C111.62,75.42,113.37,74.85,113.74,74.17Z"/><path class="cls-11" d="M114.06,72.77a5.61,5.61,0,0,1,2.52-3.18l-4.73,2.1a6.39,6.39,0,0,1,2,3c.22.48,3.69,1.12,4,.69l2.47-3-3.92.15,3.17.45-2.92-.55c1.44,1.27,2.72,3,4.55,3.76,2.39.95,5.83-1,7.83-1.85a13.81,13.81,0,0,0-1.42-.86c-.56-.26-1.72-1.06-2.36-.94a18.44,18.44,0,0,1-7.89.36l3.15,2.28a5.68,5.68,0,0,0-.07-2.9c-.2-.48-3-.15-3.31-.14-2.15.1-1.79.35-3.25,2.59l4,.69q-.57-3-1.17-5.91a27.38,27.38,0,0,0-4.72,2.1A7.37,7.37,0,0,0,109.45,75c-.29.57,1.43-.4,1.29-.34.75-.37,1.49-.76,2.22-1.16A5.26,5.26,0,0,0,114.06,72.77Z"/><path class="cls-11" d="M113.67,74.64l2.56-3.17-3,1.27a8.56,8.56,0,0,1,1.39,3.68c.11.43,2.73,1.15,3,.78l1.64-2.61-2.32.06,3.25.25-3-.68c.61,1.22.4.91,1.81,2.29.51.5,1.57,1.76,2.49,2,2.25.49,5.45-1.42,7.31-2.21a13.52,13.52,0,0,0-1.4-.84c-.58-.26-1.68-1-2.33-.9a14.21,14.21,0,0,1-5,.47,3.55,3.55,0,0,1-1.8.13l2.54,2.78c-.64-1.49.63-3.85-1.55-3.92a10.27,10.27,0,0,0-2.48.12c-1.14.28-1.33,1.27-2.09,2.32l3,.78a39.19,39.19,0,0,0-1.35-5.86c-.09-.33-2.81,1.12-3,1.27a6.72,6.72,0,0,0-2.38,3.25c-.23.45.91-.12.82-.08C112.23,75.57,113.4,75.15,113.67,74.64Z"/><path class="cls-11" d="M114.65,72.16A5.54,5.54,0,0,1,117.18,69L113,70.88a8.14,8.14,0,0,1,2.62,3.25c.16.26,2.55,1,2.79.65l2.19-2.88-3.07.18a2.14,2.14,0,0,1,1.26.73c.9.77,1.53,2,2.56,2.68,2.44,1.56,5.91-.49,8.13-1.42.44-.18-.63-.55-.62-.54-.47-.21-1.62-.83-2.15-.68-2.8.77-4.73,1.22-7.49,0L121,74.6a5.47,5.47,0,0,0,.14-2.83c-.08-.24-1-.15-1-.15a11.61,11.61,0,0,0-2.76.16c-.9.28-1.49,1.78-1.81,2.24l2.84.76q-.59-3-1.15-5.92c0-.23-4,1.68-4.19,1.88a7.06,7.06,0,0,0-2.53,3.37c-.3.54,1.3-.35,1.16-.28.67-.33,1.33-.68,2-1A4.24,4.24,0,0,0,114.65,72.16Z"/><path class="cls-11" d="M114.05,75l2.55-3.18-3.45,1.5a7.64,7.64,0,0,1,1.24,3.48c.11.45,3.4,1.15,3.64.76a7.72,7.72,0,0,1,1.91-3l-3.35.13,3.29.42-3-.68a10.07,10.07,0,0,0,.5.9l3.36,2.87a4.11,4.11,0,0,0,.73.43,2.07,2.07,0,0,0,1.67.26c2.14-.27,4.26-1.51,6.18-2.34,0,0-1.5-.92-1.69-1-.67-.32-2-1.28-2.77-1.16a22.16,22.16,0,0,1-4.43.53c-.89,0-1.71.24-2.61.26l3.39,3.26c-.15-1.23,0-3-.71-4-.36-.54-3.16-.17-3.62-.07-1.77.38-1,.2-2.53,2.42l3.64.76a42.05,42.05,0,0,0-1.38-5.87c-.08-.31-3.28,1.32-3.45,1.5a6.72,6.72,0,0,0-2.31,3.26c-.25.48,1-.19.92-.14C112.35,76.06,113.74,75.6,114.05,75Z"/><path class="cls-11" d="M113.73,73.48a5.65,5.65,0,0,1,2.55-3.19L112,72.19a6.49,6.49,0,0,1,1.72,3.1c.18.47,3.7,1.12,4,.7l2.4-3-3.81.16,3.12.43L116.43,73c1.38,1.36,2.77,3.09,4.59,3.85,2.33,1,5.88-1.13,7.8-1.92,0,0-1.33-.83-1.5-.91-.6-.29-1.81-1.14-2.5-1a21,21,0,0,1-7.82.39l3.36,2.43a4.92,4.92,0,0,0-.21-3c-.25-.48-2.88-.15-3.21-.13-2.13.1-1.79.34-3.26,2.56l4,.7q-.56-2.94-1.29-5.85c-.06-.25-4.11,1.69-4.32,1.91a7.21,7.21,0,0,0-2.44,3.39c-.28.54,1.3-.34,1.17-.27.67-.34,1.33-.69,2-1A4.24,4.24,0,0,0,113.73,73.48Z"/><path class="cls-11" d="M114.39,74.35a5.66,5.66,0,0,1,2.58-3.2l-3.87,1.7a7.37,7.37,0,0,1,1.58,3.35c.15.46,3.42,1.13,3.67.73a7.62,7.62,0,0,1,2-3l-1,.12.45,0h-3l.94.43-.34-.31c.37,1,1.1,1.28,2,2,.5.43,1.82,1.76,2.74,2,2.36.52,5.5-1.37,7.46-2.22,0,0-1.42-.87-1.6-1-.63-.3-1.92-1.21-2.64-1.09a20.85,20.85,0,0,1-4.35.63c-.92,0-1.75.23-2.69.21l3.1,2.87a6.87,6.87,0,0,1-.16-2.51A1.18,1.18,0,0,0,121,73.8c-.31-.54-3.36-.15-3.78-.06-1.75.38-1,.21-2.49,2.46l3.67.73A60.18,60.18,0,0,0,117,71c-.06-.28-3.68,1.51-3.87,1.7A7,7,0,0,0,110.79,76c-.26.51,1.15-.26,1-.2C112.43,75.53,114.05,75,114.39,74.35Z"/><path class="cls-11" d="M114.4,75.6l2.29-2.94-2.44,1a8.85,8.85,0,0,1,1.19,3.71c.08.43,2.6,1.25,2.83.89l2-2.87-2.75.18,2.86.39-2.56-.63a9.26,9.26,0,0,0,2,2.5,9.94,9.94,0,0,0,1.47,1.43,2.7,2.7,0,0,0,2.1.54c2.13-.24,4.28-1.53,6.16-2.36,0,0-1.42-.82-1.61-.9-.66-.29-1.88-1.1-2.63-1a12.82,12.82,0,0,1-4.93.31,3.69,3.69,0,0,1-1.86.23l2.91,3c-.62-1.58.8-4-1.5-4a10.27,10.27,0,0,0-2.45.13c-1.1.32-1.14,1-2,2.14l2.83.89a37,37,0,0,0-1.37-5.87c-.1-.35-2.49,1-2.63,1.14-1.61,1.61-1.14.94-2.22,3.1-.21.42.78-.07.71,0C113.18,76.4,114.17,76,114.4,75.6Z"/><path class="cls-11" d="M112.32,92.51l1.3-2-3.38,1.44,2.55-.86-3.42.93c.93.3,4.57,2.09,6.3,1.52a8.58,8.58,0,0,0,2.69-1.93c-.06.06-2.83-2.27-3.39-1.78-1.34,1.17-2.24,2-4.13,1.94L114,93.28a1,1,0,0,1-.25-1.26,1.54,1.54,0,0,0-.15-1.52c-.08-.29-4.42,1.31-4.62,1.57l-1.35,1.71c-.3.39,1.62-.15,1.79-.2C110.14,93.38,111.89,93.19,112.32,92.51Z"/><path class="cls-11" d="M112.78,94l1.32-2-3.27,1.29,2.57-.87-3.47,1a36.69,36.69,0,0,0,5.57,1.87c1.43.13,2.64-1.32,3.53-2.17.18-.18-2-1.28-2-1.25-.15-.08-1.86-1.16-2.16-.87-1.2,1.14-2.1,2-3.87,2.11l3.82,1.82a1.32,1.32,0,0,1-.31-1.48,4,4,0,0,0,.1-1.58,24.84,24.84,0,0,0-4.77,1.36l-1.6,2c-.4.47,1.37-.09,1.22-.05.73-.2,1.46-.42,2.19-.65A4.2,4.2,0,0,0,112.78,94Z"/><path class="cls-11" d="M112.33,91.6l1.32-2-2.83,1.19,2.24-.77-2.9.81,2.08-.07-1.57,0c1.21.5,2.22,1.36,3.48,1.78,1.71.57,3.17-.71,4.49-1.69,0,0-1.85-1.56-2.35-1.19a5.72,5.72,0,0,1-4.35,1.47L114,92.22a13.93,13.93,0,0,0-.3-2.74c0-.25-3.8,1.17-4,1.4l-1.34,1.67c-.36.45,1.21,0,1.08,0C110,92.4,112,92.15,112.33,91.6Z"/><path class="cls-11" d="M112.34,95.8H114l-2.56-1.24a15,15,0,0,0,3.26,2.34c1.58.72,2.87-.79,3.88-1.85,0,0-3-2.27-3.48-1.82-1,.86-1.75,1.6-3.18,1.4l2.63,2q-.15-1.44-.42-2.88c0-.31-2.83.64-3,.83l-1.41,1.84c-.29.37.81.08.74.09A4.21,4.21,0,0,0,112.34,95.8Z"/><path class="cls-11" d="M112.1,94.6l1.32-2-3.08,1.23,2.45-.84-3.31.9a32.24,32.24,0,0,0,5.64,1.87c1.44,0,2.43-1.27,3.31-2.19.18-.18-2.11-1.3-2.06-1.28-.16-.07-2-1.19-2.26-.89-1.14,1.1-2,2-3.7,2.08l3.93,1.79c-.49-1-.24-1.76-.37-2.85a17.76,17.76,0,0,0-4.55,1.28l-1.57,1.94c-.38.47,1.3-.06,1.16,0C109.74,95.43,111.57,95.21,112.1,94.6Z"/><path class="cls-11" d="M112.39,93.25l1.4-2.15-3.58,1.5,2.69-.91-3.64,1A39.15,39.15,0,0,0,115,94.39c1.41.1,2.65-1.34,3.55-2.18.19-.17-1.93-1.23-1.88-1.2-.16-.09-1.78-1.11-2.08-.83-1.27,1.19-2.17,2.06-4,2.14l3.71,1.61c-.47-1-.12-1.75-.07-2.85,0,0-4.68,1-5,1.43l-1.64,1.95c-.41.5,1.46-.11,1.3-.06.78-.22,1.56-.45,2.33-.69A5.06,5.06,0,0,0,112.39,93.25Z"/><path class="cls-11" d="M112,95.13l1.32-2-2.24,1,1.88-.65-2.49.65c.19.1,3.31,2.1,4.59,2.21s2.4-1.25,3.21-2.09c0,0-3-2.3-3.52-1.84-1.09,1-1.9,1.72-3.46,1.6l2.93,1.83L113.86,93c0-.28-3.25.72-3.42.94l-1.51,1.92c-.32.4,1,0,.86.06C110.35,95.77,111.63,95.59,112,95.13Z"/><path class="cls-11" d="M113,92.69l1.31-2-3,1.26,2.4-.82-3.19.9c1,.38,3.8,2,5.46,1.78,1.32-.15,2.31-1.14,3.28-1.94-.06,0-2.56-2.08-3.12-1.61-1.24,1-2.48,1.86-4.12,1.72l2.75,1.43a10.54,10.54,0,0,1,.08-2.86s-4.08.94-4.39,1.29l-1.65,1.89c-.41.46,1.32-.07,1.15,0C110.63,93.51,112.47,93.3,113,92.69Z"/><path class="cls-11" d="M112.38,95.5h1.8l-3.57-1.07a20.15,20.15,0,0,0,4.48,2.23c1.59.41,2.72-1,3.7-2.05-.05.06-3.72-2.71-4.27-2.18-1.07,1-1.91,1.9-3.49,1.94l3.69,1.89a1.39,1.39,0,0,1-.35-1.41,2.68,2.68,0,0,0-.1-1.51c0-.29-3.82.88-4,1.12l-1.52,1.92c-.35.44,1.12,0,1,0C110.39,96.22,111.91,96,112.38,95.5Z"/><path class="cls-11" d="M112.08,93.93l1.32-2-3.21,1.27,2.51-.86-3.39.93A31.73,31.73,0,0,0,115,95.05c1.43,0,2.47-1.28,3.38-2.17-.08.08-3.49-2.61-4.07-2.07-1.2,1.13-2.09,2-3.84,2.07l3.75,1.71c-.48-1-.2-1.73-.25-2.83a22.09,22.09,0,0,0-4.67,1.32l-1.6,2c-.39.48,1.35-.08,1.2,0,.72-.19,1.43-.41,2.15-.63A4.2,4.2,0,0,0,112.08,93.93Z"/><path class="cls-11" d="M112.78,94.82l1.33-2-3,1.2,2.36-.81-3.18.87a33.46,33.46,0,0,0,5.33,2c1.43.17,2.61-1.3,3.46-2.17.18-.18-2.06-1.3-2-1.27-.15-.08-1.9-1.18-2.2-.89-1.13,1.08-2,2-3.68,2L115,95.59a1.29,1.29,0,0,1-.28-1.39,3.29,3.29,0,0,0,0-1.56,17,17,0,0,0-4.38,1.24l-1.56,1.93c-.37.46,1.24,0,1.1,0C110.53,95.61,112.26,95.41,112.78,94.82Z"/><path class="cls-11" d="M112.72,96.14l1.67,0-3.1-1.4A22.15,22.15,0,0,0,114.53,97c1.94,1,3.09-.15,4.47-1.64,0,0-3.33-2.5-3.87-2-1,.9-1.75,1.71-3.18,1.59l3,2a22.49,22.49,0,0,0-.4-3c-.06-.31-3.1.72-3.26.92l-1.41,1.84c-.31.39.88.06.8.08C111.18,96.75,112.34,96.58,112.72,96.14Z"/><path class="cls-11" d="M121.56,37.44c-1.39-.18-.88-.15-2.18,1.09a5.26,5.26,0,0,0-.62,1.75c-.11.4-.59,1.45-.39,1.82l.11.23c0,.11.1.13.19.06a14.57,14.57,0,0,0,2.27-2.34l.13-.2a19,19,0,0,1,1.86-5.39l-3.6,2.19a10.13,10.13,0,0,1,.84,4.28c0,.4,2.82.46,3.09.11a43,43,0,0,0,4.45-6.26L124.1,35a17,17,0,0,0,2.76,3.15c.85.69,2.35,2.59,3.53,2.66,1.86.11,2.54-2.18,3.57-3.33l-1,0,1.39.14L131.11,37l1.46,1.09a7.37,7.37,0,0,0,2.18,1.16s1.06.55.89.1c-.27-.7-.5-1.66-1.25-2a8.93,8.93,0,0,0-2.94-.57,2.05,2.05,0,0,0-1.21.16,1.14,1.14,0,0,0-.37.83c-.72.75-1.66.78-2.82.11l2.11,1.45a10.9,10.9,0,0,0-1.45-4.56c-.16-.43-3.36-.17-3.61.24a40.44,40.44,0,0,1-3.93,5.91l3.09.11a63,63,0,0,0-.29-6.73c0-.21-2,1-1.94,1-.37.24-1.6.8-1.7,1.35a43.84,43.84,0,0,0-.61,5.38l1.69-1.82-1-.33-.6,2.33,1.82-4.3L118.37,42l0,.16c0,.15,0,.24.17.11a9.5,9.5,0,0,0,1.24-1.7C119.87,40.41,121.65,37.45,121.56,37.44Z"/><path class="cls-11" d="M121.94,39.05c-1.28-.1-.8-.14-2,.92a4.34,4.34,0,0,0-.56,2.66l.12.28a.12.12,0,0,0,.19,0,13.42,13.42,0,0,0,1.82-1.68l.11-.15a18.39,18.39,0,0,1,1.82-5.3l-3.35,2a11.49,11.49,0,0,1,.57,4.51c0,.38,2.89.5,3.17.14a42.05,42.05,0,0,0,4.43-6.25l-3.68.24a13.27,13.27,0,0,0,2.47,3.05l2.73,2.22a1.36,1.36,0,0,0,1.09.63,1.86,1.86,0,0,0,1.64-.75c.76-.88,1.15-1.87,1.94-2.75l-.46.08.83.1-3.66-.9a3.38,3.38,0,0,1,1.34,1.12,7.2,7.2,0,0,0,2.26,1.19c.17.07,1.61.54,1.59.51a4.9,4.9,0,0,0-1.14-2.11,8.31,8.31,0,0,0-3-.77,3.21,3.21,0,0,0-1.94,0,1.45,1.45,0,0,0-.56.79,3.44,3.44,0,0,1-2,.61l2.43,2.26a38.14,38.14,0,0,0-1.9-5.51c-.17-.44-3.43-.18-3.68.24a39.73,39.73,0,0,1-3.92,5.87l3.17.14a44.65,44.65,0,0,0-.36-6.74c0-.24-1.86.89-1.8.86-.34.21-1.49.72-1.58,1.23a40.49,40.49,0,0,0-.37,4.81l1.15-1.13-.72-1.2-.57,2.43.2-.32-.38.18,0,.22c-.08.43,1.08-1.09,1.17-1.21A25.48,25.48,0,0,0,121.94,39.05Z"/><path class="cls-11" d="M121.65,36.22c-1.52-.18-.94-.16-2.35,1.24a5,5,0,0,0-.59,1.66c-.12.41-.55,1.33-.38,1.73l.11.25c0,.1.1.12.19.07a8.9,8.9,0,0,0,2.19-2l.11-.18a21.16,21.16,0,0,1,2.16-5.63L120,35.21a10.19,10.19,0,0,1,1.74,4.3c.08.29,1.54.62,1.74.37a40.48,40.48,0,0,0,4.47-6l-2.52.12c1.21,1.53,2.42,3.05,3.68,4.54.38.45,1,1.31,1.68,1.43,1.9.35,2.36-1.9,3.3-3.06l-1.86.21,2-.06-1.85-.17L134.06,38c.15.12,2,.95,1.83.58-.61-1.39-.36-1-1.83-1.82-.29-.17-2.42-.18-2.57.25-.46,1.33-.2,2.66-2.81.47l.81.93a15.08,15.08,0,0,0-1.5-4.59c-.13-.35-2.38-.1-2.52.13l-3.78,5.46,1.77.48c0-2.24-.17-4.47-.34-6.69,0-.18-1.21.53-1.32.6-.42.26-1.64.77-1.79,1.29a13,13,0,0,0-.91,3.82,10,10,0,0,1-.31,1.88l1.49-1.47-.8-1.5-1,3.09-.07.18s1.77-2.3,1.78-2.32A18,18,0,0,0,121.65,36.22Z"/><path class="cls-11" d="M121.48,40.56c-1.45-.3-1.74.74-1.78,2a.17.17,0,0,0,.15.2c.38.06.62.19.93.05a5,5,0,0,0,.48-.44,15.21,15.21,0,0,1,1.87-4.83l-1.8,1a13.56,13.56,0,0,1,.45,4.83c0,.38,1.51,1,1.76.69a40.8,40.8,0,0,0,4.36-5.9l-2.26.12a16.32,16.32,0,0,0,2.6,4c.32.34,1.67,2,2.24,2.07a2.92,2.92,0,0,0,1.21-.22,4.12,4.12,0,0,0,1.15-1.89,2.84,2.84,0,0,1,1-1.56l-.36.11.86.06-2.88-.74a2.49,2.49,0,0,1,1.07,1A7.33,7.33,0,0,0,135,42.55c-.07,0,1.22.67,1,.17a4,4,0,0,0-1.53-2.16,6.8,6.8,0,0,0-2.36-.56,2.38,2.38,0,0,0-1.84.42,3.52,3.52,0,0,1-2.33.91l1.85,2.11a3.46,3.46,0,0,1-.53-1.89,13.62,13.62,0,0,0-1.27-3.5c-.13-.35-2.11-.1-2.26.13l-3.91,5.19,1.76.69a31,31,0,0,0-.42-6.67c0-.21-1.72.79-1.8,1-.39,1.31-.83,2.6-1.34,3.88l.29.21,0-.36C120.48,42.73,121.78,40.62,121.48,40.56Z"/><path class="cls-11" d="M121.34,39.73c-1.15-.18-.73-.18-1.83.73a4.17,4.17,0,0,0-.43,2.55l.12.22a.14.14,0,0,0,.2,0,10.15,10.15,0,0,0,1.71-1.61,1.86,1.86,0,0,0,.38-1.42,13.63,13.63,0,0,1,1.32-3.82l-3.31,1.88a12.08,12.08,0,0,1,.22,4.6c0,.3,3.28.48,3.58.08a40.41,40.41,0,0,0,4.33-6.27l-3.84.26a10.38,10.38,0,0,0,2.37,2.92l3.08,2.35a1.56,1.56,0,0,0,1.13.65,1.75,1.75,0,0,0,1.58-.82c.72-.91,1.06-1.89,1.85-2.79l-.48.08.83.09-3.79-1a3.08,3.08,0,0,1,1.29,1.08,7.77,7.77,0,0,0,2.47,1.29c.21.1,1.72.57,1.73.59-.38-.85-.7-1.89-1.62-2.31a12.06,12.06,0,0,0-3.47-.83,2,2,0,0,0-1.65.41,1,1,0,0,1-.84.63,1.77,1.77,0,0,1-1.49.41l2.88,2.5a36.65,36.65,0,0,0-2-5.53c-.18-.44-3.58-.16-3.84.26a41.51,41.51,0,0,1-4.07,5.93l3.58.08a39.58,39.58,0,0,0-.45-6.7c0-.24-1.84.86-1.78.83-.31.19-1.51.71-1.57,1.19a15,15,0,0,0-.09,4.53l1-.92-.91-.24,0,1.48L120.6,40l-1.49,2.59-.13.52c-.1.39,1-1,1.09-1.11A13.17,13.17,0,0,0,121.34,39.73Z"/><path class="cls-11" d="M118.57,42.71q4.55-5.88,2.19-4.59a3.24,3.24,0,0,0-1.18,1.06c-.31.27-.5,1.41-.58,1.68s-.54,1.4-.35,1.75l.11.22c0,.11.1.13.19.06a11.56,11.56,0,0,0,2.27-2.39,2.38,2.38,0,0,0,.42-1.5,13.8,13.8,0,0,1,1.42-3.91l-3.73,2.27a10.14,10.14,0,0,1,.59,4.3c0,.35,3.21.4,3.5,0a43.56,43.56,0,0,0,4.42-6.28l-4,.26a13.32,13.32,0,0,0,2.69,3l2.8,2.18a1.41,1.41,0,0,0,1.08.58,2,2,0,0,0,1.63-.75c.78-.83,1.22-1.8,2-2.65l-.47.08.79.09-3.63-.9,1.42,1.12a7.42,7.42,0,0,0,2.15,1.15c.16.07,1.54.54,1.52.5A4.91,4.91,0,0,0,134.79,38a8.37,8.37,0,0,0-2.94-.78c-.51-.09-1.49-.31-1.95,0a1.3,1.3,0,0,0-.47.81,2.66,2.66,0,0,1-2.1.59l2.42,2.22a45.4,45.4,0,0,0-1.91-5.43c-.17-.44-3.71-.18-4,.26a41.25,41.25,0,0,1-4,6h3.5a56.05,56.05,0,0,0-.31-6.73c0-.21-2.07,1.07-2,1-.35.22-1.68.84-1.77,1.39a30.52,30.52,0,0,0-.38,5.16l1.63-1.45c.24-.59,2-4.34.36-2.13-.49.65-.92,1.34-1.35,2A10.46,10.46,0,0,1,118.57,42.71Z"/><path class="cls-11" d="M121.22,40.07c-1.58-.32-1.82.81-1.89,2.09,0,.14.23.44.38.4a1.92,1.92,0,0,0,1.27-.67c-.35.36,1.93-5.41,1.79-5.09L120.38,38a14.52,14.52,0,0,1,.42,5c0,.4,2.2.77,2.45.45a40.8,40.8,0,0,0,4.3-6l-2.73.09L126.26,40a21.39,21.39,0,0,0,1.6,1.56c.3.29,1.85,1.94,2.39,2a2.86,2.86,0,0,0,1.2-.24,4.47,4.47,0,0,0,1.16-1.84,3.11,3.11,0,0,1,1-1.55l-.39.09.86.08-3-.79a2.83,2.83,0,0,1,1.18,1.07,7.55,7.55,0,0,0,2.45,1.37c-.09,0,1.22.66,1,.17-.52-1.11-.89-2-2.09-2.32a11.26,11.26,0,0,0-2.2-.49c-1.62-.11-2.28,1.64-4,1.48l2.17,2.29a3.47,3.47,0,0,1-.64-2.06c-.41-1.2-.87-2.37-1.38-3.53-.14-.37-2.57-.14-2.73.09L120.8,43l2.45.45a33.92,33.92,0,0,0-.46-6.75c0-.12-2.34.81-2.39,1.18-.11.59-.2,1.18-.26,1.78.7,1.49.59,2.1-.31,1.84l-.07.72,0,0-.18-.27v.45C119.61,42.88,121.6,40.15,121.22,40.07Z"/><path class="cls-11" d="M122.16,37.48c-1.45-.09-.88-.14-2.21,1.15a5,5,0,0,0-.72,2.87l.11.29a.12.12,0,0,0,.19.06A12.36,12.36,0,0,0,121,40.6a2.55,2.55,0,0,0,.63-.64,20,20,0,0,1,2.1-5.54l-3.13,1.86A10.37,10.37,0,0,1,122,40.56c.09.42,1.8.77,2.06.45a43.23,43.23,0,0,0,4.44-6l-2.84.12c.86,1.14,1.69,2.28,2.65,3.33.67.72,1.82,2.48,2.91,2.59,1.91.21,2.48-2.1,3.49-3.28l-1.65.13,2.11.09-2.87-.41,1.45,1a6,6,0,0,0,1.88,1s.94.45.78,0a4.73,4.73,0,0,0-.95-1.85c-.26-.37-2.44-.46-2.87-.4-.59.08-.94,0-1.24.42a.89.89,0,0,0-.14.64c-.45.62-1.12.72-2,.3l1.24,1.52q-.87-2.68-1.88-5.33c-.16-.43-2.69-.14-2.91.23L122,40.56l2.06.45q0-3.37-.31-6.73c0-.18-1.22.53-1.33.59-.41.25-1.66.77-1.8,1.28a51.69,51.69,0,0,0-1,5.32l1.2-1.19-.7-1.35-.72,2.62-.08.22s1.57-2,1.59-2A14.46,14.46,0,0,0,122.16,37.48Z"/><path class="cls-11" d="M121.64,40.47c-1.54-.25-1.82.77-1.91,2.05,0,.23.17.62.43.53a1.9,1.9,0,0,0,1.22-.71c-.56.62,2-5.7,1.73-5.16l-2.76,1.35a14.51,14.51,0,0,1,.25,5c0,.36,2.74.69,3,.33a39.39,39.39,0,0,0,4.34-6.2l-3.32.22a10.69,10.69,0,0,0,2.1,3l2.87,2.38a1.55,1.55,0,0,0,1.14.73,1.61,1.61,0,0,0,1.59-.84c.69-1,.95-2,1.73-2.92l-.45.07.87.09-3.58-1a2.87,2.87,0,0,1,1.16,1.08,7.32,7.32,0,0,0,2.47,1.35c.21.1,1.71.58,1.72.62-.4-.87-.74-1.92-1.68-2.37a11.59,11.59,0,0,0-3.28-.86,1.86,1.86,0,0,0-1.64.44,3.59,3.59,0,0,1-2.36,1.11L130,43.25A42.17,42.17,0,0,0,128,37.62c-.18-.44-3.07-.18-3.32.22a38.72,38.72,0,0,1-4,5.65l3,.33a34.8,34.8,0,0,0-.49-6.76s-2.74.83-2.78,1.47a25.91,25.91,0,0,1-.4,3.83l.33.55-.08-1.33-.08,1.18v0l-.18-.29,0,.48C119.86,43.45,122,40.53,121.64,40.47Z"/><path class="cls-11" d="M121.34,39c-1.22-.18-.77-.16-1.93.83a5.26,5.26,0,0,0-.66,3l.12.21c0,.08.11.1.19,0a12.83,12.83,0,0,0,2-2,2.13,2.13,0,0,0,.39-1.46,13.71,13.71,0,0,1,1.36-3.85l-3.48,2.06a11,11,0,0,1,.37,4.45c0,.32,3.25.44,3.55,0A42.4,42.4,0,0,0,127.59,36l-3.87.26a11.53,11.53,0,0,0,2.51,3l2.94,2.27a1.46,1.46,0,0,0,1.09.61,1.9,1.9,0,0,0,1.59-.79c.75-.87,1.14-1.84,1.93-2.7l-.47.08.81.09-3.67-.92A3.4,3.4,0,0,1,131.82,39a7.56,7.56,0,0,0,2.28,1.21c.18.08,1.61.55,1.61.54-.34-.82-.64-1.85-1.51-2.25a11,11,0,0,0-3.35-.77,1.8,1.8,0,0,0-1.62.42.9.9,0,0,1-.74.67,1.8,1.8,0,0,1-1.57.36l2.64,2.35a36.79,36.79,0,0,0-2-5.47c-.17-.44-3.61-.17-3.87.26a40.89,40.89,0,0,1-4,6l3.55,0a44.08,44.08,0,0,0-.4-6.7c0-.23-1.93,1-1.87.92-.33.21-1.58.76-1.65,1.28a39,39,0,0,0-.25,4.84l1.28-1.34-.9-.27-.27,1.87,1.36-3.55-1.73,3-.15.54c-.07.23.08.08.16.11.23.06.93-1.22,1-1.41A20.69,20.69,0,0,0,121.34,39Z"/><path class="cls-11" d="M121.94,39.85c-1.2-.13-.73-.18-1.86.81-.16.14-.46,2-.12,2.06a1.17,1.17,0,0,0,1-.26,4.4,4.4,0,0,0,.72-.64,19,19,0,0,1,1.79-5.26l-3,1.61a12.93,12.93,0,0,1,.46,4.75c0,.38,2.69.6,3,.26a39.72,39.72,0,0,0,4.4-6.22l-3.41.23a12.71,12.71,0,0,0,2.26,3.06l2.72,2.29a1.47,1.47,0,0,0,1.11.68,1.72,1.72,0,0,0,1.63-.78c.73-.93,1.05-1.93,1.84-2.84l-.45.08.86.1-3.63-.91A3.18,3.18,0,0,1,132.5,40a6.86,6.86,0,0,0,2.37,1.23c.18.08,1.66.55,1.66.54-.35-.84-.65-1.9-1.56-2.31a11.14,11.14,0,0,0-3.32-.76,1.8,1.8,0,0,0-1.59.43,1,1,0,0,1-.81.69,1.53,1.53,0,0,1-1.45.37l2.49,2.36a38.07,38.07,0,0,0-2-5.58c-.16-.44-3.16-.18-3.41.23A38.81,38.81,0,0,1,121,42.92l3,.26a38.15,38.15,0,0,0-.42-6.75s-2.89,1-3,1.74c.11-.75-.51,6-.24,4.38l.71-.46-.9-.23.21.57,0-1.23-.26,1.47.19-.24L120,42.3l-.06.5C119.82,43.34,122.26,39.88,121.94,39.85Z"/><path class="cls-11" d="M121.92,40.86c-1.44-.28-1.72.75-1.78,2,0,.12.08.17.18.19.39.08.58.2.89.07a4.91,4.91,0,0,0,.48-.43,14.87,14.87,0,0,1,1.83-4.81l-1.87,1.06a13.83,13.83,0,0,1,.41,4.84c0,.39,1.64,1,1.89.68a41.06,41.06,0,0,0,4.35-5.94l-2.42.12a14.24,14.24,0,0,0,2.66,4c.32.32,1.81,2,2.36,2.13a2.74,2.74,0,0,0,1.24-.19,4.15,4.15,0,0,0,1.17-1.94,2.84,2.84,0,0,1,1-1.6l-.39.09.89.07-3.19-.85a2.46,2.46,0,0,1,1,1c.51.69,2,1.14,2.69,1.49-.06,0,1.3.72,1.07.21-.35-.81-.65-1.8-1.53-2.2a9.81,9.81,0,0,0-2.61-.66,2.3,2.3,0,0,0-1.88.39,3.76,3.76,0,0,1-2.29,1L130.27,44a4,4,0,0,1-.64-2.14,21.17,21.17,0,0,0-1.28-3.52c-.13-.36-2.27-.11-2.42.12l-3.87,5.24,1.89.68a32,32,0,0,0-.43-6.7c0-.19-1.79.8-1.87,1.06a35.81,35.81,0,0,1-1.23,3.8l.31.19.06-.37C120.94,43,122.23,40.92,121.92,40.86Z"/><polygon class="cls-12" points="183.05 52.05 100 4.11 16.95 52.05 16.95 147.95 100 195.9 183.05 147.95 183.05 52.05"/></svg>